<svg width="470" height="470" viewBox="0 0 470 470" fill="none" xmlns="http://www.w3.org/2000/svg">
<path d="M337.462 58.8774C336.115 59.3257 335.217 59.3257 333.87 59.7739C332.075 60.2221 329.83 61.1186 327.585 62.0151L326.688 62.4634L327.585 63.3598C329.381 65.1528 331.177 66.9458 332.972 67.8422C342.849 74.1176 352.725 77.2553 363.499 76.3588C368.438 75.9106 373.825 75.9106 379.212 75.9106C383.701 75.9106 388.639 75.9106 393.577 76.3588C396.72 76.3588 399.862 77.2553 403.005 78.1518C404.352 78.6 405.698 78.6 407.045 79.0483C407.045 79.0483 407.045 79.0483 407.494 79.0483C403.454 67.394 391.333 57.5327 380.559 56.188C372.927 55.2915 364.846 55.2915 353.623 56.188C347.787 56.188 342.4 57.5327 337.462 58.8774Z" fill="#E2E2E2"/>
<path d="M89.2028 387.433C96.3856 387.433 103.568 386.985 110.302 386.089C107.16 380.71 102.671 376.676 96.3856 372.193C88.305 366.814 78.8775 365.47 69.0011 363.677H68.1033C62.2673 362.78 55.5334 361.884 49.2484 359.643C45.657 358.746 42.0656 356.953 38.9231 355.16C37.5764 354.264 36.2296 353.815 34.8828 353.367C37.1274 360.987 40.7189 369.504 47.9017 375.779C54.1866 381.606 62.2673 383.399 70.3479 385.192C75.735 386.985 82.02 387.433 89.2028 387.433Z" fill="#E2E2E2"/>
<path d="M140.391 408.505C141.289 408.505 141.737 408.057 142.635 408.057C141.289 406.712 140.391 405.367 139.044 404.471C128.719 396.402 117.944 393.265 105.374 393.713C96.396 394.161 86.5196 394.161 76.6432 393.713C73.5008 393.713 69.9094 392.816 66.7669 391.92C65.4201 391.472 64.0733 391.472 62.7266 391.023C67.2158 403.126 78.8879 412.987 91.4578 414.332C105.374 415.677 118.393 414.78 130.963 410.746C133.657 409.85 136.799 408.953 140.391 408.505Z" fill="#E2E2E2"/>
<path d="M215.365 429.572C213.121 428.675 210.876 427.33 209.081 427.33C201.898 425.986 194.715 425.538 187.532 426.882C184.839 427.33 182.145 428.675 179.451 429.572C178.554 430.02 178.105 430.02 177.207 430.468C174.513 431.813 171.371 433.158 168.677 434.054C163.29 436.295 157.903 438.985 152.516 440.778C148.476 442.122 144.435 443.019 140.395 443.915C138.599 444.364 136.804 444.364 135.457 444.812C135.457 444.812 135.457 444.812 135.008 444.812C139.946 449.294 144.884 452.432 150.72 454.673C157.903 457.363 165.086 457.363 172.718 454.673C183.043 451.087 192.919 446.157 201.898 439.433C205.04 437.192 208.183 434.502 211.774 432.261L215.365 429.572C215.365 429.572 215.365 429.572 215.365 429.572Z" fill="#E2E2E2"/>
<path d="M60.9523 140.457L61.8502 143.146C64.9927 140.457 67.6862 136.871 69.9309 132.837C74.4201 123.424 76.6647 114.907 76.2158 105.942C75.7669 95.6327 75.7669 85.7714 76.2158 77.7031C76.2158 74.5654 77.1137 71.4277 77.5626 68.29C78.0115 66.9453 78.0115 65.6006 78.4604 64.7041C78.4604 64.2559 78.4604 63.8076 78.9094 63.3594C63.197 70.5312 55.5652 82.1855 55.1163 98.3221C54.6674 109.528 56.0142 119.838 58.7077 129.699C59.1566 132.837 60.0545 136.423 60.9523 140.457Z" fill="#E2E2E2"/>
<path d="M32.2206 206.343C34.0163 209.032 36.2609 211.721 38.5056 214.411L39.8524 216.204C42.5459 211.273 43.4438 206.791 43.4438 202.757C44.3416 193.792 42.5459 184.827 38.5056 176.759C34.4652 168.242 30.8738 160.174 28.1803 152.554C26.8335 148.968 25.9357 144.934 25.4867 141.348C25.0378 139.555 25.0378 138.21 24.5889 136.417C24.5889 136.417 24.5889 136.417 24.5889 135.969C19.2018 141.348 15.6104 148.071 13.3658 156.14C11.5701 163.311 13.3658 170.035 15.6104 176.759C19.2018 188.413 26.3846 198.722 32.2206 206.343Z" fill="#E2E2E2"/>
<path d="M455.544 200.97C446.116 191.557 434.893 184.833 422.323 178.109C422.323 178.558 422.323 179.006 422.323 179.454C422.323 182.144 421.874 184.833 422.772 187.522C425.466 198.28 429.506 205.9 435.342 211.727C437.587 213.969 440.28 216.21 442.525 218.451C446.116 222.037 450.157 225.175 453.748 229.209C457.339 232.795 460.033 237.277 463.175 241.311V241.76C464.522 243.552 465.42 244.897 466.767 246.69C466.767 246.69 466.767 246.69 466.767 247.138C469.011 240.415 470.358 235.036 469.909 229.657C469.46 216.21 462.278 207.693 455.544 200.97Z" fill="#E2E2E2"/>
<path d="M407.524 327.823V327.375C404.382 330.064 402.137 333.202 399.893 337.236C394.954 347.098 392.71 355.614 393.608 364.579C394.057 372.647 394.505 381.164 394.057 389.68C394.057 393.715 393.159 397.749 392.261 401.335C391.812 402.679 391.812 404.472 391.363 405.817C391.363 406.265 391.363 406.714 390.914 407.162C403.484 402.231 412.911 390.577 414.258 378.923C415.605 366.82 414.707 355.614 412.014 344.856C410.667 338.581 409.32 332.754 407.524 327.823Z" fill="#E2E2E2"/>
<path d="M371.583 374.433C367.542 381.156 366.196 388.328 364.849 395.948C364.4 397.741 364.4 399.534 363.951 401.327C362.155 409.844 359.911 417.912 357.666 425.98L357.217 428.221C356.768 430.463 355.87 432.256 354.523 434.497C356.319 434.049 357.666 434.049 359.013 433.6C372.032 428.67 380.112 420.601 383.704 408.947C388.642 392.362 388.193 375.329 386.397 359.641C379.214 363.227 374.725 369.502 371.583 374.433Z" fill="#E2E2E2"/>
<path d="M379.693 82.6328C372.51 82.6328 365.328 83.0811 358.594 83.5293C361.736 88.9082 366.226 93.3906 372.959 97.4248C381.04 102.804 390.467 104.148 400.344 105.493L402.588 105.941C407.078 106.39 411.567 107.286 416.056 108.631C419.648 109.527 423.239 111.32 426.83 112.665C428.177 113.113 429.973 114.01 431.32 114.458C432.218 114.906 433.115 115.354 434.462 115.803C432.666 109.079 430.871 104.148 427.728 99.666C420.545 89.3564 409.771 86.2187 400.344 84.4258C393.61 83.0811 387.325 82.6328 379.693 82.6328Z" fill="#E2E2E2"/>
<path d="M422.329 291.961C418.738 296.892 416.493 301.822 415.595 306.753C413.8 316.614 413.8 325.131 416.493 333.199C417.391 336.337 417.84 339.923 418.738 343.06C419.187 345.75 419.636 347.991 420.085 350.68C421.88 358.301 422.329 366.369 421.88 373.541C426.818 369.955 430.859 366.369 433.552 361.438C438.49 353.37 440.286 344.853 438.49 334.096C436.246 323.338 428.614 302.27 422.329 291.961Z" fill="#E2E2E2"/>
<path d="M302.472 35.1171C306.961 32.8759 311.899 31.0829 316.838 29.29C320.878 27.9453 324.918 27.0488 328.51 26.1523C330.305 25.7041 331.652 25.7041 333.448 25.2558H333.897C326.265 18.084 317.735 14.0498 307.41 13.6016C304.268 13.6016 300.676 14.498 297.534 15.3945H297.085C283.617 18.9804 271.945 27.0488 262.518 33.7724C259.824 35.5654 257.579 37.8066 254.886 39.5995L253.539 40.496H253.988C256.233 41.3925 257.579 41.8407 259.375 42.289C266.109 44.0819 273.292 44.5302 280.924 42.7372C284.515 41.8407 288.106 40.9442 292.147 39.1513C295.289 37.8066 298.881 36.4618 302.023 35.1171H302.472Z" fill="#E2E2E2"/>
<path d="M445.666 276.725C442.074 271.346 438.034 265.967 434.443 261.036C433.096 259.243 431.749 257.45 430.402 255.657C429.953 255.209 429.953 254.761 429.504 254.312C426.362 261.036 425.464 267.76 425.913 276.725C426.362 284.345 429.504 291.516 432.647 298.24L433.096 299.137C435.789 305.412 438.932 311.687 441.177 317.963C442.523 322.445 443.421 326.927 444.319 331.41C444.319 332.306 444.768 333.651 444.768 334.548C452.849 327.376 458.236 312.136 455.991 302.722C453.746 291.965 450.604 283.448 445.666 276.725Z" fill="#E2E2E2"/>
<path d="M134.125 63.3621C135.921 61.1209 136.819 57.9833 137.717 54.8456C138.166 53.5009 138.615 52.6044 138.615 51.2597C142.655 39.1572 147.593 26.6064 156.123 16.2969C154.327 16.2969 152.531 16.7451 151.185 16.7451C136.819 18.5381 126.494 26.1582 120.209 40.5019C115.719 49.9149 113.026 61.1209 111.679 73.2234C111.23 75.9129 110.781 79.0506 110.781 81.74V83.0847C113.475 82.1883 117.515 80.3953 119.311 79.0506C125.147 73.6717 130.085 68.741 134.125 63.3621Z" fill="#E2E2E2"/>
<path d="M95.5256 99.2146C100.464 91.5945 103.606 83.078 104.953 73.6649C105.402 70.5272 105.851 67.3895 106.749 64.2519C107.198 61.5624 108.096 58.4247 108.544 55.7353C109.442 49.9082 111.687 44.9775 113.483 40.0469C113.932 38.7021 114.381 37.3574 115.278 36.4609C108.544 38.2539 103.606 40.0469 99.117 43.1845C88.7917 50.3564 85.6493 61.1142 83.8536 70.9755C81.16 84.4227 82.0579 98.3181 83.4046 111.317C87.8939 107.731 91.9342 104.145 95.5256 99.2146Z" fill="#E2E2E2"/>
<path d="M49.2668 352.922C58.2453 356.059 68.1216 357.404 77.5491 358.301H78.4469C79.7937 358.301 81.5894 358.749 82.9362 358.749C82.4873 356.956 81.5894 355.611 80.6916 354.266C74.8555 343.957 66.3259 336.785 55.5517 332.751C53.756 331.854 51.9603 331.406 50.1646 330.51C46.5732 329.165 42.084 327.372 38.0436 326.027C30.4119 323.338 23.2291 319.304 15.1484 313.477C15.5974 326.924 20.0866 336.785 29.514 343.957C34.9012 347.991 41.1861 350.232 47.0221 352.474L49.2668 352.922Z" fill="#E2E2E2"/>
<path d="M305.174 40.9502C300.236 43.1914 295.747 45.4326 291.258 47.6738C296.196 51.2597 301.134 53.5009 306.97 54.8456C310.562 55.2939 313.704 55.7421 317.296 55.7421C324.029 55.7421 331.212 54.3974 339.293 52.1562C350.965 48.5702 361.29 47.6738 370.718 48.122C371.167 48.122 371.615 48.122 372.064 48.122C368.024 42.7431 363.535 38.2607 358.148 35.123C353.21 31.9853 347.373 30.6406 341.089 30.6406C337.946 30.6406 334.804 31.0889 331.212 31.5371C322.683 33.7783 313.704 36.916 305.174 40.9502Z" fill="#E2E2E2"/>
<path d="M39.8421 287.927C42.0868 289.271 43.8825 290.168 46.1271 291.512L47.025 291.961C47.4739 289.271 47.4739 285.237 47.025 282.548C45.2293 274.479 41.6378 267.307 36.2507 261.032C32.2104 256.55 28.1701 252.964 23.6808 248.93C22.783 248.033 21.8851 247.137 20.9873 246.24C13.3555 239.068 7.5195 231.896 3.03025 223.828C-2.35686 236.379 -0.561154 252.067 8.41736 262.377C16.0491 272.238 26.3744 280.306 39.8421 287.927Z" fill="#E2E2E2"/>
<path d="M400.791 112.668C397.2 112.22 393.159 111.771 389.119 111.323L385.977 110.875C385.977 111.323 385.977 111.323 386.426 111.771C389.568 119.84 395.404 125.667 401.24 130.598C406.627 135.08 413.361 137.321 419.646 139.562C420.993 140.011 421.891 140.459 423.237 140.907C432.216 144.045 443.439 148.527 453.764 156.596C452.866 140.907 447.03 130.598 435.358 123.874C425.482 118.047 414.708 114.909 400.791 112.668Z" fill="#E2E2E2"/>
<path d="M47.0226 178.105C50.6141 173.623 52.8587 168.692 53.7565 163.761C55.5522 154.797 55.5522 147.177 54.2054 140.453C53.7565 138.212 53.3076 136.419 52.4098 134.626C51.5119 131.936 51.063 129.247 50.1651 126.109C48.3694 117.144 46.5737 107.283 47.4716 97.4219C42.5334 100.56 38.942 104.594 35.7995 109.076C29.9635 117.593 28.6167 127.454 31.7592 140.901C34.9017 154.797 41.1866 167.347 47.0226 178.105Z" fill="#E2E2E2"/>
<path d="M332.55 413.434C331.203 416.123 330.306 419.261 329.408 421.95C328.061 426.432 326.265 430.467 324.47 434.949C322.225 439.431 319.531 443.914 316.838 447.948C315.94 449.741 314.593 451.534 313.695 453.327C315.94 453.327 319.531 453.327 321.776 452.879C333.897 450.189 342.427 443.914 347.814 433.156C354.548 419.709 356.792 404.917 358.588 392.366C359.037 390.573 359.037 388.78 359.037 386.987V386.539C346.467 391.021 337.937 400.435 332.55 413.434Z" fill="#E2E2E2"/>
<path d="M163.288 415.673C159.247 414.776 155.207 414.328 151.167 414.328C145.331 414.328 139.046 415.225 132.312 417.018C121.089 420.155 110.763 421.5 100.887 421.5C99.5403 421.5 97.7446 421.5 96.3979 421.5C95.9489 421.5 95.9489 421.5 95.5 421.5C97.7446 425.086 100.438 427.775 103.581 430.465C112.559 437.637 122.436 439.878 134.557 438.085C150.269 435.395 164.635 428.672 176.756 422.396C173.164 418.811 168.675 417.018 163.288 415.673Z" fill="#E2E2E2"/>
<path d="M290.335 422.401C287.193 422.401 284.499 422.85 281.806 423.298C275.072 424.643 268.787 427.332 262.951 431.814C260.257 434.056 257.564 436.745 255.319 438.986C254.421 440.331 253.074 441.227 252.177 442.572C250.83 443.917 249.483 445.262 248.136 446.606C244.994 449.744 242.3 452.882 238.709 456.019C235.566 458.709 231.975 461.398 228.383 463.639C227.037 464.536 225.241 465.881 223.894 466.777C223.894 466.777 223.894 466.777 223.445 466.777C230.179 469.018 235.566 470.363 240.953 469.915C253.074 469.467 261.604 462.743 271.031 452.882C279.561 443.469 285.846 432.711 291.682 421.953C291.233 421.953 290.784 421.953 290.335 422.401Z" fill="#E2E2E2"/>
<path d="M184.835 47.6704C190.223 47.2222 195.161 45.4292 201.446 41.395C205.037 39.1538 208.18 36.9126 210.424 34.6714C213.567 31.5337 217.158 27.9478 220.301 24.8101C224.341 20.776 228.381 16.2935 232.87 12.2594C235.564 9.56994 238.707 7.77698 241.4 5.98401C242.747 5.08753 244.094 4.19105 245.44 3.29457C245.44 3.29457 245.44 3.29457 245.889 3.29457C238.258 0.156882 231.075 -0.739597 223.443 0.605125C214.913 1.94985 208.18 7.32873 203.241 11.8111C192.018 22.1207 184.835 34.6714 178.102 46.7739C179.897 47.2222 183.04 47.6704 184.835 47.6704Z" fill="#E2E2E2"/>
<path d="M432.648 218.455C431.75 217.559 430.403 216.662 429.506 215.766V216.214C429.057 218.455 428.608 220.696 428.608 222.937C428.159 235.04 431.75 246.246 439.382 255.659C444.769 262.383 449.258 269.555 453.748 276.278C455.543 279.416 456.89 282.553 458.237 286.139C458.686 287.484 459.135 288.829 460.033 290.174C460.033 290.622 460.481 291.07 460.481 291.518C463.624 286.588 465.869 281.657 466.766 276.278C468.562 266.865 466.317 257.9 459.584 247.142C452.401 236.385 443.422 227.868 432.648 218.455Z" fill="#E2E2E2"/>
<path d="M253.971 430.024C251.277 429.576 246.339 428.68 242.747 428.68C242.299 428.68 241.401 428.68 240.952 428.68C230.626 430.024 222.097 433.162 215.363 438.541C209.976 443.023 205.487 446.161 200.548 448.851C194.712 451.988 188.876 455.126 183.489 458.264C181.694 459.16 180.347 460.057 179 460.953C183.489 463.642 188.427 465.884 193.815 466.78C203.242 468.573 212.221 466.332 222.995 459.608C234.667 451.988 243.645 441.679 251.726 432.714L253.971 430.024Z" fill="#E2E2E2"/>
<path d="M33.9986 249.83C35.7943 251.175 37.1411 252.519 38.9368 253.864L39.3857 254.312C40.7325 248.485 41.1814 243.106 39.8347 237.279C38.0389 228.314 34.4475 220.694 29.0604 213.971C24.5712 208.143 20.0819 201.42 15.5927 194.696C13.797 191.559 12.0013 187.524 10.6545 184.387C10.2056 183.042 9.30772 181.697 8.85879 179.904C8.85879 179.456 8.40986 179.456 8.40986 179.008C0.778131 190.214 -0.568648 205.902 5.26738 216.66C12.0013 227.866 20.9798 238.176 33.9986 249.83Z" fill="#E2E2E2"/>
<path d="M215.383 40.0477C221.219 41.3924 226.606 41.8407 232.442 40.496C241.869 38.703 249.052 35.1171 255.786 30.1864C261.622 25.704 267.907 21.2216 275.539 16.7392C278.681 14.9462 282.273 13.6015 285.415 12.2568C286.762 11.8086 288.109 11.3603 289.456 10.4638C289.904 10.0156 290.802 10.0156 291.251 9.56735C285.415 5.53319 277.335 2.84375 269.254 2.84375C263.867 2.84375 258.929 3.74023 255.337 5.98143C244.114 11.8086 233.789 19.8769 222.566 32.4276C220.77 34.6688 218.974 36.91 216.73 39.1512L215.383 40.0477Z" fill="#E2E2E2"/>
<path d="M412.903 144.488L407.516 142.695C407.516 143.144 407.516 143.144 407.516 143.592C409.76 155.246 416.494 165.107 427.268 172.727C430.86 175.417 434.9 177.658 438.94 180.348C440.287 181.244 441.185 181.692 442.532 182.589C451.51 187.968 458.244 193.795 464.08 200.518L464.529 200.967C464.978 200.07 464.978 199.174 464.978 198.725C466.774 183.485 462.285 171.383 450.612 162.866C440.736 155.246 429.064 149.867 412.903 144.488Z" fill="#E2E2E2"/>
<path d="M56.8969 325.583C58.2437 326.031 60.0394 326.479 61.8351 326.928H62.284C61.8351 323.342 60.9373 319.756 59.1416 316.17C54.2034 306.757 47.9184 299.585 39.8378 295.102C32.6549 291.068 25.9211 287.034 19.6361 282.103C16.0447 279.414 12.9022 276.276 9.75974 273.139C8.41296 271.794 7.06619 270.449 5.71941 269.553C5.27049 269.105 5.27048 269.104 4.82156 268.656C3.92371 274.035 3.47479 280.759 5.71941 287.931C7.96404 295.551 12.4533 301.826 18.7383 306.308C28.1657 314.377 40.2867 320.204 56.8969 325.583Z" fill="#E2E2E2"/>
<path d="M200.56 5.5371C197.417 5.08886 194.724 4.64062 192.03 4.64062C189.786 4.64062 187.541 4.64062 185.745 5.08886C175.869 6.88182 168.686 11.3642 162.401 19.4326C152.525 32.8798 147.138 47.6717 142.648 61.1189C145.791 61.1189 150.729 60.6707 152.974 59.326C162.401 54.3953 169.584 48.12 174.073 40.4999C175.42 37.8104 177.216 35.5692 178.562 32.8798C179.909 30.6386 181.256 28.3974 182.603 26.6044C187.092 18.5361 192.928 11.8125 200.56 5.5371Z" fill="#E2E2E2"/>
<path d="M292.586 434.056C286.301 444.813 279.567 455.571 269.242 464.536C272.385 464.984 275.078 465.432 277.772 465.432C281.812 465.432 285.852 464.984 289.444 463.639C297.076 460.95 303.361 456.019 309.197 447.951C317.277 436.297 322.215 423.298 325.807 412.54C326.256 411.195 326.705 409.402 327.154 407.609C321.766 408.506 316.828 410.299 311.89 412.988C304.258 417.919 297.973 424.643 292.586 434.056Z" fill="#E2E2E2"/>
<path d="M203.006 131.075C201.609 131.075 199.862 131.781 198.814 132.84C198.115 133.899 195.32 140.607 195.32 140.607H276.019C276.019 140.607 273.224 133.899 272.526 132.84C271.827 131.781 269.731 131.075 268.333 131.075C264.84 131.075 251.215 131.075 241.783 131.075V119.426C249.119 116.955 254.709 109.541 254.709 101.422C254.709 90.8317 246.325 82.3594 235.844 82.3594C225.364 82.3594 216.98 90.8317 216.98 101.422C216.98 109.895 222.22 116.955 229.905 119.426V131.075C220.124 131.075 206.15 131.075 203.006 131.075ZM228.159 101.069C228.159 96.833 231.303 93.6558 235.495 93.6558C239.687 93.6558 242.831 96.833 242.831 101.069C242.831 105.305 239.687 108.482 235.495 108.482C231.303 108.482 228.159 105.305 228.159 101.069Z" fill="#E2E2E2"/>
<path d="M234.264 381.264L234.842 380.977L235.42 381.264C235.42 381.264 235.42 380.977 235.42 380.403C242.068 374.374 249.873 370.642 258.255 366.623C259.7 366.049 261.435 365.188 262.88 364.327C277.333 357.15 288.028 348.537 296.121 337.341L301.613 341.36L304.215 319.255L283.403 327.867L288.895 332.173C281.09 341.647 272.708 350.26 260.568 353.13C259.122 353.417 257.677 353.705 255.943 353.705C246.115 353.705 238.888 345.953 238.888 335.905C238.888 329.59 238.888 321.551 238.888 315.236C249.873 315.236 259.989 315.236 261.435 315.236C262.591 315.236 264.036 314.661 264.903 313.8C265.481 312.939 267.794 307.484 267.794 307.484H201.601C201.601 307.484 203.913 312.939 204.491 313.8C205.069 314.661 206.803 315.236 207.96 315.236C209.405 315.236 219.522 315.236 230.506 315.236C230.506 321.551 230.506 329.59 230.506 335.905C230.506 345.953 222.991 353.705 213.452 353.705C212.006 353.705 210.561 353.417 208.827 353.13C196.687 350.26 188.304 341.647 180.5 332.173L185.992 327.867L165.18 319.255L167.781 341.36L173.273 337.341C181.367 348.537 192.351 357.437 206.514 364.327C207.96 365.188 209.694 365.762 211.139 366.623C219.522 370.642 227.615 374.374 233.975 380.403C234.264 380.977 234.264 381.264 234.264 381.264Z" fill="#E2E2E2"/>
</svg>
