<svg width="1443" height="1225" viewBox="0 0 1443 1225" fill="none" xmlns="http://www.w3.org/2000/svg">
<path d="M1160.5 127.5L1251.63 209.604L1397.25 343.207C1513.46 459.708 1392 831.555 1159 651.5" stroke="white" stroke-dasharray="4 4"/>
<path d="M181 62.5008C222.333 16.1675 332.8 -48.6992 444 62.5008M841 62.5008C882.333 16.1675 992.8 -48.6992 1104 62.5008M511 121.102C552.333 167.435 662.8 232.302 774 121.102" stroke="white" stroke-dasharray="4 4"/>
<path d="M181 583.501C222.333 537.167 332.8 472.301 444 583.501M841 583.501C882.333 537.167 992.8 472.301 1104 583.501M511 642.102C552.333 688.435 662.8 753.302 774 642.102" stroke="white" stroke-dasharray="4 4"/>
<path d="M181 1104.4C222.333 1058.07 332.8 993.199 444 1104.4M841 1104.4C882.333 1058.07 992.8 993.199 1104 1104.4M511 1163C552.333 1209.33 662.8 1274.2 774 1163" stroke="white" stroke-dasharray="4 4"/>
<path d="M180.997 1104.5C222.331 1058.17 332.797 993.3 443.997 1104.5M510.997 1163.1C552.331 1209.43 662.797 1274.3 773.997 1163.1M121.487 645C43.4939 693 -105.504 1131 121.487 1171.5" stroke="white" stroke-dasharray="4 4"/>
</svg>
