<svg width="169" height="170" viewBox="0 0 169 170" fill="none" xmlns="http://www.w3.org/2000/svg">
<path d="M142.276 23.3414C143.742 24.5709 144.979 26.1271 145.736 27.8138L145.727 27.8124C145.479 27.7711 145.276 27.7362 145.076 27.6698L145.066 27.6664L145.056 27.6634L145.022 27.6538C143.923 27.3396 142.744 27.0028 141.551 26.9985C139.761 26.837 137.974 26.837 136.372 26.837H136.363H136.349C134.423 26.837 132.467 26.837 130.67 27.0003C126.931 27.3114 123.488 26.2262 120.004 24.0095L119.983 23.9957L119.96 23.9842C119.456 23.7325 118.931 23.2379 118.343 22.654C119.027 22.3824 119.664 22.1398 120.18 22.0108L120.199 22.0061L120.217 22.0001C120.426 21.9302 120.601 21.895 120.803 21.8546L120.809 21.8533C121.006 21.8139 121.229 21.7693 121.495 21.6817C123.264 21.1994 125.141 20.7343 127.162 20.7343H127.182L127.201 20.7327C131.217 20.4115 134.087 20.4132 136.787 20.7307C138.605 20.9585 140.576 21.9143 142.276 23.3414Z" stroke="white"/>
<path d="M24.4202 131.467L24.458 131.473H24.4962H24.774C25.0358 131.52 25.296 131.567 25.5543 131.613C28.8178 132.198 31.7992 132.732 34.382 134.451C36.3476 135.856 37.7791 137.11 38.8275 138.646C36.6574 138.9 34.3711 139.028 32.0832 139.028C29.5115 139.028 27.3187 138.866 25.4615 138.247L25.437 138.238L25.4118 138.233C22.4833 137.582 19.717 136.956 17.5723 134.965L17.5669 134.96L17.5614 134.955C15.3802 133.046 14.145 130.524 13.3367 128.098C13.468 128.162 13.5972 128.235 13.7263 128.321L13.7406 128.331L13.7555 128.34C14.8902 128.988 16.2203 129.657 17.5712 129.999C19.674 130.746 21.908 131.085 23.8569 131.381C24.0475 131.41 24.2354 131.438 24.4202 131.467Z" stroke="white"/>
<path d="M50.2795 146.584C50.2938 146.599 50.3084 146.615 50.3232 146.632C49.0304 146.803 47.9011 147.127 46.9427 147.447C42.5027 148.874 37.8936 149.195 32.9435 148.716C28.9317 148.285 25.1471 145.303 23.3882 141.505C23.5575 141.535 23.7082 141.567 23.8562 141.617L23.8665 141.62L23.877 141.623C25.0025 141.945 26.3495 142.286 27.5541 142.288C31.1147 142.449 34.6767 142.449 37.9183 142.287C42.3266 142.131 46.0825 143.228 49.6956 146.056L49.7106 146.068L49.7264 146.078C49.9166 146.205 50.0855 146.37 50.2795 146.584Z" stroke="white"/>
<path d="M54.3777 163.274C52.6565 162.612 51.1579 161.726 49.6865 160.513C49.9619 160.477 50.2808 160.434 50.6021 160.354L50.6074 160.353C52.0528 160.031 53.5267 159.704 55.004 159.211C56.3175 158.774 57.649 158.182 58.9541 157.602C59.5883 157.32 60.2162 157.041 60.8328 156.784C61.8243 156.452 62.9687 155.961 63.9479 155.471C64.0756 155.408 64.1682 155.376 64.2859 155.337L64.2895 155.336C64.4061 155.297 64.5448 155.251 64.7221 155.165C65.046 155.056 65.3781 154.927 65.6971 154.803C65.8555 154.741 66.0105 154.681 66.1598 154.625C66.6367 154.446 67.0842 154.299 67.5192 154.226L67.5192 154.226L67.5292 154.224C70.032 153.755 72.5488 153.909 75.0933 154.386L75.139 154.394H75.1854C75.4 154.394 75.6829 154.478 76.0608 154.638C76.1906 154.692 76.3228 154.752 76.4611 154.815L75.8708 155.257C75.0368 155.78 74.244 156.387 73.4994 156.957C73.0886 157.271 72.6924 157.574 72.312 157.846L72.3119 157.846L72.3026 157.853C69.1215 160.239 65.6176 161.992 61.9457 163.269L61.9436 163.27C59.3043 164.201 56.8434 164.198 54.3777 163.274Z" stroke="white"/>
<path d="M26.9027 38.1745L26.9029 38.1777C27.0587 41.2945 26.284 44.2738 24.6976 47.6091C24.0507 48.7711 23.3052 49.813 22.4654 50.6563L22.3963 50.4488C22.3227 50.118 22.2497 49.7981 22.1791 49.4883C21.9375 48.4284 21.7231 47.4876 21.6016 46.6376L21.5972 46.6068L21.589 46.5767C20.6331 43.0717 20.1556 39.41 20.3149 35.4285L20.3149 35.4285L20.3151 35.4224C20.3936 32.5943 21.0989 30.1882 22.4496 28.1815C23.6288 26.4296 25.3166 24.957 27.5606 23.7724C27.559 23.7808 27.5575 23.7891 27.556 23.7974C27.5529 23.8144 27.5499 23.8312 27.5468 23.8479C27.5084 24.0605 27.4743 24.2484 27.4122 24.4349L27.3979 24.4777L27.3915 24.5223C27.3393 24.8881 27.2713 25.2446 27.201 25.6139C27.1645 25.8049 27.1275 25.9993 27.0916 26.2001C26.99 26.769 26.9036 27.3639 26.9023 27.9688C26.7405 30.8922 26.741 34.4553 26.9027 38.1745Z" stroke="white"/>
<path d="M11.9975 74.0351L11.9885 74.0216L11.9787 74.0088C9.88652 71.2729 7.35051 67.6189 6.08665 63.5114L6.08678 63.5113L6.0831 63.5003C5.27865 61.0869 4.67989 58.7895 5.28515 56.3604C5.9725 53.8887 7.01238 51.7962 8.50052 50.0664C8.50158 50.0738 8.50265 50.0813 8.50371 50.0887L8.50476 50.0961C8.5435 50.3673 8.58558 50.6618 8.66769 50.9974C8.83407 52.3114 9.16309 53.7892 9.65878 55.1124C10.6358 57.8799 11.9354 60.8025 13.3896 63.8725L13.3895 63.8725L13.3942 63.882C14.8073 66.7082 15.4325 69.8423 15.1196 72.9713L15.1171 72.9961V73.0211C15.1171 74.2007 14.893 75.4978 14.2414 76.9181L14.2338 76.9079L14.2255 76.898C13.4145 75.9248 12.6256 74.9773 11.9975 74.0351Z" stroke="white"/>
<path d="M168.471 82.748C168.6 84.3042 168.291 85.8789 167.7 87.8015C167.666 87.7551 167.633 87.7087 167.6 87.6621L167.599 87.6605C167.426 87.4179 167.25 87.1718 167.047 86.899V86.732L166.942 86.5965C166.571 86.12 166.223 85.6325 165.868 85.1356C165.688 84.8824 165.505 84.6269 165.317 84.369C164.77 83.6202 164.191 82.8727 163.521 82.2019C162.861 81.4596 162.162 80.8029 161.477 80.1779C161.331 80.0453 161.187 79.9144 161.043 79.7845C160.502 79.2946 159.977 78.8191 159.475 78.3173C159.063 77.9053 158.612 77.4951 158.172 77.0945L158.167 77.0902C157.721 76.685 157.286 76.2895 156.893 75.8959C154.874 73.8774 153.457 71.2223 152.504 67.4112L152.5 67.3926L152.494 67.3744C152.356 66.9619 152.317 66.5376 152.317 66.0797C152.317 65.8497 152.327 65.618 152.337 65.3741L152.337 65.3692C152.343 65.2414 152.348 65.1102 152.352 64.9771C156.564 67.2631 160.295 69.5747 163.45 72.7288C165.848 75.1271 168.314 78.0773 168.469 82.7231L168.469 82.7356L168.471 82.748Z" stroke="white"/>
<path d="M144.233 121.681C144.869 120.536 145.495 119.618 146.272 118.826C146.805 120.434 147.23 122.289 147.66 124.297L147.662 124.305L147.664 124.313C148.618 128.131 148.937 132.106 148.459 136.404C148.032 140.099 145.215 143.849 141.329 145.747C141.347 145.637 141.363 145.531 141.377 145.431L141.38 145.409C141.422 145.116 141.457 144.881 141.521 144.69L141.527 144.672L141.531 144.653C141.854 143.362 142.19 141.863 142.192 140.348C142.354 137.254 142.191 134.166 142.03 131.267L142.029 131.256L142.028 131.245C141.718 128.146 142.486 125.178 144.233 121.681Z" stroke="white"/>
<path d="M131.685 142.716L131.689 142.699L131.692 142.682C132.178 139.932 132.651 137.439 134.047 135.109C135.069 133.504 136.447 131.576 138.533 130.318C139.104 135.73 139.171 141.512 137.501 147.132C136.263 151.155 133.487 153.954 128.934 155.683C128.78 155.734 128.622 155.766 128.434 155.797C128.664 155.327 128.838 154.855 128.946 154.316L128.457 154.218L128.946 154.316L129.104 153.527C129.908 150.632 130.717 147.719 131.365 144.644C131.451 144.295 131.494 143.95 131.533 143.638L131.535 143.626C131.576 143.298 131.613 143.005 131.685 142.716Z" stroke="white"/>
<path d="M134.382 34.6698L134.372 34.6632L134.362 34.6571C132.303 33.4216 130.861 32.0789 129.809 30.5254C131.981 30.3845 134.255 30.2588 136.526 30.2588C139.248 30.2588 141.474 30.4188 143.853 30.8948L143.853 30.8948L143.858 30.8957C147.222 31.5365 150.924 32.6359 153.388 36.1785L153.389 36.1797C154.314 37.502 154.908 38.9465 155.462 40.8469C155.413 40.8224 155.363 40.7977 155.313 40.7728L155.282 40.7569L155.248 40.7456C155.03 40.6729 154.768 40.5611 154.48 40.4375L154.467 40.4322C154.197 40.3164 153.903 40.1902 153.643 40.103C153.223 39.9454 152.81 39.7733 152.388 39.5973C152.171 39.5068 151.951 39.4152 151.727 39.3241C151.079 39.061 150.411 38.8094 149.734 38.6392C148.102 38.1504 146.468 37.823 144.833 37.6578L144.05 37.5012L144.034 37.4981L144.019 37.4961C140.449 37.0093 137.177 36.533 134.382 34.6698Z" stroke="white"/>
<path d="M150.246 119.858L150.243 119.848L150.239 119.838C149.306 117.039 149.297 114.063 149.934 110.561C150.203 109.081 150.829 107.586 151.826 106.075C152.827 107.87 153.904 110.341 154.846 112.847C155.909 115.675 156.786 118.509 157.183 120.411C157.807 124.166 157.182 127.108 155.473 129.905L155.466 129.915L155.46 129.926C154.697 131.326 153.609 132.42 152.249 133.486C152.312 131.149 152.115 128.613 151.547 126.193C151.467 125.711 151.386 125.269 151.307 124.831L151.306 124.83C151.225 124.385 151.145 123.945 151.065 123.465L151.061 123.437L151.053 123.41C150.898 122.868 150.781 122.283 150.659 121.673L150.657 121.663C150.537 121.065 150.413 120.443 150.246 119.858Z" stroke="white"/>
<path d="M93.3853 14.7455C93.0013 14.6495 92.6774 14.554 92.2974 14.4194C92.6602 14.1548 93.0012 13.8758 93.33 13.6067L93.3385 13.5998C93.7854 13.2341 94.2108 12.8866 94.6714 12.5796L94.6781 12.5751L94.6846 12.5704C98.0642 10.1564 102.172 7.31852 106.89 6.04511H106.985H107.055L107.123 6.02588C108.25 5.70388 109.476 5.40147 110.526 5.39942C113.753 5.54207 116.474 6.69304 118.936 8.76362L118.933 8.76396C118.654 8.80385 118.35 8.84726 118.002 8.93424C117.754 8.99625 117.498 9.05867 117.236 9.12262C116.151 9.38741 114.958 9.67846 113.768 10.0749L113.768 10.0748L113.756 10.0794L113.741 10.0848C112.013 10.7129 110.255 11.3524 108.644 12.1478H108.599H108.497L108.402 12.1882C107.844 12.4275 107.245 12.6674 106.638 12.91L106.635 12.9113C106.032 13.1525 105.422 13.3965 104.851 13.6411L104.851 13.641L104.845 13.6437C103.438 14.2692 102.186 14.5832 100.895 14.9061C98.2425 15.5295 95.745 15.3747 93.3929 14.7475L93.3929 14.7474L93.3853 14.7455Z" stroke="white"/>
<path d="M159.836 99.9336L159.843 99.9429L159.849 99.9519C161.566 102.292 162.676 105.281 163.476 109.121L163.477 109.128L163.479 109.135C163.852 110.701 163.597 112.817 162.868 114.886C162.263 116.602 161.352 118.23 160.273 119.432C160.27 119.401 160.268 119.374 160.268 119.35V119.301L160.259 119.252L160.256 119.241C159.935 117.634 159.608 116 159.117 114.364L159.113 114.351L159.109 114.339C158.564 112.814 157.868 111.274 157.181 109.755C156.842 109.007 156.506 108.264 156.192 107.531L156.186 107.517L156.18 107.504L156.021 107.187C154.89 104.763 153.805 102.263 153.649 99.629C153.509 96.8234 153.742 94.6758 154.546 92.6113L155.815 94.3034C156.089 94.6802 156.369 95.0633 156.653 95.4513C157.714 96.8991 158.824 98.4155 159.836 99.9336Z" stroke="white"/>
<path d="M47.8337 22.5054L47.8289 22.5115L47.8242 22.5178C46.4037 24.4117 44.6615 26.1577 42.5776 28.0822C42.2954 28.2894 41.8193 28.548 41.2741 28.8011C40.9627 28.9457 40.6393 29.0837 40.3332 29.2042C40.3557 28.3328 40.4983 27.3384 40.6461 26.4513L40.6484 26.4379L40.6499 26.4244C41.1302 22.1011 42.0886 18.1241 43.6714 14.8001L43.6749 14.7929L43.6781 14.7855C44.7803 12.2662 46.2252 10.3624 48.0023 9.01031C49.7717 7.664 51.8953 6.84563 54.3913 6.52938C54.5921 6.52691 54.8107 6.50249 55.0215 6.47515C52.3329 10.0729 50.7033 14.2835 49.3641 18.3012L49.3384 18.3782V18.4593C49.3384 18.7493 49.2715 18.9375 49.1575 19.2579C49.1229 19.3551 49.0839 19.4645 49.0412 19.5926L49.0378 19.6029L49.0348 19.6134C48.7042 20.7704 48.4043 21.7922 47.8337 22.5054Z" stroke="white"/>
<path d="M35.9231 15.9637L35.9243 15.9628C37.2116 15.0618 38.6146 14.4755 40.4413 13.9335C40.4065 14.0316 40.3749 14.1268 40.345 14.2166C40.3403 14.2307 40.3356 14.2448 40.331 14.2587C40.2018 14.6139 40.0638 14.9741 39.9233 15.341C39.3799 16.7597 38.7981 18.2788 38.5338 19.9939C38.4561 20.4593 38.3391 20.9672 38.2175 21.4942L38.2154 21.5031C38.0981 22.0118 37.9765 22.5385 37.8933 23.03C37.5662 24.1837 37.4021 25.3328 37.2433 26.4445L37.2412 26.4594C36.7673 29.7765 35.6641 32.7706 33.9338 35.4482C32.8737 36.9035 31.6992 38.0277 30.3924 39.1152C29.9656 34.7158 29.7492 30.1109 30.6394 25.6596L30.6395 25.6596L30.6411 25.651C31.2819 22.1264 32.3822 18.427 35.9231 15.9637Z" stroke="white"/>
<path d="M17.8803 126.626L17.8473 126.615L17.8131 126.608L17.0477 126.455C16.9078 126.401 16.7677 126.347 16.6274 126.294C14.6539 125.538 12.6481 124.771 10.9139 123.471C7.90651 121.179 6.34378 118.095 6.00443 113.9C8.59978 115.699 10.9844 116.992 13.513 117.884L13.513 117.884L13.5213 117.887C14.5635 118.234 15.685 118.664 16.7203 119.06C17.1079 119.209 17.4835 119.353 17.8383 119.486C18.1766 119.653 18.5116 119.779 18.8212 119.895L18.8309 119.898C19.157 120.021 19.4557 120.133 19.7514 120.281L19.7749 120.293L19.7995 120.302C23.5644 121.714 26.5392 124.218 28.5796 127.828L28.5886 127.844L28.5988 127.86C28.7742 128.123 28.9344 128.365 29.0664 128.618L29.0658 128.618C28.7978 128.58 28.4858 128.535 28.2077 128.535H27.9086C24.534 128.213 21.0417 127.733 17.8803 126.626Z" stroke="white"/>
<path d="M109.938 15.2012L109.938 15.2012L109.945 15.1978C112.97 13.7647 116.157 12.6477 119.189 11.848C119.323 11.8312 119.455 11.8145 119.585 11.798C120.706 11.656 121.676 11.5332 122.645 11.5332C124.834 11.5332 126.834 12.0022 128.51 13.0693L128.519 13.0745L128.527 13.0793C130.113 14.0046 131.485 15.2742 132.739 16.8065C129.457 16.7055 125.874 17.067 121.859 18.3017C118.976 19.1021 116.444 19.573 114.089 19.573C112.962 19.573 111.962 19.4466 110.824 19.3026C110.706 19.2876 110.586 19.2725 110.464 19.2572C108.712 18.8501 107.196 18.2117 105.706 17.2368C107.071 16.5563 108.447 15.8786 109.938 15.2012Z" stroke="white"/>
<mask id="path-18-inside-1_906_54548" fill="white">
<path d="M109.9 14.7461C109.722 14.7461 109.722 14.7461 109.9 14.7461V14.7461Z"/>
</mask>
<path d="M109.9 13.7461C109.9 13.7461 109.899 13.7461 109.899 13.7461C109.898 13.7461 109.898 13.7461 109.898 13.7461C109.897 13.7461 109.897 13.7461 109.897 13.7461C109.896 13.7461 109.896 13.7461 109.896 13.7461C109.895 13.7461 109.895 13.7461 109.895 13.7461C109.894 13.7461 109.894 13.7461 109.894 13.7461C109.893 13.7461 109.893 13.7461 109.893 13.7461C109.892 13.7461 109.892 13.7461 109.892 13.7461C109.891 13.7461 109.891 13.7461 109.891 13.7461C109.89 13.7461 109.89 13.7461 109.89 13.7461C109.889 13.7461 109.889 13.7461 109.889 13.7461C109.888 13.7461 109.888 13.7461 109.888 13.7461C109.887 13.7461 109.887 13.7461 109.887 13.7461C109.886 13.7461 109.886 13.7461 109.886 13.7461C109.885 13.7461 109.885 13.7461 109.885 13.7461C109.884 13.7461 109.884 13.7461 109.884 13.7461C109.883 13.7461 109.883 13.7461 109.883 13.7461C109.882 13.7461 109.882 13.7461 109.882 13.7461C109.881 13.7461 109.881 13.7461 109.881 13.7461C109.88 13.7461 109.88 13.7461 109.88 13.7461C109.879 13.7461 109.879 13.7461 109.879 13.7461C109.879 13.7461 109.878 13.7461 109.878 13.7461C109.878 13.7461 109.877 13.7461 109.877 13.7461C109.877 13.7461 109.876 13.7461 109.876 13.7461C109.876 13.7461 109.875 13.7461 109.875 13.7461C109.875 13.7461 109.874 13.7461 109.874 13.7461C109.874 13.7461 109.873 13.7461 109.873 13.7461C109.873 13.7461 109.873 13.7461 109.872 13.7461C109.872 13.7461 109.872 13.7461 109.871 13.7461C109.871 13.7461 109.871 13.7461 109.87 13.7461C109.87 13.7461 109.87 13.7461 109.869 13.7461C109.869 13.7461 109.869 13.7461 109.869 13.7461C109.868 13.7461 109.868 13.7461 109.868 13.7461C109.867 13.7461 109.867 13.7461 109.867 13.7461C109.866 13.7461 109.866 13.7461 109.866 13.7461C109.865 13.7461 109.865 13.7461 109.865 13.7461C109.865 13.7461 109.864 13.7461 109.864 13.7461C109.864 13.7461 109.863 13.7461 109.863 13.7461C109.863 13.7461 109.863 13.7461 109.862 13.7461C109.862 13.7461 109.862 13.7461 109.861 13.7461C109.861 13.7461 109.861 13.7461 109.86 13.7461C109.86 13.7461 109.86 13.7461 109.86 13.7461C109.859 13.7461 109.859 13.7461 109.859 13.7461C109.858 13.7461 109.858 13.7461 109.858 13.7461C109.858 13.7461 109.857 13.7461 109.857 13.7461C109.857 13.7461 109.856 13.7461 109.856 13.7461C109.856 13.7461 109.856 13.7461 109.855 13.7461C109.855 13.7461 109.855 13.7461 109.854 13.7461C109.854 13.7461 109.854 13.7461 109.854 13.7461C109.853 13.7461 109.853 13.7461 109.853 13.7461C109.852 13.7461 109.852 13.7461 109.852 13.7461C109.852 13.7461 109.851 13.7461 109.851 13.7461C109.851 13.7461 109.85 13.7461 109.85 13.7461C109.85 13.7461 109.85 13.7461 109.849 13.7461C109.849 13.7461 109.849 13.7461 109.849 13.7461C109.848 13.7461 109.848 13.7461 109.848 13.7461C109.847 13.7461 109.847 13.7461 109.847 13.7461C109.847 13.7461 109.846 13.7461 109.846 13.7461C109.846 13.7461 109.846 13.7461 109.845 13.7461C109.845 13.7461 109.845 13.7461 109.845 13.7461C109.844 13.7461 109.844 13.7461 109.844 13.7461C109.843 13.7461 109.843 13.7461 109.843 13.7461C109.843 13.7461 109.842 13.7461 109.842 13.7461C109.842 13.7461 109.842 13.7461 109.841 13.7461C109.841 13.7461 109.841 13.7461 109.841 13.7461C109.84 13.7461 109.84 13.7461 109.84 13.7461C109.84 13.7461 109.839 13.7461 109.839 13.7461C109.839 13.7461 109.839 13.7461 109.838 13.7461C109.838 13.7461 109.838 13.7461 109.837 13.7461C109.837 13.7461 109.837 13.7461 109.837 13.7461C109.836 13.7461 109.836 13.7461 109.836 13.7461C109.836 13.7461 109.835 13.7461 109.835 13.7461C109.835 13.7461 109.835 13.7461 109.834 13.7461C109.834 13.7461 109.834 13.7461 109.834 13.7461C109.833 13.7461 109.833 13.7461 109.833 13.7461C109.833 13.7461 109.832 13.7461 109.832 13.7461C109.832 13.7461 109.832 13.7461 109.832 13.7461C109.831 13.7461 109.831 13.7461 109.831 13.7461C109.831 13.7461 109.83 13.7461 109.83 13.7461C109.83 13.7461 109.83 13.7461 109.829 13.7461C109.829 13.7461 109.829 13.7461 109.829 13.7461C109.828 13.7461 109.828 13.7461 109.828 13.7461C109.828 13.7461 109.827 13.7461 109.827 13.7461C109.827 13.7461 109.827 13.7461 109.826 13.7461C109.826 13.7461 109.826 13.7461 109.826 13.7461C109.826 13.7461 109.825 13.7461 109.825 13.7461C109.825 13.7461 109.825 13.7461 109.824 13.7461C109.824 13.7461 109.824 13.7461 109.824 13.7461C109.823 13.7461 109.823 13.7461 109.823 13.7461C109.823 13.7461 109.823 13.7461 109.822 13.7461C109.822 13.7461 109.822 13.7461 109.822 13.7461C109.821 13.7461 109.821 13.7461 109.821 13.7461C109.821 13.7461 109.821 13.7461 109.82 13.7461C109.82 13.7461 109.82 13.7461 109.82 13.7461C109.819 13.7461 109.819 13.7461 109.819 13.7461C109.819 13.7461 109.819 13.7461 109.818 13.7461C109.818 13.7461 109.818 13.7461 109.818 13.7461C109.817 13.7461 109.817 13.7461 109.817 13.7461C109.817 13.7461 109.817 13.7461 109.816 13.7461C109.816 13.7461 109.816 13.7461 109.816 13.7461C109.816 13.7461 109.815 13.7461 109.815 13.7461C109.815 13.7461 109.815 13.7461 109.815 13.7461C109.814 13.7461 109.814 13.7461 109.814 13.7461C109.814 13.7461 109.813 13.7461 109.813 13.7461C109.813 13.7461 109.813 13.7461 109.813 13.7461C109.812 13.7461 109.812 13.7461 109.812 13.7461C109.812 13.7461 109.812 13.7461 109.811 13.7461C109.811 13.7461 109.811 13.7461 109.811 13.7461C109.811 13.7461 109.81 13.7461 109.81 13.7461C109.81 13.7461 109.81 13.7461 109.81 13.7461C109.809 13.7461 109.809 13.7461 109.809 13.7461C109.809 13.7461 109.809 13.7461 109.808 13.7461C109.808 13.7461 109.808 13.7461 109.808 13.7461C109.808 13.7461 109.807 13.7461 109.807 13.7461C109.807 13.7461 109.807 13.7461 109.807 13.7461C109.806 13.7461 109.806 13.7461 109.806 13.7461C109.806 13.7461 109.806 13.7461 109.806 13.7461C109.805 13.7461 109.805 13.7461 109.805 13.7461C109.805 13.7461 109.805 13.7461 109.804 13.7461C109.804 13.7461 109.804 13.7461 109.804 13.7461C109.804 13.7461 109.803 13.7461 109.803 13.7461C109.803 13.7461 109.803 13.7461 109.803 13.7461C109.803 13.7461 109.802 13.7461 109.802 13.7461C109.802 13.7461 109.802 13.7461 109.802 13.7461C109.801 13.7461 109.801 13.7461 109.801 13.7461C109.801 13.7461 109.801 13.7461 109.801 13.7461C109.8 13.7461 109.8 13.7461 109.8 13.7461C109.8 13.7461 109.8 13.7461 109.8 13.7461C109.799 13.7461 109.799 13.7461 109.799 13.7461C109.799 13.7461 109.799 13.7461 109.799 13.7461C109.798 13.7461 109.798 13.7461 109.798 13.7461C109.798 13.7461 109.798 13.7461 109.797 13.7461C109.797 13.7461 109.797 13.7461 109.797 13.7461C109.797 13.7461 109.797 13.7461 109.796 13.7461C109.796 13.7461 109.796 13.7461 109.796 13.7461C109.796 13.7461 109.796 13.7461 109.796 13.7461C109.795 13.7461 109.795 13.7461 109.795 13.7461C109.795 13.7461 109.795 13.7461 109.795 13.7461C109.794 13.7461 109.794 13.7461 109.794 13.7461C109.794 13.7461 109.794 13.7461 109.794 13.7461C109.793 13.7461 109.793 13.7461 109.793 13.7461C109.793 13.7461 109.793 13.7461 109.793 13.7461C109.792 13.7461 109.792 13.7461 109.792 13.7461C109.792 13.7461 109.792 13.7461 109.792 13.7461C109.792 13.7461 109.791 13.7461 109.791 13.7461C109.791 13.7461 109.791 13.7461 109.791 13.7461C109.791 13.7461 109.791 13.7461 109.79 13.7461C109.79 13.7461 109.79 13.7461 109.79 13.7461C109.79 13.7461 109.79 13.7461 109.789 13.7461C109.789 13.7461 109.789 13.7461 109.789 13.7461C109.789 13.7461 109.789 13.7461 109.789 13.7461C109.788 13.7461 109.788 13.7461 109.788 13.7461C109.788 13.7461 109.788 13.7461 109.788 13.7461C109.788 13.7461 109.787 13.7461 109.787 13.7461C109.787 13.7461 109.787 13.7461 109.787 13.7461C109.787 13.7461 109.787 13.7461 109.787 13.7461C109.786 13.7461 109.786 13.7461 109.786 13.7461C109.786 13.7461 109.786 13.7461 109.786 13.7461C109.786 13.7461 109.785 13.7461 109.785 13.7461C109.785 13.7461 109.785 13.7461 109.785 13.7461C109.785 13.7461 109.785 13.7461 109.785 13.7461C109.784 13.7461 109.784 13.7461 109.784 13.7461C109.784 13.7461 109.784 13.7461 109.784 13.7461C109.784 13.7461 109.784 13.7461 109.783 13.7461C109.783 13.7461 109.783 13.7461 109.783 13.7461C109.783 13.7461 109.783 13.7461 109.783 13.7461C109.783 13.7461 109.782 13.7461 109.782 13.7461C109.782 13.7461 109.782 13.7461 109.782 13.7461C109.782 13.7461 109.782 13.7461 109.782 13.7461C109.781 13.7461 109.781 13.7461 109.781 13.7461C109.781 13.7461 109.781 13.7461 109.781 13.7461C109.781 13.7461 109.781 13.7461 109.781 13.7461C109.78 13.7461 109.78 13.7461 109.78 13.7461C109.78 13.7461 109.78 13.7461 109.78 13.7461C109.78 13.7461 109.78 13.7461 109.78 13.7461C109.779 13.7461 109.779 13.7461 109.779 13.7461C109.779 13.7461 109.779 13.7461 109.779 13.7461C109.779 13.7461 109.779 13.7461 109.779 13.7461C109.778 13.7461 109.778 13.7461 109.778 13.7461C109.778 13.7461 109.778 13.7461 109.778 13.7461C109.778 13.7461 109.778 13.7461 109.778 13.7461C109.777 13.7461 109.777 13.7461 109.777 13.7461C109.777 13.7461 109.777 13.7461 109.777 13.7461C109.777 13.7461 109.777 13.7461 109.777 13.7461C109.777 13.7461 109.776 13.7461 109.776 13.7461C109.776 13.7461 109.776 13.7461 109.776 13.7461C109.776 13.7461 109.776 13.7461 109.776 13.7461C109.776 13.7461 109.776 13.7461 109.776 13.7461C109.775 13.7461 109.775 13.7461 109.775 13.7461C109.775 13.7461 109.775 13.7461 109.775 13.7461C109.775 13.7461 109.775 13.7461 109.775 13.7461C109.775 13.7461 109.775 13.7461 109.774 13.7461C109.774 13.7461 109.774 13.7461 109.774 13.7461C109.774 13.7461 109.774 13.7461 109.774 13.7461C109.774 13.7461 109.774 13.7461 109.774 13.7461C109.774 13.7461 109.774 13.7461 109.773 13.7461C109.773 13.7461 109.773 13.7461 109.773 13.7461C109.773 13.7461 109.773 13.7461 109.773 13.7461C109.773 13.7461 109.773 13.7461 109.773 13.7461C109.773 13.7461 109.773 13.7461 109.773 13.7461C109.772 13.7461 109.772 13.7461 109.772 13.7461C109.772 13.7461 109.772 13.7461 109.772 13.7461C109.772 13.7461 109.772 13.7461 109.772 13.7461C109.772 13.7461 109.772 13.7461 109.772 13.7461C109.772 13.7461 109.771 13.7461 109.771 13.7461C109.771 13.7461 109.771 13.7461 109.771 13.7461C109.771 13.7461 109.771 13.7461 109.771 13.7461C109.771 13.7461 109.771 13.7461 109.771 13.7461C109.771 13.7461 109.771 13.7461 109.771 13.7461C109.771 13.7461 109.77 13.7461 109.77 13.7461C109.77 13.7461 109.77 13.7461 109.77 13.7461C109.77 13.7461 109.77 13.7461 109.77 13.7461C109.77 13.7461 109.77 13.7461 109.77 13.7461C109.77 13.7461 109.77 13.7461 109.77 13.7461C109.77 13.7461 109.77 13.7461 109.77 13.7461C109.769 13.7461 109.769 13.7461 109.769 13.7461C109.769 13.7461 109.769 13.7461 109.769 13.7461C109.769 13.7461 109.769 13.7461 109.769 13.7461C109.769 13.7461 109.769 13.7461 109.769 13.7461C109.769 13.7461 109.769 13.7461 109.769 13.7461C109.769 13.7461 109.769 13.7461 109.769 13.7461C109.769 13.7461 109.769 13.7461 109.768 13.7461C109.768 13.7461 109.768 13.7461 109.768 13.7461C109.768 13.7461 109.768 13.7461 109.768 13.7461C109.768 13.7461 109.768 13.7461 109.768 13.7461C109.768 13.7461 109.768 13.7461 109.768 13.7461C109.768 13.7461 109.768 13.7461 109.768 13.7461C109.768 13.7461 109.768 13.7461 109.768 13.7461C109.768 13.7461 109.768 13.7461 109.768 13.7461C109.768 13.7461 109.768 13.7461 109.767 13.7461C109.767 13.7461 109.767 13.7461 109.767 13.7461C109.767 13.7461 109.767 13.7461 109.767 13.7461C109.767 13.7461 109.767 13.7461 109.767 13.7461C109.767 13.7461 109.767 13.7461 109.767 13.7461C109.767 13.7461 109.767 13.7461 109.767 13.7461C109.767 13.7461 109.767 13.7461 109.767 13.7461C109.767 13.7461 109.767 13.7461 109.767 13.7461C109.767 13.7461 109.767 13.7461 109.767 13.7461C109.767 13.7461 109.767 13.7461 109.767 13.7461C109.767 13.7461 109.767 13.7461 109.767 13.7461C109.767 13.7461 109.767 13.7461 109.767 13.7461C109.767 13.7461 109.767 13.7461 109.767 13.7461C109.766 13.7461 109.766 13.7461 109.766 13.7461C109.766 13.7461 109.766 13.7461 109.766 13.7461C109.766 13.7461 109.766 13.7461 109.766 13.7461C109.766 13.7461 109.766 13.7461 109.766 13.7461C109.766 13.7461 109.766 13.7461 109.766 13.7461C109.766 13.7461 109.766 13.7461 109.766 13.7461C109.766 13.7461 109.766 13.7461 109.766 13.7461C109.766 13.7461 109.766 13.7461 109.766 13.7461C109.766 13.7461 109.766 13.7461 109.766 13.7461C109.766 13.7461 109.766 13.7461 109.766 13.7461C109.766 13.7461 109.766 13.7461 109.766 13.7461C109.766 13.7461 109.766 13.7461 109.766 13.7461C109.766 13.7461 109.766 13.7461 109.766 13.7461C109.766 13.7461 109.766 13.7461 109.766 14.7461C109.766 15.7461 109.766 15.7461 109.766 15.7461C109.766 15.7461 109.766 15.7461 109.766 15.7461C109.766 15.7461 109.766 15.7461 109.766 15.7461C109.766 15.7461 109.766 15.7461 109.766 15.7461C109.766 15.7461 109.766 15.7461 109.766 15.7461C109.766 15.7461 109.766 15.7461 109.766 15.7461C109.766 15.7461 109.766 15.7461 109.766 15.7461C109.766 15.7461 109.766 15.7461 109.766 15.7461C109.766 15.7461 109.766 15.7461 109.766 15.7461C109.766 15.7461 109.766 15.7461 109.766 15.7461C109.766 15.7461 109.766 15.7461 109.766 15.7461C109.766 15.7461 109.766 15.7461 109.766 15.7461C109.766 15.7461 109.766 15.7461 109.766 15.7461C109.766 15.7461 109.766 15.7461 109.767 15.7461C109.767 15.7461 109.767 15.7461 109.767 15.7461C109.767 15.7461 109.767 15.7461 109.767 15.7461C109.767 15.7461 109.767 15.7461 109.767 15.7461C109.767 15.7461 109.767 15.7461 109.767 15.7461C109.767 15.7461 109.767 15.7461 109.767 15.7461C109.767 15.7461 109.767 15.7461 109.767 15.7461C109.767 15.7461 109.767 15.7461 109.767 15.7461C109.767 15.7461 109.767 15.7461 109.767 15.7461C109.767 15.7461 109.767 15.7461 109.767 15.7461C109.767 15.7461 109.767 15.7461 109.767 15.7461C109.767 15.7461 109.767 15.7461 109.767 15.7461C109.767 15.7461 109.767 15.7461 109.767 15.7461C109.768 15.7461 109.768 15.7461 109.768 15.7461C109.768 15.7461 109.768 15.7461 109.768 15.7461C109.768 15.7461 109.768 15.7461 109.768 15.7461C109.768 15.7461 109.768 15.7461 109.768 15.7461C109.768 15.7461 109.768 15.7461 109.768 15.7461C109.768 15.7461 109.768 15.7461 109.768 15.7461C109.768 15.7461 109.768 15.7461 109.768 15.7461C109.768 15.7461 109.768 15.7461 109.768 15.7461C109.769 15.7461 109.769 15.7461 109.769 15.7461C109.769 15.7461 109.769 15.7461 109.769 15.7461C109.769 15.7461 109.769 15.7461 109.769 15.7461C109.769 15.7461 109.769 15.7461 109.769 15.7461C109.769 15.7461 109.769 15.7461 109.769 15.7461C109.769 15.7461 109.769 15.7461 109.769 15.7461C109.769 15.7461 109.769 15.7461 109.77 15.7461C109.77 15.7461 109.77 15.7461 109.77 15.7461C109.77 15.7461 109.77 15.7461 109.77 15.7461C109.77 15.7461 109.77 15.7461 109.77 15.7461C109.77 15.7461 109.77 15.7461 109.77 15.7461C109.77 15.7461 109.77 15.7461 109.77 15.7461C109.77 15.7461 109.771 15.7461 109.771 15.7461C109.771 15.7461 109.771 15.7461 109.771 15.7461C109.771 15.7461 109.771 15.7461 109.771 15.7461C109.771 15.7461 109.771 15.7461 109.771 15.7461C109.771 15.7461 109.771 15.7461 109.771 15.7461C109.771 15.7461 109.772 15.7461 109.772 15.7461C109.772 15.7461 109.772 15.7461 109.772 15.7461C109.772 15.7461 109.772 15.7461 109.772 15.7461C109.772 15.7461 109.772 15.7461 109.772 15.7461C109.772 15.7461 109.772 15.7461 109.773 15.7461C109.773 15.7461 109.773 15.7461 109.773 15.7461C109.773 15.7461 109.773 15.7461 109.773 15.7461C109.773 15.7461 109.773 15.7461 109.773 15.7461C109.773 15.7461 109.773 15.7461 109.773 15.7461C109.774 15.7461 109.774 15.7461 109.774 15.7461C109.774 15.7461 109.774 15.7461 109.774 15.7461C109.774 15.7461 109.774 15.7461 109.774 15.7461C109.774 15.7461 109.774 15.7461 109.774 15.7461C109.775 15.7461 109.775 15.7461 109.775 15.7461C109.775 15.7461 109.775 15.7461 109.775 15.7461C109.775 15.7461 109.775 15.7461 109.775 15.7461C109.775 15.7461 109.775 15.7461 109.776 15.7461C109.776 15.7461 109.776 15.7461 109.776 15.7461C109.776 15.7461 109.776 15.7461 109.776 15.7461C109.776 15.7461 109.776 15.7461 109.776 15.7461C109.776 15.7461 109.777 15.7461 109.777 15.7461C109.777 15.7461 109.777 15.7461 109.777 15.7461C109.777 15.7461 109.777 15.7461 109.777 15.7461C109.777 15.7461 109.777 15.7461 109.778 15.7461C109.778 15.7461 109.778 15.7461 109.778 15.7461C109.778 15.7461 109.778 15.7461 109.778 15.7461C109.778 15.7461 109.778 15.7461 109.779 15.7461C109.779 15.7461 109.779 15.7461 109.779 15.7461C109.779 15.7461 109.779 15.7461 109.779 15.7461C109.779 15.7461 109.779 15.7461 109.78 15.7461C109.78 15.7461 109.78 15.7461 109.78 15.7461C109.78 15.7461 109.78 15.7461 109.78 15.7461C109.78 15.7461 109.78 15.7461 109.781 15.7461C109.781 15.7461 109.781 15.7461 109.781 15.7461C109.781 15.7461 109.781 15.7461 109.781 15.7461C109.781 15.7461 109.781 15.7461 109.782 15.7461C109.782 15.7461 109.782 15.7461 109.782 15.7461C109.782 15.7461 109.782 15.7461 109.782 15.7461C109.782 15.7461 109.783 15.7461 109.783 15.7461C109.783 15.7461 109.783 15.7461 109.783 15.7461C109.783 15.7461 109.783 15.7461 109.783 15.7461C109.784 15.7461 109.784 15.7461 109.784 15.7461C109.784 15.7461 109.784 15.7461 109.784 15.7461C109.784 15.7461 109.784 15.7461 109.785 15.7461C109.785 15.7461 109.785 15.7461 109.785 15.7461C109.785 15.7461 109.785 15.7461 109.785 15.7461C109.785 15.7461 109.786 15.7461 109.786 15.7461C109.786 15.7461 109.786 15.7461 109.786 15.7461C109.786 15.7461 109.786 15.7461 109.787 15.7461C109.787 15.7461 109.787 15.7461 109.787 15.7461C109.787 15.7461 109.787 15.7461 109.787 15.7461C109.787 15.7461 109.788 15.7461 109.788 15.7461C109.788 15.7461 109.788 15.7461 109.788 15.7461C109.788 15.7461 109.788 15.7461 109.789 15.7461C109.789 15.7461 109.789 15.7461 109.789 15.7461C109.789 15.7461 109.789 15.7461 109.789 15.7461C109.79 15.7461 109.79 15.7461 109.79 15.7461C109.79 15.7461 109.79 15.7461 109.79 15.7461C109.791 15.7461 109.791 15.7461 109.791 15.7461C109.791 15.7461 109.791 15.7461 109.791 15.7461C109.791 15.7461 109.792 15.7461 109.792 15.7461C109.792 15.7461 109.792 15.7461 109.792 15.7461C109.792 15.7461 109.792 15.7461 109.793 15.7461C109.793 15.7461 109.793 15.7461 109.793 15.7461C109.793 15.7461 109.793 15.7461 109.794 15.7461C109.794 15.7461 109.794 15.7461 109.794 15.7461C109.794 15.7461 109.794 15.7461 109.795 15.7461C109.795 15.7461 109.795 15.7461 109.795 15.7461C109.795 15.7461 109.795 15.7461 109.796 15.7461C109.796 15.7461 109.796 15.7461 109.796 15.7461C109.796 15.7461 109.796 15.7461 109.796 15.7461C109.797 15.7461 109.797 15.7461 109.797 15.7461C109.797 15.7461 109.797 15.7461 109.797 15.7461C109.798 15.7461 109.798 15.7461 109.798 15.7461C109.798 15.7461 109.798 15.7461 109.799 15.7461C109.799 15.7461 109.799 15.7461 109.799 15.7461C109.799 15.7461 109.799 15.7461 109.8 15.7461C109.8 15.7461 109.8 15.7461 109.8 15.7461C109.8 15.7461 109.8 15.7461 109.801 15.7461C109.801 15.7461 109.801 15.7461 109.801 15.7461C109.801 15.7461 109.801 15.7461 109.802 15.7461C109.802 15.7461 109.802 15.7461 109.802 15.7461C109.802 15.7461 109.803 15.7461 109.803 15.7461C109.803 15.7461 109.803 15.7461 109.803 15.7461C109.803 15.7461 109.804 15.7461 109.804 15.7461C109.804 15.7461 109.804 15.7461 109.804 15.7461C109.805 15.7461 109.805 15.7461 109.805 15.7461C109.805 15.7461 109.805 15.7461 109.806 15.7461C109.806 15.7461 109.806 15.7461 109.806 15.7461C109.806 15.7461 109.806 15.7461 109.807 15.7461C109.807 15.7461 109.807 15.7461 109.807 15.7461C109.807 15.7461 109.808 15.7461 109.808 15.7461C109.808 15.7461 109.808 15.7461 109.808 15.7461C109.809 15.7461 109.809 15.7461 109.809 15.7461C109.809 15.7461 109.809 15.7461 109.81 15.7461C109.81 15.7461 109.81 15.7461 109.81 15.7461C109.81 15.7461 109.811 15.7461 109.811 15.7461C109.811 15.7461 109.811 15.7461 109.811 15.7461C109.812 15.7461 109.812 15.7461 109.812 15.7461C109.812 15.7461 109.812 15.7461 109.813 15.7461C109.813 15.7461 109.813 15.7461 109.813 15.7461C109.813 15.7461 109.814 15.7461 109.814 15.7461C109.814 15.7461 109.814 15.7461 109.815 15.7461C109.815 15.7461 109.815 15.7461 109.815 15.7461C109.815 15.7461 109.816 15.7461 109.816 15.7461C109.816 15.7461 109.816 15.7461 109.816 15.7461C109.817 15.7461 109.817 15.7461 109.817 15.7461C109.817 15.7461 109.817 15.7461 109.818 15.7461C109.818 15.7461 109.818 15.7461 109.818 15.7461C109.819 15.7461 109.819 15.7461 109.819 15.7461C109.819 15.7461 109.819 15.7461 109.82 15.7461C109.82 15.7461 109.82 15.7461 109.82 15.7461C109.821 15.7461 109.821 15.7461 109.821 15.7461C109.821 15.7461 109.821 15.7461 109.822 15.7461C109.822 15.7461 109.822 15.7461 109.822 15.7461C109.823 15.7461 109.823 15.7461 109.823 15.7461C109.823 15.7461 109.823 15.7461 109.824 15.7461C109.824 15.7461 109.824 15.7461 109.824 15.7461C109.825 15.7461 109.825 15.7461 109.825 15.7461C109.825 15.7461 109.826 15.7461 109.826 15.7461C109.826 15.7461 109.826 15.7461 109.826 15.7461C109.827 15.7461 109.827 15.7461 109.827 15.7461C109.827 15.7461 109.828 15.7461 109.828 15.7461C109.828 15.7461 109.828 15.7461 109.829 15.7461C109.829 15.7461 109.829 15.7461 109.829 15.7461C109.83 15.7461 109.83 15.7461 109.83 15.7461C109.83 15.7461 109.831 15.7461 109.831 15.7461C109.831 15.7461 109.831 15.7461 109.832 15.7461C109.832 15.7461 109.832 15.7461 109.832 15.7461C109.832 15.7461 109.833 15.7461 109.833 15.7461C109.833 15.7461 109.833 15.7461 109.834 15.7461C109.834 15.7461 109.834 15.7461 109.834 15.7461C109.835 15.7461 109.835 15.7461 109.835 15.7461C109.835 15.7461 109.836 15.7461 109.836 15.7461C109.836 15.7461 109.836 15.7461 109.837 15.7461C109.837 15.7461 109.837 15.7461 109.837 15.7461C109.838 15.7461 109.838 15.7461 109.838 15.7461C109.839 15.7461 109.839 15.7461 109.839 15.7461C109.839 15.7461 109.84 15.7461 109.84 15.7461C109.84 15.7461 109.84 15.7461 109.841 15.7461C109.841 15.7461 109.841 15.7461 109.841 15.7461C109.842 15.7461 109.842 15.7461 109.842 15.7461C109.842 15.7461 109.843 15.7461 109.843 15.7461C109.843 15.7461 109.843 15.7461 109.844 15.7461C109.844 15.7461 109.844 15.7461 109.845 15.7461C109.845 15.7461 109.845 15.7461 109.845 15.7461C109.846 15.7461 109.846 15.7461 109.846 15.7461C109.846 15.7461 109.847 15.7461 109.847 15.7461C109.847 15.7461 109.847 15.7461 109.848 15.7461C109.848 15.7461 109.848 15.7461 109.849 15.7461C109.849 15.7461 109.849 15.7461 109.849 15.7461C109.85 15.7461 109.85 15.7461 109.85 15.7461C109.85 15.7461 109.851 15.7461 109.851 15.7461C109.851 15.7461 109.852 15.7461 109.852 15.7461C109.852 15.7461 109.852 15.7461 109.853 15.7461C109.853 15.7461 109.853 15.7461 109.854 15.7461C109.854 15.7461 109.854 15.7461 109.854 15.7461C109.855 15.7461 109.855 15.7461 109.855 15.7461C109.856 15.7461 109.856 15.7461 109.856 15.7461C109.856 15.7461 109.857 15.7461 109.857 15.7461C109.857 15.7461 109.858 15.7461 109.858 15.7461C109.858 15.7461 109.858 15.7461 109.859 15.7461C109.859 15.7461 109.859 15.7461 109.86 15.7461C109.86 15.7461 109.86 15.7461 109.86 15.7461C109.861 15.7461 109.861 15.7461 109.861 15.7461C109.862 15.7461 109.862 15.7461 109.862 15.7461C109.863 15.7461 109.863 15.7461 109.863 15.7461C109.863 15.7461 109.864 15.7461 109.864 15.7461C109.864 15.7461 109.865 15.7461 109.865 15.7461C109.865 15.7461 109.865 15.7461 109.866 15.7461C109.866 15.7461 109.866 15.7461 109.867 15.7461C109.867 15.7461 109.867 15.7461 109.868 15.7461C109.868 15.7461 109.868 15.7461 109.869 15.7461C109.869 15.7461 109.869 15.7461 109.869 15.7461C109.87 15.7461 109.87 15.7461 109.87 15.7461C109.871 15.7461 109.871 15.7461 109.871 15.7461C109.872 15.7461 109.872 15.7461 109.872 15.7461C109.873 15.7461 109.873 15.7461 109.873 15.7461C109.873 15.7461 109.874 15.7461 109.874 15.7461C109.874 15.7461 109.875 15.7461 109.875 15.7461C109.875 15.7461 109.876 15.7461 109.876 15.7461C109.876 15.7461 109.877 15.7461 109.877 15.7461C109.877 15.7461 109.878 15.7461 109.878 15.7461C109.878 15.7461 109.879 15.7461 109.879 15.7461C109.879 15.7461 109.879 15.7461 109.88 15.7461C109.88 15.7461 109.88 15.7461 109.881 15.7461C109.881 15.7461 109.881 15.7461 109.882 15.7461C109.882 15.7461 109.882 15.7461 109.883 15.7461C109.883 15.7461 109.883 15.7461 109.884 15.7461C109.884 15.7461 109.884 15.7461 109.885 15.7461C109.885 15.7461 109.885 15.7461 109.886 15.7461C109.886 15.7461 109.886 15.7461 109.887 15.7461C109.887 15.7461 109.887 15.7461 109.888 15.7461C109.888 15.7461 109.888 15.7461 109.889 15.7461C109.889 15.7461 109.889 15.7461 109.89 15.7461C109.89 15.7461 109.89 15.7461 109.891 15.7461C109.891 15.7461 109.891 15.7461 109.892 15.7461C109.892 15.7461 109.892 15.7461 109.893 15.7461C109.893 15.7461 109.893 15.7461 109.894 15.7461C109.894 15.7461 109.894 15.7461 109.895 15.7461C109.895 15.7461 109.895 15.7461 109.896 15.7461C109.896 15.7461 109.896 15.7461 109.897 15.7461C109.897 15.7461 109.897 15.7461 109.898 15.7461C109.898 15.7461 109.898 15.7461 109.899 15.7461C109.899 15.7461 109.9 15.7461 109.9 15.7461V13.7461C109.9 13.7461 109.899 13.7461 109.899 13.7461C109.898 13.7461 109.898 13.7461 109.898 13.7461C109.897 13.7461 109.897 13.7461 109.897 13.7461C109.896 13.7461 109.896 13.7461 109.896 13.7461C109.895 13.7461 109.895 13.7461 109.895 13.7461C109.894 13.7461 109.894 13.7461 109.894 13.7461C109.893 13.7461 109.893 13.7461 109.893 13.7461C109.892 13.7461 109.892 13.7461 109.892 13.7461C109.891 13.7461 109.891 13.7461 109.891 13.7461C109.89 13.7461 109.89 13.7461 109.89 13.7461C109.889 13.7461 109.889 13.7461 109.889 13.7461C109.888 13.7461 109.888 13.7461 109.888 13.7461C109.887 13.7461 109.887 13.7461 109.887 13.7461C109.886 13.7461 109.886 13.7461 109.886 13.7461C109.885 13.7461 109.885 13.7461 109.885 13.7461C109.884 13.7461 109.884 13.7461 109.884 13.7461C109.883 13.7461 109.883 13.7461 109.883 13.7461C109.882 13.7461 109.882 13.7461 109.882 13.7461C109.881 13.7461 109.881 13.7461 109.881 13.7461C109.88 13.7461 109.88 13.7461 109.88 13.7461C109.879 13.7461 109.879 13.7461 109.879 13.7461C109.879 13.7461 109.878 13.7461 109.878 13.7461C109.878 13.7461 109.877 13.7461 109.877 13.7461C109.877 13.7461 109.876 13.7461 109.876 13.7461C109.876 13.7461 109.875 13.7461 109.875 13.7461C109.875 13.7461 109.874 13.7461 109.874 13.7461C109.874 13.7461 109.873 13.7461 109.873 13.7461C109.873 13.7461 109.873 13.7461 109.872 13.7461C109.872 13.7461 109.872 13.7461 109.871 13.7461C109.871 13.7461 109.871 13.7461 109.87 13.7461C109.87 13.7461 109.87 13.7461 109.869 13.7461C109.869 13.7461 109.869 13.7461 109.869 13.7461C109.868 13.7461 109.868 13.7461 109.868 13.7461C109.867 13.7461 109.867 13.7461 109.867 13.7461C109.866 13.7461 109.866 13.7461 109.866 13.7461C109.865 13.7461 109.865 13.7461 109.865 13.7461C109.865 13.7461 109.864 13.7461 109.864 13.7461C109.864 13.7461 109.863 13.7461 109.863 13.7461C109.863 13.7461 109.863 13.7461 109.862 13.7461C109.862 13.7461 109.862 13.7461 109.861 13.7461C109.861 13.7461 109.861 13.7461 109.86 13.7461C109.86 13.7461 109.86 13.7461 109.86 13.7461C109.859 13.7461 109.859 13.7461 109.859 13.7461C109.858 13.7461 109.858 13.7461 109.858 13.7461C109.858 13.7461 109.857 13.7461 109.857 13.7461C109.857 13.7461 109.856 13.7461 109.856 13.7461C109.856 13.7461 109.856 13.7461 109.855 13.7461C109.855 13.7461 109.855 13.7461 109.854 13.7461C109.854 13.7461 109.854 13.7461 109.854 13.7461C109.853 13.7461 109.853 13.7461 109.853 13.7461C109.852 13.7461 109.852 13.7461 109.852 13.7461C109.852 13.7461 109.851 13.7461 109.851 13.7461C109.851 13.7461 109.85 13.7461 109.85 13.7461C109.85 13.7461 109.85 13.7461 109.849 13.7461C109.849 13.7461 109.849 13.7461 109.849 13.7461C109.848 13.7461 109.848 13.7461 109.848 13.7461C109.847 13.7461 109.847 13.7461 109.847 13.7461C109.847 13.7461 109.846 13.7461 109.846 13.7461C109.846 13.7461 109.846 13.7461 109.845 13.7461C109.845 13.7461 109.845 13.7461 109.845 13.7461C109.844 13.7461 109.844 13.7461 109.844 13.7461C109.843 13.7461 109.843 13.7461 109.843 13.7461C109.843 13.7461 109.842 13.7461 109.842 13.7461C109.842 13.7461 109.842 13.7461 109.841 13.7461C109.841 13.7461 109.841 13.7461 109.841 13.7461C109.84 13.7461 109.84 13.7461 109.84 13.7461C109.84 13.7461 109.839 13.7461 109.839 13.7461C109.839 13.7461 109.839 13.7461 109.838 13.7461C109.838 13.7461 109.838 13.7461 109.837 13.7461C109.837 13.7461 109.837 13.7461 109.837 13.7461C109.836 13.7461 109.836 13.7461 109.836 13.7461C109.836 13.7461 109.835 13.7461 109.835 13.7461C109.835 13.7461 109.835 13.7461 109.834 13.7461C109.834 13.7461 109.834 13.7461 109.834 13.7461C109.833 13.7461 109.833 13.7461 109.833 13.7461C109.833 13.7461 109.832 13.7461 109.832 13.7461C109.832 13.7461 109.832 13.7461 109.832 13.7461C109.831 13.7461 109.831 13.7461 109.831 13.7461C109.831 13.7461 109.83 13.7461 109.83 13.7461C109.83 13.7461 109.83 13.7461 109.829 13.7461C109.829 13.7461 109.829 13.7461 109.829 13.7461C109.828 13.7461 109.828 13.7461 109.828 13.7461C109.828 13.7461 109.827 13.7461 109.827 13.7461C109.827 13.7461 109.827 13.7461 109.826 13.7461C109.826 13.7461 109.826 13.7461 109.826 13.7461C109.826 13.7461 109.825 13.7461 109.825 13.7461C109.825 13.7461 109.825 13.7461 109.824 13.7461C109.824 13.7461 109.824 13.7461 109.824 13.7461C109.823 13.7461 109.823 13.7461 109.823 13.7461C109.823 13.7461 109.823 13.7461 109.822 13.7461C109.822 13.7461 109.822 13.7461 109.822 13.7461C109.821 13.7461 109.821 13.7461 109.821 13.7461C109.821 13.7461 109.821 13.7461 109.82 13.7461C109.82 13.7461 109.82 13.7461 109.82 13.7461C109.819 13.7461 109.819 13.7461 109.819 13.7461C109.819 13.7461 109.819 13.7461 109.818 13.7461C109.818 13.7461 109.818 13.7461 109.818 13.7461C109.817 13.7461 109.817 13.7461 109.817 13.7461C109.817 13.7461 109.817 13.7461 109.816 13.7461C109.816 13.7461 109.816 13.7461 109.816 13.7461C109.816 13.7461 109.815 13.7461 109.815 13.7461C109.815 13.7461 109.815 13.7461 109.815 13.7461C109.814 13.7461 109.814 13.7461 109.814 13.7461C109.814 13.7461 109.813 13.7461 109.813 13.7461C109.813 13.7461 109.813 13.7461 109.813 13.7461C109.812 13.7461 109.812 13.7461 109.812 13.7461C109.812 13.7461 109.812 13.7461 109.811 13.7461C109.811 13.7461 109.811 13.7461 109.811 13.7461C109.811 13.7461 109.81 13.7461 109.81 13.7461C109.81 13.7461 109.81 13.7461 109.81 13.7461C109.809 13.7461 109.809 13.7461 109.809 13.7461C109.809 13.7461 109.809 13.7461 109.808 13.7461C109.808 13.7461 109.808 13.7461 109.808 13.7461C109.808 13.7461 109.807 13.7461 109.807 13.7461C109.807 13.7461 109.807 13.7461 109.807 13.7461C109.806 13.7461 109.806 13.7461 109.806 13.7461C109.806 13.7461 109.806 13.7461 109.806 13.7461C109.805 13.7461 109.805 13.7461 109.805 13.7461C109.805 13.7461 109.805 13.7461 109.804 13.7461C109.804 13.7461 109.804 13.7461 109.804 13.7461C109.804 13.7461 109.803 13.7461 109.803 13.7461C109.803 13.7461 109.803 13.7461 109.803 13.7461C109.803 13.7461 109.802 13.7461 109.802 13.7461C109.802 13.7461 109.802 13.7461 109.802 13.7461C109.801 13.7461 109.801 13.7461 109.801 13.7461C109.801 13.7461 109.801 13.7461 109.801 13.7461C109.8 13.7461 109.8 13.7461 109.8 13.7461C109.8 13.7461 109.8 13.7461 109.8 13.7461C109.799 13.7461 109.799 13.7461 109.799 13.7461C109.799 13.7461 109.799 13.7461 109.799 13.7461C109.798 13.7461 109.798 13.7461 109.798 13.7461C109.798 13.7461 109.798 13.7461 109.797 13.7461C109.797 13.7461 109.797 13.7461 109.797 13.7461C109.797 13.7461 109.797 13.7461 109.796 13.7461C109.796 13.7461 109.796 13.7461 109.796 13.7461C109.796 13.7461 109.796 13.7461 109.796 13.7461C109.795 13.7461 109.795 13.7461 109.795 13.7461C109.795 13.7461 109.795 13.7461 109.795 13.7461C109.794 13.7461 109.794 13.7461 109.794 13.7461C109.794 13.7461 109.794 13.7461 109.794 13.7461C109.793 13.7461 109.793 13.7461 109.793 13.7461C109.793 13.7461 109.793 13.7461 109.793 13.7461C109.792 13.7461 109.792 13.7461 109.792 13.7461C109.792 13.7461 109.792 13.7461 109.792 13.7461C109.792 13.7461 109.791 13.7461 109.791 13.7461C109.791 13.7461 109.791 13.7461 109.791 13.7461C109.791 13.7461 109.791 13.7461 109.79 13.7461C109.79 13.7461 109.79 13.7461 109.79 13.7461C109.79 13.7461 109.79 13.7461 109.789 13.7461C109.789 13.7461 109.789 13.7461 109.789 13.7461C109.789 13.7461 109.789 13.7461 109.789 13.7461C109.788 13.7461 109.788 13.7461 109.788 13.7461C109.788 13.7461 109.788 13.7461 109.788 13.7461C109.788 13.7461 109.787 13.7461 109.787 13.7461C109.787 13.7461 109.787 13.7461 109.787 13.7461C109.787 13.7461 109.787 13.7461 109.787 13.7461C109.786 13.7461 109.786 13.7461 109.786 13.7461C109.786 13.7461 109.786 13.7461 109.786 13.7461C109.786 13.7461 109.785 13.7461 109.785 13.7461C109.785 13.7461 109.785 13.7461 109.785 13.7461C109.785 13.7461 109.785 13.7461 109.785 13.7461C109.784 13.7461 109.784 13.7461 109.784 13.7461C109.784 13.7461 109.784 13.7461 109.784 13.7461C109.784 13.7461 109.784 13.7461 109.783 13.7461C109.783 13.7461 109.783 13.7461 109.783 13.7461C109.783 13.7461 109.783 13.7461 109.783 13.7461C109.783 13.7461 109.782 13.7461 109.782 13.7461C109.782 13.7461 109.782 13.7461 109.782 13.7461C109.782 13.7461 109.782 13.7461 109.782 13.7461C109.781 13.7461 109.781 13.7461 109.781 13.7461C109.781 13.7461 109.781 13.7461 109.781 13.7461C109.781 13.7461 109.781 13.7461 109.781 13.7461C109.78 13.7461 109.78 13.7461 109.78 13.7461C109.78 13.7461 109.78 13.7461 109.78 13.7461C109.78 13.7461 109.78 13.7461 109.78 13.7461C109.779 13.7461 109.779 13.7461 109.779 13.7461C109.779 13.7461 109.779 13.7461 109.779 13.7461C109.779 13.7461 109.779 13.7461 109.779 13.7461C109.778 13.7461 109.778 13.7461 109.778 13.7461C109.778 13.7461 109.778 13.7461 109.778 13.7461C109.778 13.7461 109.778 13.7461 109.778 13.7461C109.777 13.7461 109.777 13.7461 109.777 13.7461C109.777 13.7461 109.777 13.7461 109.777 13.7461C109.777 13.7461 109.777 13.7461 109.777 13.7461C109.777 13.7461 109.776 13.7461 109.776 13.7461C109.776 13.7461 109.776 13.7461 109.776 13.7461C109.776 13.7461 109.776 13.7461 109.776 13.7461C109.776 13.7461 109.776 13.7461 109.776 13.7461C109.775 13.7461 109.775 13.7461 109.775 13.7461C109.775 13.7461 109.775 13.7461 109.775 13.7461C109.775 13.7461 109.775 13.7461 109.775 13.7461C109.775 13.7461 109.775 13.7461 109.774 13.7461C109.774 13.7461 109.774 13.7461 109.774 13.7461C109.774 13.7461 109.774 13.7461 109.774 13.7461C109.774 13.7461 109.774 13.7461 109.774 13.7461C109.774 13.7461 109.774 13.7461 109.773 13.7461C109.773 13.7461 109.773 13.7461 109.773 13.7461C109.773 13.7461 109.773 13.7461 109.773 13.7461C109.773 13.7461 109.773 13.7461 109.773 13.7461C109.773 13.7461 109.773 13.7461 109.773 13.7461C109.772 13.7461 109.772 13.7461 109.772 13.7461C109.772 13.7461 109.772 13.7461 109.772 13.7461C109.772 13.7461 109.772 13.7461 109.772 13.7461C109.772 13.7461 109.772 13.7461 109.772 13.7461C109.772 13.7461 109.771 13.7461 109.771 13.7461C109.771 13.7461 109.771 13.7461 109.771 13.7461C109.771 13.7461 109.771 13.7461 109.771 13.7461C109.771 13.7461 109.771 13.7461 109.771 13.7461C109.771 13.7461 109.771 13.7461 109.771 13.7461C109.771 13.7461 109.77 13.7461 109.77 13.7461C109.77 13.7461 109.77 13.7461 109.77 13.7461C109.77 13.7461 109.77 13.7461 109.77 13.7461C109.77 13.7461 109.77 13.7461 109.77 13.7461C109.77 13.7461 109.77 13.7461 109.77 13.7461C109.77 13.7461 109.77 13.7461 109.77 13.7461C109.769 13.7461 109.769 13.7461 109.769 13.7461C109.769 13.7461 109.769 13.7461 109.769 13.7461C109.769 13.7461 109.769 13.7461 109.769 13.7461C109.769 13.7461 109.769 13.7461 109.769 13.7461C109.769 13.7461 109.769 13.7461 109.769 13.7461C109.769 13.7461 109.769 13.7461 109.769 13.7461C109.769 13.7461 109.769 13.7461 109.768 13.7461C109.768 13.7461 109.768 13.7461 109.768 13.7461C109.768 13.7461 109.768 13.7461 109.768 13.7461C109.768 13.7461 109.768 13.7461 109.768 13.7461C109.768 13.7461 109.768 13.7461 109.768 13.7461C109.768 13.7461 109.768 13.7461 109.768 13.7461C109.768 13.7461 109.768 13.7461 109.768 13.7461C109.768 13.7461 109.768 13.7461 109.768 13.7461C109.768 13.7461 109.768 13.7461 109.767 13.7461C109.767 13.7461 109.767 13.7461 109.767 13.7461C109.767 13.7461 109.767 13.7461 109.767 13.7461C109.767 13.7461 109.767 13.7461 109.767 13.7461C109.767 13.7461 109.767 13.7461 109.767 13.7461C109.767 13.7461 109.767 13.7461 109.767 13.7461C109.767 13.7461 109.767 13.7461 109.767 13.7461C109.767 13.7461 109.767 13.7461 109.767 13.7461C109.767 13.7461 109.767 13.7461 109.767 13.7461C109.767 13.7461 109.767 13.7461 109.767 13.7461C109.767 13.7461 109.767 13.7461 109.767 13.7461C109.767 13.7461 109.767 13.7461 109.767 13.7461C109.767 13.7461 109.767 13.7461 109.767 13.7461C109.766 13.7461 109.766 13.7461 109.766 13.7461C109.766 13.7461 109.766 13.7461 109.766 13.7461C109.766 13.7461 109.766 13.7461 109.766 13.7461C109.766 13.7461 109.766 13.7461 109.766 13.7461C109.766 13.7461 109.766 13.7461 109.766 13.7461C109.766 13.7461 109.766 13.7461 109.766 13.7461C109.766 13.7461 109.766 13.7461 109.766 13.7461C109.766 13.7461 109.766 13.7461 109.766 13.7461C109.766 13.7461 109.766 13.7461 109.766 13.7461C109.766 13.7461 109.766 13.7461 109.766 13.7461C109.766 13.7461 109.766 13.7461 109.766 13.7461C109.766 13.7461 109.766 13.7461 109.766 13.7461C109.766 13.7461 109.766 13.7461 109.766 13.7461C109.766 13.7461 109.766 13.7461 109.766 14.7461C109.766 15.7461 109.766 15.7461 109.766 15.7461C109.766 15.7461 109.766 15.7461 109.766 15.7461C109.766 15.7461 109.766 15.7461 109.766 15.7461C109.766 15.7461 109.766 15.7461 109.766 15.7461C109.766 15.7461 109.766 15.7461 109.766 15.7461C109.766 15.7461 109.766 15.7461 109.766 15.7461C109.766 15.7461 109.766 15.7461 109.766 15.7461C109.766 15.7461 109.766 15.7461 109.766 15.7461C109.766 15.7461 109.766 15.7461 109.766 15.7461C109.766 15.7461 109.766 15.7461 109.766 15.7461C109.766 15.7461 109.766 15.7461 109.766 15.7461C109.766 15.7461 109.766 15.7461 109.766 15.7461C109.766 15.7461 109.766 15.7461 109.766 15.7461C109.766 15.7461 109.766 15.7461 109.767 15.7461C109.767 15.7461 109.767 15.7461 109.767 15.7461C109.767 15.7461 109.767 15.7461 109.767 15.7461C109.767 15.7461 109.767 15.7461 109.767 15.7461C109.767 15.7461 109.767 15.7461 109.767 15.7461C109.767 15.7461 109.767 15.7461 109.767 15.7461C109.767 15.7461 109.767 15.7461 109.767 15.7461C109.767 15.7461 109.767 15.7461 109.767 15.7461C109.767 15.7461 109.767 15.7461 109.767 15.7461C109.767 15.7461 109.767 15.7461 109.767 15.7461C109.767 15.7461 109.767 15.7461 109.767 15.7461C109.767 15.7461 109.767 15.7461 109.767 15.7461C109.767 15.7461 109.767 15.7461 109.767 15.7461C109.768 15.7461 109.768 15.7461 109.768 15.7461C109.768 15.7461 109.768 15.7461 109.768 15.7461C109.768 15.7461 109.768 15.7461 109.768 15.7461C109.768 15.7461 109.768 15.7461 109.768 15.7461C109.768 15.7461 109.768 15.7461 109.768 15.7461C109.768 15.7461 109.768 15.7461 109.768 15.7461C109.768 15.7461 109.768 15.7461 109.768 15.7461C109.768 15.7461 109.768 15.7461 109.768 15.7461C109.769 15.7461 109.769 15.7461 109.769 15.7461C109.769 15.7461 109.769 15.7461 109.769 15.7461C109.769 15.7461 109.769 15.7461 109.769 15.7461C109.769 15.7461 109.769 15.7461 109.769 15.7461C109.769 15.7461 109.769 15.7461 109.769 15.7461C109.769 15.7461 109.769 15.7461 109.769 15.7461C109.769 15.7461 109.769 15.7461 109.77 15.7461C109.77 15.7461 109.77 15.7461 109.77 15.7461C109.77 15.7461 109.77 15.7461 109.77 15.7461C109.77 15.7461 109.77 15.7461 109.77 15.7461C109.77 15.7461 109.77 15.7461 109.77 15.7461C109.77 15.7461 109.77 15.7461 109.77 15.7461C109.77 15.7461 109.771 15.7461 109.771 15.7461C109.771 15.7461 109.771 15.7461 109.771 15.7461C109.771 15.7461 109.771 15.7461 109.771 15.7461C109.771 15.7461 109.771 15.7461 109.771 15.7461C109.771 15.7461 109.771 15.7461 109.771 15.7461C109.771 15.7461 109.772 15.7461 109.772 15.7461C109.772 15.7461 109.772 15.7461 109.772 15.7461C109.772 15.7461 109.772 15.7461 109.772 15.7461C109.772 15.7461 109.772 15.7461 109.772 15.7461C109.772 15.7461 109.772 15.7461 109.773 15.7461C109.773 15.7461 109.773 15.7461 109.773 15.7461C109.773 15.7461 109.773 15.7461 109.773 15.7461C109.773 15.7461 109.773 15.7461 109.773 15.7461C109.773 15.7461 109.773 15.7461 109.773 15.7461C109.774 15.7461 109.774 15.7461 109.774 15.7461C109.774 15.7461 109.774 15.7461 109.774 15.7461C109.774 15.7461 109.774 15.7461 109.774 15.7461C109.774 15.7461 109.774 15.7461 109.774 15.7461C109.775 15.7461 109.775 15.7461 109.775 15.7461C109.775 15.7461 109.775 15.7461 109.775 15.7461C109.775 15.7461 109.775 15.7461 109.775 15.7461C109.775 15.7461 109.775 15.7461 109.776 15.7461C109.776 15.7461 109.776 15.7461 109.776 15.7461C109.776 15.7461 109.776 15.7461 109.776 15.7461C109.776 15.7461 109.776 15.7461 109.776 15.7461C109.776 15.7461 109.777 15.7461 109.777 15.7461C109.777 15.7461 109.777 15.7461 109.777 15.7461C109.777 15.7461 109.777 15.7461 109.777 15.7461C109.777 15.7461 109.777 15.7461 109.778 15.7461C109.778 15.7461 109.778 15.7461 109.778 15.7461C109.778 15.7461 109.778 15.7461 109.778 15.7461C109.778 15.7461 109.778 15.7461 109.779 15.7461C109.779 15.7461 109.779 15.7461 109.779 15.7461C109.779 15.7461 109.779 15.7461 109.779 15.7461C109.779 15.7461 109.779 15.7461 109.78 15.7461C109.78 15.7461 109.78 15.7461 109.78 15.7461C109.78 15.7461 109.78 15.7461 109.78 15.7461C109.78 15.7461 109.78 15.7461 109.781 15.7461C109.781 15.7461 109.781 15.7461 109.781 15.7461C109.781 15.7461 109.781 15.7461 109.781 15.7461C109.781 15.7461 109.781 15.7461 109.782 15.7461C109.782 15.7461 109.782 15.7461 109.782 15.7461C109.782 15.7461 109.782 15.7461 109.782 15.7461C109.782 15.7461 109.783 15.7461 109.783 15.7461C109.783 15.7461 109.783 15.7461 109.783 15.7461C109.783 15.7461 109.783 15.7461 109.783 15.7461C109.784 15.7461 109.784 15.7461 109.784 15.7461C109.784 15.7461 109.784 15.7461 109.784 15.7461C109.784 15.7461 109.784 15.7461 109.785 15.7461C109.785 15.7461 109.785 15.7461 109.785 15.7461C109.785 15.7461 109.785 15.7461 109.785 15.7461C109.785 15.7461 109.786 15.7461 109.786 15.7461C109.786 15.7461 109.786 15.7461 109.786 15.7461C109.786 15.7461 109.786 15.7461 109.787 15.7461C109.787 15.7461 109.787 15.7461 109.787 15.7461C109.787 15.7461 109.787 15.7461 109.787 15.7461C109.787 15.7461 109.788 15.7461 109.788 15.7461C109.788 15.7461 109.788 15.7461 109.788 15.7461C109.788 15.7461 109.788 15.7461 109.789 15.7461C109.789 15.7461 109.789 15.7461 109.789 15.7461C109.789 15.7461 109.789 15.7461 109.789 15.7461C109.79 15.7461 109.79 15.7461 109.79 15.7461C109.79 15.7461 109.79 15.7461 109.79 15.7461C109.791 15.7461 109.791 15.7461 109.791 15.7461C109.791 15.7461 109.791 15.7461 109.791 15.7461C109.791 15.7461 109.792 15.7461 109.792 15.7461C109.792 15.7461 109.792 15.7461 109.792 15.7461C109.792 15.7461 109.792 15.7461 109.793 15.7461C109.793 15.7461 109.793 15.7461 109.793 15.7461C109.793 15.7461 109.793 15.7461 109.794 15.7461C109.794 15.7461 109.794 15.7461 109.794 15.7461C109.794 15.7461 109.794 15.7461 109.795 15.7461C109.795 15.7461 109.795 15.7461 109.795 15.7461C109.795 15.7461 109.795 15.7461 109.796 15.7461C109.796 15.7461 109.796 15.7461 109.796 15.7461C109.796 15.7461 109.796 15.7461 109.796 15.7461C109.797 15.7461 109.797 15.7461 109.797 15.7461C109.797 15.7461 109.797 15.7461 109.797 15.7461C109.798 15.7461 109.798 15.7461 109.798 15.7461C109.798 15.7461 109.798 15.7461 109.799 15.7461C109.799 15.7461 109.799 15.7461 109.799 15.7461C109.799 15.7461 109.799 15.7461 109.8 15.7461C109.8 15.7461 109.8 15.7461 109.8 15.7461C109.8 15.7461 109.8 15.7461 109.801 15.7461C109.801 15.7461 109.801 15.7461 109.801 15.7461C109.801 15.7461 109.801 15.7461 109.802 15.7461C109.802 15.7461 109.802 15.7461 109.802 15.7461C109.802 15.7461 109.803 15.7461 109.803 15.7461C109.803 15.7461 109.803 15.7461 109.803 15.7461C109.803 15.7461 109.804 15.7461 109.804 15.7461C109.804 15.7461 109.804 15.7461 109.804 15.7461C109.805 15.7461 109.805 15.7461 109.805 15.7461C109.805 15.7461 109.805 15.7461 109.806 15.7461C109.806 15.7461 109.806 15.7461 109.806 15.7461C109.806 15.7461 109.806 15.7461 109.807 15.7461C109.807 15.7461 109.807 15.7461 109.807 15.7461C109.807 15.7461 109.808 15.7461 109.808 15.7461C109.808 15.7461 109.808 15.7461 109.808 15.7461C109.809 15.7461 109.809 15.7461 109.809 15.7461C109.809 15.7461 109.809 15.7461 109.81 15.7461C109.81 15.7461 109.81 15.7461 109.81 15.7461C109.81 15.7461 109.811 15.7461 109.811 15.7461C109.811 15.7461 109.811 15.7461 109.811 15.7461C109.812 15.7461 109.812 15.7461 109.812 15.7461C109.812 15.7461 109.812 15.7461 109.813 15.7461C109.813 15.7461 109.813 15.7461 109.813 15.7461C109.813 15.7461 109.814 15.7461 109.814 15.7461C109.814 15.7461 109.814 15.7461 109.815 15.7461C109.815 15.7461 109.815 15.7461 109.815 15.7461C109.815 15.7461 109.816 15.7461 109.816 15.7461C109.816 15.7461 109.816 15.7461 109.816 15.7461C109.817 15.7461 109.817 15.7461 109.817 15.7461C109.817 15.7461 109.817 15.7461 109.818 15.7461C109.818 15.7461 109.818 15.7461 109.818 15.7461C109.819 15.7461 109.819 15.7461 109.819 15.7461C109.819 15.7461 109.819 15.7461 109.82 15.7461C109.82 15.7461 109.82 15.7461 109.82 15.7461C109.821 15.7461 109.821 15.7461 109.821 15.7461C109.821 15.7461 109.821 15.7461 109.822 15.7461C109.822 15.7461 109.822 15.7461 109.822 15.7461C109.823 15.7461 109.823 15.7461 109.823 15.7461C109.823 15.7461 109.823 15.7461 109.824 15.7461C109.824 15.7461 109.824 15.7461 109.824 15.7461C109.825 15.7461 109.825 15.7461 109.825 15.7461C109.825 15.7461 109.826 15.7461 109.826 15.7461C109.826 15.7461 109.826 15.7461 109.826 15.7461C109.827 15.7461 109.827 15.7461 109.827 15.7461C109.827 15.7461 109.828 15.7461 109.828 15.7461C109.828 15.7461 109.828 15.7461 109.829 15.7461C109.829 15.7461 109.829 15.7461 109.829 15.7461C109.83 15.7461 109.83 15.7461 109.83 15.7461C109.83 15.7461 109.831 15.7461 109.831 15.7461C109.831 15.7461 109.831 15.7461 109.832 15.7461C109.832 15.7461 109.832 15.7461 109.832 15.7461C109.832 15.7461 109.833 15.7461 109.833 15.7461C109.833 15.7461 109.833 15.7461 109.834 15.7461C109.834 15.7461 109.834 15.7461 109.834 15.7461C109.835 15.7461 109.835 15.7461 109.835 15.7461C109.835 15.7461 109.836 15.7461 109.836 15.7461C109.836 15.7461 109.836 15.7461 109.837 15.7461C109.837 15.7461 109.837 15.7461 109.837 15.7461C109.838 15.7461 109.838 15.7461 109.838 15.7461C109.839 15.7461 109.839 15.7461 109.839 15.7461C109.839 15.7461 109.84 15.7461 109.84 15.7461C109.84 15.7461 109.84 15.7461 109.841 15.7461C109.841 15.7461 109.841 15.7461 109.841 15.7461C109.842 15.7461 109.842 15.7461 109.842 15.7461C109.842 15.7461 109.843 15.7461 109.843 15.7461C109.843 15.7461 109.843 15.7461 109.844 15.7461C109.844 15.7461 109.844 15.7461 109.845 15.7461C109.845 15.7461 109.845 15.7461 109.845 15.7461C109.846 15.7461 109.846 15.7461 109.846 15.7461C109.846 15.7461 109.847 15.7461 109.847 15.7461C109.847 15.7461 109.847 15.7461 109.848 15.7461C109.848 15.7461 109.848 15.7461 109.849 15.7461C109.849 15.7461 109.849 15.7461 109.849 15.7461C109.85 15.7461 109.85 15.7461 109.85 15.7461C109.85 15.7461 109.851 15.7461 109.851 15.7461C109.851 15.7461 109.852 15.7461 109.852 15.7461C109.852 15.7461 109.852 15.7461 109.853 15.7461C109.853 15.7461 109.853 15.7461 109.854 15.7461C109.854 15.7461 109.854 15.7461 109.854 15.7461C109.855 15.7461 109.855 15.7461 109.855 15.7461C109.856 15.7461 109.856 15.7461 109.856 15.7461C109.856 15.7461 109.857 15.7461 109.857 15.7461C109.857 15.7461 109.858 15.7461 109.858 15.7461C109.858 15.7461 109.858 15.7461 109.859 15.7461C109.859 15.7461 109.859 15.7461 109.86 15.7461C109.86 15.7461 109.86 15.7461 109.86 15.7461C109.861 15.7461 109.861 15.7461 109.861 15.7461C109.862 15.7461 109.862 15.7461 109.862 15.7461C109.863 15.7461 109.863 15.7461 109.863 15.7461C109.863 15.7461 109.864 15.7461 109.864 15.7461C109.864 15.7461 109.865 15.7461 109.865 15.7461C109.865 15.7461 109.865 15.7461 109.866 15.7461C109.866 15.7461 109.866 15.7461 109.867 15.7461C109.867 15.7461 109.867 15.7461 109.868 15.7461C109.868 15.7461 109.868 15.7461 109.869 15.7461C109.869 15.7461 109.869 15.7461 109.869 15.7461C109.87 15.7461 109.87 15.7461 109.87 15.7461C109.871 15.7461 109.871 15.7461 109.871 15.7461C109.872 15.7461 109.872 15.7461 109.872 15.7461C109.873 15.7461 109.873 15.7461 109.873 15.7461C109.873 15.7461 109.874 15.7461 109.874 15.7461C109.874 15.7461 109.875 15.7461 109.875 15.7461C109.875 15.7461 109.876 15.7461 109.876 15.7461C109.876 15.7461 109.877 15.7461 109.877 15.7461C109.877 15.7461 109.878 15.7461 109.878 15.7461C109.878 15.7461 109.879 15.7461 109.879 15.7461C109.879 15.7461 109.879 15.7461 109.88 15.7461C109.88 15.7461 109.88 15.7461 109.881 15.7461C109.881 15.7461 109.881 15.7461 109.882 15.7461C109.882 15.7461 109.882 15.7461 109.883 15.7461C109.883 15.7461 109.883 15.7461 109.884 15.7461C109.884 15.7461 109.884 15.7461 109.885 15.7461C109.885 15.7461 109.885 15.7461 109.886 15.7461C109.886 15.7461 109.886 15.7461 109.887 15.7461C109.887 15.7461 109.887 15.7461 109.888 15.7461C109.888 15.7461 109.888 15.7461 109.889 15.7461C109.889 15.7461 109.889 15.7461 109.89 15.7461C109.89 15.7461 109.89 15.7461 109.891 15.7461C109.891 15.7461 109.891 15.7461 109.892 15.7461C109.892 15.7461 109.892 15.7461 109.893 15.7461C109.893 15.7461 109.893 15.7461 109.894 15.7461C109.894 15.7461 109.894 15.7461 109.895 15.7461C109.895 15.7461 109.895 15.7461 109.896 15.7461C109.896 15.7461 109.896 15.7461 109.897 15.7461C109.897 15.7461 109.897 15.7461 109.898 15.7461C109.898 15.7461 109.898 15.7461 109.899 15.7461C109.899 15.7461 109.9 15.7461 109.9 15.7461V13.7461Z" fill="white" mask="url(#path-18-inside-1_906_54548)"/>
<path d="M14.5837 103.262L14.5838 103.262L14.573 103.256C9.76514 100.532 6.11248 97.6656 3.42236 94.1842L3.41352 94.1728L3.40402 94.1619C0.536857 90.8646 -0.215535 85.9423 1.18317 81.7657C2.74746 84.3546 4.71645 86.7009 7.19842 89.0376L8.16162 90.0008L8.17092 90.0101L8.18069 90.0189C8.25613 90.0868 8.33116 90.1543 8.40581 90.2214C9.9313 91.5937 11.2955 92.8208 12.6594 94.3357C14.5379 96.5288 15.7898 99.0312 16.4182 101.849C16.533 102.548 16.5596 103.523 16.4982 104.35C16.2208 104.19 15.9594 104.044 15.7017 103.901L15.6993 103.9C15.3355 103.698 14.9792 103.5 14.5837 103.262Z" stroke="white"/>
<path d="M162.575 55.3279C159.054 52.7896 155.34 51.3184 152.351 50.2723L152.351 50.2722L152.344 50.2698C152.117 50.1943 151.928 50.1188 151.725 50.0378L151.721 50.0362C151.523 49.9568 151.311 49.8721 151.057 49.7873C150.941 49.7456 150.824 49.7041 150.707 49.6625C148.538 48.8904 146.356 48.1135 144.597 46.6485C142.638 44.9908 140.734 43.0929 139.614 40.5519L139.846 40.5851L139.854 40.5862L139.862 40.5871C141.312 40.7482 142.758 40.9089 144.043 41.0694C149.011 41.8713 152.815 42.9873 156.29 45.0405L156.289 45.0405L156.294 45.0431C158.324 46.2143 159.829 47.6864 160.87 49.5365C161.772 51.1402 162.337 53.0488 162.575 55.3279Z" stroke="white"/>
<path d="M18.8453 58.8788L18.8452 58.8788L18.8437 58.8874C18.5765 60.3569 17.959 61.8349 16.9841 63.2177C15.0009 59.5106 12.9621 55.2779 11.9135 50.634L11.9135 50.634L11.9127 50.6305C10.8048 45.8825 11.2936 42.4863 13.2897 39.5675C14.2075 38.2567 15.2209 37.0734 16.5089 36.0906C16.3749 39.3666 16.971 42.6006 17.5539 45.5152L17.5579 45.535L17.5634 45.5545C17.6997 46.0315 17.8064 46.4783 17.9118 46.9199C17.9284 46.9893 17.9449 47.0586 17.9616 47.1279C18.0829 47.6333 18.2082 48.1359 18.377 48.6423L18.3882 48.676L18.4041 48.7078C18.6959 49.2915 18.8472 49.8831 19.0067 50.6808C19.4762 53.0281 19.4801 55.705 18.8453 58.8788Z" stroke="white"/>
<path d="M120.027 149.114L120.035 149.098L120.042 149.082C121.838 144.74 124.605 141.578 128.599 139.934C128.59 140.369 128.558 140.777 128.457 141.182L128.451 141.207L128.447 141.233C127.801 145.759 127.001 151.009 124.621 155.77C122.758 159.496 119.824 161.667 115.602 162.607C115.088 162.709 114.347 162.742 113.665 162.752C113.706 162.687 113.747 162.621 113.789 162.554L113.795 162.544C113.987 162.236 114.193 161.907 114.363 161.572C115.334 160.113 116.308 158.49 117.121 156.863L117.131 156.844L117.138 156.825C117.28 156.47 117.423 156.12 117.565 155.773C118.06 154.564 118.544 153.382 118.926 152.109C118.992 151.911 119.057 151.71 119.122 151.508C119.386 150.692 119.656 149.855 120.027 149.114Z" stroke="white"/>
<path d="M54.3585 149.713C55.7718 149.713 57.1862 149.87 58.6021 150.184C60.238 150.593 61.5831 151.108 62.6884 152.005C58.4818 154.159 53.603 156.366 48.3069 157.275C44.0717 157.901 40.6686 157.118 37.5664 154.639C36.6998 153.896 35.9458 153.166 35.2912 152.296H35.2934H35.2967H35.3H35.3033H35.3066H35.3098H35.3131H35.3164H35.3197H35.323H35.3263H35.3296H35.3329H35.3362H35.3395H35.3428H35.3461H35.3494H35.3527H35.356H35.3593H35.3626H35.3659H35.3692H35.3725H35.3758H35.3791H35.3824H35.3857H35.389H35.3924H35.3957H35.399H35.4023H35.4056H35.4089H35.4122H35.4155H35.4188H35.4221H35.4254H35.4287H35.4321H35.4354H35.4387H35.442H35.4453H35.4486H35.4519H35.4552H35.4585H35.4618H35.4652H35.4685H35.4718H35.4751H35.4784H35.4817H35.485H35.4883H35.4916H35.4949H35.4983H35.5016H35.5049H35.5082H35.5115H35.5148H35.5181H35.5214H35.5247H35.528H35.5313H35.5347H35.538H35.5413H35.5446H35.5479H35.5512H35.5545H35.5578H35.5611H35.5644H35.5677H35.571H35.5743H35.5776H35.5809H35.5842H35.5875H35.5908H35.5941H35.5974H35.6007H35.604H35.6073H35.6106H35.6139H35.6172H35.6205H35.6238H35.6271H35.6304H35.6337H35.637H35.6403H35.6436H35.6469H35.6502H35.6534H35.6567H35.66H35.6633H35.6666H35.6699H35.6732H35.6764H35.6797H35.683H35.6863H35.6896H35.6929H35.6961H35.6994H35.7027H35.706H35.7092H35.7125H35.7158H35.719H35.7223H35.7256H35.7288H35.7321H35.7354H35.7386H35.7419H35.7452H35.7484H35.7517H35.7549H35.7582H35.7615H35.7647H35.768H35.7712H35.7745H35.7777H35.781H35.7842H35.7875H35.7907H35.7939H35.7972H35.8004H35.8037H35.8069H35.8101H35.8134H35.8166H35.8198H35.823H35.8263H35.8295H35.8327H35.8359H35.8392H35.8424H35.8456H35.8488H35.852H35.8552H35.8585H35.8617H35.8649H35.8681H35.8713H35.8745H35.8777H35.8809H35.8841H35.8873H35.8905H35.8937H35.8969H35.9H35.9032H35.9064H35.9096H35.9128H35.9159H35.9191H35.9223H35.9255H35.9286H35.9318H35.935H35.9381H35.9413H35.9445H35.9476H35.9508H35.9539H35.9571H35.9602H35.9634H35.9665H35.9697H35.9728H35.9759H35.9791H35.9822H35.9853H35.9885H35.9916H35.9947H35.9978H36.001H36.0041H36.0072H36.0103H36.0134H36.0165H36.0196H36.0227H36.0258H36.0289H36.032H36.0351H36.0382H36.0413H36.0444H36.0475H36.0506H36.0536H36.0567H36.0598H36.0628H36.0659H36.069H36.072H36.0751H36.0782H36.0812H36.0843H36.0873H36.0904H36.0934H36.0964H36.0995H36.1025H36.1055H36.1086H36.1116H36.1146H36.1176H36.1207H36.1237H36.1267H36.1297H36.1327H36.1357H36.1387H36.1417H36.1447H36.1477H36.1507H36.1537H36.1566H36.1596H36.1626H36.1656H36.1685H36.1715H36.1745H36.1774H36.1804H36.1833H36.1863H36.1892H36.1922H36.1951H36.1981H36.201H36.2039H36.2068H36.2098H36.2127H36.2156H36.2185H36.2214H36.2243H36.2272H36.2301H36.233H36.2359H36.2388H36.2417H36.2446H36.2475H36.2503H36.2532H36.2561H36.2589H36.2618H36.2647H36.2675H36.2704H36.2732H36.2761H36.2789C39.8765 152.296 43.6337 151.805 47.7105 150.664C50.0965 150.028 52.3118 149.713 54.3585 149.713Z" stroke="white"/>
<path d="M86.6022 168.732C85.052 168.861 83.4836 168.555 81.5712 167.968C81.5816 167.961 81.5921 167.953 81.6026 167.946L81.6073 167.942C81.8893 167.741 82.1624 167.546 82.3952 167.391C83.7082 166.569 85.0173 165.587 86.162 164.606L86.162 164.606L86.1659 164.603C87.0432 163.835 87.7887 163.052 88.5156 162.289C88.8705 161.917 89.2209 161.549 89.5801 161.19L91.0329 159.737L91.0679 159.702L91.0954 159.661C91.2249 159.467 91.3906 159.299 91.5979 159.091L91.6108 159.078C91.7947 158.895 92.0127 158.677 92.1961 158.412C92.9968 157.612 93.9334 156.678 94.8661 155.9C96.8958 154.34 99.0789 153.404 101.424 152.934C102.255 152.796 103.056 152.663 103.95 152.628C101.995 156.184 99.8782 159.676 97.0929 162.756C93.7204 166.288 90.7736 168.577 86.6252 168.731L86.6137 168.731L86.6022 168.732Z" stroke="white"/>
<path d="M64.8122 16.4925C67.1389 12.3227 69.6332 8.10783 73.4213 4.62244C75.1883 3.01615 77.5153 1.17136 80.4259 0.711806L80.4259 0.711886L80.4348 0.710316C82.744 0.302797 84.9345 0.486299 87.2288 1.27147L86.5275 1.739C86.349 1.85803 86.1607 1.97944 85.9659 2.10508C85.1468 2.63343 84.2116 3.2366 83.3936 4.05204C82.3019 5.03542 81.2726 6.10222 80.2822 7.12872C79.8013 7.62715 79.3296 8.11607 78.8643 8.58132L77.0887 10.357L75.313 12.1327C74.5465 12.8992 73.4549 13.6824 72.173 14.4836L72.173 14.4836L72.1677 14.487C69.9656 15.9026 68.2723 16.5116 66.445 16.6675C66.0245 16.6651 65.3735 16.5897 64.8122 16.4925Z" stroke="white"/>
<path d="M155.22 79.0243L155.232 79.036L155.244 79.047C159.111 82.4306 162.296 85.4601 164.839 89.2732C167.214 93.0748 167.966 96.1737 167.351 99.401L167.351 99.401L167.349 99.4123C167.088 100.976 166.496 102.44 165.651 103.907C165.483 103.586 165.372 103.256 165.249 102.888L165.246 102.879L165.243 102.87C164.754 101.566 164.259 100.409 163.595 99.2465L163.586 99.2315L163.577 99.2172C163.26 98.742 162.942 98.2588 162.621 97.7705C161.316 95.7867 159.954 93.7175 158.386 91.7566L158.386 91.7566L158.384 91.7544C155.718 88.4618 154.463 84.5455 154.621 80.3035L154.621 80.2942V80.285C154.621 79.7533 154.696 79.2171 154.799 78.6588C154.963 78.7909 155.105 78.9095 155.22 79.0243Z" stroke="white"/>
<path d="M72.3522 162.083L72.3522 162.083L72.3545 162.082C74.1643 161.095 75.8045 159.945 77.7583 158.318C80.0819 156.46 83.0429 155.357 86.676 154.879H86.6765H86.6776H86.6786H86.6797H86.6808H86.6818H86.6829H86.684H86.6851H86.6862H86.6873H86.6884H86.6894H86.6905H86.6916H86.6928H86.6939H86.695H86.6961H86.6972H86.6983H86.6994H86.7006H86.7017H86.7028H86.704H86.7051H86.7062H86.7074H86.7085H86.7097H86.7108H86.712H86.7131H86.7143H86.7155H86.7166H86.7178H86.719H86.7201H86.7213H86.7225H86.7237H86.7249H86.726H86.7272H86.7284H86.7296H86.7308H86.732H86.7332H86.7344H86.7356H86.7368H86.7381H86.7393H86.7405H86.7417H86.7429H86.7441H86.7454H86.7466H86.7478H86.7491H86.7503H86.7515H86.7528H86.754H86.7553H86.7565H86.7578H86.759H86.7603H86.7615H86.7628H86.764H86.7653H86.7666H86.7678H86.7691H86.7704H86.7716H86.7729H86.7742H86.7755H86.7767H86.778H86.7793H86.7806H86.7819H86.7832H86.7845H86.7858H86.7871H86.7884H86.7897H86.791H86.7923H86.7936H86.7949H86.7962H86.7975H86.7988H86.8001H86.8014H86.8027H86.8041H86.8054H86.8067H86.808H86.8094H86.8107H86.812H86.8133H86.8147H86.816H86.8174H86.8187H86.82H86.8214H86.8227H86.8241H86.8254H86.8267H86.8281H86.8294H86.8308H86.8321H86.8335H86.8348H86.8362H86.8376H86.8389H86.8403H86.8416H86.843H86.8444H86.8457H86.8471H86.8485H86.8498H86.8512H86.8526H86.8539H86.8553H86.8567H86.8581H86.8594H86.8608H86.8622H86.8636H86.865H86.8663H86.8677H86.8691H86.8705H86.8719H86.8733H86.8747H86.876H86.8774H86.8788H86.8802H86.8816H86.883H86.8844H86.8858H86.8872H86.8886H86.89H86.8914H86.8928H86.8942H86.8956H86.897H86.8984H86.8998H86.9012H86.9026H86.904H86.9054H86.9068H86.9082H86.9096H86.911H86.9124H86.9138H86.9152H86.9167H86.9181H86.9195H86.9209H86.9223H86.9237H86.9251H86.9265H86.928H86.9294H86.9308H86.9322H86.9336H86.935H86.9364H86.9379H86.9393H86.9407H86.9421H86.9435H86.9449H86.9464H86.9478H86.9492H86.9506H86.952H86.9534H86.9549H86.9563H86.9577H86.9591H86.9605H86.962H86.9634H86.9648H86.9662H86.9676H86.9691H86.9705H86.9719H86.9733H86.9747H86.9761H86.9776H86.979H86.9804H86.9818H86.9832H86.9847H86.9861H86.9875H86.9889H86.9903H86.9917H86.9932H86.9946H86.996H86.9974H86.9988H87.0002H87.0016H87.0031H87.0045H87.0059H87.0073H87.0087H87.0101H87.0115H87.0129H87.0144H87.0158H87.0172H87.0186H87.02H87.0214H87.0228H87.0242H87.0256H87.027H87.0284H87.0298H87.0312H87.0326H87.034H87.0354H87.0369H87.0383H87.0397H87.041H87.0424H87.0438H87.0452H87.0466H87.048H87.0494H87.0508H87.0522H87.0536H87.055H87.0564H87.0578H87.0592H87.0605H87.0619H87.0633H87.0647H87.0661H87.0675H87.0688H87.0702H87.0716H87.073H87.0744H87.0757H87.0771H87.0785H87.0799H87.0812H87.0826H87.084H87.0853H87.0867H87.0881H87.0894H87.0908H87.0921H87.0935H87.0949H87.0962H87.0976H87.0989H87.1003H87.1016H87.103H87.1043H87.1057H87.107H87.1084H87.1097H87.1111H87.1124H87.1137H87.1151H87.1164H87.1177H87.1191H87.1204H87.1217H87.1231H87.1244H87.1257H87.127H87.1284H87.1297H87.131H87.1323H87.1336H87.1349H87.1362H87.1376H87.1389H87.1402H87.1415H87.1428H87.1441H87.1454H87.1467H87.148H87.1493H87.1505H87.1518H87.1531H87.1544H87.1557H87.157H87.1582H87.1595H87.1608H87.1621H87.1633H87.1646H87.1659H87.1671H87.1684H87.1697H87.1709H87.1722H87.1734H87.1747H87.1759H87.1772H87.1784H87.1797H87.1809H87.1821H87.1834H87.1846H87.1858H87.1871H87.1883H87.1895H87.1907H87.1919H87.1932H87.1944H87.1956H87.1968H87.198H87.1992H87.2004H87.2016H87.2028H87.204H87.2052H87.2064H87.2076H87.2087H87.2099H87.2111H87.2123H87.2135H87.2146H87.2158H87.217H87.2181H87.2193H87.2204H87.2216H87.2227H87.2239H87.225H87.2262H87.2273H87.2285H87.2296H87.2307H87.2319H87.233H87.2341H87.2352H87.2363H87.2375H87.2386H87.2397H87.2408H87.2419H87.243H87.2441H87.2452H87.2463H87.2473H87.2484H87.2495H87.2506H87.2517H87.2527H87.2538H87.2549H87.2559H87.257H87.258H87.2591H87.2601H87.2612H87.2622H87.2633H87.2643H87.2653H87.2664H87.2674H87.2684H87.2694H87.2704H87.2715H87.2725H87.2735H87.2745H87.2755H87.2765H87.2775H87.2784H87.2794H87.2804H87.2814H87.2824H87.2833H87.2843H87.2853H87.2862H87.2872H87.2881H87.2891C88.219 154.879 89.4219 155.055 90.3828 155.212L90.1396 155.504C89.9774 155.684 89.8144 155.866 89.6505 156.048C86.8681 159.146 83.8142 162.547 79.917 165.096C76.1145 167.472 73.0151 168.224 69.7873 167.609L69.7873 167.609L69.7759 167.607C68.1919 167.343 66.709 166.738 65.3232 165.975C65.5911 165.809 65.8759 165.645 66.2046 165.48L66.219 165.473L66.2329 165.465C68.1613 164.34 70.252 163.214 72.3522 162.083Z" stroke="white"/>
<path d="M2.93066 65.5686C2.97425 65.6731 3.01871 65.7718 3.06167 65.8649C3.08796 65.9218 3.11309 65.9756 3.13702 66.0267C3.23238 66.2306 3.30881 66.394 3.36416 66.5601L3.37074 66.5798L3.37893 66.5989C3.86319 67.7288 4.51869 69.2054 5.18006 70.3628L5.1886 70.3777L5.19815 70.3921L5.20404 70.4009C6.81413 72.816 8.43607 75.249 10.0606 77.3609L10.0605 77.3609L10.0665 77.3684C11.9529 79.7263 13.2106 82.3968 13.8408 85.5482L13.8423 85.5554L13.8439 85.5625C14.2442 87.2968 14.1853 88.9224 13.8536 90.6625C13.717 90.5491 13.5829 90.4343 13.4458 90.3168L13.4412 90.3128C13.1663 90.0772 12.8788 89.8308 12.5503 89.5833C7.90592 85.4175 4.72062 81.7488 2.33587 77.7768C0.480932 74.3422 0.742925 69.3839 2.93066 65.5686Z" stroke="white"/>
<path d="M83.4666 14.0979C81.8041 14.4815 80.2416 14.4433 78.5824 14.1474C79.2717 13.4245 79.8477 12.7048 80.4096 12.0024C84.4086 7.52539 88.0722 4.66343 92.0423 2.59897L92.0599 2.58985L92.0767 2.57936C93.2533 1.84398 94.9195 1.52539 96.8158 1.52539C99.3018 1.52539 101.79 2.26238 103.727 3.40232C103.331 3.65157 102.929 3.78767 102.469 3.94097L102.449 3.94755L102.43 3.95574C102.185 4.06074 101.928 4.16735 101.664 4.27699C100.742 4.65951 99.7316 5.07892 98.8277 5.59544L98.8277 5.59541L98.8223 5.5986C96.0569 7.22528 93.7807 8.85122 91.6728 10.4725C89.3029 12.2097 86.789 13.4647 83.4854 14.0939L83.476 14.0957L83.4666 14.0979Z" stroke="white"/>
<path d="M148.315 52.5097L148.315 52.5097C154.102 54.4388 158.24 56.3544 161.727 59.0494L161.727 59.0496L161.738 59.0575C165.712 61.9616 167.287 66.0573 166.726 71.292C164.717 69.0818 162.398 67.1369 159.395 65.3338C159.147 65.1691 158.94 65.0447 158.741 64.9257L158.739 64.9242C158.537 64.8031 158.344 64.6875 158.113 64.5333C157.531 64.145 156.966 63.7929 156.419 63.4512C155.551 62.91 154.726 62.3953 153.939 61.8051L153.939 61.805L153.928 61.7971C150.3 59.2275 148.001 55.9542 147.131 52.1151L148.315 52.5097Z" stroke="white"/>
<path d="M20.6206 116.777L20.6167 116.775C14.6725 114.848 10.3849 112.774 7.06674 109.93L7.04996 109.916L7.03197 109.903C4.86383 108.354 3.31559 106.188 2.53971 103.55L2.53977 103.55L2.53726 103.542C1.88031 101.44 1.88943 99.4415 2.10051 97.7246C2.43637 97.9965 2.78433 98.3428 3.15929 98.7178L3.1711 98.7296C4.29201 99.8505 5.44171 101 6.75969 101.989C9.04938 103.788 11.4964 105.255 14.0832 106.71L14.0855 106.711C16.8832 108.265 19.0815 110.763 20.8245 114.089C21.3249 115.091 21.6231 116.096 21.8007 117.109C21.3576 116.996 20.9483 116.886 20.6206 116.777Z" stroke="white"/>
<path d="M66.8797 2.32426L66.8957 2.32134L66.9115 2.31739C67.485 2.17403 68.2237 2.1709 69.0502 2.1709C69.6614 2.1709 70.2725 2.23817 70.9491 2.33127C68.5814 4.41412 66.714 6.66274 65.2397 9.30828C64.7469 9.96981 64.2588 10.7833 63.7875 11.5688L63.7787 11.5834L63.7688 11.5999L63.7602 11.6171C63.5315 12.0746 63.263 12.4972 62.9785 12.9444L62.9725 12.9538C62.6967 13.3872 62.4057 13.8444 62.1538 14.3457C60.5976 16.9839 58.0977 19.181 54.7742 20.9218L54.7614 20.9286L54.749 20.936C54.4358 21.1239 53.8747 21.275 53.1982 21.3745C52.7981 21.4334 52.382 21.4709 51.9948 21.4913C53.5616 16.8441 55.459 11.8507 58.7952 7.29932C60.9823 4.48947 63.4575 2.94647 66.8797 2.32426Z" stroke="white"/>
<path d="M105.643 156.568L105.643 156.568L105.646 156.564C107.544 153.241 109.747 150.885 112.409 149.159C113.899 148.348 115.383 147.773 116.964 147.431C116.868 147.796 116.775 148.132 116.683 148.41C115.395 152.271 113.638 156.896 110.776 161.032C108.726 163.869 106.544 165.571 103.915 166.499L103.915 166.499L103.906 166.502C102.692 166.957 101.305 167.116 99.8845 167.116C99.2604 167.116 98.6365 167.046 97.9427 166.95C101.278 163.816 103.544 160.167 105.643 156.568Z" stroke="white"/>
</svg>
