<svg width="183" height="209" viewBox="0 0 183 209" fill="none" xmlns="http://www.w3.org/2000/svg">
<path d="M130.958 22.8817C130.436 23.0559 130.087 23.0559 129.565 23.2301C128.868 23.4043 127.997 23.7527 127.126 24.1011L126.777 24.2753L127.126 24.6237C127.823 25.3205 128.519 26.0174 129.216 26.3658C133.049 28.8046 136.881 30.024 141.062 29.6756C142.978 29.5014 145.069 29.5014 147.159 29.5014C148.901 29.5014 150.817 29.5014 152.734 29.6756C153.953 29.6756 155.172 30.024 156.392 30.3724C156.914 30.5466 157.437 30.5466 157.96 30.7208C157.96 30.7208 157.96 30.7208 158.134 30.7208C156.566 26.1916 151.862 22.3591 147.682 21.8365C144.72 21.4881 141.585 21.4881 137.229 21.8365C134.965 21.8365 132.874 22.3591 130.958 22.8817Z" fill="white"/>
<path d="M34.6215 150.571C37.4087 150.571 40.1959 150.397 42.809 150.049C41.5896 147.958 39.8475 146.391 37.4087 144.649C34.2731 142.558 30.6148 142.036 26.7824 141.339H26.434C24.1693 140.99 21.5563 140.642 19.1174 139.771C17.7238 139.422 16.3302 138.726 15.1108 138.029C14.5882 137.68 14.0656 137.506 13.543 137.332C14.414 140.293 15.8076 143.603 18.5948 146.042C21.0337 148.307 24.1693 149.004 27.305 149.7C29.3954 150.397 31.8342 150.571 34.6215 150.571Z" fill="white"/>
<path d="M54.4808 158.759C54.8292 158.759 55.0034 158.585 55.3518 158.585C54.8292 158.062 54.4808 157.539 53.9582 157.191C49.9515 154.055 45.7707 152.836 40.893 153.01C37.4089 153.184 33.5765 153.184 29.744 153.01C28.5246 153.01 27.131 152.662 25.9116 152.313C25.389 152.139 24.8664 152.139 24.3438 151.965C26.0858 156.668 30.615 160.501 35.4927 161.023C40.893 161.546 45.9449 161.198 50.8225 159.63C51.8677 159.281 53.0872 158.933 54.4808 158.759Z" fill="white"/>
<path d="M83.5729 166.947C82.7019 166.598 81.8308 166.076 81.134 166.076C78.3468 165.553 75.5596 165.379 72.7723 165.901C71.7271 166.076 70.6819 166.598 69.6367 166.947C69.2883 167.121 69.1141 167.121 68.7657 167.295C67.7204 167.818 66.501 168.34 65.4558 168.689C63.3654 169.56 61.275 170.605 59.1845 171.302C57.6167 171.824 56.0489 172.173 54.4811 172.521C53.7842 172.695 53.0874 172.695 52.5648 172.87C52.5648 172.87 52.5648 172.87 52.3906 172.87C54.3069 174.612 56.2231 175.831 58.4877 176.702C61.275 177.747 64.0622 177.747 67.0236 176.702C71.0303 175.308 74.8627 173.392 78.3468 170.779C79.5662 169.908 80.7856 168.863 82.1793 167.992L83.5729 166.947Z" fill="white"/>
<path d="M23.6492 54.5868L23.9976 55.6321C25.217 54.5868 26.2622 53.1932 27.1333 51.6254C28.8753 47.9672 29.7463 44.6573 29.5721 41.1733C29.3979 37.1666 29.3979 33.3341 29.5721 30.1985C29.5721 28.9791 29.9205 27.7597 30.0947 26.5403C30.2689 26.0176 30.2689 25.495 30.4431 25.1466C30.4431 24.9724 30.4431 24.7982 30.6173 24.624C24.5202 27.4113 21.5588 31.9405 21.3846 38.2118C21.2104 42.5669 21.733 46.5735 22.7782 50.406C22.9524 51.6254 23.3008 53.019 23.6492 54.5868Z" fill="white"/>
<path d="M12.4994 80.1945C13.1962 81.2397 14.0672 82.2849 14.9382 83.3302L15.4608 84.027C16.506 82.1107 16.8544 80.3687 16.8544 78.8009C17.2028 75.3168 16.506 71.8328 14.9382 68.6971C13.3704 65.3873 11.9767 62.2517 10.9315 59.2902C10.4089 57.8966 10.0605 56.3288 9.88631 54.9352C9.71211 54.2383 9.71211 53.7157 9.53791 53.0189C9.53791 53.0189 9.53791 53.0189 9.53791 52.8447C7.44748 54.9352 6.05386 57.5482 5.18285 60.6838C4.48604 63.4711 5.18285 66.0841 6.05386 68.6971C7.44748 73.2264 10.2347 77.2331 12.4994 80.1945Z" fill="white"/>
<path d="M176.77 78.1031C173.112 74.4448 168.757 71.8318 163.879 69.2188C163.879 69.393 163.879 69.5672 163.879 69.7414C163.879 70.7866 163.705 71.8318 164.054 72.877C165.099 77.0579 166.667 80.0193 168.931 82.2839C169.802 83.1549 170.848 84.026 171.719 84.897C173.112 86.2906 174.68 87.51 176.074 89.0778C177.467 90.4715 178.512 92.2135 179.732 93.7813V93.9555C180.255 94.6523 180.603 95.1749 181.126 95.8717C181.126 95.8717 181.126 95.8717 181.126 96.0459C181.997 93.4329 182.519 91.3425 182.345 89.252C182.171 84.026 179.383 80.7161 176.77 78.1031Z" fill="white"/>
<path d="M158.133 127.403V127.229C156.914 128.274 156.043 129.493 155.172 131.061C153.255 134.893 152.384 138.203 152.733 141.687C152.907 144.823 153.081 148.133 152.907 151.443C152.907 153.01 152.559 154.578 152.21 155.972C152.036 156.495 152.036 157.191 151.862 157.714C151.862 157.888 151.862 158.062 151.688 158.237C156.565 156.32 160.223 151.791 160.746 147.262C161.269 142.558 160.92 138.203 159.875 134.022C159.352 131.584 158.83 129.319 158.133 127.403Z" fill="white"/>
<path d="M144.198 145.52C142.63 148.133 142.107 150.92 141.585 153.882C141.411 154.579 141.411 155.275 141.236 155.972C140.54 159.282 139.669 162.418 138.798 165.553L138.623 166.424C138.449 167.295 138.101 167.992 137.578 168.863C138.275 168.689 138.798 168.689 139.32 168.515C144.372 166.599 147.508 163.463 148.901 158.934C150.818 152.488 150.643 145.869 149.947 139.771C147.159 141.165 145.417 143.604 144.198 145.52Z" fill="white"/>
<path d="M147.332 32.1143C144.545 32.1143 141.758 32.2885 139.145 32.4627C140.364 34.5531 142.106 36.2951 144.719 37.8629C147.855 39.9534 151.513 40.476 155.345 40.9986L156.216 41.1728C157.958 41.347 159.7 41.6954 161.442 42.218C162.836 42.5664 164.23 43.2632 165.623 43.7858C166.146 43.96 166.843 44.3084 167.365 44.4826C167.714 44.6568 168.062 44.831 168.585 45.0052C167.888 42.3922 167.191 40.476 165.972 38.734C163.184 34.7273 159.004 33.5079 155.345 32.8111C152.732 32.2885 150.293 32.1143 147.332 32.1143Z" fill="white"/>
<path d="M163.88 113.466C162.486 115.382 161.615 117.298 161.267 119.214C160.57 123.047 160.57 126.357 161.615 129.492C161.964 130.712 162.138 132.105 162.486 133.325C162.661 134.37 162.835 135.241 163.009 136.286C163.706 139.248 163.88 142.383 163.706 145.171C165.622 143.777 167.19 142.383 168.235 140.467C170.151 137.332 170.848 134.022 170.151 129.841C169.28 125.66 166.319 117.472 163.88 113.466Z" fill="white"/>
<path d="M117.371 13.6488C119.113 12.7778 121.029 12.081 122.945 11.3842C124.513 10.8616 126.081 10.5132 127.475 10.1648C128.171 9.99057 128.694 9.99057 129.391 9.81637H129.565C126.604 7.02913 123.294 5.46131 119.287 5.28711C118.068 5.28711 116.674 5.63551 115.455 5.98392H115.28C110.054 7.37754 105.525 10.5132 101.867 13.1262C100.822 13.823 99.9506 14.694 98.9054 15.3909L98.3828 15.7393H98.557C99.428 16.0877 99.9506 16.2619 100.647 16.4361C103.26 17.1329 106.048 17.3071 109.009 16.6103C110.403 16.2619 111.796 15.9135 113.364 15.2166C114.584 14.694 115.977 14.1714 117.197 13.6488H117.371Z" fill="white"/>
<path d="M172.941 107.545C171.548 105.455 169.98 103.364 168.586 101.448C168.064 100.751 167.541 100.054 167.018 99.3576C166.844 99.1834 166.844 99.0092 166.67 98.835C165.451 101.448 165.102 104.061 165.276 107.545C165.451 110.507 166.67 113.294 167.889 115.907L168.064 116.255C169.109 118.694 170.328 121.133 171.199 123.572C171.722 125.314 172.07 127.056 172.419 128.798C172.419 129.146 172.593 129.669 172.593 130.017C175.729 127.23 177.819 121.307 176.948 117.649C176.077 113.468 174.858 110.158 172.941 107.545Z" fill="white"/>
<path d="M52.0429 24.6233C52.7397 23.7523 53.0881 22.5329 53.4365 21.3134C53.6107 20.7908 53.7849 20.4424 53.7849 19.9198C55.3527 15.2164 57.269 10.3387 60.5788 6.33203C59.882 6.33203 59.1852 6.50623 58.6626 6.50623C53.0881 7.20304 49.0815 10.1645 46.6426 15.739C44.9006 19.3972 43.8554 23.7523 43.3328 28.4557C43.1586 29.501 42.9844 30.7204 42.9844 31.7656V32.2882C44.0296 31.9398 45.5974 31.243 46.2942 30.7204C48.5588 28.6299 50.4751 26.7137 52.0429 24.6233Z" fill="white"/>
<path d="M37.0616 38.5592C38.9778 35.5978 40.1972 32.288 40.7198 28.6297C40.894 27.4103 41.0682 26.1909 41.4166 24.9715C41.5908 23.9262 41.9392 22.7068 42.1134 21.6616C42.4618 19.397 43.3328 17.4807 44.0297 15.5645C44.2039 15.0419 44.3781 14.5193 44.7265 14.1709C42.1134 14.8677 40.1972 15.5645 38.4552 16.7839C34.4485 19.5712 33.2291 23.752 32.5323 27.5845C31.4871 32.8106 31.8355 38.2108 32.3581 43.2627C34.1001 41.8691 35.6679 40.4755 37.0616 38.5592Z" fill="white"/>
<path d="M19.1183 137.158C22.6023 138.377 26.4348 138.9 30.093 139.248H30.4415C30.9641 139.248 31.6609 139.423 32.1835 139.423C32.0093 138.726 31.6609 138.203 31.3125 137.681C29.0478 133.674 25.738 130.887 21.5571 129.319C20.8603 128.97 20.1635 128.796 19.4667 128.448C18.0731 127.925 16.3311 127.228 14.7632 126.706C11.8018 125.661 9.01455 124.093 5.87891 121.828C6.05311 127.054 7.79513 130.887 11.4534 133.674C13.5438 135.242 15.9826 136.113 18.2473 136.984L19.1183 137.158Z" fill="white"/>
<path d="M118.416 15.9139C116.5 16.7849 114.758 17.6559 113.016 18.5269C114.932 19.9205 116.848 20.7916 119.113 21.3142C120.506 21.4884 121.726 21.6626 123.119 21.6626C125.732 21.6626 128.52 21.14 131.655 20.2689C136.185 18.8753 140.191 18.5269 143.849 18.7011C144.024 18.7011 144.198 18.7011 144.372 18.7011C142.804 16.6107 141.062 14.8687 138.972 13.6493C137.056 12.4298 134.791 11.9072 132.352 11.9072C131.133 11.9072 129.913 12.0814 128.52 12.2556C125.21 13.1266 121.726 14.3461 118.416 15.9139Z" fill="white"/>
<path d="M15.4605 111.899C16.3315 112.422 17.0283 112.77 17.8993 113.293L18.2477 113.467C18.4219 112.422 18.4219 110.854 18.2477 109.809C17.5509 106.673 16.1573 103.886 14.0668 101.447C12.499 99.7051 10.9312 98.3114 9.18918 96.7436C8.84078 96.3952 8.49237 96.0468 8.14396 95.6984C5.18252 92.9112 2.91789 90.1239 1.17587 86.9883C-0.914563 91.866 -0.217752 97.963 3.2663 101.97C6.22774 105.802 10.2344 108.938 15.4605 111.899Z" fill="white"/>
<path d="M155.518 43.7857C154.125 43.6115 152.557 43.4373 150.989 43.2631L149.77 43.0889C149.77 43.2631 149.77 43.2631 149.944 43.4373C151.163 46.5729 153.428 48.8375 155.692 50.7538C157.783 52.4958 160.396 53.3668 162.835 54.2378C163.357 54.412 163.706 54.5862 164.228 54.7604C167.712 55.9798 172.067 57.7219 176.074 60.8575C175.726 54.7604 173.461 50.7538 168.932 48.1407C165.099 45.8761 160.918 44.6567 155.518 43.7857Z" fill="white"/>
<path d="M18.2467 69.2197C19.6403 67.4777 20.5113 65.5615 20.8597 63.6452C21.5565 60.1612 21.5565 57.1998 21.0339 54.5867C20.8597 53.7157 20.6855 53.0189 20.3371 52.3221C19.9887 51.2769 19.8145 50.2317 19.4661 49.0122C18.7693 45.5282 18.0725 41.6957 18.4209 37.8633C16.5046 39.0827 15.111 40.6505 13.8916 42.3925C11.627 45.7024 11.1044 49.5348 12.3238 54.7609C13.5432 60.1612 15.982 65.0389 18.2467 69.2197Z" fill="white"/>
<path d="M129.039 160.676C128.517 161.721 128.168 162.94 127.82 163.986C127.297 165.728 126.6 167.295 125.904 169.037C125.033 170.78 123.987 172.522 122.942 174.089C122.594 174.786 122.071 175.483 121.723 176.18C122.594 176.18 123.987 176.18 124.858 176.006C129.562 174.96 132.872 172.522 134.962 168.341C137.575 163.115 138.446 157.366 139.143 152.488C139.317 151.791 139.317 151.095 139.317 150.398V150.224C134.439 151.966 131.13 155.624 129.039 160.676Z" fill="white"/>
<path d="M63.3671 161.546C61.7992 161.198 60.2314 161.023 58.6636 161.023C56.399 161.023 53.9601 161.372 51.3471 162.069C46.992 163.288 42.9854 163.811 39.1529 163.811C38.6303 163.811 37.9335 163.811 37.4109 163.811C37.2367 163.811 37.2367 163.811 37.0625 163.811C37.9335 165.204 38.9787 166.25 40.1981 167.295C43.6822 170.082 47.5146 170.953 52.2181 170.256C58.3152 169.211 63.8897 166.598 68.5931 164.159C67.1995 162.765 65.4575 162.069 63.3671 161.546Z" fill="white"/>
<path d="M112.667 164.16C111.448 164.16 110.402 164.334 109.357 164.508C106.744 165.031 104.305 166.076 102.041 167.818C100.996 168.689 99.9503 169.734 99.0793 170.605C98.7309 171.128 98.2083 171.476 97.8599 171.999C97.3373 172.521 96.8147 173.044 96.2921 173.566C95.0727 174.786 94.0274 176.005 92.6338 177.225C91.4144 178.27 90.0208 179.315 88.6272 180.186C88.1046 180.535 87.4077 181.057 86.8851 181.406C86.8851 181.406 86.8851 181.406 86.7109 181.406C89.324 182.277 91.4144 182.799 93.5048 182.625C98.2083 182.451 101.518 179.838 105.176 176.005C108.486 172.347 110.925 168.166 113.19 163.985C113.016 163.985 112.841 163.985 112.667 164.16Z" fill="white"/>
<path d="M71.7263 18.5264C73.8167 18.3522 75.733 17.6554 78.1718 16.0876C79.5654 15.2166 80.7848 14.3456 81.6559 13.4746C82.8753 12.2551 84.2689 10.8615 85.4883 9.64211C87.0561 8.07429 88.624 6.33226 90.366 4.76444C91.4112 3.71922 92.6306 3.02241 93.6758 2.3256C94.1984 1.9772 94.721 1.62879 95.2437 1.28039C95.2437 1.28039 95.2437 1.28039 95.4179 1.28039C92.4564 0.0609701 89.6692 -0.287434 86.7077 0.235174C83.3979 0.757781 80.7848 2.84821 78.8686 4.59023C74.5136 8.59689 71.7263 13.4746 69.1133 18.178C69.8101 18.3522 71.0295 18.5264 71.7263 18.5264Z" fill="white"/>
<path d="M167.887 84.8978C167.539 84.5494 167.016 84.2009 166.668 83.8525V84.0267C166.493 84.8978 166.319 85.7688 166.319 86.6398C166.145 91.3432 167.539 95.6983 170.5 99.3566C172.59 101.97 174.333 104.757 176.075 107.37C176.771 108.589 177.294 109.809 177.817 111.202C177.991 111.725 178.165 112.248 178.513 112.77C178.513 112.944 178.688 113.119 178.688 113.293C179.907 111.377 180.778 109.46 181.126 107.37C181.823 103.712 180.952 100.228 178.339 96.0467C175.552 91.8659 172.068 88.556 167.887 84.8978Z" fill="white"/>
<path d="M98.5567 167.122C97.5114 166.948 95.5952 166.6 94.2016 166.6C94.0274 166.6 93.679 166.6 93.5048 166.6C89.4981 167.122 86.1883 168.342 83.5752 170.432C81.4848 172.174 79.7428 173.394 77.8266 174.439C75.5619 175.658 73.2973 176.878 71.2069 178.097C70.5101 178.445 69.9875 178.794 69.4648 179.142C71.2069 180.187 73.1231 181.058 75.2135 181.407C78.8718 182.104 82.3558 181.233 86.5367 178.62C91.066 175.658 94.55 171.651 97.6857 168.167L98.5567 167.122Z" fill="white"/>
<path d="M13.1939 97.0914C13.8907 97.614 14.4133 98.1366 15.1101 98.6592L15.2843 98.8334C15.8069 96.5688 15.9811 94.4783 15.4585 92.2137C14.7617 88.7297 13.3681 85.7682 11.2777 83.1552C9.53564 80.8905 7.79361 78.2775 6.05159 75.6645C5.35478 74.4451 4.65797 72.8772 4.13536 71.6578C3.96116 71.1352 3.61276 70.6126 3.43855 69.9158C3.43855 69.7416 3.26435 69.7416 3.26435 69.5674C0.302909 73.9224 -0.2197 80.0195 2.04493 84.2004C4.65797 88.5555 8.14202 92.5621 13.1939 97.0914Z" fill="white"/>
<path d="M83.5742 15.5653C85.8389 16.0879 87.9293 16.2621 90.1939 15.7395C93.8522 15.0426 96.6394 13.649 99.2524 11.7328C101.517 9.99077 103.956 8.24875 106.917 6.50672C108.137 5.80991 109.53 5.2873 110.75 4.7647C111.272 4.59049 111.795 4.41629 112.318 4.06789C112.492 3.89368 112.84 3.89368 113.014 3.71948C110.75 2.15166 107.614 1.10645 104.479 1.10645C102.388 1.10645 100.472 1.45485 99.0782 2.32586C94.7232 4.59049 90.7165 7.72614 86.3615 12.6038C85.6647 13.4748 84.9678 14.3458 84.0968 15.2168L83.5742 15.5653Z" fill="white"/>
<path d="M160.223 56.1548L158.133 55.458C158.133 55.6322 158.133 55.6322 158.133 55.8064C159.004 60.3357 161.617 64.1681 165.798 67.1296C167.191 68.1748 168.759 69.0458 170.327 70.091C170.85 70.4394 171.198 70.6136 171.721 70.962C175.205 73.0525 177.818 75.3171 180.082 77.9301L180.257 78.1043C180.431 77.7559 180.431 77.4075 180.431 77.2333C181.128 71.3104 179.386 66.607 174.856 63.2971C171.024 60.3357 166.495 58.2452 160.223 56.1548Z" fill="white"/>
<path d="M22.0789 126.531C22.6015 126.705 23.2983 126.879 23.9951 127.054H24.1693C23.9951 125.66 23.6467 124.266 22.9499 122.873C21.0337 119.214 18.5948 116.427 15.4592 114.685C12.6719 113.117 10.0589 111.55 7.62007 109.633C6.22645 108.588 5.00704 107.369 3.78762 106.149C3.26501 105.627 2.7424 105.104 2.2198 104.756C2.04559 104.581 2.04559 104.581 1.87139 104.407C1.52299 106.498 1.34878 109.111 2.2198 111.898C3.09081 114.859 4.83283 117.298 7.27167 119.04C10.9299 122.176 15.6334 124.441 22.0789 126.531Z" fill="white"/>
<path d="M77.8237 2.15114C76.6043 1.97693 75.559 1.80273 74.5138 1.80273C73.6428 1.80273 72.7718 1.80273 72.075 1.97693C68.2425 2.67374 65.4553 4.41577 63.0165 7.55141C59.184 12.7775 57.0936 18.5262 55.3516 23.7522C56.571 23.7522 58.4872 23.578 59.3582 23.0554C63.0165 21.1392 65.8037 18.7004 67.5457 15.7389C68.0683 14.6937 68.7652 13.8227 69.2878 12.7775C69.8104 11.9065 70.333 11.0355 70.8556 10.3387C72.5976 7.20301 74.8622 4.58997 77.8237 2.15114Z" fill="white"/>
<path d="M113.535 168.689C111.096 172.87 108.483 177.051 104.477 180.535C105.696 180.709 106.741 180.883 107.786 180.883C109.354 180.883 110.922 180.709 112.316 180.186C115.277 179.141 117.716 177.225 119.981 174.089C123.116 169.56 125.032 164.508 126.426 160.327C126.6 159.805 126.774 159.108 126.949 158.411C124.858 158.76 122.942 159.456 121.026 160.502C118.064 162.418 115.626 165.031 113.535 168.689Z" fill="white"/>
<path d="M90.7164 152.488L91.0648 152.314L91.4132 152.488C91.4132 152.488 91.4132 152.314 91.4132 151.965C95.4199 148.307 100.123 146.042 105.175 143.603C106.046 143.255 107.091 142.732 107.962 142.21C116.673 137.855 123.118 132.629 127.996 125.835L131.306 128.274L132.873 114.86L120.331 120.086L123.641 122.699C118.937 128.448 113.885 133.674 106.569 135.416C105.698 135.59 104.827 135.764 103.782 135.764C97.8587 135.764 93.5037 131.061 93.5037 124.964C93.5037 121.131 93.5037 116.254 93.5037 112.421C100.123 112.421 106.22 112.421 107.091 112.421C107.788 112.421 108.659 112.073 109.182 111.55C109.53 111.028 110.924 107.718 110.924 107.718H71.0315C71.0315 107.718 72.4252 111.028 72.7736 111.55C73.122 112.073 74.1672 112.421 74.864 112.421C75.735 112.421 81.8321 112.421 88.4518 112.421C88.4518 116.254 88.4518 121.131 88.4518 124.964C88.4518 131.061 83.9225 135.764 78.1738 135.764C77.3028 135.764 76.4318 135.59 75.3866 135.416C68.0701 133.674 63.0182 128.448 58.3148 122.699L61.6246 120.086L49.082 114.86L50.6498 128.274L53.9597 125.835C58.8374 132.629 65.4571 138.029 73.993 142.21C74.864 142.732 75.9092 143.081 76.7802 143.603C81.8321 146.042 86.7098 148.307 90.5422 151.965C90.7164 152.314 90.7164 152.488 90.7164 152.488Z" fill="white"/>
<path d="M74.8637 54.412C74.1669 54.412 73.2959 54.7604 72.7733 55.283C72.4249 55.8056 71.0312 59.1155 71.0312 59.1155H111.272C111.272 59.1155 109.878 55.8056 109.53 55.283C109.182 54.7604 108.136 54.412 107.44 54.412C105.698 54.412 98.9037 54.412 94.2002 54.412V48.6633C97.8584 47.4439 100.646 43.7857 100.646 39.779C100.646 34.5529 96.4648 30.3721 91.2387 30.3721C86.0127 30.3721 81.8318 34.5529 81.8318 39.779C81.8318 43.9599 84.4448 47.4439 88.2773 48.6633V54.412C83.3996 54.412 76.4315 54.412 74.8637 54.412ZM87.4063 39.6048C87.4063 37.5144 88.9741 35.9466 91.0645 35.9466C93.155 35.9466 94.7228 37.5144 94.7228 39.6048C94.7228 41.6952 93.155 43.2631 91.0645 43.2631C88.9741 43.2631 87.4063 41.6952 87.4063 39.6048Z" fill="white"/>
<path d="M47.8633 66.2588V100.751H67.374V95.0022H53.7862V66.2588H47.8633Z" fill="white"/>
<path d="M96.2889 94.4779C95.2437 95.1747 93.6759 95.5231 91.7597 95.5231C87.753 95.5231 84.7916 93.7811 83.3979 90.2971L78.1719 93.2585C79.2171 95.6973 80.7849 97.6136 83.0496 99.0072C85.3142 100.575 88.2756 101.272 91.5855 101.272C95.2437 101.272 98.2052 100.401 100.644 98.4846C102.909 96.5684 104.128 94.1295 104.128 90.9939C104.128 89.0777 103.78 87.5098 102.909 86.2904C102.386 85.2452 101.341 84.2 99.773 83.329C99.2504 82.9806 98.5536 82.6322 97.6826 82.2838C96.6373 81.7612 95.7663 81.587 95.4179 81.4127L92.9791 80.5417C90.366 79.6707 88.4498 78.9739 87.4046 78.2771C86.3594 77.4061 85.8368 76.3609 85.8368 75.1415C85.8368 73.922 86.3594 72.8768 87.2304 72.18C88.1014 71.4832 89.3208 71.1348 90.8887 71.1348C94.0243 71.1348 96.4631 72.5284 97.8568 75.4899L102.909 72.5284C101.689 70.2638 100.121 68.5218 98.2052 67.3023C96.1147 65.9087 93.6759 65.2119 90.8887 65.2119C87.753 65.2119 85.14 66.0829 82.8753 67.9992C80.6107 69.7412 79.5655 72.18 79.5655 75.3157C79.5655 78.4513 80.6107 80.7159 82.7011 82.2838C84.4432 83.5032 86.882 84.5484 89.8434 85.5936C92.8049 86.4646 94.7211 87.1614 95.9405 87.8582C97.16 88.555 97.8568 89.7745 97.8568 91.1681C98.031 92.7359 97.3342 93.7811 96.2889 94.4779Z" fill="white"/>
<path d="M140.017 90.9949C140.017 87.5109 138.624 85.0721 135.662 83.33L134.965 82.9816L135.488 82.459C137.578 80.717 138.624 78.6266 138.624 75.6651C138.624 72.8779 137.578 70.6133 135.662 68.8712C133.746 67.1292 131.133 66.084 128.346 66.084H114.758V100.75H129.391C132.352 100.75 134.965 99.8793 136.882 97.963C139.146 96.221 140.017 93.7822 140.017 90.9949ZM120.855 71.8327H128.346C129.565 71.8327 130.61 72.1811 131.481 73.0521C132.352 73.9231 132.701 74.9683 132.701 76.1877C132.701 77.4072 132.352 78.4524 131.481 79.3234C130.61 80.1944 129.565 80.5428 128.346 80.5428H120.855V71.8327ZM132.875 93.7822C132.004 94.6532 130.959 95.1758 129.565 95.1758H121.029V85.7689H129.565C130.959 85.7689 132.004 86.2915 132.875 87.1625C133.746 88.0335 134.268 89.0787 134.268 90.4723C134.094 91.8659 133.572 92.9112 132.875 93.7822Z" fill="white"/>
<path d="M16.1577 165.553L14.4157 163.985L6.40234 172.173L11.1058 176.876L12.6736 175.309L9.53799 172.173L16.1577 165.553Z" fill="white"/>
<path d="M26.4348 174.786L21.7313 180.709C21.3829 181.231 20.8603 181.406 20.3377 181.406C19.8151 181.406 19.2925 181.231 18.7699 180.883C18.2473 180.36 17.8989 180.012 17.8989 179.489C17.8989 178.967 18.0731 178.444 18.4215 178.096L23.1249 172.173L21.3829 170.779L16.5052 176.876C15.8084 177.747 15.46 178.793 15.6342 179.838C15.8084 180.883 16.331 181.928 17.3763 182.625C18.4215 183.496 19.4667 183.844 20.5119 183.844C21.5571 183.844 22.6023 183.322 23.2991 182.277L28.1768 176.18L26.4348 174.786Z" fill="white"/>
<path d="M36.1918 181.58L32.5336 183.322L32.7078 179.315L30.6174 177.922L30.269 184.367L24.1719 187.503L26.2623 188.897L30.269 186.98L30.0948 191.335L32.3594 192.729L32.5336 185.761L38.2823 182.8L36.1918 181.58Z" fill="white"/>
<path d="M46.8161 187.155L43.5063 193.949C43.1579 194.471 42.8095 194.82 42.4611 194.994C41.9385 195.168 41.4159 194.994 40.7191 194.82C40.0222 194.471 39.6738 194.123 39.4996 193.6C39.3254 193.078 39.3254 192.555 39.6738 192.032L42.9837 185.239L40.8933 184.193L37.4092 191.161C36.8866 192.207 36.8866 193.252 37.235 194.297C37.5834 195.342 38.4544 196.039 39.6738 196.736C40.8933 197.259 41.9385 197.433 42.9837 197.084C44.0289 196.736 44.8999 196.039 45.4225 194.994L48.9066 188.026L46.8161 187.155Z" fill="white"/>
<path d="M56.7461 191.161L52.391 189.593L48.5586 200.393L50.649 201.09L52.0426 197.258L53.6105 197.78L54.4815 202.31L56.7461 203.181L55.7009 198.303C56.3977 198.303 57.0945 197.955 57.6171 197.606C58.1397 197.083 58.6623 196.561 58.8365 195.864C59.1849 194.819 59.1849 193.948 58.6623 192.903C58.4881 192.206 57.7913 191.509 56.7461 191.161ZM56.9203 195.341C56.7461 195.864 56.3977 196.038 56.0493 196.387C55.7009 196.561 55.1783 196.561 54.8299 196.561L52.5653 195.864L53.6105 192.728L55.8751 193.425C56.2235 193.599 56.5719 193.774 56.7461 194.296C57.0945 194.47 57.0945 194.819 56.9203 195.341Z" fill="white"/>
<path d="M66.327 198.826L64.9333 193.6L62.3203 193.077L64.5849 200.742L63.5397 205.271L65.8044 205.62L66.8496 201.265L72.2498 195.342L69.811 194.819L66.327 198.826Z" fill="white"/>
<path d="M84.7941 198.652C85.8393 198.652 86.5361 199.175 86.8845 200.22L88.8007 199.175C88.4523 198.304 87.9297 197.607 87.2329 197.259C86.5361 196.736 85.6651 196.562 84.7941 196.388C83.7488 196.388 82.8778 196.562 82.0068 197.259C81.31 197.781 80.7874 198.652 80.7874 199.698C80.7874 200.743 80.9616 201.614 81.6584 202.136C82.181 202.659 83.052 203.007 83.923 203.356C84.7941 203.704 85.4909 203.878 85.8393 204.227C86.1877 204.401 86.3619 204.749 86.3619 205.272C86.3619 205.62 86.1877 205.969 85.8393 206.143C85.4909 206.317 84.9683 206.491 84.4456 206.317C83.052 206.317 82.3552 205.62 81.8326 204.401L79.7422 205.446C80.0906 206.317 80.6132 207.014 81.31 207.711C82.0068 208.233 83.052 208.582 84.0972 208.582C85.3167 208.582 86.3619 208.408 87.2329 207.885C88.1039 207.362 88.4523 206.491 88.6265 205.446C88.6265 204.749 88.6265 204.227 88.2781 203.878C88.1039 203.53 87.7555 203.182 87.2329 202.833C87.0587 202.659 86.8845 202.659 86.5361 202.485C86.1877 202.311 86.0135 202.136 85.8393 202.136L85.1425 201.788C84.2714 201.44 83.7488 201.265 83.4004 200.917C83.052 200.743 83.052 200.394 83.052 200.046C83.052 199.698 83.2262 199.523 83.5746 199.175C83.923 198.827 84.2715 198.652 84.7941 198.652Z" fill="white"/>
<path d="M95.2458 206.142L95.0716 203.529L99.4267 203.354V201.264L95.0716 201.438L94.8974 198.999L99.7751 198.825L99.6009 196.561L92.6328 196.909L93.1554 208.406L100.298 208.058L100.124 205.967L95.2458 206.142Z" fill="white"/>
<path d="M106.222 195.864L103.957 207.884L106.396 207.536L106.744 205.445L111.274 204.748L112.319 206.665L114.758 206.316L109.009 195.516L106.222 195.864ZM107.267 203.006L108.138 198.129L110.403 202.484L107.267 203.006Z" fill="white"/>
<path d="M130.084 195.342C130.607 194.471 130.607 193.775 130.433 192.729C130.084 191.858 129.562 191.161 128.691 190.813C127.82 190.465 126.949 190.465 126.078 190.813L121.723 192.381L125.555 203.356L130.259 201.788C131.13 201.439 132.001 200.917 132.349 200.046C132.872 199.175 132.872 198.304 132.523 197.433C132.001 196.213 131.304 195.517 130.084 195.342ZM125.381 196.039L124.51 193.6L126.6 192.903C126.949 192.729 127.297 192.729 127.646 192.903C127.994 193.078 128.168 193.252 128.342 193.6C128.517 193.949 128.517 194.297 128.342 194.646C128.168 194.994 127.994 195.168 127.646 195.342L125.381 196.039ZM130.259 199.001C130.084 199.349 129.91 199.523 129.562 199.697L127.123 200.568L126.252 197.955L128.691 197.084C129.039 196.91 129.388 196.91 129.736 197.084C130.084 197.259 130.259 197.433 130.433 197.955C130.433 198.304 130.433 198.652 130.259 199.001Z" fill="white"/>
<path d="M142.107 185.586C140.539 185.063 138.971 185.238 137.578 185.935C136.01 186.631 135.139 187.851 134.616 189.419C134.094 190.986 134.268 192.554 134.965 193.948C135.662 195.516 136.881 196.387 138.449 197.083C140.017 197.606 141.584 197.432 142.978 196.735C144.546 196.038 145.417 194.819 145.94 193.251C146.462 191.683 146.288 190.115 145.591 188.722C144.894 186.98 143.675 186.109 142.107 185.586ZM143.849 192.554C143.501 193.425 142.978 194.122 141.933 194.645C141.062 195.167 140.017 195.167 139.146 194.819C138.275 194.47 137.404 193.774 137.055 192.903C136.533 191.857 136.533 190.986 136.881 189.941C137.229 189.07 137.926 188.199 138.797 187.851C139.668 187.328 140.713 187.328 141.584 187.677C142.455 188.025 143.326 188.722 143.675 189.593C144.023 190.464 144.023 191.509 143.849 192.554Z" fill="white"/>
<path d="M148.027 180.186L150.989 192.032L153.079 190.638L152.557 188.548L156.389 185.935L158.131 187.328L160.222 185.935L150.466 178.618L148.027 180.186ZM154.473 184.541L151.86 186.283L150.64 181.405L154.473 184.541Z" fill="white"/>
<path d="M162.662 171.825L161.268 170.257L154.648 175.657L156.042 177.225L158.481 175.309L164.404 182.451L166.146 181.057L160.223 173.915L162.662 171.825Z" fill="white"/>
<path d="M173.461 167.47C173.113 167.296 172.59 167.296 171.894 167.47C171.719 167.47 171.371 167.644 171.197 167.819C170.848 167.993 170.674 167.993 170.5 168.167L169.803 168.515C169.106 168.864 168.41 169.212 168.061 169.212C167.713 169.212 167.364 169.212 167.19 168.864C167.016 168.69 166.842 168.341 166.842 167.993C166.842 167.644 167.016 167.296 167.364 166.948C168.061 166.251 168.932 166.077 169.977 166.425L170.5 164.335C169.629 163.986 168.758 163.986 167.887 164.16C167.016 164.335 166.319 164.857 165.622 165.38C164.926 166.077 164.403 166.948 164.403 167.993C164.229 168.864 164.577 169.735 165.448 170.606C166.145 171.303 167.016 171.651 167.887 171.477C168.584 171.303 169.455 170.954 170.326 170.606C171.197 170.083 171.719 169.909 172.242 169.735C172.59 169.561 172.939 169.735 173.287 170.083C173.636 170.432 173.636 170.606 173.636 170.954C173.636 171.303 173.287 171.651 172.939 172.174C172.068 173.045 171.023 173.393 169.803 172.87L169.281 175.135C170.152 175.483 171.023 175.658 171.894 175.483C172.765 175.309 173.636 174.787 174.507 173.916C175.378 173.045 175.9 172.174 175.9 171.128C176.074 170.083 175.726 169.212 174.855 168.515C174.507 167.993 173.984 167.644 173.461 167.47Z" fill="white"/>
</svg>
