<svg width="139" height="159" viewBox="0 0 139 159" fill="none" xmlns="http://www.w3.org/2000/svg">
<path d="M99.3636 17.3614C98.9671 17.4936 98.7027 17.4936 98.3062 17.6258C97.7775 17.758 97.1166 18.0223 96.4558 18.2867L96.1914 18.4188L96.4558 18.6832C96.9845 19.2119 97.5132 19.7406 98.0419 20.0049C100.95 21.8554 103.858 22.7806 107.03 22.5163C108.484 22.3841 110.07 22.3841 111.656 22.3841C112.978 22.3841 114.432 22.3841 115.886 22.5163C116.811 22.5163 117.736 22.7806 118.661 23.045C119.058 23.1771 119.454 23.1771 119.851 23.3093C119.851 23.3093 119.851 23.3093 119.983 23.3093C118.793 19.8728 115.225 16.9649 112.052 16.5684C109.805 16.304 107.426 16.304 104.122 16.5684C102.404 16.5684 100.818 16.9649 99.3636 17.3614Z" fill="#14143C"/>
<path d="M26.2705 114.246C28.3853 114.246 30.5002 114.113 32.4828 113.849C31.5576 112.263 30.2358 111.073 28.3853 109.752C26.0062 108.165 23.2305 107.769 20.3227 107.24H20.0583C18.34 106.976 16.3574 106.712 14.507 106.051C13.4495 105.786 12.3921 105.258 11.4669 104.729C11.0704 104.465 10.6739 104.332 10.2773 104.2C10.9382 106.447 11.9956 108.959 14.1104 110.809C15.9609 112.527 18.34 113.056 20.7192 113.585C22.3053 114.113 24.1557 114.246 26.2705 114.246Z" fill="#14143C"/>
<path d="M41.339 120.458C41.6033 120.458 41.7355 120.325 41.9998 120.325C41.6033 119.929 41.339 119.532 40.9424 119.268C37.9024 116.889 34.7302 115.964 31.0293 116.096C28.3858 116.228 25.4779 116.228 22.5701 116.096C21.6449 116.096 20.5875 115.831 19.6622 115.567C19.2657 115.435 18.8692 115.435 18.4727 115.303C19.7944 118.871 23.231 121.779 26.9319 122.176C31.0293 122.572 34.8624 122.308 38.5633 121.118C39.3563 120.854 40.2816 120.59 41.339 120.458Z" fill="#14143C"/>
<path d="M63.4133 126.67C62.7524 126.406 62.0915 126.009 61.5628 126.009C59.448 125.613 57.3332 125.481 55.2184 125.877C54.4254 126.009 53.6323 126.406 52.8393 126.67C52.5749 126.802 52.4427 126.802 52.1784 126.935C51.3853 127.331 50.4601 127.728 49.667 127.992C48.0809 128.653 46.4948 129.446 44.9087 129.975C43.7192 130.371 42.5296 130.635 41.34 130.9C40.8113 131.032 40.2826 131.032 39.8861 131.164C39.8861 131.164 39.8861 131.164 39.7539 131.164C41.2078 132.486 42.6618 133.411 44.38 134.072C46.4948 134.865 48.6096 134.865 50.8566 134.072C53.8967 133.015 56.8045 131.561 59.448 129.578C60.3732 128.917 61.2985 128.124 62.3559 127.463L63.4133 126.67Z" fill="#14143C"/>
<path d="M17.9425 41.4177L18.2069 42.2108C19.1321 41.4177 19.9252 40.3603 20.586 39.1708C21.9078 36.3951 22.5687 33.8837 22.4365 31.2402C22.3043 28.2002 22.3043 25.2924 22.4365 22.9132C22.4365 21.988 22.7009 21.0627 22.833 20.1375C22.9652 19.741 22.9652 19.3445 23.0974 19.0801C23.0974 18.9479 23.0974 18.8158 23.2296 18.6836C18.6034 20.7984 16.3564 24.235 16.2243 28.9933C16.0921 32.2976 16.4886 35.3377 17.2817 38.2455C17.4138 39.1708 17.6782 40.2282 17.9425 41.4177Z" fill="#14143C"/>
<path d="M9.482 60.8472C10.0107 61.6403 10.6716 62.4333 11.3325 63.2264L11.729 63.7551C12.522 62.3011 12.7864 60.9794 12.7864 59.7898C13.0507 57.1463 12.522 54.5028 11.3325 52.1236C10.1429 49.6123 9.08547 47.2332 8.29242 44.9862C7.8959 43.9288 7.63154 42.7392 7.49937 41.6818C7.36719 41.1531 7.3672 40.7566 7.23502 40.2279C7.23502 40.2279 7.23502 40.2279 7.23502 40.0957C5.64892 41.6818 4.59152 43.6644 3.93064 46.0436C3.40194 48.1584 3.93064 50.141 4.59152 52.1236C5.64892 55.5602 7.76372 58.6002 9.482 60.8472Z" fill="#14143C"/>
<path d="M134.127 59.2605C131.351 56.4848 128.046 54.5022 124.346 52.5195C124.346 52.6517 124.346 52.7839 124.346 52.9161C124.346 53.7091 124.213 54.5022 124.478 55.2952C125.271 58.4674 126.46 60.7144 128.179 62.4327C128.839 63.0935 129.633 63.7544 130.293 64.4153C131.351 65.4727 132.54 66.3979 133.598 67.5875C134.655 68.6449 135.448 69.9667 136.373 71.1562V71.2884C136.77 71.8171 137.034 72.2136 137.431 72.7423C137.431 72.7423 137.431 72.7423 137.431 72.8745C138.092 70.8919 138.488 69.3058 138.356 67.7197C138.224 63.7544 136.109 61.2431 134.127 59.2605Z" fill="#14143C"/>
<path d="M119.98 96.6664V96.5342C119.055 97.3272 118.394 98.2525 117.733 99.442C116.279 102.35 115.619 104.861 115.883 107.505C116.015 109.884 116.147 112.395 116.015 114.907C116.015 116.096 115.751 117.286 115.486 118.343C115.354 118.74 115.354 119.268 115.222 119.665C115.222 119.797 115.222 119.929 115.09 120.061C118.791 118.607 121.566 115.171 121.963 111.734C122.359 108.166 122.095 104.861 121.302 101.689C120.906 99.8386 120.509 98.1203 119.98 96.6664Z" fill="#14143C"/>
<path d="M109.409 110.413C108.22 112.395 107.823 114.51 107.427 116.757C107.295 117.286 107.295 117.814 107.162 118.343C106.634 120.854 105.973 123.234 105.312 125.613L105.18 126.274C105.048 126.934 104.783 127.463 104.387 128.124C104.915 127.992 105.312 127.992 105.708 127.86C109.542 126.406 111.921 124.027 112.978 120.59C114.432 115.7 114.3 110.677 113.771 106.051C111.656 107.108 110.335 108.959 109.409 110.413Z" fill="#14143C"/>
<path d="M111.786 24.3662C109.672 24.3662 107.557 24.4984 105.574 24.6306C106.499 26.2167 107.821 27.5384 109.804 28.728C112.183 30.3141 114.959 30.7106 117.867 31.1072L118.527 31.2393C119.849 31.3715 121.171 31.6359 122.493 32.0324C123.55 32.2967 124.607 32.8254 125.665 33.222C126.061 33.3541 126.59 33.6185 126.987 33.7507C127.251 33.8828 127.515 34.015 127.912 34.1472C127.383 32.1646 126.854 30.7106 125.929 29.3889C123.814 26.3488 120.642 25.4236 117.867 24.8949C115.884 24.4984 114.033 24.3662 111.786 24.3662Z" fill="#14143C"/>
<path d="M124.343 86.0918C123.286 87.5457 122.625 88.9996 122.361 90.4536C121.832 93.3614 121.832 95.8728 122.625 98.2519C122.889 99.1771 123.022 100.235 123.286 101.16C123.418 101.953 123.55 102.614 123.682 103.407C124.211 105.654 124.343 108.033 124.211 110.148C125.665 109.09 126.855 108.033 127.648 106.579C129.102 104.2 129.63 101.688 129.102 98.5163C128.441 95.3441 126.194 89.1318 124.343 86.0918Z" fill="#14143C"/>
<path d="M89.0516 10.3561C90.3734 9.69525 91.8273 9.16655 93.2812 8.63785C94.4708 8.24133 95.6604 7.97697 96.7178 7.71262C97.2465 7.58045 97.643 7.58045 98.1717 7.44827H98.3039C96.0569 5.33347 93.5456 4.14389 90.5056 4.01172C89.5803 4.01172 88.5229 4.27607 87.5977 4.54042H87.4655C83.5003 5.59782 80.0637 7.97698 77.288 9.9596C76.495 10.4883 75.8341 11.1492 75.0411 11.6779L74.6445 11.9422H74.7767C75.4376 12.2066 75.8341 12.3388 76.3628 12.4709C78.3454 12.9996 80.4602 13.1318 82.7072 12.6031C83.7646 12.3388 84.822 12.0744 86.0116 11.5457C86.9368 11.1492 87.9942 10.7527 88.9195 10.3561H89.0516Z" fill="#14143C"/>
<path d="M131.219 81.599C130.161 80.0129 128.972 78.4268 127.914 76.9729C127.518 76.4442 127.121 75.9155 126.725 75.3868C126.593 75.2546 126.593 75.1224 126.46 74.9902C125.535 76.9729 125.271 78.9555 125.403 81.599C125.535 83.846 126.46 85.9608 127.386 87.9434L127.518 88.2078C128.311 90.0582 129.236 91.9087 129.897 93.7591C130.293 95.0809 130.558 96.4026 130.822 97.7244C130.822 97.9887 130.954 98.3853 130.954 98.6496C133.334 96.5348 134.92 92.0408 134.259 89.2652C133.598 86.0929 132.673 83.5816 131.219 81.599Z" fill="#14143C"/>
<path d="M39.4864 18.6831C40.0151 18.0222 40.2794 17.097 40.5438 16.1718C40.676 15.7752 40.8081 15.5109 40.8081 15.1144C41.9977 11.5456 43.4516 7.84472 45.963 4.80469C45.4343 4.80469 44.9056 4.93686 44.5091 4.93686C40.2794 5.46556 37.2394 7.71254 35.389 11.9422C34.0672 14.7178 33.2742 18.0222 32.8776 21.5909C32.7455 22.384 32.6133 23.3092 32.6133 24.1023V24.4988C33.4063 24.2344 34.5959 23.7057 35.1246 23.3092C36.8429 21.7231 38.2968 20.2692 39.4864 18.6831Z" fill="#14143C"/>
<path d="M28.122 29.2565C29.5759 27.0095 30.5011 24.4982 30.8976 21.7225C31.0298 20.7973 31.162 19.872 31.4263 18.9468C31.5585 18.1538 31.8229 17.2285 31.9551 16.4355C32.2194 14.7172 32.8803 13.2633 33.409 11.8094C33.5412 11.4128 33.6733 11.0163 33.9377 10.752C31.9551 11.2807 30.5011 11.8094 29.1794 12.7346C26.1393 14.8494 25.2141 18.0216 24.6854 20.9294C23.8924 24.8947 24.1567 28.9921 24.5532 32.8252C25.875 31.7678 27.0646 30.7104 28.122 29.2565Z" fill="#14143C"/>
<path d="M14.5063 104.068C17.1498 104.993 20.0576 105.39 22.8333 105.654H23.0976C23.4942 105.654 24.0229 105.786 24.4194 105.786C24.2872 105.258 24.0229 104.861 23.7585 104.464C22.0402 101.424 19.5289 99.3096 16.3567 98.1201C15.828 97.8557 15.2993 97.7235 14.7706 97.4592C13.7132 97.0627 12.3915 96.534 11.2019 96.1374C8.9549 95.3444 6.84009 94.1548 4.46094 92.4365C4.59311 96.4018 5.91486 99.3096 8.69054 101.424C10.2766 102.614 12.1271 103.275 13.8454 103.936L14.5063 104.068Z" fill="#14143C"/>
<path d="M89.8474 12.0742C88.3935 12.7351 87.0718 13.396 85.75 14.0568C87.2039 15.1142 88.6579 15.7751 90.3761 16.1716C91.4335 16.3038 92.3588 16.436 93.4162 16.436C95.3988 16.436 97.5136 16.0395 99.8928 15.3786C103.329 14.3212 106.369 14.0568 109.145 14.189C109.277 14.189 109.409 14.189 109.542 14.189C108.352 12.6029 107.03 11.2812 105.444 10.3559C103.99 9.43071 102.272 9.03418 100.421 9.03418C99.4962 9.03418 98.571 9.16636 97.5136 9.29853C95.0023 9.95941 92.3588 10.8846 89.8474 12.0742Z" fill="#14143C"/>
<path d="M11.7306 84.903C12.3914 85.2995 12.9201 85.5639 13.581 85.9604L13.8454 86.0926C13.9775 85.2995 13.9775 84.11 13.8454 83.3169C13.3167 80.9378 12.2593 78.823 10.6732 76.9725C9.48357 75.6507 8.294 74.5933 6.97224 73.4038C6.70789 73.1394 6.44354 72.8751 6.17919 72.6107C3.93221 70.4959 2.21393 68.3811 0.892183 66.002C-0.69392 69.7029 -0.165218 74.329 2.47829 77.369C4.72527 80.2769 7.7653 82.656 11.7306 84.903Z" fill="#14143C"/>
<path d="M117.999 33.2221C116.941 33.0899 115.752 32.9577 114.562 32.8255L113.637 32.6934C113.637 32.8255 113.637 32.8255 113.769 32.9577C114.694 35.3369 116.412 37.0551 118.131 38.5091C119.717 39.8308 121.699 40.4917 123.55 41.1526C123.946 41.2847 124.211 41.4169 124.607 41.5491C127.251 42.4743 130.555 43.7961 133.595 46.1752C133.331 41.5491 131.613 38.5091 128.176 36.5264C125.268 34.8082 122.096 33.8829 117.999 33.2221Z" fill="#14143C"/>
<path d="M13.8469 52.5201C14.9043 51.1983 15.5652 49.7444 15.8295 48.2904C16.3582 45.6469 16.3582 43.4 15.9617 41.4173C15.8295 40.7565 15.6973 40.2278 15.433 39.6991C15.1686 38.906 15.0365 38.113 14.7721 37.1877C14.2434 34.5442 13.7147 31.6364 13.9791 28.7285C12.5251 29.6537 11.4677 30.8433 10.5425 32.1651C8.82423 34.6764 8.4277 37.5843 9.35293 41.5495C10.2782 45.6469 12.1286 49.3478 13.8469 52.5201Z" fill="#14143C"/>
<path d="M97.9107 121.912C97.5142 122.705 97.2499 123.63 96.9855 124.423C96.589 125.745 96.0603 126.935 95.5316 128.256C94.8707 129.578 94.0777 130.9 93.2846 132.089C93.0203 132.618 92.6237 133.147 92.3594 133.676C93.0203 133.676 94.0777 133.676 94.7385 133.543C98.3073 132.75 100.819 130.9 102.405 127.728C104.387 123.762 105.048 119.401 105.577 115.7C105.709 115.171 105.709 114.642 105.709 114.114V113.981C102.008 115.303 99.4968 118.079 97.9107 121.912Z" fill="#14143C"/>
<path d="M48.0795 122.572C46.89 122.308 45.7004 122.176 44.5108 122.176C42.7925 122.176 40.9421 122.44 38.9595 122.969C35.6551 123.894 32.6151 124.291 29.7072 124.291C29.3107 124.291 28.782 124.291 28.3854 124.291C28.2533 124.291 28.2533 124.291 28.1211 124.291C28.782 125.348 29.575 126.141 30.5002 126.934C33.1438 129.049 36.0516 129.71 39.6203 129.181C44.2465 128.388 48.4761 126.405 52.0448 124.555C50.9874 123.498 49.6657 122.969 48.0795 122.572Z" fill="#14143C"/>
<path d="M85.4832 124.555C84.5579 124.555 83.7649 124.687 82.9718 124.819C80.9892 125.216 79.1388 126.009 77.4205 127.331C76.6274 127.992 75.8344 128.785 75.1735 129.446C74.9092 129.842 74.5126 130.106 74.2483 130.503C73.8518 130.899 73.4552 131.296 73.0587 131.692C72.1335 132.618 71.3404 133.543 70.283 134.468C69.3578 135.261 68.3004 136.054 67.243 136.715C66.8465 136.979 66.3178 137.376 65.9212 137.64C65.9212 137.64 65.9212 137.64 65.7891 137.64C67.7717 138.301 69.3578 138.698 70.9439 138.566C74.5126 138.433 77.024 136.451 79.7996 133.543C82.311 130.767 84.1614 127.595 85.8797 124.423C85.7475 124.423 85.6153 124.423 85.4832 124.555Z" fill="#14143C"/>
<path d="M54.424 14.0568C56.0101 13.9247 57.4641 13.396 59.3145 12.2064C60.3719 11.5455 61.2971 10.8846 61.958 10.2238C62.8832 9.29853 63.9407 8.24113 64.8659 7.3159C66.0555 6.12632 67.245 4.80457 68.5668 3.61499C69.3598 2.82194 70.2851 2.29324 71.0781 1.76454C71.4746 1.50019 71.8712 1.23584 72.2677 0.971487C72.2677 0.971487 72.2677 0.971487 72.3999 0.971487C70.1529 0.0462607 68.0381 -0.218089 65.7911 0.178437C63.2798 0.574962 61.2971 2.16106 59.8432 3.48282C56.5388 6.52285 54.424 10.2238 52.4414 13.7925C52.9701 13.9247 53.8953 14.0568 54.424 14.0568Z" fill="#14143C"/>
<path d="M127.384 64.4161C127.12 64.1518 126.723 63.8874 126.459 63.623V63.7552C126.327 64.4161 126.195 65.077 126.195 65.7379C126.062 69.3066 127.12 72.611 129.367 75.3866C130.953 77.3693 132.275 79.4841 133.596 81.4667C134.125 82.3919 134.522 83.3172 134.918 84.3746C135.05 84.7711 135.183 85.1676 135.447 85.5641C135.447 85.6963 135.579 85.8285 135.579 85.9607C136.504 84.5067 137.165 83.0528 137.43 81.4667C137.958 78.691 137.297 76.0475 135.315 72.8753C133.2 69.7031 130.556 67.1918 127.384 64.4161Z" fill="#14143C"/>
<path d="M74.7764 126.803C73.9833 126.671 72.5294 126.406 71.472 126.406C71.3398 126.406 71.0755 126.406 70.9433 126.406C67.9033 126.803 65.3919 127.728 63.4093 129.314C61.8232 130.636 60.5015 131.561 59.0475 132.354C57.3293 133.279 55.611 134.205 54.0249 135.13C53.4962 135.394 53.0997 135.659 52.7031 135.923C54.0249 136.716 55.4788 137.377 57.0649 137.641C59.8406 138.17 62.4841 137.509 65.6563 135.526C69.0929 133.279 71.7364 130.239 74.1155 127.596L74.7764 126.803Z" fill="#14143C"/>
<path d="M10.013 73.6679C10.5417 74.0644 10.9382 74.4609 11.4669 74.8574L11.5991 74.9896C11.9956 73.2713 12.1278 71.6852 11.7313 69.967C11.2026 67.3235 10.1452 65.0765 8.55908 63.0939C7.23733 61.3756 5.91558 59.3929 4.59382 57.4103C4.06512 56.4851 3.53642 55.2955 3.1399 54.3703C3.00772 53.9738 2.74337 53.5772 2.6112 53.0485C2.6112 52.9164 2.47902 52.9164 2.47902 52.7842C0.232041 56.0886 -0.164486 60.7147 1.55379 63.8869C3.53642 67.1913 6.17992 70.2313 10.013 73.6679Z" fill="#14143C"/>
<path d="M63.4102 11.8104C65.1284 12.2069 66.7145 12.3391 68.4328 11.9426C71.2085 11.4139 73.3233 10.3565 75.3059 8.90253C77.0242 7.58078 78.8747 6.25903 81.1216 4.93727C82.0469 4.40857 83.1043 4.01205 84.0295 3.61552C84.426 3.48335 84.8225 3.35117 85.2191 3.08682C85.3512 2.95465 85.6156 2.95465 85.7478 2.82247C84.0295 1.63289 81.6503 0.839844 79.2712 0.839844C77.6851 0.839844 76.2312 1.10419 75.1738 1.76507C71.8694 3.48335 68.8293 5.8625 65.525 9.56341C64.9963 10.2243 64.4676 10.8852 63.8067 11.546L63.4102 11.8104Z" fill="#14143C"/>
<path d="M121.567 42.6068L119.98 42.0781C119.98 42.2103 119.98 42.2103 119.98 42.3425C120.641 45.779 122.624 48.6869 125.796 50.9339C126.854 51.7269 128.043 52.3878 129.233 53.1808C129.629 53.4452 129.894 53.5774 130.29 53.8417C132.934 55.4278 134.916 57.1461 136.635 59.1287L136.767 59.2609C136.899 58.9966 136.899 58.7322 136.899 58.6C137.428 54.1061 136.106 50.5373 132.669 48.026C129.761 45.779 126.325 44.1929 121.567 42.6068Z" fill="#14143C"/>
<path d="M16.752 96.005C17.1486 96.1372 17.6773 96.2694 18.206 96.4015H18.3381C18.206 95.3441 17.9416 94.2867 17.4129 93.2293C15.959 90.4536 14.1085 88.3388 11.7294 87.0171C9.61458 85.8275 7.63195 84.6379 5.7815 83.184C4.72409 82.391 3.79887 81.4657 2.87364 80.5405C2.47711 80.144 2.08059 79.7475 1.68406 79.4831C1.55189 79.3509 1.55189 79.3509 1.41971 79.2188C1.15536 80.8049 1.02319 82.7875 1.68406 84.9023C2.34494 87.1493 3.66669 88.9997 5.51714 90.3215C8.29282 92.7006 11.8616 94.4189 16.752 96.005Z" fill="#14143C"/>
<path d="M59.0506 1.63251C58.1254 1.50034 57.3323 1.36816 56.5393 1.36816C55.8784 1.36816 55.2175 1.36816 54.6888 1.50034C51.781 2.02904 49.6662 3.35079 47.8157 5.72995C44.9079 9.6952 43.3218 14.057 42 18.0222C42.9252 18.0222 44.3792 17.8901 45.04 17.4935C47.8157 16.0396 49.9305 14.1892 51.2523 11.9422C51.6488 11.1491 52.1775 10.4883 52.574 9.6952C52.9705 9.03433 53.3671 8.37345 53.7636 7.84475C55.0853 5.4656 56.8036 3.48297 59.0506 1.63251Z" fill="#14143C"/>
<path d="M86.1466 127.992C84.2961 131.164 82.3135 134.336 79.2734 136.98C80.1987 137.112 80.9917 137.244 81.7848 137.244C82.9743 137.244 84.1639 137.112 85.2213 136.715C87.4683 135.922 89.3188 134.468 91.037 132.089C93.4162 128.653 94.8701 124.819 95.9275 121.647C96.0597 121.251 96.1919 120.722 96.324 120.193C94.7379 120.458 93.284 120.986 91.8301 121.779C89.5831 123.233 87.7327 125.216 86.1466 127.992Z" fill="#14143C"/>
<path d="M68.8282 115.7L69.0925 115.567L69.3569 115.7C69.3569 115.7 69.3569 115.567 69.3569 115.303C72.3969 112.527 75.9656 110.809 79.7987 108.959C80.4596 108.694 81.2526 108.298 81.9135 107.901C88.5223 104.597 93.4128 100.632 97.1137 95.4767L99.625 97.3272L100.815 87.1497L91.298 91.1149L93.8093 93.0975C90.2405 97.4593 86.4075 101.425 80.8561 102.746C80.1952 102.879 79.5344 103.011 78.7413 103.011C74.2473 103.011 70.943 99.442 70.943 94.8158C70.943 91.908 70.943 88.2071 70.943 85.2992C75.9656 85.2992 80.5918 85.2992 81.2526 85.2992C81.7813 85.2992 82.4422 85.0348 82.8387 84.6383C83.1031 84.2418 84.1605 81.7305 84.1605 81.7305H53.8924C53.8924 81.7305 54.9498 84.2418 55.2141 84.6383C55.4785 85.0348 56.2715 85.2992 56.8002 85.2992C57.4611 85.2992 62.0872 85.2992 67.1099 85.2992C67.1099 88.2071 67.1099 91.908 67.1099 94.8158C67.1099 99.442 63.6733 103.011 59.3115 103.011C58.6507 103.011 57.9898 102.879 57.1967 102.746C51.6454 101.425 47.8123 97.4593 44.2436 93.0975L46.7549 91.1149L37.2383 87.1497L38.4279 97.3272L40.9392 95.4767C44.6401 100.632 49.6627 104.729 56.1393 107.901C56.8002 108.298 57.5933 108.562 58.2541 108.959C62.0872 110.809 65.7881 112.527 68.696 115.303C68.8282 115.567 68.8282 115.7 68.8282 115.7Z" fill="#14143C"/>
<path d="M56.8024 41.2851C56.2737 41.2851 55.6128 41.5495 55.2163 41.946C54.9519 42.3425 53.8945 44.8538 53.8945 44.8538H84.427C84.427 44.8538 83.3696 42.3425 83.1053 41.946C82.8409 41.5495 82.0479 41.2851 81.5192 41.2851C80.1974 41.2851 75.0426 41.2851 71.4738 41.2851V36.9233C74.2495 35.9981 76.3643 33.2224 76.3643 30.1824C76.3643 26.2171 73.1921 23.0449 69.2269 23.0449C65.2616 23.0449 62.0894 26.2171 62.0894 30.1824C62.0894 33.3546 64.072 35.9981 66.9799 36.9233V41.2851C63.279 41.2851 57.992 41.2851 56.8024 41.2851ZM66.319 30.0502C66.319 28.4641 67.5086 27.2745 69.0947 27.2745C70.6808 27.2745 71.8704 28.4641 71.8704 30.0502C71.8704 31.6363 70.6808 32.8259 69.0947 32.8259C67.5086 32.8259 66.319 31.6363 66.319 30.0502Z" fill="#14143C"/>
<path d="M36.3164 50.2734V76.4441H51.12V72.0823H40.8104V50.2734H36.3164Z" fill="#14143C"/>
<path d="M73.0587 71.6849C72.2657 72.2136 71.0761 72.478 69.6222 72.478C66.5821 72.478 64.3352 71.1562 63.2778 68.5127L59.3125 70.7597C60.1056 72.6102 61.2951 74.0641 63.0134 75.1215C64.7317 76.3111 66.9787 76.8398 69.49 76.8398C72.2657 76.8398 74.5127 76.1789 76.3631 74.725C78.0814 73.271 79.0066 71.4206 79.0066 69.0414C79.0066 67.5875 78.7423 66.3979 78.0814 65.4727C77.6849 64.6796 76.8918 63.8866 75.7022 63.2257C75.3057 62.9614 74.777 62.697 74.1161 62.4327C73.3231 62.0361 72.6622 61.904 72.3979 61.7718L70.5474 61.1109C68.5648 60.45 67.1108 59.9213 66.3178 59.3926C65.5247 58.7318 65.1282 57.9387 65.1282 57.0135C65.1282 56.0883 65.5247 55.2952 66.1856 54.7665C66.8465 54.2378 67.7717 53.9735 68.9613 53.9735C71.3405 53.9735 73.1909 55.0309 74.2483 57.2778L78.0814 55.0309C77.1562 53.3126 75.9666 51.9908 74.5127 51.0656C72.9265 50.0082 71.0761 49.4795 68.9613 49.4795C66.5821 49.4795 64.5995 50.1404 62.8812 51.5943C61.163 52.9161 60.3699 54.7665 60.3699 57.1457C60.3699 59.5248 61.163 61.2431 62.7491 62.4327C64.0708 63.3579 65.9213 64.1509 68.1682 64.944C70.4152 65.6049 71.8692 66.1336 72.7944 66.6623C73.7196 67.191 74.2483 68.1162 74.2483 69.1736C74.3805 70.3632 73.8518 71.1562 73.0587 71.6849Z" fill="#14143C"/>
<path d="M106.236 69.0417C106.236 66.3982 105.178 64.5477 102.931 63.226L102.403 62.9616L102.799 62.5651C104.385 61.2433 105.178 59.6572 105.178 57.4103C105.178 55.2955 104.385 53.5772 102.931 52.2554C101.477 50.9337 99.4948 50.1406 97.38 50.1406H87.0703V76.4435H98.173C100.42 76.4435 102.403 75.7826 103.857 74.3287C105.575 73.0069 106.236 71.1565 106.236 69.0417ZM91.6964 54.5024H97.38C98.3052 54.5024 99.0983 54.7668 99.7591 55.4276C100.42 56.0885 100.684 56.8816 100.684 57.8068C100.684 58.732 100.42 59.5251 99.7591 60.1859C99.0983 60.8468 98.3052 61.1112 97.38 61.1112H91.6964V54.5024ZM100.817 71.1565C100.156 71.8174 99.3626 72.2139 98.3052 72.2139H91.8286V65.0764H98.3052C99.3626 65.0764 100.156 65.4729 100.817 66.1338C101.477 66.7947 101.874 67.5878 101.874 68.6452C101.742 69.7026 101.345 70.4956 100.817 71.1565Z" fill="#14143C"/>
<path d="M12.2612 125.612L10.9394 124.423L4.85938 130.635L8.42811 134.204L9.61768 133.014L7.23853 130.635L12.2612 125.612Z" fill="#14143C"/>
<path d="M20.0567 132.618L16.4879 137.112C16.2236 137.509 15.8271 137.641 15.4305 137.641C15.034 137.641 14.6375 137.509 14.241 137.244C13.8444 136.848 13.5801 136.583 13.5801 136.187C13.5801 135.79 13.7123 135.394 13.9766 135.129L17.5453 130.636L16.2236 129.578L12.5227 134.204C11.994 134.865 11.7296 135.658 11.8618 136.451C11.994 137.244 12.3905 138.037 13.1836 138.566C13.9766 139.227 14.7697 139.491 15.5627 139.491C16.3558 139.491 17.1488 139.095 17.6775 138.302L21.3784 133.676L20.0567 132.618Z" fill="#14143C"/>
<path d="M27.4599 137.773L24.6843 139.095L24.8164 136.054L23.2303 134.997L22.966 139.888L18.3398 142.267L19.9259 143.324L22.966 141.87L22.8338 145.175L24.5521 146.232L24.6843 140.945L29.046 138.698L27.4599 137.773Z" fill="#14143C"/>
<path d="M35.5242 142.003L33.0129 147.158C32.7485 147.554 32.4842 147.819 32.2198 147.951C31.8233 148.083 31.4268 147.951 30.8981 147.819C30.3694 147.554 30.105 147.29 29.9728 146.893C29.8407 146.497 29.8407 146.1 30.105 145.704L32.6163 140.549L31.0302 139.756L28.3867 145.043C27.9902 145.836 27.9902 146.629 28.2545 147.422C28.5189 148.215 29.1798 148.744 30.105 149.272C31.0302 149.669 31.8233 149.801 32.6163 149.537C33.4094 149.272 34.0703 148.744 34.4668 147.951L37.1103 142.664L35.5242 142.003Z" fill="#14143C"/>
<path d="M43.056 145.042L39.7516 143.853L36.8438 152.047L38.4299 152.576L39.4873 149.668L40.6768 150.065L41.3377 153.501L43.056 154.162L42.2629 150.461C42.7916 150.461 43.3203 150.197 43.7169 149.933C44.1134 149.536 44.5099 149.14 44.6421 148.611C44.9064 147.818 44.9064 147.157 44.5099 146.364C44.3777 145.835 43.849 145.306 43.056 145.042ZM43.1882 148.214C43.056 148.611 42.7916 148.743 42.5273 149.007C42.2629 149.14 41.8664 149.14 41.6021 149.14L39.8838 148.611L40.6768 146.232L42.3951 146.76C42.6595 146.893 42.9238 147.025 43.056 147.421C43.3203 147.553 43.3203 147.818 43.1882 148.214Z" fill="#14143C"/>
<path d="M50.3252 150.858L49.2678 146.893L47.2852 146.496L49.0034 152.312L48.2104 155.748L49.9287 156.013L50.7217 152.708L54.8191 148.214L52.9687 147.818L50.3252 150.858Z" fill="#14143C"/>
<path d="M64.337 150.726C65.13 150.726 65.6587 151.123 65.9231 151.916L67.377 151.123C67.1127 150.462 66.7161 149.933 66.1874 149.669C65.6587 149.272 64.9979 149.14 64.337 149.008C63.5439 149.008 62.8831 149.14 62.2222 149.669C61.6935 150.065 61.297 150.726 61.297 151.519C61.297 152.312 61.4291 152.973 61.9578 153.37C62.3544 153.766 63.0152 154.03 63.6761 154.295C64.337 154.559 64.8657 154.691 65.13 154.956C65.3944 155.088 65.5266 155.352 65.5266 155.749C65.5266 156.013 65.3944 156.277 65.13 156.41C64.8657 156.542 64.4692 156.674 64.0726 156.542C63.0152 156.542 62.4865 156.013 62.09 155.088L60.5039 155.881C60.7683 156.542 61.1648 157.07 61.6935 157.599C62.2222 157.996 63.0152 158.26 63.8083 158.26C64.7335 158.26 65.5266 158.128 66.1874 157.731C66.8483 157.335 67.1127 156.674 67.2448 155.881C67.2448 155.352 67.2448 154.956 66.9805 154.691C66.8483 154.427 66.584 154.163 66.1874 153.898C66.0553 153.766 65.9231 153.766 65.6587 153.634C65.3944 153.502 65.2622 153.37 65.13 153.37L64.6013 153.105C63.9405 152.841 63.5439 152.709 63.2796 152.444C63.0152 152.312 63.0152 152.048 63.0152 151.783C63.0152 151.519 63.1474 151.387 63.4118 151.123C63.6761 150.858 63.9405 150.726 64.337 150.726Z" fill="#14143C"/>
<path d="M72.2678 156.409L72.1356 154.427L75.44 154.294V152.708L72.1356 152.841L72.0034 150.99L75.7043 150.858L75.5722 149.14L70.2852 149.404L70.6817 158.128L76.1009 157.863L75.9687 156.277L72.2678 156.409Z" fill="#14143C"/>
<path d="M80.5933 148.611L78.875 157.731L80.7255 157.467L80.9898 155.881L84.4264 155.352L85.2194 156.806L87.0699 156.542L82.7081 148.347L80.5933 148.611ZM81.3863 154.03L82.0472 150.329L83.7655 153.634L81.3863 154.03Z" fill="#14143C"/>
<path d="M98.7038 148.215C99.1003 147.554 99.1003 147.025 98.9681 146.232C98.7038 145.571 98.3073 145.043 97.6464 144.778C96.9855 144.514 96.3246 144.514 95.6638 144.778L92.3594 145.968L95.2672 154.295L98.836 153.105C99.4968 152.841 100.158 152.445 100.422 151.784C100.819 151.123 100.819 150.462 100.554 149.801C100.158 148.876 99.629 148.347 98.7038 148.215ZM95.1351 148.744L94.4742 146.893L96.0603 146.364C96.3246 146.232 96.589 146.232 96.8533 146.364C97.1177 146.497 97.2499 146.629 97.382 146.893C97.5142 147.158 97.5142 147.422 97.382 147.686C97.2499 147.951 97.1177 148.083 96.8533 148.215L95.1351 148.744ZM98.836 150.991C98.7038 151.255 98.5716 151.387 98.3073 151.519L96.4568 152.18L95.7959 150.198L97.6464 149.537C97.9107 149.404 98.1751 149.404 98.4394 149.537C98.7038 149.669 98.836 149.801 98.9681 150.198C98.9681 150.462 98.9681 150.726 98.836 150.991Z" fill="#14143C"/>
<path d="M107.82 140.813C106.631 140.416 105.441 140.548 104.384 141.077C103.194 141.606 102.533 142.531 102.137 143.72C101.74 144.91 101.872 146.1 102.401 147.157C102.93 148.347 103.855 149.007 105.045 149.536C106.234 149.933 107.424 149.801 108.481 149.272C109.671 148.743 110.332 147.818 110.728 146.628C111.125 145.439 110.993 144.249 110.464 143.192C109.935 141.87 109.01 141.209 107.82 140.813ZM109.142 146.1C108.878 146.76 108.481 147.289 107.688 147.686C107.027 148.082 106.234 148.082 105.573 147.818C104.912 147.554 104.252 147.025 103.987 146.364C103.591 145.571 103.591 144.91 103.855 144.117C104.119 143.456 104.648 142.795 105.309 142.531C105.97 142.134 106.763 142.134 107.424 142.399C108.085 142.663 108.746 143.192 109.01 143.853C109.274 144.513 109.274 145.307 109.142 146.1Z" fill="#14143C"/>
<path d="M112.316 136.715L114.563 145.703L116.149 144.645L115.753 143.059L118.661 141.077L119.983 142.134L121.569 141.077L114.167 135.525L112.316 136.715ZM117.207 140.019L115.224 141.341L114.299 137.64L117.207 140.019Z" fill="#14143C"/>
<path d="M123.42 130.371L122.363 129.182L117.34 133.279L118.397 134.469L120.248 133.015L124.742 138.434L126.063 137.377L121.569 131.957L123.42 130.371Z" fill="#14143C"/>
<path d="M131.613 127.067C131.349 126.935 130.952 126.935 130.424 127.067C130.291 127.067 130.027 127.199 129.895 127.331C129.631 127.463 129.498 127.463 129.366 127.596L128.838 127.86C128.309 128.124 127.78 128.389 127.516 128.389C127.251 128.389 126.987 128.389 126.855 128.124C126.723 127.992 126.591 127.728 126.591 127.463C126.591 127.199 126.723 126.935 126.987 126.67C127.516 126.142 128.177 126.009 128.97 126.274L129.366 124.688C128.705 124.423 128.044 124.423 127.384 124.556C126.723 124.688 126.194 125.084 125.665 125.481C125.137 126.009 124.74 126.67 124.74 127.463C124.608 128.124 124.872 128.785 125.533 129.446C126.062 129.975 126.723 130.239 127.384 130.107C127.912 129.975 128.573 129.71 129.234 129.446C129.895 129.05 130.291 128.917 130.688 128.785C130.952 128.653 131.217 128.785 131.481 129.05C131.745 129.314 131.745 129.446 131.745 129.71C131.745 129.975 131.481 130.239 131.217 130.636C130.556 131.297 129.763 131.561 128.838 131.164L128.441 132.883C129.102 133.147 129.763 133.279 130.424 133.147C131.084 133.015 131.745 132.618 132.406 131.957C133.067 131.297 133.464 130.636 133.464 129.843C133.596 129.05 133.331 128.389 132.671 127.86C132.406 127.463 132.01 127.199 131.613 127.067Z" fill="#14143C"/>
</svg>
