<svg width="48" height="48" viewBox="0 0 48 48" fill="none" xmlns="http://www.w3.org/2000/svg">
<path d="M34.4656 6.01521C34.328 6.06099 34.2364 6.06099 34.0988 6.10677C33.9154 6.15255 33.6862 6.2441 33.4569 6.33566L33.3652 6.38144L33.4569 6.47299C33.6403 6.65611 33.8237 6.83922 34.0071 6.93078C35.0158 7.57167 36.0244 7.89212 37.1248 7.80056C37.6291 7.75479 38.1793 7.75478 38.7295 7.75478C39.188 7.75478 39.6923 7.75479 40.1966 7.80056C40.5176 7.80056 40.8385 7.89212 41.1594 7.98368C41.297 8.02945 41.4345 8.02945 41.5721 8.07523C41.5721 8.07523 41.5721 8.07523 41.6179 8.07523C41.2053 6.885 39.9674 5.87788 38.867 5.74054C38.0876 5.64899 37.2623 5.64899 36.1161 5.74054C35.5201 5.74054 34.9699 5.87788 34.4656 6.01521Z" fill="white"/>
<path d="M9.11209 39.5651C9.84566 39.5651 10.5792 39.5193 11.267 39.4278C10.946 38.8784 10.4875 38.4664 9.84567 38.0086C9.0204 37.4593 8.05758 37.322 7.04892 37.1388H6.95723C6.3612 37.0473 5.67347 36.9557 5.0316 36.7268C4.66481 36.6353 4.29803 36.4522 3.97709 36.2691C3.83954 36.1775 3.702 36.1317 3.56445 36.0859C3.79369 36.8642 4.16048 37.734 4.89405 38.3749C5.53593 38.97 6.3612 39.1531 7.18647 39.3362C7.73665 39.5193 8.37852 39.5651 9.11209 39.5651Z" fill="white"/>
<path d="M14.338 41.7229C14.4297 41.7229 14.4755 41.6771 14.5672 41.6771C14.4297 41.5397 14.338 41.4024 14.2005 41.3108C13.1459 40.4868 12.0456 40.1664 10.7618 40.2122C9.84487 40.2579 8.83621 40.2579 7.82755 40.2122C7.50661 40.2122 7.13982 40.1206 6.81888 40.0291C6.68134 39.9833 6.54379 39.9833 6.40625 39.9375C6.86473 41.1735 8.05679 42.1806 9.34054 42.318C10.7618 42.4553 12.0914 42.3637 13.3752 41.9517C13.6503 41.8602 13.9712 41.7686 14.338 41.7229Z" fill="white"/>
<path d="M21.9959 43.8732C21.7667 43.7817 21.5374 43.6443 21.354 43.6443C20.6205 43.507 19.8869 43.4612 19.1533 43.5985C18.8782 43.6443 18.6031 43.7817 18.328 43.8732C18.2363 43.919 18.1905 43.919 18.0988 43.9648C17.8237 44.1021 17.5028 44.2394 17.2277 44.331C16.6775 44.5599 16.1273 44.8346 15.5771 45.0177C15.1645 45.155 14.7519 45.2466 14.3392 45.3381C14.1558 45.3839 13.9725 45.3839 13.8349 45.4297C13.8349 45.4297 13.8349 45.4297 13.7891 45.4297C14.2934 45.8875 14.7977 46.2079 15.3938 46.4368C16.1273 46.7115 16.8609 46.7115 17.6403 46.4368C18.6948 46.0706 19.7035 45.567 20.6205 44.8803C20.9414 44.6514 21.2623 44.3768 21.6291 44.1479L21.9959 43.8732Z" fill="white"/>
<path d="M6.22386 14.3426L6.31555 14.6173C6.63649 14.3426 6.91158 13.9764 7.14082 13.5644C7.5993 12.603 7.82855 11.7332 7.7827 10.8177C7.73685 9.76478 7.73685 8.75766 7.7827 7.93365C7.7827 7.61321 7.87439 7.29276 7.92024 6.97231C7.96609 6.83498 7.96609 6.69764 8.01194 6.60609C8.01194 6.56031 8.01194 6.51453 8.05779 6.46875C6.4531 7.2012 5.67368 8.39144 5.62783 10.0395C5.58198 11.1839 5.71953 12.2368 5.99461 13.2439C6.04046 13.5644 6.13216 13.9306 6.22386 14.3426Z" fill="white"/>
<path d="M3.28954 21.07C3.47294 21.3447 3.70218 21.6193 3.93142 21.894L4.06896 22.0771C4.34405 21.5736 4.43575 21.1158 4.43575 20.7038C4.52745 19.7882 4.34405 18.8726 3.93142 18.0486C3.51878 17.1788 3.152 16.3548 2.87691 15.5766C2.73936 15.2104 2.64767 14.7984 2.60182 14.4322C2.55597 14.249 2.55597 14.1117 2.51012 13.9286C2.51012 13.9286 2.51012 13.9286 2.51012 13.8828C1.95994 14.4322 1.59316 15.1188 1.36392 15.9428C1.18052 16.6753 1.36392 17.362 1.59316 18.0486C1.95994 19.2389 2.69352 20.2918 3.28954 21.07Z" fill="white"/>
<path d="M46.5234 20.5222C45.5606 19.5608 44.4144 18.8742 43.1306 18.1875C43.1306 18.2333 43.1306 18.2791 43.1306 18.3248C43.1306 18.5995 43.0848 18.8742 43.1765 19.1488C43.4515 20.2475 43.8642 21.0258 44.4602 21.6209C44.6894 21.8498 44.9645 22.0787 45.1938 22.3075C45.5606 22.6738 45.9732 22.9942 46.34 23.4062C46.7068 23.7724 46.9819 24.2302 47.3028 24.6422V24.688C47.4403 24.8711 47.532 25.0085 47.6696 25.1916C47.6696 25.1916 47.6696 25.1916 47.6696 25.2374C47.8988 24.5507 48.0364 24.0013 47.9905 23.452C47.9447 22.0787 47.2111 21.2089 46.5234 20.5222Z" fill="white"/>
<path d="M41.6183 33.4833V33.4375C41.2973 33.7122 41.0681 34.0326 40.8388 34.4446C40.3345 35.4517 40.1053 36.3215 40.197 37.2371C40.2428 38.0611 40.2887 38.9309 40.2428 39.8007C40.2428 40.2127 40.1511 40.6247 40.0594 40.9909C40.0136 41.1282 40.0136 41.3114 39.9677 41.4487C39.9677 41.4945 39.9677 41.5403 39.9219 41.586C41.2056 41.0825 42.1684 39.8922 42.306 38.702C42.4435 37.466 42.3518 36.3215 42.0767 35.2229C41.9392 34.582 41.8017 33.9868 41.6183 33.4833Z" fill="white"/>
<path d="M37.9512 38.2451C37.5386 38.9317 37.401 39.6642 37.2635 40.4424C37.2176 40.6255 37.2176 40.8086 37.1718 40.9918C36.9884 41.8615 36.7592 42.6855 36.5299 43.5096L36.4841 43.7384C36.4382 43.9673 36.3465 44.1505 36.209 44.3793C36.3924 44.3336 36.5299 44.3336 36.6675 44.2878C37.9971 43.7842 38.8223 42.9602 39.1891 41.77C39.6935 40.0762 39.6476 38.3366 39.4642 36.7344C38.7306 37.1006 38.2722 37.7415 37.9512 38.2451Z" fill="white"/>
<path d="M38.776 8.4375C38.0424 8.4375 37.3088 8.48328 36.6211 8.52906C36.942 9.0784 37.4005 9.53618 38.0882 9.94818C38.9135 10.4975 39.8763 10.6349 40.885 10.7722L41.1142 10.818C41.5727 10.8637 42.0312 10.9553 42.4897 11.0926C42.8565 11.1842 43.2232 11.3673 43.59 11.5046C43.7276 11.5504 43.911 11.642 44.0485 11.6878C44.1402 11.7335 44.2319 11.7793 44.3695 11.8251C44.1861 11.1384 44.0027 10.6349 43.6817 10.1771C42.9482 9.12418 41.8478 8.80373 40.885 8.62061C40.1973 8.48328 39.5554 8.4375 38.776 8.4375Z" fill="white"/>
<path d="M43.1319 29.8203C42.7652 30.3239 42.5359 30.8274 42.4442 31.331C42.2608 32.3381 42.2608 33.2079 42.5359 34.0319C42.6276 34.3524 42.6735 34.7186 42.7652 35.039C42.811 35.3137 42.8569 35.5426 42.9027 35.8173C43.0861 36.5955 43.1319 37.4195 43.0861 38.152C43.5904 37.7857 44.0031 37.4195 44.2782 36.9159C44.7825 36.0919 44.9659 35.2221 44.7825 34.1235C44.5532 33.0248 43.7738 30.8732 43.1319 29.8203Z" fill="white"/>
<path d="M30.89 3.58798C31.3485 3.35909 31.8529 3.17598 32.3572 2.99286C32.7698 2.85553 33.1825 2.76397 33.5492 2.67242C33.7326 2.62664 33.8702 2.62664 34.0536 2.58086H34.0994C33.32 1.84841 32.4489 1.4364 31.3944 1.39062C31.0734 1.39062 30.7066 1.48218 30.3857 1.57374H30.3399C28.9644 1.93996 27.7724 2.76397 26.8095 3.45065C26.5345 3.63376 26.3052 3.86265 26.0301 4.04576L25.8926 4.13732H25.9384C26.1677 4.22888 26.3052 4.27466 26.4886 4.32043C27.1763 4.50355 27.9099 4.54932 28.6893 4.36621C29.0561 4.27466 29.4229 4.1831 29.8355 3.99999C30.1565 3.86265 30.5233 3.72532 30.8442 3.58798H30.89Z" fill="white"/>
<path d="M45.5167 28.2655C45.1499 27.7161 44.7373 27.1668 44.3705 26.6632C44.2329 26.4801 44.0954 26.297 43.9578 26.1139C43.912 26.0681 43.912 26.0223 43.8661 25.9766C43.5452 26.6632 43.4535 27.3499 43.4994 28.2655C43.5452 29.0437 43.8661 29.7762 44.1871 30.4628L44.2329 30.5544C44.508 31.1953 44.829 31.8362 45.0582 32.4771C45.1957 32.9349 45.2874 33.3926 45.3791 33.8504C45.3791 33.942 45.425 34.0793 45.425 34.1709C46.2502 33.4384 46.8004 31.882 46.5712 30.9206C46.3419 29.8219 46.021 28.9521 45.5167 28.2655Z" fill="white"/>
<path d="M13.6966 6.47078C13.88 6.24189 13.9717 5.92144 14.0634 5.60099C14.1092 5.46366 14.1551 5.3721 14.1551 5.23477C14.5677 3.99875 15.0721 2.71696 15.9432 1.66406C15.7598 1.66406 15.5764 1.70984 15.4388 1.70984C13.9717 1.89295 12.9172 2.67118 12.2753 4.13609C11.8168 5.09743 11.5417 6.24189 11.4042 7.4779C11.3583 7.75257 11.3125 8.07302 11.3125 8.34769V8.48502C11.5876 8.39347 12.0002 8.21035 12.1836 8.07302C12.7796 7.52368 13.284 7.02012 13.6966 6.47078Z" fill="white"/>
<path d="M9.75495 10.1355C10.2593 9.35729 10.5802 8.4875 10.7178 7.52616C10.7636 7.20571 10.8095 6.88526 10.9012 6.56481C10.947 6.29015 11.0387 5.9697 11.0846 5.69503C11.1763 5.09991 11.4055 4.59635 11.5889 4.09279C11.6347 3.95545 11.6806 3.81812 11.7723 3.72656C11.0846 3.90968 10.5802 4.09279 10.1217 4.41324C9.06723 5.14569 8.74629 6.24437 8.5629 7.25149C8.28781 8.62484 8.3795 10.044 8.51705 11.3715C8.97553 11.0053 9.38817 10.6391 9.75495 10.1355Z" fill="white"/>
<path d="M5.03134 36.0441C5.94831 36.3646 6.95697 36.5019 7.91978 36.5935H8.01148C8.14903 36.5935 8.33242 36.6392 8.46996 36.6392C8.42412 36.4561 8.33242 36.3188 8.24072 36.1814C7.64469 35.1285 6.77358 34.3961 5.67322 33.9841C5.48983 33.8925 5.30643 33.8468 5.12304 33.7552C4.75625 33.6179 4.29777 33.4348 3.88514 33.2974C3.10572 33.0227 2.37214 32.6107 1.54688 32.0156C1.59272 33.389 2.05121 34.3961 3.01402 35.1285C3.5642 35.5406 4.20607 35.7694 4.8021 35.9983L5.03134 36.0441Z" fill="white"/>
<path d="M31.1654 4.1779C30.6611 4.40679 30.2026 4.63568 29.7441 4.86457C30.2485 5.2308 30.7528 5.45969 31.3488 5.59703C31.7156 5.6428 32.0366 5.68858 32.4033 5.68858C33.0911 5.68858 33.8246 5.55125 34.6499 5.32236C35.842 4.95613 36.8965 4.86457 37.8593 4.91035C37.9051 4.91035 37.951 4.91035 37.9968 4.91035C37.5842 4.36101 37.1257 3.90323 36.5755 3.58278C36.0712 3.26233 35.4752 3.125 34.8333 3.125C34.5124 3.125 34.1914 3.17078 33.8246 3.21656C32.9535 3.44545 32.0366 3.7659 31.1654 4.1779Z" fill="white"/>
<path d="M4.06903 29.4057C4.29827 29.543 4.48167 29.6346 4.71091 29.7719L4.80261 29.8177C4.84845 29.543 4.84845 29.131 4.80261 28.8563C4.61921 28.0323 4.25243 27.2999 3.70225 26.659C3.28961 26.2012 2.87698 25.835 2.4185 25.423C2.3268 25.3314 2.2351 25.2398 2.14341 25.1483C1.36399 24.4158 0.767958 23.6834 0.309476 22.8594C-0.240704 24.1412 -0.0573101 25.7434 0.859655 26.7963C1.63908 27.8034 2.69359 28.6274 4.06903 29.4057Z" fill="white"/>
<path d="M40.931 11.5034C40.5642 11.4576 40.1515 11.4119 39.7389 11.3661L39.418 11.3203C39.418 11.3661 39.418 11.3661 39.4638 11.4119C39.7848 12.2359 40.3808 12.831 40.9768 13.3346C41.527 13.7923 42.2147 14.0212 42.8566 14.2501C42.9941 14.2959 43.0858 14.3417 43.2234 14.3875C44.1403 14.7079 45.2865 15.1657 46.3411 15.9897C46.2494 14.3875 45.6533 13.3346 44.4613 12.6479C43.4526 12.0528 42.3523 11.7323 40.931 11.5034Z" fill="white"/>
<path d="M4.80351 18.1932C5.17029 17.7354 5.39953 17.2319 5.49123 16.7283C5.67462 15.8127 5.67462 15.0345 5.53708 14.3478C5.49123 14.1189 5.44538 13.9358 5.35369 13.7527C5.26199 13.4781 5.21614 13.2034 5.12444 12.8829C4.94105 11.9674 4.75766 10.9602 4.84935 9.95312C4.34502 10.2736 3.97824 10.6856 3.6573 11.1434C3.06127 12.0131 2.92373 13.0203 3.24466 14.3936C3.5656 15.8127 4.20748 17.0945 4.80351 18.1932Z" fill="white"/>
<path d="M33.9627 42.2233C33.8252 42.4979 33.7335 42.8184 33.6418 43.093C33.5043 43.5508 33.3209 43.9628 33.1375 44.4206C32.9082 44.8784 32.6331 45.3362 32.358 45.7482C32.2664 45.9313 32.1288 46.1144 32.0371 46.2975C32.2664 46.2975 32.6331 46.2975 32.8624 46.2517C34.1003 45.9771 34.9714 45.3362 35.5216 44.2375C36.2093 42.8642 36.4385 41.3535 36.6219 40.0717C36.6678 39.8886 36.6678 39.7055 36.6678 39.5223V39.4766C35.384 39.9343 34.5129 40.8957 33.9627 42.2233Z" fill="white"/>
<path d="M16.677 42.4498C16.2644 42.3583 15.8517 42.3125 15.4391 42.3125C14.8431 42.3125 14.2012 42.4041 13.5135 42.5872C12.3673 42.9076 11.3127 43.045 10.3041 43.045C10.1665 43.045 9.98315 43.045 9.8456 43.045C9.79975 43.045 9.79975 43.045 9.75391 43.045C9.98315 43.4112 10.2582 43.6858 10.5792 43.9605C11.4961 44.693 12.5048 44.9219 13.7427 44.7387C15.3474 44.4641 16.8145 43.7774 18.0524 43.1365C17.6857 42.7703 17.2272 42.5872 16.677 42.4498Z" fill="white"/>
<path d="M29.6517 43.1395C29.3308 43.1395 29.0557 43.1853 28.7806 43.2311C28.0929 43.3684 27.451 43.6431 26.855 44.1009C26.5799 44.3298 26.3048 44.6044 26.0755 44.8333C25.9838 44.9707 25.8463 45.0622 25.7546 45.1995C25.6171 45.3369 25.4795 45.4742 25.342 45.6116C25.021 45.932 24.7459 46.2524 24.3792 46.5729C24.0582 46.8476 23.6914 47.1222 23.3246 47.3511C23.1871 47.4427 23.0037 47.58 22.8662 47.6716C22.8662 47.6716 22.8662 47.6716 22.8203 47.6716C23.508 47.9005 24.0582 48.0378 24.6084 47.992C25.8463 47.9462 26.7174 47.2596 27.6802 46.2524C28.5513 45.2911 29.1932 44.1924 29.7892 43.0938C29.7434 43.0938 29.6976 43.0937 29.6517 43.1395Z" fill="white"/>
<path d="M18.8772 4.86852C19.4274 4.82274 19.9317 4.63963 20.5736 4.22762C20.9403 3.99873 21.2613 3.76984 21.4905 3.54095C21.8115 3.2205 22.1783 2.85428 22.4992 2.53383C22.9118 2.12182 23.3245 1.66404 23.7829 1.25204C24.058 0.977366 24.379 0.794253 24.6541 0.61114C24.7916 0.519583 24.9291 0.428027 25.0667 0.33647C25.0667 0.33647 25.0667 0.33647 25.1125 0.33647C24.3331 0.0160222 23.5995 -0.0755341 22.8201 0.0618007C21.949 0.199136 21.2613 0.748474 20.757 1.20626C19.6107 2.25916 18.8772 3.54095 18.1895 4.77696C18.3728 4.82274 18.6938 4.86852 18.8772 4.86852Z" fill="white"/>
<path d="M44.186 22.3137C44.0943 22.2222 43.9567 22.1306 43.8651 22.0391V22.0848C43.8192 22.3137 43.7734 22.5426 43.7734 22.7715C43.7275 24.0075 44.0943 25.152 44.8737 26.1133C45.4239 26.8 45.8824 27.5325 46.3409 28.2191C46.5243 28.5396 46.6618 28.86 46.7993 29.2262C46.8452 29.3636 46.891 29.5009 46.9827 29.6383C46.9827 29.684 47.0286 29.7298 47.0286 29.7756C47.3495 29.272 47.5788 28.7685 47.6705 28.2191C47.8538 27.2578 47.6246 26.3422 46.9369 25.2435C46.2033 24.1449 45.2863 23.2751 44.186 22.3137Z" fill="white"/>
<path d="M25.9379 43.9186C25.6628 43.8728 25.1585 43.7812 24.7917 43.7812C24.7459 43.7812 24.6542 43.7812 24.6083 43.7812C23.5538 43.9186 22.6827 44.239 21.995 44.7884C21.4448 45.2462 20.9863 45.5666 20.482 45.8413C19.8859 46.1617 19.2899 46.4822 18.7397 46.8026C18.5563 46.8942 18.4188 46.9857 18.2812 47.0773C18.7397 47.352 19.2441 47.5808 19.7942 47.6724C20.7571 47.8555 21.674 47.6266 22.7744 46.9399C23.9664 46.1617 24.8834 45.1088 25.7087 44.1933L25.9379 43.9186Z" fill="white"/>
<path d="M3.47381 25.5142C3.6572 25.6516 3.79475 25.7889 3.97814 25.9262L4.02399 25.972C4.16153 25.3769 4.20738 24.8275 4.06984 24.2324C3.88644 23.3169 3.51966 22.5386 2.96948 21.852C2.511 21.2568 2.05251 20.5702 1.59403 19.8835C1.41064 19.563 1.22724 19.151 1.0897 18.8306C1.04385 18.6933 0.952156 18.5559 0.906307 18.3728C0.906307 18.327 0.860459 18.327 0.860459 18.2812C0.0810384 19.4257 -0.0565066 21.0279 0.539521 22.1266C1.22724 23.2711 2.14421 24.324 3.47381 25.5142Z" fill="white"/>
<path d="M21.9961 4.08866C22.5921 4.22599 23.1423 4.27177 23.7383 4.13444C24.7011 3.95132 25.4347 3.5851 26.1224 3.08154C26.7185 2.62375 27.3603 2.16597 28.1398 1.70819C28.4607 1.52508 28.8275 1.38774 29.1484 1.25041C29.286 1.20463 29.4235 1.15885 29.5611 1.06729C29.6069 1.02151 29.6986 1.02151 29.7445 0.975736C29.1484 0.563732 28.3232 0.289062 27.4979 0.289062C26.9477 0.289062 26.4434 0.380619 26.0766 0.60951C24.9304 1.20463 23.8759 2.02864 22.7297 3.31043C22.5463 3.53932 22.3629 3.76821 22.1336 3.9971L21.9961 4.08866Z" fill="white"/>
<path d="M42.1693 14.7534L41.6191 14.5703C41.6191 14.6161 41.6191 14.6161 41.6191 14.6619C41.8484 15.8521 42.5361 16.8592 43.6365 17.6375C44.0033 17.9121 44.4159 18.141 44.8285 18.4157C44.9661 18.5072 45.0578 18.553 45.1953 18.6446C46.1123 19.1939 46.8 19.789 47.396 20.4757L47.4419 20.5215C47.4877 20.4299 47.4877 20.3384 47.4877 20.2926C47.6711 18.7361 47.2126 17.5001 46.0206 16.6303C45.0119 15.8521 43.8199 15.3028 42.1693 14.7534Z" fill="white"/>
<path d="M5.8115 33.2513C5.94904 33.2971 6.13243 33.3429 6.31583 33.3887H6.36167C6.31583 33.0224 6.22413 32.6562 6.04074 32.29C5.53641 31.3287 4.89453 30.5962 4.06926 30.1384C3.33569 29.7264 2.64797 29.3144 2.00609 28.8108C1.6393 28.5362 1.31837 28.2157 0.997428 27.8953C0.859883 27.7579 0.722339 27.6206 0.584794 27.5291C0.538946 27.4833 0.538945 27.4833 0.493097 27.4375C0.4014 27.9868 0.355552 28.6735 0.584794 29.406C0.814035 30.1842 1.27252 30.8251 1.91439 31.2829C2.87721 32.1069 4.11511 32.702 5.8115 33.2513Z" fill="white"/>
<path d="M20.4828 0.568118C20.1618 0.52234 19.8868 0.476562 19.6117 0.476562C19.3824 0.476562 19.1532 0.476562 18.9698 0.52234C17.9611 0.705453 17.2276 1.16324 16.5857 1.98724C15.577 3.36059 15.0268 4.87127 14.5684 6.24462C14.8893 6.24462 15.3936 6.19884 15.6229 6.06151C16.5857 5.55795 17.3193 4.91705 17.7777 4.13882C17.9153 3.86415 18.0987 3.63526 18.2362 3.36059C18.3738 3.1317 18.5113 2.90281 18.6489 2.7197C19.1073 1.89569 19.7034 1.20901 20.4828 0.568118Z" fill="white"/>
<path d="M29.8822 44.3259C29.2403 45.4246 28.5526 46.5233 27.498 47.4388C27.819 47.4846 28.0941 47.5304 28.3692 47.5304C28.7818 47.5304 29.1944 47.4846 29.5612 47.3473C30.3406 47.0726 30.9825 46.5691 31.5785 45.745C32.4038 44.5548 32.9081 43.2272 33.2749 42.1286C33.3208 41.9912 33.3666 41.8081 33.4125 41.625C32.8623 41.7166 32.358 41.8997 31.8536 42.1743C31.0742 42.6779 30.4323 43.3646 29.8822 44.3259Z" fill="white"/>
<path d="M23.8757 40.0697L23.9674 40.0239L24.0591 40.0697C24.0591 40.0697 24.0591 40.0239 24.0591 39.9324C25.1136 38.971 26.3515 38.3759 27.6811 37.735C27.9104 37.6435 28.1854 37.5061 28.4147 37.3688C30.7071 36.2243 32.4035 34.851 33.6872 33.0656L34.5583 33.7065L34.971 30.1816L31.6699 31.5549L32.541 32.2416C31.3031 33.7523 29.9735 35.1256 28.0479 35.5834C27.8187 35.6292 27.5894 35.675 27.3143 35.675C25.7555 35.675 24.6093 34.439 24.6093 32.8367C24.6093 31.8296 24.6093 30.5478 24.6093 29.5407C26.3515 29.5407 27.9562 29.5407 28.1854 29.5407C28.3688 29.5407 28.5981 29.4491 28.7356 29.3118C28.8273 29.1745 29.1941 28.3047 29.1941 28.3047H18.6948C18.6948 28.3047 19.0616 29.1745 19.1533 29.3118C19.245 29.4491 19.5201 29.5407 19.7035 29.5407C19.9328 29.5407 21.5374 29.5407 23.2797 29.5407C23.2797 30.5478 23.2797 31.8296 23.2797 32.8367C23.2797 34.439 22.0876 35.675 20.5746 35.675C20.3454 35.675 20.1161 35.6292 19.8411 35.5834C17.9154 35.1256 16.5858 33.7523 15.3479 32.2416L16.219 31.5549L12.918 30.1816L13.3306 33.7065L14.2017 33.0656C15.4855 34.851 17.2277 36.2701 19.4743 37.3688C19.7035 37.5061 19.9786 37.5977 20.2078 37.735C21.5374 38.3759 22.8212 38.971 23.8299 39.9324C23.8757 40.0239 23.8757 40.0697 23.8757 40.0697Z" fill="white"/>
<path d="M19.704 14.3018C19.5206 14.3018 19.2913 14.3933 19.1538 14.5307C19.0621 14.668 18.6953 15.5378 18.6953 15.5378H29.2863C29.2863 15.5378 28.9195 14.668 28.8278 14.5307C28.7361 14.3933 28.461 14.3018 28.2776 14.3018C27.8191 14.3018 26.031 14.3018 24.7931 14.3018V12.7911C25.7559 12.4706 26.4895 11.5093 26.4895 10.4564C26.4895 9.08305 25.3892 7.98438 24.0137 7.98438C22.6383 7.98438 21.5379 9.08305 21.5379 10.4564C21.5379 11.5551 22.2256 12.4706 23.2343 12.7911V14.3018C21.9505 14.3018 20.1166 14.3018 19.704 14.3018ZM23.0051 10.4106C23.0051 9.86128 23.4177 9.44928 23.9679 9.44928C24.518 9.44928 24.9307 9.86128 24.9307 10.4106C24.9307 10.96 24.518 11.372 23.9679 11.372C23.4177 11.372 23.0051 10.96 23.0051 10.4106Z" fill="white"/>
<path d="M12.5977 17.4141V26.4782H17.7327V24.9675H14.1565V17.4141H12.5977Z" fill="white"/>
<path d="M25.3424 24.8314C25.0673 25.0145 24.6547 25.106 24.1504 25.106C23.0959 25.106 22.3165 24.6483 21.9497 23.7327L20.5742 24.5109C20.8493 25.1518 21.2619 25.6554 21.858 26.0216C22.454 26.4336 23.2334 26.6167 24.1045 26.6167C25.0674 26.6167 25.8468 26.3878 26.4886 25.8843C27.0847 25.3807 27.4056 24.7398 27.4056 23.9158C27.4056 23.4122 27.3139 23.0002 27.0847 22.6798C26.9471 22.4051 26.672 22.1305 26.2594 21.9016C26.1219 21.81 25.9385 21.7185 25.7092 21.6269C25.4341 21.4896 25.2049 21.4438 25.1132 21.398L24.4713 21.1691C23.7836 20.9402 23.2793 20.7571 23.0042 20.574C22.7291 20.3451 22.5915 20.0704 22.5915 19.75C22.5915 19.4295 22.7291 19.1549 22.9583 18.9718C23.1876 18.7886 23.5085 18.6971 23.9211 18.6971C24.7464 18.6971 25.3883 19.0633 25.7551 19.8415L27.0847 19.0633C26.7637 18.4682 26.3511 18.0104 25.8468 17.69C25.2966 17.3237 24.6547 17.1406 23.9211 17.1406C23.0959 17.1406 22.4082 17.3695 21.8121 17.8731C21.2161 18.3309 20.941 18.9718 20.941 19.7958C20.941 20.6198 21.2161 21.2149 21.7663 21.6269C22.2248 21.9473 22.8666 22.222 23.6461 22.4967C24.4255 22.7256 24.9298 22.9087 25.2507 23.0918C25.5717 23.2749 25.7551 23.5954 25.7551 23.9616C25.8009 24.3736 25.6175 24.6483 25.3424 24.8314Z" fill="white"/>
<path d="M36.8511 23.9135C36.8511 22.9979 36.4843 22.357 35.7049 21.8992L35.5215 21.8077L35.6591 21.6703C36.2092 21.2126 36.4843 20.6632 36.4843 19.885C36.4843 19.1525 36.2092 18.5574 35.7049 18.0996C35.2006 17.6419 34.5129 17.3672 33.7793 17.3672H30.2031V26.4771H34.0544C34.8338 26.4771 35.5215 26.2482 36.0259 25.7446C36.6219 25.2868 36.8511 24.6459 36.8511 23.9135ZM31.8078 18.8779H33.7793C34.1002 18.8779 34.3753 18.9694 34.6046 19.1983C34.8338 19.4272 34.9255 19.7019 34.9255 20.0223C34.9255 20.3428 34.8338 20.6174 34.6046 20.8463C34.3753 21.0752 34.1002 21.1668 33.7793 21.1668H31.8078V18.8779ZM34.9713 24.6459C34.7421 24.8748 34.467 25.0122 34.1002 25.0122H31.8537V22.5401H34.1002C34.467 22.5401 34.7421 22.6775 34.9713 22.9064C35.2006 23.1352 35.3381 23.4099 35.3381 23.7761C35.2923 24.1424 35.1547 24.417 34.9713 24.6459Z" fill="white"/>
</svg>
