<svg width="207" height="216" viewBox="0 0 207 216" fill="none" xmlns="http://www.w3.org/2000/svg">
<rect width="207" height="216" fill="#14143C"/>
<path d="M134.118 40.3605C133.721 40.4926 133.457 40.4926 133.06 40.6248C132.531 40.757 131.871 41.0213 131.21 41.2857L130.945 41.4179L131.21 41.6822C131.738 42.2109 132.267 42.7396 132.796 43.004C135.704 44.8544 138.611 45.7796 141.784 45.5153C143.238 45.3831 144.824 45.3831 146.41 45.3831C147.732 45.3831 149.185 45.3831 150.639 45.5153C151.565 45.5153 152.49 45.7796 153.415 46.044C153.812 46.1762 154.208 46.1762 154.605 46.3083C154.605 46.3083 154.605 46.3083 154.737 46.3083C153.547 42.8718 149.979 39.9639 146.806 39.5674C144.559 39.3031 142.18 39.3031 138.876 39.5674C137.158 39.5674 135.571 39.9639 134.118 40.3605Z" fill="white"/>
<path d="M61.0244 137.246C63.1393 137.246 65.2541 137.114 67.2367 136.85C66.3115 135.264 64.9897 134.074 63.1393 132.753C60.7601 131.166 57.9844 130.77 55.0766 130.241H54.8122C53.0939 129.977 51.1113 129.713 49.2609 129.052C48.2035 128.787 47.1461 128.259 46.2208 127.73C45.8243 127.466 45.4278 127.333 45.0312 127.201C45.6921 129.448 46.7495 131.959 48.8643 133.81C50.7148 135.528 53.0939 136.057 55.4731 136.586C57.0592 137.114 58.9096 137.246 61.0244 137.246Z" fill="white"/>
<path d="M76.0929 143.458C76.3572 143.458 76.4894 143.325 76.7538 143.325C76.3572 142.929 76.0929 142.532 75.6964 142.268C72.6563 139.889 69.4841 138.964 65.7832 139.096C63.1397 139.228 60.2318 139.228 57.324 139.096C56.3988 139.096 55.3414 138.831 54.4161 138.567C54.0196 138.435 53.6231 138.435 53.2266 138.303C54.5483 141.871 57.9849 144.779 61.6858 145.176C65.7832 145.572 69.6163 145.308 73.3172 144.118C74.1103 143.854 75.0355 143.59 76.0929 143.458Z" fill="white"/>
<path d="M98.1672 149.669C97.5063 149.405 96.8454 149.008 96.3167 149.008C94.2019 148.612 92.0871 148.48 89.9723 148.876C89.1793 149.008 88.3862 149.405 87.5932 149.669C87.3288 149.801 87.1966 149.801 86.9323 149.934C86.1392 150.33 85.214 150.727 84.421 150.991C82.8349 151.652 81.2488 152.445 79.6626 152.974C78.4731 153.37 77.2835 153.634 76.0939 153.899C75.5652 154.031 75.0365 154.031 74.64 154.163C74.64 154.163 74.64 154.163 74.5078 154.163C75.9617 155.485 77.4157 156.41 79.1339 157.071C81.2487 157.864 83.3636 157.864 85.6105 157.071C88.6506 156.014 91.5584 154.56 94.2019 152.577C95.1271 151.916 96.0524 151.123 97.1098 150.462L98.1672 149.669Z" fill="white"/>
<path d="M52.6964 64.4177L52.9608 65.2108C53.886 64.4177 54.6791 63.3603 55.34 62.1708C56.6617 59.3951 57.3226 56.8837 57.1904 54.2402C57.0582 51.2002 57.0582 48.2924 57.1904 45.9132C57.1904 44.988 57.4548 44.0627 57.5869 43.1375C57.7191 42.741 57.7191 42.3445 57.8513 42.0801C57.8513 41.9479 57.8513 41.8158 57.9835 41.6836C53.3573 43.7984 51.1103 47.235 50.9782 51.9933C50.846 55.2976 51.2425 58.3377 52.0356 61.2455C52.1677 62.1708 52.4321 63.2282 52.6964 64.4177Z" fill="white"/>
<path d="M44.2359 83.8472C44.7646 84.6403 45.4255 85.4333 46.0864 86.2264L46.4829 86.7551C47.2759 85.3011 47.5403 83.9794 47.5403 82.7898C47.8046 80.1463 47.2759 77.5028 46.0864 75.1236C44.8968 72.6123 43.8394 70.2332 43.0463 67.9862C42.6498 66.9288 42.3855 65.7392 42.2533 64.6818C42.1211 64.1531 42.1211 63.7566 41.9889 63.2279C41.9889 63.2279 41.9889 63.2279 41.9889 63.0957C40.4028 64.6818 39.3454 66.6644 38.6845 69.0436C38.1558 71.1584 38.6845 73.141 39.3454 75.1236C40.4028 78.5602 42.5176 81.6002 44.2359 83.8472Z" fill="white"/>
<path d="M168.88 82.2605C166.105 79.4848 162.8 77.5022 159.099 75.5195C159.099 75.6517 159.099 75.7839 159.099 75.9161C159.099 76.7091 158.967 77.5022 159.232 78.2952C160.025 81.4674 161.214 83.7144 162.933 85.4327C163.593 86.0935 164.386 86.7544 165.047 87.4153C166.105 88.4727 167.294 89.3979 168.352 90.5875C169.409 91.6449 170.202 92.9667 171.127 94.1562V94.2884C171.524 94.8171 171.788 95.2136 172.185 95.7423C172.185 95.7423 172.185 95.7423 172.185 95.8745C172.846 93.8919 173.242 92.3058 173.11 90.7197C172.978 86.7544 170.863 84.2431 168.88 82.2605Z" fill="white"/>
<path d="M154.734 119.667V119.535C153.809 120.328 153.148 121.253 152.487 122.443C151.033 125.351 150.372 127.862 150.637 130.506C150.769 132.885 150.901 135.396 150.769 137.908C150.769 139.097 150.505 140.287 150.24 141.344C150.108 141.741 150.108 142.269 149.976 142.666C149.976 142.798 149.976 142.93 149.844 143.062C153.545 141.608 156.32 138.172 156.717 134.735C157.113 131.167 156.849 127.862 156.056 124.69C155.659 122.84 155.263 121.121 154.734 119.667Z" fill="white"/>
<path d="M144.163 133.413C142.974 135.395 142.577 137.51 142.181 139.757C142.048 140.286 142.048 140.814 141.916 141.343C141.388 143.854 140.727 146.234 140.066 148.613L139.934 149.274C139.802 149.934 139.537 150.463 139.141 151.124C139.669 150.992 140.066 150.992 140.462 150.86C144.295 149.406 146.675 147.027 147.732 143.59C149.186 138.7 149.054 133.677 148.525 129.051C146.41 130.108 145.089 131.959 144.163 133.413Z" fill="white"/>
<path d="M146.54 47.3672C144.426 47.3672 142.311 47.4994 140.328 47.6315C141.253 49.2176 142.575 50.5394 144.558 51.729C146.937 53.3151 149.713 53.7116 152.62 54.1081L153.281 54.2403C154.603 54.3725 155.925 54.6368 157.247 55.0334C158.304 55.2977 159.361 55.8264 160.419 56.2229C160.815 56.3551 161.344 56.6195 161.741 56.7516C162.005 56.8838 162.269 57.016 162.666 57.1482C162.137 55.1655 161.608 53.7116 160.683 52.3899C158.568 49.3498 155.396 48.4246 152.62 47.8959C150.638 47.4994 148.787 47.3672 146.54 47.3672Z" fill="white"/>
<path d="M159.097 109.092C158.04 110.546 157.379 112 157.115 113.454C156.586 116.361 156.586 118.873 157.379 121.252C157.643 122.177 157.775 123.235 158.04 124.16C158.172 124.953 158.304 125.614 158.436 126.407C158.965 128.654 159.097 131.033 158.965 133.148C160.419 132.09 161.609 131.033 162.402 129.579C163.856 127.2 164.384 124.688 163.856 121.516C163.195 118.344 160.948 112.132 159.097 109.092Z" fill="white"/>
<path d="M123.806 33.3561C125.127 32.6953 126.581 32.1666 128.035 31.6379C129.225 31.2413 130.414 30.977 131.472 30.7126C132 30.5804 132.397 30.5804 132.926 30.4483H133.058C130.811 28.3335 128.299 27.1439 125.259 27.0117C124.334 27.0117 123.277 27.2761 122.352 27.5404H122.219C118.254 28.5978 114.818 30.977 112.042 32.9596C111.249 33.4883 110.588 34.1492 109.795 34.6779L109.398 34.9422H109.531C110.191 35.2066 110.588 35.3388 111.117 35.4709C113.099 35.9996 115.214 36.1318 117.461 35.6031C118.519 35.3388 119.576 35.0744 120.766 34.5457C121.691 34.1492 122.748 33.7527 123.673 33.3561H123.806Z" fill="white"/>
<path d="M165.973 104.599C164.915 103.013 163.726 101.427 162.668 99.9729C162.272 99.4442 161.875 98.9155 161.479 98.3868C161.346 98.2546 161.346 98.1224 161.214 97.9902C160.289 99.9729 160.025 101.955 160.157 104.599C160.289 106.846 161.214 108.961 162.14 110.943L162.272 111.208C163.065 113.058 163.99 114.909 164.651 116.759C165.047 118.081 165.312 119.403 165.576 120.724C165.576 120.989 165.708 121.385 165.708 121.65C168.087 119.535 169.674 115.041 169.013 112.265C168.352 109.093 167.427 106.582 165.973 104.599Z" fill="white"/>
<path d="M74.2403 41.6831C74.769 41.0222 75.0334 40.097 75.2977 39.1718C75.4299 38.7752 75.562 38.5109 75.562 38.1144C76.7516 34.5456 78.2056 30.8447 80.7169 27.8047C80.1882 27.8047 79.6595 27.9369 79.263 27.9369C75.0334 28.4656 71.9933 30.7125 70.1429 34.9422C68.8211 37.7178 68.0281 41.0222 67.6315 44.5909C67.4994 45.384 67.3672 46.3092 67.3672 47.1023V47.4988C68.1602 47.2344 69.3498 46.7057 69.8785 46.3092C71.5968 44.7231 73.0507 43.2692 74.2403 41.6831Z" fill="white"/>
<path d="M62.8759 52.2565C64.3298 50.0095 65.255 47.4982 65.6516 44.7225C65.7837 43.7973 65.9159 42.872 66.1803 41.9468C66.3124 41.1538 66.5768 40.2285 66.709 39.4355C66.9733 37.7172 67.6342 36.2633 68.1629 34.8094C68.2951 34.4128 68.4272 34.0163 68.6916 33.752C66.709 34.2807 65.255 34.8094 63.9333 35.7346C60.8932 37.8494 59.968 41.0216 59.4393 43.9294C58.6463 47.8947 58.9106 51.9921 59.3071 55.8252C60.6289 54.7678 61.8185 53.7104 62.8759 52.2565Z" fill="white"/>
<path d="M49.2602 127.069C51.9037 127.994 54.8115 128.391 57.5872 128.655H57.8516C58.2481 128.655 58.7768 128.787 59.1733 128.787C59.0411 128.258 58.7768 127.862 58.5124 127.465C56.7941 124.425 54.2828 122.311 51.1106 121.121C50.5819 120.857 50.0532 120.725 49.5245 120.46C48.4671 120.064 47.1454 119.535 45.9558 119.138C43.7088 118.345 41.594 117.156 39.2148 115.438C39.347 119.403 40.6688 122.311 43.4444 124.425C45.0306 125.615 46.881 126.276 48.5993 126.937L49.2602 127.069Z" fill="white"/>
<path d="M124.601 35.0732C123.147 35.7341 121.826 36.395 120.504 37.0559C121.958 38.1133 123.412 38.7741 125.13 39.1707C126.187 39.3028 127.113 39.435 128.17 39.435C130.153 39.435 132.268 39.0385 134.647 38.3776C138.083 37.3202 141.123 37.0559 143.899 37.188C144.031 37.188 144.163 37.188 144.295 37.188C143.106 35.6019 141.784 34.2802 140.198 33.355C138.744 32.4297 137.026 32.0332 135.175 32.0332C134.25 32.0332 133.325 32.1654 132.268 32.2976C129.756 32.9584 127.113 33.8837 124.601 35.0732Z" fill="white"/>
<path d="M46.4845 107.903C47.1453 108.3 47.674 108.564 48.3349 108.96L48.5993 109.093C48.7314 108.3 48.7314 107.11 48.5993 106.317C48.0706 103.938 47.0132 101.823 45.4271 99.9725C44.2375 98.6507 43.0479 97.5933 41.7262 96.4038C41.4618 96.1394 41.1974 95.8751 40.9331 95.6107C38.6861 93.4959 36.9678 91.3811 35.6461 89.002C34.06 92.7029 34.5887 97.329 37.2322 100.369C39.4792 103.277 42.5192 105.656 46.4845 107.903Z" fill="white"/>
<path d="M152.752 56.2221C151.695 56.0899 150.505 55.9577 149.316 55.8255L148.391 55.6934C148.391 55.8255 148.391 55.8255 148.523 55.9577C149.448 58.3369 151.166 60.0551 152.885 61.5091C154.471 62.8308 156.453 63.4917 158.304 64.1526C158.7 64.2847 158.965 64.4169 159.361 64.5491C162.005 65.4743 165.309 66.7961 168.349 69.1752C168.085 64.5491 166.366 61.5091 162.93 59.5264C160.022 57.8082 156.85 56.8829 152.752 56.2221Z" fill="white"/>
<path d="M48.6008 75.5201C49.6582 74.1983 50.3191 72.7444 50.5834 71.2904C51.1121 68.6469 51.1121 66.4 50.7156 64.4173C50.5834 63.7565 50.4513 63.2278 50.1869 62.6991C49.9226 61.906 49.7904 61.113 49.526 60.1877C48.9973 57.5442 48.4686 54.6364 48.733 51.7285C47.279 52.6537 46.2216 53.8433 45.2964 55.1651C43.5781 57.6764 43.1816 60.5843 44.1068 64.5495C45.0321 68.6469 46.8825 72.3478 48.6008 75.5201Z" fill="white"/>
<path d="M132.665 144.911C132.268 145.704 132.004 146.629 131.739 147.422C131.343 148.744 130.814 149.934 130.285 151.255C129.625 152.577 128.832 153.899 128.039 155.088C127.774 155.617 127.378 156.146 127.113 156.675C127.774 156.675 128.832 156.675 129.492 156.542C133.061 155.749 135.572 153.899 137.159 150.727C139.141 146.761 139.802 142.4 140.331 138.699C140.463 138.17 140.463 137.641 140.463 137.113V136.98C136.762 138.302 134.251 141.078 132.665 144.911Z" fill="white"/>
<path d="M82.8335 145.572C81.6439 145.308 80.4543 145.176 79.2647 145.176C77.5465 145.176 75.696 145.44 73.7134 145.969C70.409 146.894 67.369 147.291 64.4611 147.291C64.0646 147.291 63.5359 147.291 63.1394 147.291C63.0072 147.291 63.0072 147.291 62.875 147.291C63.5359 148.348 64.3289 149.141 65.2542 149.934C67.8977 152.049 70.8055 152.71 74.3742 152.181C79.0004 151.388 83.23 149.405 86.7987 147.555C85.7413 146.498 84.4196 145.969 82.8335 145.572Z" fill="white"/>
<path d="M120.237 147.556C119.312 147.556 118.519 147.688 117.726 147.82C115.743 148.217 113.893 149.01 112.174 150.332C111.381 150.993 110.588 151.786 109.927 152.446C109.663 152.843 109.267 153.107 109.002 153.504C108.606 153.9 108.209 154.297 107.813 154.693C106.887 155.619 106.094 156.544 105.037 157.469C104.112 158.262 103.054 159.055 101.997 159.716C101.6 159.98 101.072 160.377 100.675 160.641C100.675 160.641 100.675 160.641 100.543 160.641C102.526 161.302 104.112 161.699 105.698 161.567C109.267 161.434 111.778 159.452 114.554 156.544C117.065 153.768 118.915 150.596 120.634 147.424C120.501 147.424 120.369 147.424 120.237 147.556Z" fill="white"/>
<path d="M89.1779 37.0568C90.764 36.9247 92.218 36.396 94.0684 35.2064C95.1258 34.5455 96.051 33.8846 96.7119 33.2238C97.6372 32.2985 98.6946 31.2411 99.6198 30.3159C100.809 29.1263 101.999 27.8046 103.321 26.615C104.114 25.8219 105.039 25.2932 105.832 24.7645C106.229 24.5002 106.625 24.2358 107.022 23.9715C107.022 23.9715 107.022 23.9715 107.154 23.9715C104.907 23.0463 102.792 22.7819 100.545 23.1784C98.0337 23.575 96.0511 25.1611 94.5971 26.4828C91.2927 29.5228 89.1779 33.2238 87.1953 36.7925C87.724 36.9247 88.6492 37.0568 89.1779 37.0568Z" fill="white"/>
<path d="M162.138 87.4161C161.874 87.1518 161.477 86.8874 161.213 86.623V86.7552C161.081 87.4161 160.949 88.077 160.949 88.7379C160.816 92.3066 161.874 95.611 164.121 98.3866C165.707 100.369 167.029 102.484 168.35 104.467C168.879 105.392 169.276 106.317 169.672 107.375C169.804 107.771 169.936 108.168 170.201 108.564C170.201 108.696 170.333 108.828 170.333 108.961C171.258 107.507 171.919 106.053 172.183 104.467C172.712 101.691 172.051 99.0475 170.069 95.8753C167.954 92.7031 165.31 90.1918 162.138 87.4161Z" fill="white"/>
<path d="M109.53 149.803C108.737 149.671 107.283 149.406 106.226 149.406C106.094 149.406 105.829 149.406 105.697 149.406C102.657 149.803 100.146 150.728 98.1632 152.314C96.5771 153.636 95.2554 154.561 93.8014 155.354C92.0832 156.279 90.3649 157.205 88.7788 158.13C88.2501 158.394 87.8536 158.659 87.457 158.923C88.7788 159.716 90.2327 160.377 91.8188 160.641C94.5945 161.17 97.238 160.509 100.41 158.526C103.847 156.279 106.49 153.239 108.869 150.596L109.53 149.803Z" fill="white"/>
<path d="M44.7669 96.6669C45.2956 97.0634 45.6921 97.4599 46.2208 97.8565L46.353 97.9886C46.7495 96.2704 46.8817 94.6843 46.4852 92.966C45.9565 90.3225 44.8991 88.0755 43.313 86.0929C41.9912 84.3746 40.6695 82.392 39.3477 80.4093C38.819 79.4841 38.2903 78.2945 37.8938 77.3693C37.7616 76.9728 37.4973 76.5763 37.3651 76.0476C37.3651 75.9154 37.2329 75.9154 37.2329 75.7832C34.9859 79.0876 34.5894 83.7137 36.3077 86.8859C38.2903 90.1903 40.9338 93.2303 44.7669 96.6669Z" fill="white"/>
<path d="M98.1641 34.8104C99.8823 35.2069 101.468 35.3391 103.187 34.9426C105.962 34.4139 108.077 33.3565 110.06 31.9025C111.778 30.5808 113.629 29.259 115.876 27.9373C116.801 27.4086 117.858 27.012 118.783 26.6155C119.18 26.4833 119.576 26.3512 119.973 26.0868C120.105 25.9546 120.37 25.9546 120.502 25.8225C118.783 24.6329 116.404 23.8398 114.025 23.8398C112.439 23.8398 110.985 24.1042 109.928 24.7651C106.623 26.4833 103.583 28.8625 100.279 32.5634C99.7502 33.2243 99.2215 33.8852 98.5606 34.546L98.1641 34.8104Z" fill="white"/>
<path d="M156.32 65.6068L154.734 65.0781C154.734 65.2103 154.734 65.2103 154.734 65.3425C155.395 68.779 157.378 71.6869 160.55 73.9339C161.607 74.7269 162.797 75.3878 163.987 76.1808C164.383 76.4452 164.648 76.5774 165.044 76.8417C167.688 78.4278 169.67 80.1461 171.388 82.1287L171.521 82.2609C171.653 81.9966 171.653 81.7322 171.653 81.6C172.182 77.1061 170.86 73.5373 167.423 71.026C164.515 68.779 161.079 67.1929 156.32 65.6068Z" fill="white"/>
<path d="M51.5059 119.005C51.9025 119.137 52.4312 119.269 52.9599 119.402H53.092C52.9599 118.344 52.6955 117.287 52.1668 116.229C50.7129 113.454 48.8624 111.339 46.4833 110.017C44.3685 108.828 42.3859 107.638 40.5354 106.184C39.478 105.391 38.5528 104.466 37.6275 103.541C37.231 103.144 36.8345 102.747 36.438 102.483C36.3058 102.351 36.3058 102.351 36.1736 102.219C35.9093 103.805 35.7771 105.787 36.438 107.902C37.0988 110.149 38.4206 112 40.271 113.321C43.0467 115.701 46.6155 117.419 51.5059 119.005Z" fill="white"/>
<path d="M93.8045 24.6315C92.8793 24.4994 92.0862 24.3672 91.2932 24.3672C90.6323 24.3672 89.9714 24.3672 89.4427 24.4994C86.5349 25.0281 84.4201 26.3498 82.5696 28.729C79.6618 32.6942 78.0757 37.056 76.7539 41.0213C77.6791 41.0213 79.1331 40.8891 79.7939 40.4926C82.5696 39.0386 84.6844 37.1882 86.0062 34.9412C86.4027 34.1482 86.9314 33.4873 87.3279 32.6942C87.7244 32.0333 88.121 31.3725 88.5175 30.8438C89.8393 28.4646 91.5575 26.482 93.8045 24.6315Z" fill="white"/>
<path d="M120.9 150.992C119.05 154.164 117.067 157.336 114.027 159.98C114.953 160.112 115.746 160.244 116.539 160.244C117.728 160.244 118.918 160.112 119.975 159.715C122.222 158.922 124.073 157.468 125.791 155.089C128.17 151.653 129.624 147.819 130.681 144.647C130.814 144.251 130.946 143.722 131.078 143.193C129.492 143.458 128.038 143.986 126.584 144.779C124.337 146.233 122.487 148.216 120.9 150.992Z" fill="white"/>
<path d="M103.582 138.7L103.846 138.567L104.111 138.7C104.111 138.7 104.111 138.567 104.111 138.303C107.151 135.527 110.72 133.809 114.553 131.959C115.213 131.694 116.007 131.298 116.667 130.901C123.276 127.597 128.167 123.632 131.868 118.477L134.379 120.327L135.568 110.15L126.052 114.115L128.563 116.098C124.994 120.459 121.161 124.425 115.61 125.746C114.949 125.879 114.288 126.011 113.495 126.011C109.001 126.011 105.697 122.442 105.697 117.816C105.697 114.908 105.697 111.207 105.697 108.299C110.72 108.299 115.346 108.299 116.007 108.299C116.535 108.299 117.196 108.035 117.593 107.638C117.857 107.242 118.914 104.73 118.914 104.73H88.6463C88.6463 104.73 89.7037 107.242 89.968 107.638C90.2324 108.035 91.0254 108.299 91.5541 108.299C92.215 108.299 96.8411 108.299 101.864 108.299C101.864 111.207 101.864 114.908 101.864 117.816C101.864 122.442 98.4272 126.011 94.0654 126.011C93.4046 126.011 92.7437 125.879 91.9506 125.746C86.3993 124.425 82.5662 120.459 78.9975 116.098L81.5088 114.115L71.9922 110.15L73.1818 120.327L75.6931 118.477C79.394 123.632 84.4167 127.729 90.8932 130.901C91.5541 131.298 92.3472 131.562 93.0081 131.959C96.8411 133.809 100.542 135.527 103.45 138.303C103.582 138.567 103.582 138.7 103.582 138.7Z" fill="white"/>
<path d="M91.5563 64.2851C91.0276 64.2851 90.3667 64.5495 89.9702 64.946C89.7058 65.3425 88.6484 67.8538 88.6484 67.8538H119.181C119.181 67.8538 118.124 65.3425 117.859 64.946C117.595 64.5495 116.802 64.2851 116.273 64.2851C114.951 64.2851 109.796 64.2851 106.228 64.2851V59.9233C109.003 58.9981 111.118 56.2224 111.118 53.1824C111.118 49.2171 107.946 46.0449 103.981 46.0449C100.016 46.0449 96.8433 49.2171 96.8433 53.1824C96.8433 56.3546 98.8259 58.9981 101.734 59.9233V64.2851C98.0329 64.2851 92.7459 64.2851 91.5563 64.2851ZM101.073 53.0502C101.073 51.4641 102.262 50.2745 103.849 50.2745C105.435 50.2745 106.624 51.4641 106.624 53.0502C106.624 54.6363 105.435 55.8259 103.849 55.8259C102.262 55.8259 101.073 54.6363 101.073 53.0502Z" fill="white"/>
<path d="M71.0703 73.2734V99.4441H85.8739V95.0823H75.5643V73.2734H71.0703Z" fill="white"/>
<path d="M107.813 94.6859C107.02 95.2146 105.83 95.479 104.376 95.479C101.336 95.479 99.0891 94.1572 98.0317 91.5137L94.0664 93.7607C94.8595 95.6111 96.049 97.0651 97.7673 98.1225C99.4856 99.312 101.733 99.8407 104.244 99.8407C107.02 99.8407 109.267 99.1799 111.117 97.7259C112.835 96.272 113.761 94.4216 113.761 92.0424C113.761 90.5885 113.496 89.3989 112.835 88.4737C112.439 87.6806 111.646 86.8876 110.456 86.2267C110.06 85.9623 109.531 85.698 108.87 85.4336C108.077 85.0371 107.416 84.9049 107.152 84.7728L105.301 84.1119C103.319 83.451 101.865 82.9223 101.072 82.3936C100.279 81.7327 99.8821 80.9397 99.8821 80.0145C99.8821 79.0892 100.279 78.2962 100.94 77.7675C101.6 77.2388 102.526 76.9744 103.715 76.9744C106.094 76.9744 107.945 78.0318 109.002 80.2788L112.835 78.0318C111.91 76.3136 110.72 74.9918 109.267 74.0666C107.68 73.0092 105.83 72.4805 103.715 72.4805C101.336 72.4805 99.3534 73.1413 97.6351 74.5953C95.9169 75.917 95.1238 77.7675 95.1238 80.1466C95.1238 82.5258 95.9169 84.2441 97.503 85.4336C98.8247 86.3589 100.675 87.1519 102.922 87.945C105.169 88.6059 106.623 89.1345 107.548 89.6632C108.474 90.1919 109.002 91.1172 109.002 92.1746C109.134 93.3642 108.606 94.1572 107.813 94.6859Z" fill="white"/>
<path d="M140.99 92.0417C140.99 89.3982 139.932 87.5477 137.685 86.226L137.157 85.9616L137.553 85.5651C139.139 84.2433 139.932 82.6572 139.932 80.4103C139.932 78.2955 139.139 76.5772 137.685 75.2554C136.231 73.9337 134.249 73.1406 132.134 73.1406H121.824V99.4435H132.927C135.174 99.4435 137.157 98.7826 138.61 97.3287C140.329 96.0069 140.99 94.1565 140.99 92.0417ZM126.45 77.5024H132.134C133.059 77.5024 133.852 77.7668 134.513 78.4276C135.174 79.0885 135.438 79.8816 135.438 80.8068C135.438 81.732 135.174 82.5251 134.513 83.1859C133.852 83.8468 133.059 84.1112 132.134 84.1112H126.45V77.5024ZM135.57 94.1565C134.91 94.8174 134.117 95.2139 133.059 95.2139H126.583V88.0764H133.059C134.117 88.0764 134.91 88.4729 135.57 89.1338C136.231 89.7947 136.628 90.5878 136.628 91.6452C136.496 92.7026 136.099 93.4956 135.57 94.1565Z" fill="white"/>
<path d="M47.0151 148.613L45.6933 147.424L39.6133 153.636L43.182 157.205L44.3716 156.015L41.9924 153.636L47.0151 148.613Z" fill="white"/>
<path d="M54.8106 155.618L51.2418 160.112C50.9775 160.509 50.581 160.641 50.1844 160.641C49.7879 160.641 49.3914 160.509 48.9949 160.244C48.5983 159.848 48.334 159.583 48.334 159.187C48.334 158.79 48.4662 158.394 48.7305 158.129L52.2992 153.636L50.9775 152.578L47.2766 157.204C46.7479 157.865 46.4835 158.658 46.6157 159.451C46.7479 160.244 47.1444 161.037 47.9375 161.566C48.7305 162.227 49.5236 162.491 50.3166 162.491C51.1097 162.491 51.9027 162.095 52.4314 161.302L56.1323 156.676L54.8106 155.618Z" fill="white"/>
<path d="M62.2138 160.774L59.4382 162.095L59.5703 159.055L57.9842 157.998L57.7199 162.889L53.0938 165.268L54.6799 166.325L57.7199 164.871L57.5877 168.176L59.306 169.233L59.4382 163.946L63.7999 161.699L62.2138 160.774Z" fill="white"/>
<path d="M70.2781 165.003L67.7668 170.158C67.5024 170.554 67.2381 170.819 66.9737 170.951C66.5772 171.083 66.1807 170.951 65.652 170.819C65.1233 170.554 64.8589 170.29 64.7267 169.893C64.5946 169.497 64.5946 169.1 64.8589 168.704L67.3702 163.549L65.7841 162.756L63.1406 168.043C62.7441 168.836 62.7441 169.629 63.0085 170.422C63.2728 171.215 63.9337 171.744 64.8589 172.272C65.7841 172.669 66.5772 172.801 67.3702 172.537C68.1633 172.272 68.8242 171.744 69.2207 170.951L71.8642 165.664L70.2781 165.003Z" fill="white"/>
<path d="M77.8099 168.043L74.5055 166.854L71.5977 175.048L73.1838 175.577L74.2412 172.669L75.4307 173.066L76.0916 176.502L77.8099 177.163L77.0168 173.462C77.5455 173.462 78.0742 173.198 78.4708 172.934C78.8673 172.537 79.2638 172.141 79.396 171.612C79.6603 170.819 79.6603 170.158 79.2638 169.365C79.1316 168.836 78.6029 168.307 77.8099 168.043ZM77.9421 171.215C77.8099 171.612 77.5455 171.744 77.2812 172.008C77.0168 172.141 76.6203 172.141 76.356 172.141L74.6377 171.612L75.4307 169.233L77.149 169.761C77.4134 169.894 77.6777 170.026 77.8099 170.422C78.0742 170.554 78.0742 170.819 77.9421 171.215Z" fill="white"/>
<path d="M85.0791 173.858L84.0217 169.893L82.0391 169.496L83.7573 175.312L82.9643 178.748L84.6826 179.013L85.4756 175.708L89.573 171.214L87.7226 170.818L85.0791 173.858Z" fill="white"/>
<path d="M99.0909 173.726C99.8839 173.726 100.413 174.123 100.677 174.916L102.131 174.123C101.867 173.462 101.47 172.933 100.941 172.669C100.413 172.272 99.7518 172.14 99.0909 172.008C98.2978 172.008 97.637 172.14 96.9761 172.669C96.4474 173.065 96.0509 173.726 96.0509 174.519C96.0509 175.312 96.183 175.973 96.7117 176.37C97.1083 176.766 97.7691 177.03 98.43 177.295C99.0909 177.559 99.6196 177.691 99.8839 177.956C100.148 178.088 100.28 178.352 100.28 178.749C100.28 179.013 100.148 179.277 99.8839 179.41C99.6196 179.542 99.2231 179.674 98.8265 179.542C97.7691 179.542 97.2404 179.013 96.8439 178.088L95.2578 178.881C95.5222 179.542 95.9187 180.07 96.4474 180.599C96.9761 180.996 97.7691 181.26 98.5622 181.26C99.4874 181.26 100.28 181.128 100.941 180.731C101.602 180.335 101.867 179.674 101.999 178.881C101.999 178.352 101.999 177.956 101.734 177.691C101.602 177.427 101.338 177.163 100.941 176.898C100.809 176.766 100.677 176.766 100.413 176.634C100.148 176.502 100.016 176.37 99.8839 176.37L99.3552 176.105C98.6944 175.841 98.2978 175.709 98.0335 175.444C97.7691 175.312 97.7691 175.048 97.7691 174.783C97.7691 174.519 97.9013 174.387 98.1657 174.123C98.43 173.858 98.6944 173.726 99.0909 173.726Z" fill="white"/>
<path d="M107.022 179.41L106.89 177.428L110.194 177.295V175.709L106.89 175.842L106.757 173.991L110.458 173.859L110.326 172.141L105.039 172.405L105.436 181.129L110.855 180.864L110.723 179.278L107.022 179.41Z" fill="white"/>
<path d="M115.347 171.612L113.629 180.732L115.479 180.468L115.744 178.882L119.18 178.353L119.973 179.807L121.824 179.543L117.462 171.348L115.347 171.612ZM116.14 177.031L116.801 173.33L118.519 176.635L116.14 177.031Z" fill="white"/>
<path d="M133.458 171.215C133.854 170.554 133.854 170.025 133.722 169.232C133.458 168.571 133.061 168.043 132.4 167.778C131.739 167.514 131.079 167.514 130.418 167.778L127.113 168.968L130.021 177.295L133.59 176.105C134.251 175.841 134.912 175.445 135.176 174.784C135.572 174.123 135.573 173.462 135.308 172.801C134.912 171.876 134.383 171.347 133.458 171.215ZM129.889 171.744L129.228 169.893L130.814 169.364C131.079 169.232 131.343 169.232 131.607 169.364C131.872 169.497 132.004 169.629 132.136 169.893C132.268 170.158 132.268 170.422 132.136 170.686C132.004 170.951 131.872 171.083 131.607 171.215L129.889 171.744ZM133.59 173.991C133.458 174.255 133.326 174.387 133.061 174.519L131.211 175.18L130.55 173.198L132.4 172.537C132.665 172.404 132.929 172.404 133.193 172.537C133.458 172.669 133.59 172.801 133.722 173.198C133.722 173.462 133.722 173.726 133.59 173.991Z" fill="white"/>
<path d="M142.574 163.813C141.385 163.416 140.195 163.548 139.138 164.077C137.948 164.606 137.287 165.531 136.891 166.72C136.494 167.91 136.626 169.1 137.155 170.157C137.684 171.347 138.609 172.007 139.799 172.536C140.988 172.933 142.178 172.801 143.235 172.272C144.425 171.743 145.086 170.818 145.482 169.628C145.879 168.439 145.746 167.249 145.218 166.192C144.689 164.87 143.764 164.209 142.574 163.813ZM143.896 169.1C143.632 169.76 143.235 170.289 142.442 170.686C141.781 171.082 140.988 171.082 140.327 170.818C139.666 170.554 139.006 170.025 138.741 169.364C138.345 168.571 138.345 167.91 138.609 167.117C138.873 166.456 139.402 165.795 140.063 165.531C140.724 165.134 141.517 165.134 142.178 165.399C142.839 165.663 143.499 166.192 143.764 166.853C144.028 167.513 144.028 168.307 143.896 169.1Z" fill="white"/>
<path d="M147.07 159.715L149.317 168.703L150.903 167.645L150.507 166.059L153.415 164.077L154.736 165.134L156.323 164.077L148.921 158.525L147.07 159.715ZM151.961 163.019L149.978 164.341L149.053 160.64L151.961 163.019Z" fill="white"/>
<path d="M158.174 153.371L157.116 152.182L152.094 156.279L153.151 157.469L155.002 156.015L159.496 161.434L160.817 160.377L156.323 154.957L158.174 153.371Z" fill="white"/>
<path d="M166.367 150.067C166.103 149.935 165.706 149.935 165.178 150.067C165.045 150.067 164.781 150.199 164.649 150.331C164.384 150.463 164.252 150.463 164.12 150.596L163.591 150.86C163.063 151.124 162.534 151.389 162.27 151.389C162.005 151.389 161.741 151.389 161.609 151.124C161.477 150.992 161.344 150.728 161.344 150.463C161.344 150.199 161.477 149.935 161.741 149.67C162.27 149.142 162.931 149.009 163.724 149.274L164.12 147.688C163.459 147.423 162.798 147.423 162.137 147.556C161.477 147.688 160.948 148.084 160.419 148.481C159.891 149.009 159.494 149.67 159.494 150.463C159.362 151.124 159.626 151.785 160.287 152.446C160.816 152.975 161.477 153.239 162.137 153.107C162.666 152.975 163.327 152.71 163.988 152.446C164.649 152.05 165.045 151.917 165.442 151.785C165.706 151.653 165.971 151.785 166.235 152.05C166.499 152.314 166.499 152.446 166.499 152.71C166.499 152.975 166.235 153.239 165.971 153.636C165.31 154.297 164.517 154.561 163.591 154.164L163.195 155.883C163.856 156.147 164.517 156.279 165.178 156.147C165.838 156.015 166.499 155.618 167.16 154.957C167.821 154.297 168.218 153.636 168.218 152.843C168.35 152.05 168.085 151.389 167.424 150.86C167.16 150.463 166.764 150.199 166.367 150.067Z" fill="white"/>
</svg>
