<svg width="90" height="64" viewBox="0 0 90 64" fill="none" xmlns="http://www.w3.org/2000/svg">
<circle cx="45" cy="32" r="32" fill="#14143C"/>
<rect y="36" width="90" height="20" rx="10" fill="#C19F56"/>
<g clip-path="url(#clip0_927_58788)">
<path d="M45.5265 18.9238C44.71 18.9238 44.0459 19.588 44.0459 20.4044C44.0459 21.2209 44.71 21.885 45.5265 21.885C46.3429 21.885 47.0071 21.2209 47.0071 20.4044C47.0071 19.588 46.3429 18.9238 45.5265 18.9238ZM45.5265 21.039C45.1766 21.039 44.892 20.7543 44.892 20.4044C44.892 20.0546 45.1766 19.7699 45.5265 19.7699C45.8763 19.7699 46.161 20.0546 46.161 20.4044C46.161 20.7543 45.8763 21.039 45.5265 21.039Z" fill="white"/>
<path d="M51.0782 22.995C51.1577 22.8254 51.2292 22.6519 51.2931 22.4743C51.3075 22.4341 51.3235 22.3947 51.3371 22.3541C51.3942 22.1836 51.4428 22.0098 51.4851 21.8334C51.4949 21.7932 51.5071 21.7534 51.516 21.7128C51.6082 21.2906 51.6598 20.8536 51.6598 20.404C51.6598 18.8946 51.1091 17.513 50.2017 16.4432C50.2013 16.4423 50.2008 16.4415 50.2004 16.4411C50.1953 16.4351 50.1898 16.4305 50.1848 16.4246C50.0477 16.2642 49.9018 16.1119 49.7486 15.9664C49.7266 15.9453 49.7034 15.9258 49.6809 15.9047C49.5384 15.7727 49.3895 15.6479 49.2346 15.5299C49.2101 15.5112 49.1851 15.4926 49.1606 15.4744C49.0024 15.3573 48.8387 15.2481 48.6691 15.1466C48.6466 15.1331 48.6251 15.1191 48.6022 15.106C48.4182 14.9985 48.2287 14.9 48.0332 14.812C48.0286 14.8099 48.0244 14.8069 48.0193 14.8048C48.0184 14.8044 48.018 14.8044 48.0172 14.8044C47.2549 14.4638 46.4131 14.2705 45.5255 14.2705C44.6215 14.2705 43.7653 14.4723 42.992 14.8251C42.9908 14.8255 42.9899 14.8255 42.9887 14.8259C42.9827 14.8285 42.9777 14.8323 42.9717 14.8348C42.778 14.9241 42.5906 15.0231 42.4083 15.1314C42.3871 15.1441 42.3664 15.1567 42.3452 15.1699C42.1773 15.2722 42.0149 15.3822 41.8583 15.4998C41.8308 15.5201 41.8038 15.54 41.7767 15.5612C41.6295 15.6754 41.4886 15.7959 41.3524 15.9224C41.3228 15.9499 41.2919 15.9757 41.2631 16.0036C41.1197 16.1424 40.9831 16.2879 40.8536 16.4402C40.8426 16.4533 40.8295 16.4647 40.8185 16.4779C40.8177 16.4787 40.8173 16.48 40.8164 16.4812C39.9281 17.5456 39.3921 18.9136 39.3921 20.4048C39.3921 20.6193 39.4035 20.8312 39.4251 21.0402C39.4251 21.0406 39.4251 21.041 39.4251 21.0419C39.4264 21.055 39.4297 21.0673 39.4314 21.08C39.4543 21.2864 39.4873 21.4899 39.53 21.69C39.541 21.7403 39.5562 21.789 39.5685 21.8389C39.6091 22.0068 39.6539 22.1726 39.7081 22.3347C39.7225 22.3778 39.7398 22.4201 39.755 22.4628C39.8181 22.6384 39.8879 22.8101 39.9657 22.9781C39.9771 23.0026 39.9894 23.0271 40.0012 23.0517C40.0939 23.2442 40.1958 23.4311 40.3075 23.6118C40.3096 23.6156 40.3113 23.6194 40.3139 23.6232C40.3147 23.6245 40.316 23.6253 40.3164 23.6266C41.3993 25.3711 43.3267 26.5391 45.5264 26.5391C45.5353 26.5391 45.5442 26.5378 45.553 26.5378C45.5619 26.5378 45.5712 26.5391 45.5801 26.5391C45.7675 26.5391 45.9575 26.5264 46.1482 26.5074C46.1508 26.507 46.1537 26.507 46.1563 26.5065C46.4689 26.4752 46.7849 26.4215 47.1017 26.3407C47.1301 26.3335 47.1538 26.3187 47.1792 26.3064C48.6665 25.8889 49.9242 24.9253 50.7254 23.6443C50.7262 23.6435 50.7271 23.6427 50.7275 23.6414C50.7296 23.638 50.7313 23.6342 50.7334 23.6308C50.8459 23.4498 50.9487 23.2624 51.0427 23.0695C51.0545 23.0441 51.0668 23.0195 51.0782 22.995ZM50.8138 20.4103L49.0549 19.7212C49.0037 19.4555 48.9224 19.2 48.8158 18.9585L49.8933 17.428C50.4733 18.2766 50.8138 19.3007 50.8138 20.404C50.8142 20.4061 50.8138 20.4082 50.8138 20.4103ZM50.722 21.3672C50.7076 21.4455 50.6903 21.5233 50.6725 21.6011C50.6556 21.6735 50.637 21.7445 50.6171 21.8156C50.5926 21.9027 50.568 21.9899 50.5388 22.0762C50.5249 22.1185 50.5084 22.1595 50.4931 22.201C50.4068 22.4362 50.3066 22.6667 50.1856 22.8905L48.5988 22.2682C48.6081 22.2526 48.6149 22.2361 48.6242 22.2204C48.6775 22.1299 48.7266 22.0368 48.7718 21.9412C48.7837 21.9159 48.7968 21.8913 48.8082 21.8659C48.9178 21.6206 49.0016 21.3617 49.054 21.0914C49.0587 21.0673 49.0608 21.0423 49.0654 21.0182C49.0836 20.9141 49.098 20.8088 49.1069 20.7018C49.1082 20.6853 49.112 20.6692 49.1132 20.6531L50.7343 21.2885C50.7296 21.3139 50.7271 21.341 50.722 21.3672ZM47.9051 21.7767C47.8987 21.7877 47.892 21.7983 47.8852 21.8093C47.8073 21.94 47.7194 22.0652 47.6195 22.1824C47.1335 22.7535 46.419 23.1223 45.6186 23.149C45.2781 23.1536 44.935 23.0978 44.6046 22.9722C44.5657 22.9574 44.5255 22.9506 44.4849 22.9476C44.0682 22.7763 43.7023 22.5064 43.4176 22.1659C43.3233 22.0529 43.2399 21.9324 43.1655 21.8071C43.1566 21.7919 43.1469 21.7771 43.138 21.7619C43.0669 21.6367 43.006 21.5059 42.9552 21.3718C42.9485 21.3545 42.9421 21.3372 42.9362 21.3194C42.888 21.1836 42.8503 21.0444 42.8237 20.9027C42.8203 20.8849 42.8186 20.8668 42.8156 20.849C42.7915 20.7022 42.7763 20.5537 42.7763 20.4035C42.7763 20.2864 42.786 20.1717 42.8004 20.0575C42.8414 19.7322 42.9392 19.4251 43.0838 19.145C43.1236 19.068 43.1668 18.9936 43.2133 18.9217C43.2171 18.9158 43.2205 18.9094 43.2243 18.9035C43.5868 18.3489 44.1418 17.9386 44.7836 17.7588C45.02 17.6924 45.2683 17.6543 45.526 17.6543C45.7692 17.6543 46.004 17.689 46.2286 17.7486C46.3187 17.7723 46.4076 17.8011 46.4943 17.8337C46.4964 17.8345 46.4989 17.8353 46.501 17.8362C46.5861 17.8683 46.669 17.9051 46.7498 17.9453C46.754 17.9475 46.7582 17.9491 46.7621 17.9513C46.8403 17.9906 46.916 18.0342 46.9896 18.0803C46.996 18.0841 47.0023 18.0879 47.0087 18.0921C47.0789 18.137 47.1462 18.1856 47.2122 18.2368C47.221 18.2436 47.2303 18.2499 47.2388 18.2567C47.3014 18.3066 47.3611 18.3599 47.419 18.4149C47.4287 18.4242 47.4397 18.4331 47.4495 18.4424C47.5074 18.4991 47.5624 18.5596 47.6157 18.6213C47.6233 18.6302 47.6318 18.6383 47.639 18.6471C47.7574 18.7889 47.8615 18.9437 47.9499 19.1082C48.1077 19.4022 48.2118 19.728 48.2536 20.0727C48.2536 20.0736 48.2536 20.0749 48.2536 20.0757C48.2663 20.1831 48.2756 20.2923 48.2756 20.4031C48.2756 20.5554 48.2604 20.706 48.235 20.8549C48.2325 20.8714 48.2304 20.8879 48.2274 20.9044C48.2003 21.0495 48.161 21.1916 48.1111 21.33C48.106 21.3448 48.1005 21.3592 48.095 21.3735C48.0434 21.5131 47.9799 21.6477 47.9051 21.7767ZM46.5708 23.8597L46.5734 25.5869C46.2587 25.6503 45.9333 25.6833 45.6017 25.688C45.5361 25.6884 45.4701 25.688 45.405 25.6854C45.339 25.6838 45.2734 25.6795 45.2079 25.6753C45.0991 25.6677 44.99 25.6592 44.8813 25.6444L44.8787 23.9379C45.0166 23.9633 45.1571 23.979 45.3001 23.9878C45.3056 23.9883 45.3111 23.9883 45.3166 23.9887C45.3864 23.9929 45.4557 23.9993 45.5264 23.9993C45.5602 23.9993 45.5932 23.995 45.6266 23.9942C45.7087 23.9929 45.7904 23.9883 45.872 23.9819C45.8864 23.9807 45.9008 23.979 45.9152 23.9777C46.1372 23.957 46.3572 23.9214 46.5708 23.8597ZM42.4425 22.2513L40.8575 22.8723C40.7403 22.6528 40.6426 22.4269 40.5584 22.1967C40.5415 22.1506 40.5233 22.1054 40.5076 22.0584C40.4814 21.9806 40.4598 21.9011 40.4374 21.8219C40.4145 21.7407 40.393 21.6591 40.3739 21.5762C40.3587 21.5089 40.3443 21.4412 40.3316 21.3731C40.3253 21.3384 40.3215 21.3025 40.3156 21.2674L41.9383 20.6311C41.9396 20.6497 41.9438 20.6679 41.9451 20.687C41.9531 20.7868 41.9658 20.8854 41.9819 20.9831C41.9874 21.0152 41.9903 21.0478 41.9967 21.08C42.0478 21.3477 42.1291 21.6049 42.2361 21.8486C42.2492 21.8778 42.264 21.9061 42.278 21.9353C42.3199 22.0242 42.3647 22.1109 42.4133 22.1955C42.4239 22.2137 42.4315 22.2336 42.4425 22.2513ZM41.1324 17.4669L42.2145 19.0042C42.1206 19.225 42.0491 19.4577 42.0009 19.6984L40.239 20.3892C40.2424 19.3083 40.5711 18.3036 41.1324 17.4669ZM41.7225 16.7397C41.7864 16.6737 41.8524 16.6103 41.9197 16.5477C41.959 16.5109 41.9984 16.4749 42.039 16.4394C42.1206 16.3679 42.2039 16.2976 42.2902 16.2312C42.3114 16.2147 42.333 16.1995 42.3541 16.1834C42.5677 16.0235 42.7924 15.8776 43.0276 15.7507L44.0103 17.1462C43.9997 17.1513 43.9904 17.1577 43.9798 17.1627C43.8724 17.2139 43.7683 17.2706 43.6672 17.3319C43.6482 17.3434 43.6295 17.3544 43.6109 17.3662C43.5035 17.4343 43.3994 17.5071 43.3 17.5858C43.2937 17.5908 43.2869 17.5951 43.2805 17.6001C43.0673 17.771 42.8749 17.9665 42.7052 18.181C42.6989 18.189 42.6913 18.1958 42.6849 18.2038L41.6836 16.782C41.6972 16.7681 41.7094 16.7532 41.7225 16.7397ZM47.0006 17.1276L47.9859 15.7287C48.1052 15.7917 48.2219 15.8602 48.3366 15.9326C48.3433 15.9368 48.3505 15.941 48.3573 15.9453C48.4647 16.0138 48.5692 16.0874 48.6716 16.1631C48.6894 16.1762 48.7075 16.1898 48.7253 16.2033C48.8226 16.2773 48.9174 16.3548 49.0092 16.4356C49.0299 16.4537 49.0502 16.4728 49.0709 16.4914C49.1598 16.5718 49.2473 16.6538 49.3302 16.7401C49.3328 16.7427 49.3349 16.7452 49.337 16.7477L48.3382 18.1662C48.3332 18.1598 48.3272 18.1547 48.3226 18.1484C48.238 18.0439 48.1487 17.9436 48.0531 17.8493C48.051 17.8472 48.0485 17.8451 48.0464 17.843C47.9529 17.7512 47.8535 17.6653 47.7507 17.5841C47.7312 17.5688 47.7113 17.5545 47.6914 17.5397C47.6005 17.4707 47.507 17.4064 47.4097 17.3463C47.3902 17.3345 47.3708 17.3226 47.3513 17.3108C47.2413 17.2457 47.1284 17.186 47.0112 17.1327C47.0078 17.1319 47.0044 17.1293 47.0006 17.1276ZM47.191 15.3886L46.1508 16.8662C45.9477 16.8302 45.7396 16.8082 45.5264 16.8082C45.2963 16.8082 45.0716 16.8319 44.8529 16.8738L43.8186 15.4046C44.355 15.2206 44.9282 15.1161 45.5264 15.1161C46.1081 15.1161 46.6669 15.2143 47.191 15.3886ZM41.3228 23.5987L42.9865 22.9468C43.2869 23.2467 43.6418 23.4912 44.0323 23.6706L44.0348 25.4744C42.9413 25.1516 41.9971 24.4841 41.3228 23.5987ZM47.4186 25.3356L47.416 23.4569C47.6453 23.3144 47.8585 23.1498 48.0497 22.9612L49.7173 23.6152C49.1285 24.3825 48.3357 24.9824 47.4186 25.3356Z" fill="white"/>
<path d="M57.8577 23.7036C57.6766 23.2894 57.345 22.9705 56.9245 22.8055L54.9054 22.014C54.9951 21.4903 55.0442 20.953 55.0442 20.4044C55.0442 17.8641 54.042 15.5552 52.4146 13.8466L53.7594 11.9367C54.0196 11.5669 54.1207 11.1181 54.0433 10.6731C53.9654 10.2276 53.7192 9.8393 53.3495 9.57914C52.5872 9.04275 51.5297 9.22549 50.9924 9.98906L49.6857 11.8457C48.4285 11.2319 47.0168 10.8867 45.5261 10.8867C44.0197 10.8867 42.5945 11.2399 41.3271 11.866L40.0056 9.98863C39.4688 9.22634 38.4103 9.04275 37.6485 9.57914C36.8849 10.1164 36.7013 11.174 37.2386 11.9371L38.6062 13.8796C36.9974 15.5848 36.008 17.8806 36.008 20.4048C36.008 20.9467 36.0558 21.4776 36.1433 21.995L34.0743 22.8055C33.2059 23.1464 32.7765 24.13 33.1166 24.9989C33.3776 25.6651 34.0176 26.0734 34.6941 26.0734C34.8988 26.0734 35.1078 26.0357 35.3096 25.9566L37.2969 25.1774C38.7094 27.6039 41.1621 29.3531 44.0412 29.8061L44.0442 32.0389C44.0459 32.9708 44.8048 33.7284 45.7372 33.7284C45.7376 33.7284 45.7384 33.7284 45.7393 33.7284C46.6725 33.7267 47.4301 32.9661 47.4284 32.0338L47.425 29.7317C50.1184 29.1843 52.4002 27.4951 53.7459 25.1943L55.6893 25.9562C55.8919 26.0357 56.1 26.0729 56.3048 26.0729C56.9808 26.0729 57.6208 25.6647 57.8822 24.9984C58.0472 24.5775 58.0383 24.1177 57.8577 23.7036ZM51.6841 10.4755C51.9531 10.094 52.4815 10.0026 52.863 10.2704C53.2442 10.5394 53.3364 11.0682 53.0678 11.4498L51.7974 13.2535C51.3736 12.8817 50.9184 12.545 50.4332 12.2522L51.6841 10.4755ZM38.1354 10.2704C38.2834 10.1667 38.4531 10.1168 38.621 10.1168C38.8871 10.1168 39.1494 10.242 39.3144 10.4755L40.5809 12.2751C40.5784 12.2768 40.5762 12.2785 40.5737 12.2802C40.0927 12.5742 39.6409 12.9113 39.2213 13.2832L37.9306 11.4502C37.662 11.0682 37.7542 10.5394 38.1354 10.2704ZM35.0003 25.1689C34.5667 25.3377 34.0747 25.1245 33.9038 24.6896C33.7338 24.2556 33.9491 23.7632 34.3831 23.5927L36.3236 22.8326C36.4691 23.3842 36.6641 23.9155 36.9014 24.4231L35.0003 25.1689ZM46.5819 32.0346C46.5828 32.5012 46.2038 32.8811 45.7376 32.882C45.7372 32.882 45.7367 32.882 45.7363 32.882C45.2701 32.882 44.8907 32.5029 44.8898 32.0372L44.8869 29.8988C44.9973 29.906 45.1081 29.9115 45.2194 29.9149C45.2866 29.9174 45.3543 29.9191 45.4207 29.9199C45.4563 29.9204 45.491 29.9225 45.5265 29.9225C45.5595 29.9225 45.5916 29.9204 45.6242 29.9199C45.697 29.9191 45.771 29.9174 45.8438 29.9144C46.0912 29.9064 46.3366 29.8899 46.579 29.8628L46.5819 32.0346ZM46.9356 28.9512C46.9347 28.9512 46.9339 28.9508 46.9331 28.9512C46.6911 28.991 46.4626 29.0193 46.241 29.04C46.0045 29.0595 45.7676 29.0764 45.5265 29.0764C45.2942 29.0764 45.0662 29.0595 44.8391 29.0417C44.7316 29.0324 44.6276 29.0252 44.5129 29.0117C44.5125 29.0117 44.5121 29.0117 44.5117 29.0117C41.6249 28.6729 39.1688 26.9143 37.8629 24.4515C37.8625 24.4511 37.8625 24.4502 37.8625 24.4494C37.8473 24.4206 37.835 24.391 37.8202 24.3622C37.7377 24.2019 37.6574 24.0403 37.5846 23.874C37.5393 23.7712 37.5 23.6663 37.459 23.5623C37.4052 23.4252 37.3536 23.2873 37.3067 23.1469C37.2754 23.0542 37.2445 22.9616 37.2166 22.8685C36.9843 22.0863 36.8549 21.2606 36.8549 20.404C36.8549 17.9868 37.8511 15.7993 39.4523 14.2252H39.4527C39.4556 14.2227 39.4586 14.2202 39.4611 14.2176C39.6151 14.0666 39.775 13.9219 39.94 13.7823C40.0174 13.7168 40.0982 13.6554 40.1777 13.5928C40.3013 13.4955 40.4265 13.4008 40.5551 13.3107C40.6266 13.2599 40.6985 13.2096 40.7713 13.1613C42.1381 12.2607 43.7714 11.7323 45.5273 11.7323C47.0067 11.7323 48.3997 12.1063 49.6197 12.7624L49.6201 12.7628C49.6908 12.8009 49.7589 12.8445 49.8282 12.8847C49.967 12.9642 50.1041 13.0467 50.2382 13.1338C50.3363 13.1977 50.4327 13.2641 50.5284 13.3318C50.6248 13.4003 50.7187 13.4718 50.8122 13.5442C51.0749 13.7476 51.3296 13.963 51.5707 14.1973C51.5711 14.1977 51.572 14.1982 51.5728 14.1986C53.1905 15.7748 54.1998 17.9724 54.1998 20.4044C54.1998 21.0173 54.1338 21.6151 54.0124 22.1925C54.0124 22.1929 54.0124 22.1934 54.012 22.1938C53.9642 22.4209 53.9045 22.6435 53.8394 22.8634C53.8089 22.9654 53.7747 23.0665 53.7404 23.1676C53.6951 23.3017 53.6465 23.4337 53.5949 23.5648C53.5534 23.6701 53.5132 23.7763 53.4671 23.88C53.3863 24.0644 53.2988 24.245 53.2053 24.4223C53.1976 24.4371 53.1913 24.4523 53.1833 24.4667C53.1828 24.4671 53.1833 24.4675 53.1828 24.468C51.9345 26.8094 49.6442 28.5058 46.9356 28.9512ZM57.095 24.6896C56.9245 25.1237 56.4321 25.3377 55.9985 25.1689L54.1435 24.4417C54.3821 23.9345 54.5776 23.4032 54.7243 22.852L56.6157 23.5932C56.8264 23.6756 56.9922 23.8351 57.0827 24.0424C57.1728 24.2493 57.1771 24.4794 57.095 24.6896Z" fill="white"/>
</g>
<defs>
<clipPath id="clip0_927_58788">
<rect width="25" height="25" fill="white" transform="translate(33 9)"/>
</clipPath>
</defs>
</svg>
