<svg width="500" height="501" viewBox="0 0 500 501" fill="none" xmlns="http://www.w3.org/2000/svg">
<path d="M358.5 62.6391C357.069 63.116 356.116 63.116 354.685 63.5929C352.777 64.0698 350.393 65.0236 348.008 65.9773L347.055 66.4542L348.008 67.408C349.916 69.3156 351.824 71.2231 353.731 72.1769C364.223 78.8533 374.714 82.1915 386.159 81.2377C391.405 80.7608 397.128 80.7608 402.85 80.7608C407.619 80.7608 412.865 80.7608 418.111 81.2377C421.449 81.2377 424.787 82.1915 428.125 83.1453C429.556 83.6221 430.987 83.6221 432.417 84.099C432.417 84.099 432.417 84.099 432.894 84.099C428.602 71.7 415.726 61.2085 404.281 59.7778C396.174 58.8241 387.59 58.8241 375.668 59.7778C369.468 59.7778 363.746 61.2085 358.5 62.6391Z" fill="white" fill-opacity="0.05"/>
<path d="M94.7814 412.196C102.412 412.196 110.042 411.72 117.195 410.766C113.857 405.043 109.088 400.751 102.412 395.982C93.8276 390.26 83.813 388.829 73.3215 386.922H72.3677C66.1682 385.968 59.0149 385.014 52.3385 382.63C48.5234 381.676 44.7083 379.768 41.3701 377.861C39.9394 376.907 38.5088 376.43 37.0781 375.953C39.4626 384.06 43.2777 393.121 50.9078 399.797C57.5842 405.997 66.1682 407.905 74.7522 409.812C80.4748 411.72 87.1512 412.196 94.7814 412.196Z" fill="white" fill-opacity="0.05"/>
<path d="M149.146 434.61C150.1 434.61 150.577 434.133 151.53 434.133C150.1 432.703 149.146 431.272 147.715 430.318C136.747 421.734 125.302 418.396 111.949 418.873C102.411 419.35 91.9195 419.35 81.428 418.873C78.0898 418.873 74.2747 417.919 70.9365 416.965C69.5058 416.489 68.0752 416.489 66.6445 416.012C71.4134 428.888 83.8124 439.379 97.1652 440.81C111.949 442.24 125.778 441.287 139.131 436.995C141.993 436.041 145.331 435.087 149.146 434.61Z" fill="white" fill-opacity="0.05"/>
<path d="M228.788 457.026C226.404 456.072 224.02 454.641 222.112 454.641C214.482 453.211 206.852 452.734 199.221 454.165C196.36 454.641 193.499 456.072 190.638 457.026C189.684 457.503 189.207 457.503 188.253 457.98C185.392 459.41 182.054 460.841 179.192 461.795C173.47 464.179 167.747 467.041 162.024 468.948C157.732 470.379 153.44 471.333 149.148 472.286C147.241 472.763 145.333 472.763 143.903 473.24C143.903 473.24 143.903 473.24 143.426 473.24C148.672 478.009 153.917 481.347 160.117 483.732C167.747 486.593 175.377 486.593 183.484 483.732C194.453 479.916 204.944 474.671 214.482 467.517C217.82 465.133 221.158 462.272 224.973 459.887L228.788 457.026Z" fill="white" fill-opacity="0.05"/>
<path d="M64.7352 149.435L65.689 152.296C69.0272 149.435 71.8885 145.62 74.2729 141.328C79.0418 131.313 81.4262 122.252 80.9493 112.714C80.4725 101.746 80.4725 91.2545 80.9493 82.6705C80.9493 79.3323 81.9031 75.9941 82.38 72.6559C82.8569 71.2252 82.8569 69.7946 83.3338 68.8408C83.3338 68.3639 83.3338 67.887 83.8107 67.4102C67.1196 75.0403 59.0126 87.4394 58.5357 104.607C58.0588 116.529 59.4895 127.498 62.3508 137.989C62.8277 141.328 63.7814 145.143 64.7352 149.435Z" fill="white" fill-opacity="0.05"/>
<path d="M34.2141 219.535C36.1216 222.397 38.506 225.258 40.8905 228.119L42.3211 230.027C45.1825 224.781 46.1362 220.012 46.1362 215.72C47.09 206.182 45.1824 196.645 40.8905 188.061C36.5985 179 32.7834 170.416 29.9221 162.309C28.4914 158.494 27.5377 154.202 27.0608 150.387C26.5839 148.479 26.5839 147.048 26.107 145.141C26.107 145.141 26.107 145.141 26.107 144.664C20.3844 150.387 16.5693 157.54 14.1848 166.124C12.2773 173.754 14.1848 180.907 16.5693 188.061C20.3844 200.46 28.0145 211.428 34.2141 219.535Z" fill="white" fill-opacity="0.05"/>
<path d="M483.921 213.813C473.906 203.799 461.984 196.645 448.631 189.492C448.631 189.969 448.631 190.446 448.631 190.923C448.631 193.784 448.154 196.645 449.108 199.507C451.969 210.952 456.261 219.059 462.461 225.259C464.845 227.643 467.706 230.028 470.091 232.412C473.906 236.227 478.198 239.565 482.013 243.857C485.828 247.672 488.689 252.441 492.028 256.733V257.21C493.458 259.118 494.412 260.548 495.843 262.456C495.843 262.456 495.843 262.456 495.843 262.933C498.227 255.779 499.658 250.057 499.181 244.334C498.704 230.028 491.074 220.967 483.921 213.813Z" fill="white" fill-opacity="0.05"/>
<path d="M432.895 348.77V348.293C429.557 351.154 427.172 354.493 424.788 358.784C419.542 369.276 417.158 378.337 418.111 387.875C418.588 396.459 419.065 405.519 418.588 414.58C418.588 418.872 417.634 423.164 416.681 426.979C416.204 428.41 416.204 430.317 415.727 431.748C415.727 432.225 415.727 432.702 415.25 433.179C428.603 427.933 438.617 415.534 440.048 403.135C441.479 390.259 440.525 378.337 437.664 366.892C436.233 360.215 434.802 354.016 432.895 348.77Z" fill="white" fill-opacity="0.05"/>
<path d="M394.743 398.366C390.451 405.519 389.02 413.15 387.589 421.257C387.113 423.164 387.113 425.072 386.636 426.979C384.728 436.04 382.344 444.624 379.959 453.208L379.482 455.593C379.006 457.977 378.052 459.884 376.621 462.269C378.529 461.792 379.959 461.792 381.39 461.315C395.22 456.069 403.804 447.485 407.619 435.086C412.864 417.442 412.388 399.32 410.48 382.629C402.85 386.444 398.081 393.12 394.743 398.366Z" fill="white" fill-opacity="0.05"/>
<path d="M403.328 87.9141C395.698 87.9141 388.067 88.391 380.914 88.8678C384.252 94.5905 389.021 99.3594 396.174 103.651C404.758 109.374 414.773 110.805 425.265 112.235L427.649 112.712C432.418 113.189 437.187 114.143 441.956 115.573C445.771 116.527 449.586 118.435 453.401 119.865C454.831 120.342 456.739 121.296 458.17 121.773C459.123 122.25 460.077 122.727 461.508 123.204C459.6 116.05 457.693 110.805 454.355 106.036C446.724 95.0674 435.279 91.7292 425.265 89.8216C418.111 88.391 411.435 87.9141 403.328 87.9141Z" fill="white" fill-opacity="0.05"/>
<path d="M448.631 310.621C444.816 315.867 442.432 321.113 441.478 326.358C439.57 336.85 439.57 345.911 442.432 354.495C443.385 357.833 443.862 361.648 444.816 364.986C445.293 367.847 445.77 370.232 446.247 373.093C448.154 381.2 448.631 389.784 448.154 397.414C453.4 393.599 457.692 389.784 460.553 384.538C465.799 375.955 467.707 366.894 465.799 355.448C463.415 344.003 455.308 321.589 448.631 310.621Z" fill="white" fill-opacity="0.05"/>
<path d="M321.301 37.3632C326.07 34.9788 331.316 33.0712 336.561 31.1637C340.853 29.733 345.145 28.7792 348.96 27.8255C350.868 27.3486 352.299 27.3486 354.206 26.8717H354.683C346.576 19.2415 337.515 14.9495 326.547 14.4727C323.208 14.4727 319.393 15.4264 316.055 16.3802H315.578C301.272 20.1953 288.873 28.7792 278.858 35.9325C275.997 37.8401 273.612 40.2245 270.751 42.1321L269.32 43.0858H269.797C272.182 44.0396 273.612 44.5165 275.52 44.9934C282.673 46.9009 290.303 47.3778 298.41 45.4703C302.226 44.5165 306.041 43.5627 310.333 41.6552C313.671 40.2245 317.486 38.7939 320.824 37.3632H321.301Z" fill="white" fill-opacity="0.05"/>
<path d="M473.43 294.407C469.615 288.684 465.323 282.962 461.508 277.716C460.077 275.808 458.647 273.901 457.216 271.993C456.739 271.516 456.739 271.039 456.262 270.562C452.924 277.716 451.97 284.869 452.447 294.407C452.924 302.514 456.262 310.144 459.6 317.297L460.077 318.251C462.939 324.928 466.277 331.604 468.661 338.28C470.092 343.049 471.046 347.818 472 352.587C472 353.541 472.476 354.971 472.476 355.925C481.06 348.295 486.783 332.081 484.399 322.066C482.014 310.621 478.676 301.56 473.43 294.407Z" fill="white" fill-opacity="0.05"/>
<path d="M142.47 67.409C144.378 65.0246 145.331 61.6864 146.285 58.3482C146.762 56.9175 147.239 55.9637 147.239 54.5331C151.531 41.6572 156.777 28.3043 165.837 17.3359C163.93 17.3359 162.022 17.8128 160.592 17.8128C145.331 19.7204 134.363 27.8274 127.686 43.0878C122.918 53.1024 120.056 65.0246 118.626 77.9005C118.149 80.7618 117.672 84.1001 117.672 86.9614V88.392C120.533 87.4383 124.825 85.5307 126.733 84.1C132.932 78.3774 138.178 73.1317 142.47 67.409Z" fill="white" fill-opacity="0.05"/>
<path d="M101.459 105.557C106.705 97.45 110.043 88.3892 111.474 78.3745C111.95 75.0363 112.427 71.6981 113.381 68.3599C113.858 65.4986 114.812 62.1604 115.289 59.2991C116.242 53.0996 118.627 47.8538 120.534 42.6081C121.011 41.1774 121.488 39.7467 122.442 38.793C115.289 40.7005 110.043 42.6081 105.274 45.9463C94.3056 53.5764 90.9674 65.0217 89.0599 75.5132C86.1986 89.8198 87.1523 104.603 88.583 118.433C93.3518 114.618 97.6438 110.803 101.459 105.557Z" fill="white" fill-opacity="0.05"/>
<path d="M52.3371 375.478C61.8748 378.816 72.3663 380.247 82.381 381.2H83.3347C84.7654 381.2 86.6729 381.677 88.1036 381.677C87.6267 379.77 86.6729 378.339 85.7192 376.908C79.5196 365.94 70.4588 358.31 59.0135 354.018C57.106 353.064 55.1984 352.587 53.2909 351.633C49.4758 350.203 44.7069 348.295 40.415 346.865C32.3079 344.003 24.6777 339.711 16.0938 333.512C16.5706 347.818 21.3395 358.31 31.3541 365.94C37.0767 370.232 43.7532 372.616 49.9527 375.001L52.3371 375.478Z" fill="white" fill-opacity="0.05"/>
<path d="M324.162 43.5621C318.917 45.9466 314.148 48.331 309.379 50.7154C314.625 54.5305 319.87 56.915 326.07 58.3456C329.885 58.8225 333.223 59.2994 337.038 59.2994C344.192 59.2994 351.822 57.8687 360.406 55.4843C372.805 51.6692 383.773 50.7154 393.788 51.1923C394.265 51.1923 394.742 51.1923 395.218 51.1923C390.926 45.4697 386.158 40.7008 380.435 37.3626C375.189 34.0244 368.99 32.5938 362.313 32.5938C358.975 32.5938 355.637 33.0706 351.822 33.5475C342.761 35.932 333.223 39.2702 324.162 43.5621Z" fill="white" fill-opacity="0.05"/>
<path d="M42.3237 306.328C44.7081 307.758 46.6157 308.712 49.0001 310.143L49.9539 310.62C50.4307 307.758 50.4307 303.466 49.9539 300.605C48.0463 292.021 44.2312 284.391 38.5086 277.714C34.2166 272.946 29.9246 269.13 25.1558 264.838C24.202 263.885 23.2482 262.931 22.2944 261.977C14.1874 254.347 7.98785 246.717 3.21898 238.133C-2.50365 251.486 -0.596105 268.177 8.94162 279.145C17.0487 289.637 28.0171 298.221 42.3237 306.328Z" fill="white" fill-opacity="0.05"/>
<path d="M425.741 119.865C421.926 119.388 417.634 118.911 413.342 118.434L410.004 117.957C410.004 118.434 410.004 118.434 410.481 118.911C413.819 127.495 420.019 133.694 426.218 138.94C431.941 143.709 439.094 146.093 445.77 148.478C447.201 148.955 448.155 149.432 449.585 149.908C459.123 153.247 471.045 158.015 482.014 166.599C481.06 149.908 474.86 138.94 462.461 131.787C451.97 125.587 440.525 122.249 425.741 119.865Z" fill="white" fill-opacity="0.05"/>
<path d="M49.955 189.492C53.7701 184.723 56.1545 179.477 57.1083 174.232C59.0158 164.694 59.0158 156.587 57.5852 149.433C57.1083 147.049 56.6314 145.141 55.6776 143.234C54.7238 140.373 54.247 137.511 53.2932 134.173C51.3856 124.635 49.4781 114.144 50.4319 103.652C45.1861 106.991 41.371 111.283 38.0328 116.051C31.8333 125.112 30.4026 135.604 33.7408 149.91C37.079 164.694 43.7555 178.047 49.955 189.492Z" fill="white" fill-opacity="0.05"/>
<path d="M353.252 439.855C351.821 442.717 350.867 446.055 349.914 448.916C348.483 453.685 346.575 457.977 344.668 462.746C342.284 467.515 339.422 472.284 336.561 476.576C335.607 478.483 334.176 480.391 333.223 482.298C335.607 482.298 339.422 482.298 341.807 481.821C354.683 478.96 363.743 472.284 369.466 460.838C376.619 446.532 379.004 430.795 380.911 417.442C381.388 415.534 381.388 413.627 381.388 411.719V411.242C368.035 416.011 358.975 426.026 353.252 439.855Z" fill="white" fill-opacity="0.05"/>
<path d="M173.467 442.239C169.175 441.285 164.883 440.809 160.591 440.809C154.391 440.809 147.715 441.762 140.562 443.67C128.64 447.008 117.671 448.439 107.18 448.439C105.749 448.439 103.841 448.439 102.411 448.439C101.934 448.439 101.934 448.439 101.457 448.439C103.841 452.254 106.703 455.115 110.041 457.976C119.579 465.607 130.07 467.991 142.946 466.084C159.637 463.222 174.898 456.069 187.773 449.393C183.958 445.577 179.189 443.67 173.467 442.239Z" fill="white" fill-opacity="0.05"/>
<path d="M308.427 449.395C305.089 449.395 302.228 449.872 299.366 450.349C292.213 451.779 285.537 454.641 279.337 459.409C276.476 461.794 273.614 464.655 271.23 467.04C270.276 468.47 268.846 469.424 267.892 470.855C266.461 472.285 265.031 473.716 263.6 475.147C260.262 478.485 257.4 481.823 253.585 485.161C250.247 488.023 246.432 490.884 242.617 493.268C241.186 494.222 239.279 495.653 237.848 496.607C237.848 496.607 237.848 496.607 237.371 496.607C244.524 498.991 250.247 500.422 255.97 499.945C268.846 499.468 277.906 492.315 287.921 481.823C296.982 471.808 303.658 460.363 309.858 448.918C309.381 448.918 308.904 448.918 308.427 449.395Z" fill="white" fill-opacity="0.05"/>
<path d="M196.356 50.7169C202.079 50.24 207.325 48.3324 214.001 44.0405C217.816 41.656 221.155 39.2716 223.539 36.8872C226.877 33.549 230.692 29.7339 234.03 26.3957C238.322 22.1037 242.614 17.3348 247.383 13.0428C250.245 10.1815 253.583 8.27398 256.444 6.36643C257.875 5.41266 259.305 4.45889 260.736 3.50511C260.736 3.50511 260.736 3.50511 261.213 3.50511C253.106 0.166908 245.476 -0.786862 237.369 0.643797C228.308 2.07446 221.155 7.79709 215.909 12.566C203.987 23.5343 196.356 36.8872 189.203 49.7631C191.111 50.24 194.449 50.7169 196.356 50.7169Z" fill="white" fill-opacity="0.05"/>
<path d="M459.601 232.412C458.647 231.458 457.217 230.505 456.263 229.551V230.028C455.786 232.412 455.309 234.797 455.309 237.181C454.832 250.057 458.647 261.979 466.755 271.994C472.477 279.147 477.246 286.777 482.015 293.93C483.922 297.269 485.353 300.607 486.784 304.422C487.261 305.853 487.738 307.283 488.691 308.714C488.691 309.191 489.168 309.668 489.168 310.145C492.506 304.899 494.891 299.653 495.845 293.93C497.752 283.916 495.368 274.378 488.214 262.933C480.584 251.488 471.047 242.427 459.601 232.412Z" fill="white" fill-opacity="0.05"/>
<path d="M269.796 457.501C266.935 457.024 261.689 456.07 257.874 456.07C257.397 456.07 256.443 456.07 255.967 456.07C244.998 457.501 235.937 460.839 228.784 466.562C223.061 471.331 218.293 474.669 213.047 477.53C206.847 480.868 200.648 484.207 194.925 487.545C193.018 488.499 191.587 489.452 190.156 490.406C194.925 493.267 200.171 495.652 205.894 496.606C215.908 498.513 225.446 496.129 236.891 488.975C249.29 480.868 258.828 469.9 267.412 460.362L269.796 457.501Z" fill="white" fill-opacity="0.05"/>
<path d="M36.1229 265.793C38.0304 267.224 39.4611 268.655 41.3686 270.085L41.8455 270.562C43.2762 264.363 43.7531 258.64 42.3224 252.441C40.4149 242.903 36.5998 234.796 30.8771 227.642C26.1083 221.443 21.3394 214.29 16.5706 207.136C14.663 203.798 12.7555 199.506 11.3248 196.168C10.8479 194.737 9.89414 193.307 9.41726 191.399C9.41726 190.922 8.94037 190.922 8.94037 190.445C0.8333 202.367 -0.597363 219.059 5.60216 230.504C12.7555 242.426 22.2932 253.394 36.1229 265.793Z" fill="white" fill-opacity="0.05"/>
<path d="M228.785 42.6089C234.985 44.0396 240.707 44.5165 246.907 43.0858C256.921 41.1783 264.552 37.3632 271.705 32.1174C277.904 27.3485 284.581 22.5797 292.688 17.8108C296.026 15.9033 299.841 14.4726 303.179 13.042C304.61 12.5651 306.041 12.0882 307.471 11.1344C307.948 10.6575 308.902 10.6575 309.379 10.1806C303.179 5.88866 294.595 3.02734 286.012 3.02734C280.289 3.02734 275.043 3.98112 271.228 6.36555C259.306 12.5651 248.338 21.149 236.415 34.5018C234.508 36.8863 232.6 39.2707 230.216 41.6551L228.785 42.6089Z" fill="white" fill-opacity="0.05"/>
<path d="M438.613 153.724L432.891 151.816C432.891 152.293 432.891 152.293 432.891 152.77C435.275 165.169 442.428 175.661 453.874 183.768C457.689 186.629 461.981 189.014 466.273 191.875C467.703 192.829 468.657 193.306 470.088 194.259C479.626 199.982 486.779 206.181 492.978 213.335L493.455 213.812C493.932 212.858 493.932 211.904 493.932 211.427C495.84 195.213 491.071 182.337 478.672 173.276C468.18 165.169 455.781 159.447 438.613 153.724Z" fill="white" fill-opacity="0.05"/>
<path d="M60.444 346.385C61.8747 346.862 63.7822 347.339 65.6898 347.816H66.1666C65.6898 344 64.736 340.185 62.8285 336.37C57.5827 326.356 50.9063 318.725 42.3223 313.957C34.6922 309.665 27.5389 305.373 20.8624 300.127C17.0474 297.266 13.7091 293.927 10.3709 290.589C8.94028 289.159 7.50962 287.728 6.07897 286.774C5.60208 286.297 5.60208 286.297 5.12519 285.82C4.17142 291.543 3.69453 298.696 6.07897 306.326C8.4634 314.434 13.2323 321.11 19.9087 325.879C29.9233 334.463 42.7992 340.662 60.444 346.385Z" fill="white" fill-opacity="0.05"/>
<path d="M213.05 5.88736C209.711 5.41047 206.85 4.93359 203.989 4.93359C201.604 4.93359 199.22 4.93359 197.312 5.41047C186.821 7.31802 179.191 12.0869 172.514 20.6708C162.023 34.9774 156.3 50.7147 151.531 65.0213C154.869 65.0213 160.115 64.5444 162.5 63.1137C172.514 57.868 180.144 51.1916 184.913 43.0845C186.344 40.2232 188.252 37.8387 189.682 34.9774C191.113 32.593 192.543 30.2086 193.974 28.301C198.743 19.7171 204.943 12.5638 213.05 5.88736Z" fill="white" fill-opacity="0.05"/>
<path d="M310.81 461.793C304.133 473.238 296.98 484.683 286.012 494.221C289.35 494.698 292.211 495.175 295.073 495.175C299.365 495.175 303.657 494.698 307.472 493.267C315.579 490.406 322.255 485.16 328.455 476.576C337.039 464.177 342.284 450.347 346.099 438.902C346.576 437.471 347.053 435.564 347.53 433.656C341.807 434.61 336.562 436.518 331.316 439.379C323.209 444.625 316.532 451.778 310.81 461.793Z" fill="white" fill-opacity="0.05"/>
<path d="M248.339 417.443L249.293 416.966L250.247 417.443C250.247 417.443 250.247 416.966 250.247 416.012C261.215 405.997 274.091 399.798 287.921 393.121C290.305 392.168 293.166 390.737 295.551 389.306C319.395 377.384 337.04 363.078 350.393 344.479L359.454 351.155L363.746 314.435L329.41 328.742L338.471 335.895C325.595 351.632 311.765 365.939 291.736 370.708C289.351 371.185 286.967 371.662 284.106 371.662C267.891 371.662 255.969 358.786 255.969 342.095C255.969 331.603 255.969 318.25 255.969 307.759C274.091 307.759 290.782 307.759 293.166 307.759C295.074 307.759 297.458 306.805 298.889 305.374C299.843 303.944 303.658 294.883 303.658 294.883H194.451C194.451 294.883 198.266 303.944 199.22 305.374C200.174 306.805 203.035 307.759 204.942 307.759C207.327 307.759 224.018 307.759 242.14 307.759C242.14 318.25 242.14 331.603 242.14 342.095C242.14 358.786 229.741 371.662 214.003 371.662C211.619 371.662 209.234 371.185 206.373 370.708C186.344 365.939 172.514 351.632 159.638 335.895L168.699 328.742L134.363 314.435L138.655 351.155L147.716 344.479C161.069 363.078 179.191 377.861 202.558 389.306C204.942 390.737 207.804 391.691 210.188 393.121C224.018 399.798 237.371 405.997 247.862 416.012C248.339 416.966 248.339 417.443 248.339 417.443Z" fill="white" fill-opacity="0.05"/>
<path d="M204.941 148.955C203.033 148.955 200.649 149.909 199.218 151.339C198.264 152.77 194.449 161.831 194.449 161.831H304.61C304.61 161.831 300.795 152.77 299.841 151.339C298.887 149.909 296.026 148.955 294.118 148.955C289.35 148.955 270.751 148.955 257.875 148.955V133.218C267.89 129.879 275.52 119.865 275.52 108.896C275.52 94.5898 264.075 83.1445 249.768 83.1445C235.461 83.1445 224.016 94.5898 224.016 108.896C224.016 120.342 231.169 129.879 241.661 133.218V148.955C228.308 148.955 209.233 148.955 204.941 148.955ZM239.277 108.42C239.277 102.697 243.569 98.4049 249.291 98.4049C255.014 98.4049 259.306 102.697 259.306 108.42C259.306 114.142 255.014 118.434 249.291 118.434C243.569 118.434 239.277 114.142 239.277 108.42Z" fill="white" fill-opacity="0.05"/>
<path d="M131.027 181.383V275.806H184.439V260.069H147.241V181.383H131.027Z" fill="white" fill-opacity="0.05"/>
<path d="M263.6 258.64C260.739 260.548 256.447 261.502 251.201 261.502C240.233 261.502 232.126 256.733 228.311 247.195L214.004 255.302C216.865 261.979 221.157 267.224 227.357 271.039C233.556 275.331 241.663 277.239 250.724 277.239C260.739 277.239 268.846 274.854 275.522 269.609C281.722 264.363 285.06 257.687 285.06 249.103C285.06 243.857 284.106 239.565 281.722 236.227C280.291 233.365 277.43 230.504 273.138 228.12C271.707 227.166 269.8 226.212 267.415 225.258C264.554 223.828 262.169 223.351 261.216 222.874L254.539 220.489C247.386 218.105 242.14 216.197 239.279 214.29C236.418 211.905 234.987 209.044 234.987 205.706C234.987 202.368 236.418 199.506 238.802 197.599C241.186 195.691 244.525 194.738 248.817 194.738C257.401 194.738 264.077 198.553 267.892 206.66L281.722 198.553C278.384 192.353 274.092 187.584 268.846 184.246C263.123 180.431 256.447 178.523 248.817 178.523C240.233 178.523 233.079 180.908 226.88 186.154C220.68 190.922 217.819 197.599 217.819 206.183C217.819 214.767 220.68 220.966 226.403 225.258C231.172 228.597 237.848 231.458 245.955 234.319C254.062 236.704 259.308 238.611 262.646 240.519C265.985 242.426 267.892 245.764 267.892 249.58C268.369 253.872 266.461 256.733 263.6 258.64Z" fill="white" fill-opacity="0.05"/>
<path d="M383.297 249.101C383.297 239.563 379.482 232.887 371.375 228.118L369.467 227.164L370.898 225.734C376.621 220.965 379.482 215.242 379.482 207.135C379.482 199.505 376.621 193.305 371.375 188.536C366.129 183.768 358.976 180.906 351.346 180.906H314.148V275.807H354.207C362.314 275.807 369.467 273.422 374.713 268.176C380.913 263.408 383.297 256.731 383.297 249.101ZM330.839 196.644H351.346C354.684 196.644 357.545 197.597 359.93 199.982C362.314 202.366 363.268 205.227 363.268 208.566C363.268 211.904 362.314 214.765 359.93 217.15C357.545 219.534 354.684 220.488 351.346 220.488H330.839V196.644ZM363.745 256.731C361.36 259.116 358.499 260.546 354.684 260.546H331.316V234.794H354.684C358.499 234.794 361.36 236.225 363.745 238.609C366.129 240.994 367.56 243.855 367.56 247.67C367.083 251.485 365.652 254.347 363.745 256.731Z" fill="white" fill-opacity="0.05"/>
</svg>
