<svg width="89" height="88" viewBox="0 0 89 88" fill="none" xmlns="http://www.w3.org/2000/svg">
<g clip-path="url(#clip0_906_54511)">
<path d="M73.6052 37.5627L69.7003 37.4924C69.6913 37.4924 69.6824 37.4922 69.6735 37.4922C68.8809 37.4922 68.2314 38.1293 68.217 38.9272C68.2026 39.7341 68.8432 40.3998 69.6478 40.4144L73.5527 40.4847C73.5617 40.4847 73.5706 40.4849 73.5795 40.4849C74.3721 40.4849 75.0216 39.8477 75.036 39.0499C75.0504 38.2429 74.4098 37.5773 73.6052 37.5627Z" fill="#C19F56"/>
<path d="M85.7475 37.488C85.7573 37.4706 85.7664 37.4533 85.7751 37.4356L85.778 37.4297C86.0166 37.4973 86.2515 37.5665 86.4793 37.638C86.6243 37.6836 86.7708 37.7052 86.9152 37.7052C87.5352 37.7052 88.1103 37.3051 88.3053 36.6805C88.5458 35.9103 88.1181 35.0905 87.3502 34.8493C86.7168 34.6505 86.0441 34.4643 85.351 34.2963C85.3505 34.2961 85.3498 34.2959 85.3493 34.2957C79.4459 32.8556 71.573 32.5134 62.9102 32.8484L52.1419 24.0522C51.9256 23.8755 51.6632 23.7648 51.3858 23.7332C35.3307 21.9035 11.6121 30.3349 10.6106 30.6948C10.6068 30.6962 10.6035 30.6979 10.5999 30.6991C10.5965 30.7005 10.5929 30.701 10.5896 30.7023L7.48075 31.8733C6.72739 32.1573 6.346 32.9996 6.629 33.755C6.84858 34.3413 7.40361 34.7029 7.99344 34.7029C8.16365 34.7029 8.33695 34.6727 8.50562 34.6092L9.95593 34.063L10.884 39.6431C5.30999 40.7247 1.79416 41.5059 1.75097 41.5153C1.35501 41.6035 1.01373 41.8533 0.809061 42.2044C0.604396 42.5555 0.554858 42.9763 0.672446 43.3654L3.43835 52.5178C3.20831 52.57 2.95548 52.5992 2.66614 52.5992C1.86136 52.5992 1.20879 53.2534 1.20879 54.0605C1.20879 54.8676 1.86119 55.5218 2.66614 55.5218C5.16326 55.5218 6.45588 54.2669 7.49429 53.2585C8.38752 52.3911 8.97752 51.8182 10.295 51.8182C11.6123 51.8182 12.2025 52.3913 13.0957 53.2585C14.1343 54.2669 15.4267 55.5218 17.9238 55.5218C20.4208 55.5218 21.7131 54.2669 22.7515 53.2585C23.6445 52.3911 24.2345 51.8182 25.5515 51.8182C26.3563 51.8182 27.0088 51.1641 27.0088 50.3569C27.0088 49.5498 26.3564 48.8957 25.5515 48.8957C23.0545 48.8957 21.7623 50.1505 20.7237 51.1589C19.8306 52.0264 19.2406 52.5992 17.9237 52.5992C16.6065 52.5992 16.0162 52.0262 15.123 51.1589C14.0844 50.1505 12.7919 48.8957 10.2948 48.8957C8.15902 48.8957 6.90549 49.8136 5.93736 50.7103L3.92036 44.0359C6.05889 43.5809 10.2936 42.7042 15.7731 41.6907C16.5645 41.5444 17.0877 40.7821 16.9418 39.9886C16.7959 39.1949 16.0352 38.6701 15.2443 38.8167C14.7345 38.9111 14.2356 39.0041 13.7476 39.0959L12.7422 33.0507C14.8609 32.3379 19.7057 30.7804 25.571 29.361C27.7552 28.8325 29.8707 28.3741 31.9093 27.9855C32.5351 29.356 33.6718 32.1158 34.4903 35.6434C29.5577 36.3507 24.7563 37.1291 20.2794 37.9111C19.4864 38.0497 18.9556 38.8064 19.0937 39.6015C19.2317 40.3966 19.9857 40.9279 20.7796 40.7904C57.5131 34.3741 75.0173 35.2842 82.8112 36.7405C81.6148 38.7578 77.7496 44.9128 72.8359 49.0741C72.3829 48.9627 71.8817 48.8958 71.3158 48.8958C68.8189 48.8958 67.5266 50.1507 66.4882 51.1593C65.595 52.0264 65.0051 52.5994 63.6884 52.5994C62.3716 52.5994 61.7818 52.0264 60.8885 51.1593C59.8501 50.1509 58.5578 48.8958 56.0609 48.8958C53.5641 48.8958 52.272 50.1509 51.2336 51.1593C50.3405 52.0264 49.7507 52.5994 48.4343 52.5994C47.1175 52.5994 46.5277 52.0264 45.6344 51.1593C44.5958 50.1509 43.3036 48.8958 40.8068 48.8958C38.31 48.8958 37.0176 50.1507 35.9791 51.1593C35.0861 52.0264 34.4961 52.5994 33.1793 52.5994C31.9784 52.5994 31.3689 52.1063 30.6388 51.41C30.0558 50.8538 29.1335 50.8765 28.5786 51.4612C28.0239 52.0458 28.0466 52.9708 28.6297 53.527C29.6412 54.4923 30.9105 55.5218 33.1793 55.5218C35.6763 55.5218 36.9684 54.2669 38.007 53.2585C38.9 52.3911 39.49 51.8182 40.807 51.8182C42.1239 51.8182 42.7139 52.3913 43.607 53.2585C44.6454 54.2669 45.9377 55.5218 48.4346 55.5218C50.9314 55.5218 52.2233 54.2669 53.2617 53.2584C54.1548 52.3913 54.7446 51.8182 56.0612 51.8182C57.378 51.8182 57.9678 52.3913 58.8611 53.2584C59.8995 54.2668 61.1918 55.5218 63.6887 55.5218C66.1857 55.5218 67.4779 54.2669 68.5163 53.2584C69.4096 52.3913 69.9994 51.8182 71.3162 51.8182C72.6331 51.8182 73.2231 52.3913 74.1164 53.2585C75.155 54.2669 76.4471 55.5218 78.944 55.5218C81.441 55.5218 82.7331 54.2669 83.7715 53.2584C84.6645 52.3913 85.2545 51.8182 86.5711 51.8182C87.3761 51.8182 88.0285 51.1641 88.0285 50.3569C88.0285 49.5498 87.3763 48.8957 86.5711 48.8957C84.0742 48.8957 82.7821 50.1505 81.7437 51.1591C80.8506 52.0262 80.2606 52.5992 78.944 52.5992C77.6272 52.5992 77.0374 52.0262 76.1442 51.1591C75.9534 50.9738 75.7537 50.7801 75.5399 50.5874C81.4271 45.2579 85.5608 37.8269 85.7475 37.488ZM37.3878 35.2381C36.6264 31.8558 35.5926 29.1309 34.871 27.4623C41.0226 26.4629 46.3708 26.1621 50.6361 26.5916L58.5635 33.0673C51.6799 33.4912 44.4395 34.2792 37.3878 35.2381Z" fill="#fff"/>
</g>
<defs>
<clipPath id="clip0_906_54511">
<rect width="87.7628" height="88" fill="white" transform="translate(0.609375)"/>
</clipPath>
</defs>
</svg>
