<svg width="69" height="70" viewBox="0 0 69 70" fill="none" xmlns="http://www.w3.org/2000/svg">
<path d="M1 44.3365L1.7306 44.565C1.82304 44.5938 3.15156 45.0047 5.32238 45.4601V52.2269H1V58.6138H5.32225V64.575C5.32225 67.2268 7.48656 69.384 10.1471 69.384C12.8076 69.384 14.9719 67.2268 14.9719 64.575C14.9719 61.9234 12.8076 59.766 10.1471 59.766C9.13025 59.766 8.18675 60.0819 7.40807 60.6192V58.6139H47.4641V64.5752C47.4641 67.227 49.6284 69.3842 52.2889 69.3842C54.9494 69.3842 57.1137 67.227 57.1137 64.5752C57.1137 61.9235 54.9494 59.7662 52.2889 59.7662C51.2721 59.7662 50.3284 60.082 49.5499 60.6193V58.6139H53.8721V52.227H49.5499V43.085C53.2599 43.6782 55.6583 44.5298 55.7129 44.5495L57.1137 45.0607V22.0703H1V44.3365ZM10.1472 61.8451C11.6574 61.8451 12.8862 63.0698 12.8862 64.5752C12.8862 66.0806 11.6574 67.3052 10.1472 67.3052C8.63698 67.3052 7.4082 66.0806 7.4082 64.5752C7.4082 63.0698 8.63685 61.8451 10.1472 61.8451ZM52.289 61.8451C53.7992 61.8451 55.028 63.0698 55.028 64.5752C55.028 66.0806 53.7992 67.3052 52.289 67.3052C50.7788 67.3052 49.55 66.0806 49.55 64.5752C49.5497 63.0698 50.7787 61.8451 52.289 61.8451ZM51.7863 54.3058V56.535H3.08582V54.3058H51.7863ZM7.40807 52.227V45.8586C8.5217 46.0508 9.76629 46.2335 11.1129 46.3808C13.2323 46.6129 15.2074 46.7133 17.0383 46.7133C23.0956 46.7133 27.576 45.6147 30.4961 44.5494C36.6046 42.3208 42.7621 42.2699 47.4641 42.8008V52.2269H7.40807V52.227ZM3.08582 24.1493H55.0281V42.1535C53.6024 41.7427 51.1706 41.1413 48.0942 40.7672C39.8507 39.7643 33.5846 41.2091 29.7791 42.5972C29.5269 42.6892 29.2734 42.7763 29.0193 42.861V41.4192H26.9335V43.4743C26.1904 43.6649 25.4439 43.8284 24.6969 43.9668V40.3423H22.6112V44.2912C21.8617 44.3864 21.115 44.4595 20.3748 44.5123V37.1112H18.289V44.6114C11.2562 44.7834 5.13724 43.3376 3.08569 42.7877V24.1493H3.08582Z" fill="#C19F56" stroke="#C19F56"/>
<path d="M38.7816 17.8418H10.6875V19.9208H38.7816V17.8418Z" fill="#C19F56" stroke="#C19F56"/>
<path d="M65.7957 22.0703C64.394 22.0703 63.2006 22.9725 62.7669 24.2244H58.2319V26.3034H62.7669C63.2008 27.5552 64.3942 28.4574 65.7957 28.4574C67.5624 28.4574 68.9998 27.0248 68.9998 25.2638C68.9998 23.503 67.5624 22.0703 65.7957 22.0703ZM65.7957 26.3785C65.277 26.3785 64.8408 26.0242 64.7152 25.5458V24.9822C64.8408 24.5039 65.277 24.1496 65.7957 24.1496C66.4124 24.1496 66.914 24.6494 66.914 25.2642C66.914 25.8786 66.4125 26.3785 65.7957 26.3785Z" fill="#C19F56"/>
<path d="M24.7346 6.99744C30.1177 6.99744 34.4973 11.3627 34.4973 16.7281H36.5832C36.5832 10.5666 31.8238 5.49522 25.7775 4.96677V2.68921H26.8958V0.610352H22.5736V2.68934H23.6919V4.96677C17.6456 5.49522 12.8862 10.5666 12.8862 16.7281H14.9721C14.9719 11.3626 19.3515 6.99744 24.7346 6.99744Z" fill="#C19F56" stroke="#C19F56"/>
</svg>
