<svg width="81" height="80" viewBox="0 0 81 80" fill="none" xmlns="http://www.w3.org/2000/svg">
<g clip-path="url(#clip0_906_54491)">
<path d="M17.1137 49.1953C14.7209 49.1953 12.7744 51.1471 12.7744 53.5463C12.7744 55.9455 14.7209 57.8972 17.1137 57.8972C19.5064 57.8972 21.4529 55.9453 21.4529 53.5463C21.4529 51.1472 19.5064 49.1953 17.1137 49.1953ZM17.1137 55.2907C16.1543 55.2907 15.3739 54.5081 15.3739 53.5463C15.3739 52.5845 16.1543 51.8018 17.1137 51.8018C18.073 51.8018 18.8534 52.5843 18.8534 53.5463C18.8534 54.5083 18.073 55.2907 17.1137 55.2907Z" fill="#C19F56"/>
<path d="M62.4761 49.1953C60.0834 49.1953 58.1367 51.1471 58.1367 53.5463C58.1367 55.9455 60.0834 57.8972 62.4761 57.8972C64.8687 57.8972 66.8152 55.9453 66.8152 53.5463C66.8152 51.1472 64.8687 49.1953 62.4761 49.1953ZM62.4761 55.2907C61.5167 55.2907 60.7362 54.5081 60.7362 53.5463C60.7362 52.5845 61.5167 51.8018 62.4761 51.8018C63.4353 51.8018 64.2157 52.5843 64.2157 53.5463C64.2157 54.5083 63.4353 55.2907 62.4761 55.2907Z" fill="#C19F56"/>
<path d="M71.5252 34.1317L59.9285 32.8032L53.7393 22.715C51.8495 19.6344 48.4346 17.7207 44.8276 17.7207H23.7724C17.7199 17.7207 12.3707 21.8074 10.764 27.659L10.5997 28.2576C9.80136 31.1653 7.50722 33.4797 4.61243 34.2981C2.25383 34.9651 0.606445 37.1469 0.606445 39.6041V54.0289C0.606445 54.7487 1.18838 55.3322 1.90619 55.3322H8.58809C9.41247 59.2937 12.9216 62.2791 17.1135 62.2791C21.3055 62.2791 24.8146 59.2937 25.639 55.3322H53.9509C54.7753 59.2937 58.2844 62.2791 62.4763 62.2791C66.6683 62.2791 70.1774 59.2937 71.0018 55.3322H78.0164C78.6772 55.3322 79.233 54.835 79.3079 54.1766L80.3258 45.2305C80.9504 39.739 77.0026 34.76 71.5252 34.1317ZM8.4439 52.7257H3.20593V51.1421H8.74267C8.59658 51.6526 8.49485 52.1818 8.4439 52.7257ZM17.1135 59.6725C13.7446 59.6725 11.0039 56.9244 11.0039 53.5464C11.0039 50.1683 13.7446 47.42 17.1135 47.42C20.4825 47.42 23.2232 50.1683 23.2232 53.5464C23.2232 56.9244 20.4825 59.6725 17.1135 59.6725ZM62.4763 59.6725C59.1074 59.6725 56.3667 56.9244 56.3667 53.5464C56.3667 50.1683 59.1074 47.42 62.4763 47.42C65.8453 47.42 68.586 50.1683 68.586 53.5464C68.586 56.9244 65.8453 59.6725 62.4763 59.6725ZM76.8564 52.7257H71.1458C71.095 52.1818 70.9931 51.6526 70.847 51.1421H77.0366L76.8564 52.7257ZM77.7428 44.9351L77.3331 48.5356H69.6026C68.0256 46.2871 65.42 44.8135 62.4763 44.8135C59.5325 44.8135 56.9271 46.2871 55.3499 48.5356H32.2206C31.5028 48.5356 30.9208 49.1191 30.9208 49.8389C30.9208 50.5586 31.5028 51.1421 32.2206 51.1421H54.1055C53.9594 51.6526 53.8577 52.1818 53.8067 52.7257H25.7832C25.3692 48.2939 21.6398 44.8135 17.1135 44.8135C14.1697 44.8135 11.5643 46.2871 9.98713 48.5356H3.20593V39.6041C3.20593 38.3087 4.07451 37.1583 5.31793 36.8068C9.08338 35.7423 12.0674 32.7316 13.106 28.9494L13.2703 28.3508C14.5673 23.6267 18.886 20.3272 23.7724 20.3272H44.8276C47.5385 20.3272 50.1049 21.7655 51.5251 24.0806L58.0456 34.7089C58.2548 35.0499 58.6087 35.2754 59.0052 35.3209L71.2299 36.7213C74.003 37.0395 76.2457 38.8647 77.2381 41.2872H73.1807C72.4629 41.2872 71.881 41.8708 71.881 42.5905C71.881 43.3102 72.4629 43.8938 73.1807 43.8938H77.7866C77.7957 44.2369 77.7827 44.5845 77.7428 44.9351Z" fill="#C19F56"/>
<path d="M44.8957 37.3984H42.1645C41.4467 37.3984 40.8647 37.9819 40.8647 38.7017C40.8647 39.4214 41.4467 40.005 42.1645 40.005H44.8957C45.6135 40.005 46.1954 39.4214 46.1954 38.7017C46.1954 37.9819 45.6137 37.3984 44.8957 37.3984Z" fill="#C19F56"/>
<path d="M27.441 38.7017C27.441 37.9819 26.8591 37.3984 26.1413 37.3984H23.4101C22.6923 37.3984 22.1104 37.9819 22.1104 38.7017C22.1104 39.4214 22.6923 40.005 23.4101 40.005H26.1413C26.8591 40.005 27.441 39.4214 27.441 38.7017Z" fill="#C19F56"/>
<path d="M29.0511 49.3397C29.0362 49.3045 29.0415 49.3177 29.0488 49.3351C28.8197 48.7969 28.2421 48.4593 27.6603 48.5498C27.132 48.6322 26.7034 49.0308 26.5836 49.5535C26.3244 50.6847 27.6323 51.5629 28.5835 50.9139C29.0856 50.5716 29.2819 49.9074 29.0528 49.3446C29.0603 49.3625 29.0663 49.3768 29.0511 49.3397Z" fill="#C19F56"/>
<path d="M50.1725 24.9165C49.0407 23.0682 46.9928 21.9199 44.8278 21.9199H23.772C19.5977 21.9199 15.9092 24.7379 14.8018 28.7738L14.6384 29.3713C14.2107 30.9275 13.5522 33.6008 13.5243 33.7139C13.4284 34.1028 13.5165 34.5142 13.7627 34.8298C14.0091 35.1452 14.3864 35.3296 14.786 35.3296H54.2359C54.7067 35.3296 55.1409 35.0743 55.3705 34.6621C55.6003 34.2499 55.5897 33.7455 55.3429 33.3434L50.1725 24.9165ZM20.5876 32.7225H16.4516C16.6709 31.8551 16.9386 30.8128 17.1448 30.062L17.3084 29.464C17.8041 27.6577 19.018 26.1904 20.5876 25.3376V32.7225ZM35.1541 24.5263V32.7227H23.1871V24.5525C23.3803 24.5355 23.5753 24.5263 23.772 24.5263H35.1541ZM37.7536 32.7227V24.5263H44.8278C46.0957 24.5263 47.2947 25.1984 47.9579 26.2813L51.9104 32.7227H37.7536Z" fill="#C19F56"/>
</g>
<defs>
<clipPath id="clip0_906_54491">
<rect width="79.7844" height="80" fill="#C19F56" transform="translate(0.606445)"/>
</clipPath>
</defs>
</svg>
