<svg width="168" height="59" viewBox="0 0 168 59" fill="none" xmlns="http://www.w3.org/2000/svg">
<rect width="168" height="59" rx="29.5" fill="#14143C"/>
<path d="M38.9675 11.5133C38.83 11.559 38.7383 11.559 38.6008 11.6048C38.4174 11.6506 38.1881 11.7421 37.9589 11.8337L37.8672 11.8795L37.9589 11.971C38.1423 12.1542 38.3257 12.3373 38.5091 12.4288C39.5177 13.0697 40.5264 13.3902 41.6267 13.2986C42.1311 13.2528 42.6813 13.2528 43.2314 13.2528C43.6899 13.2528 44.1942 13.2528 44.6986 13.2986C45.0195 13.2986 45.3405 13.3902 45.6614 13.4817C45.7989 13.5275 45.9365 13.5275 46.074 13.5733C46.074 13.5733 46.074 13.5733 46.1199 13.5733C45.7072 12.383 44.4693 11.3759 43.369 11.2386C42.5896 11.147 41.7643 11.147 40.6181 11.2386C40.0221 11.2386 39.4719 11.3759 38.9675 11.5133Z" fill="white"/>
<path d="M13.614 45.068C14.3476 45.068 15.0812 45.0222 15.7689 44.9307C15.448 44.3813 14.9895 43.9693 14.3476 43.5116C13.5224 42.9622 12.5595 42.8249 11.5509 42.6418H11.4592C10.8632 42.5502 10.1754 42.4587 9.53355 42.2298C9.16676 42.1382 8.79998 41.9551 8.47904 41.772C8.3415 41.6804 8.20395 41.6346 8.06641 41.5889C8.29565 42.3671 8.66243 43.2369 9.39601 43.8778C10.0379 44.4729 10.8632 44.656 11.6884 44.8391C12.2386 45.0222 12.8805 45.068 13.614 45.068Z" fill="white"/>
<path d="M18.838 47.2189C18.9297 47.2189 18.9755 47.1732 19.0672 47.1732C18.9297 47.0358 18.838 46.8985 18.7005 46.8069C17.6459 45.9829 16.5456 45.6625 15.2618 45.7083C14.3449 45.754 13.3362 45.754 12.3275 45.7083C12.0066 45.7083 11.6398 45.6167 11.3189 45.5251C11.1813 45.4794 11.0438 45.4794 10.9062 45.4336C11.3647 46.6696 12.5568 47.6767 13.8405 47.8141C15.2618 47.9514 16.5914 47.8598 17.8752 47.4478C18.1503 47.3563 18.4712 47.2647 18.838 47.2189Z" fill="white"/>
<path d="M26.4959 49.3713C26.2667 49.2797 26.0374 49.1424 25.854 49.1424C25.1205 49.005 24.3869 48.9593 23.6533 49.0966C23.3782 49.1424 23.1031 49.2797 22.828 49.3713C22.7363 49.417 22.6905 49.417 22.5988 49.4628C22.3237 49.6002 22.0028 49.7375 21.7277 49.829C21.1775 50.0579 20.6273 50.3326 20.0771 50.5157C19.6645 50.6531 19.2519 50.7446 18.8392 50.8362C18.6558 50.8819 18.4725 50.8819 18.3349 50.9277C18.3349 50.9277 18.3349 50.9277 18.2891 50.9277C18.7934 51.3855 19.2977 51.706 19.8938 51.9348C20.6273 52.2095 21.3609 52.2095 22.1403 51.9348C23.1948 51.5686 24.2035 51.0651 25.1205 50.3784C25.4414 50.1495 25.7623 49.8748 26.1291 49.6459L26.4959 49.3713Z" fill="white"/>
<path d="M10.7219 19.8446L10.8136 20.1192C11.1345 19.8446 11.4096 19.4783 11.6389 19.0663C12.0974 18.105 12.3266 17.2352 12.2807 16.3196C12.2349 15.2667 12.2349 14.2596 12.2807 13.4356C12.2807 13.1152 12.3724 12.7947 12.4183 12.4743C12.4641 12.3369 12.4641 12.1996 12.51 12.108C12.51 12.0623 12.51 12.0165 12.5558 11.9707C10.9511 12.7032 10.1717 13.8934 10.1259 15.5414C10.08 16.6859 10.2176 17.7388 10.4927 18.7459C10.5385 19.0663 10.6302 19.4326 10.7219 19.8446Z" fill="white"/>
<path d="M7.78954 26.5739C7.97294 26.8486 8.20218 27.1232 8.43142 27.3979L8.56896 27.581C8.84405 27.0775 8.93575 26.6197 8.93575 26.2077C9.02745 25.2921 8.84405 24.3765 8.43142 23.5525C8.01878 22.6828 7.652 21.8587 7.37691 21.0805C7.23936 20.7143 7.14767 20.3023 7.10182 19.9361C7.05597 19.7529 7.05597 19.6156 7.01012 19.4325C7.01012 19.4325 7.01012 19.4325 7.01012 19.3867C6.45994 19.9361 6.09316 20.6227 5.86392 21.4467C5.68052 22.1792 5.86392 22.8659 6.09316 23.5525C6.45994 24.7428 7.19352 25.7957 7.78954 26.5739Z" fill="white"/>
<path d="M51.0253 26.0251C50.0625 25.0638 48.9163 24.3771 47.6326 23.6904C47.6326 23.7362 47.6326 23.782 47.6326 23.8278C47.6326 24.1024 47.5867 24.3771 47.6784 24.6518C47.9535 25.7505 48.3661 26.5287 48.9622 27.1238C49.1914 27.3527 49.4665 27.5816 49.6957 27.8105C50.0625 28.1767 50.4751 28.4971 50.8419 28.9092C51.2087 29.2754 51.4838 29.7332 51.8047 30.1452V30.1909C51.9423 30.3741 52.034 30.5114 52.1715 30.6945C52.1715 30.6945 52.1715 30.6945 52.1715 30.7403C52.4008 30.0536 52.5383 29.5043 52.4925 28.9549C52.4466 27.5816 51.713 26.7118 51.0253 26.0251Z" fill="white"/>
<path d="M46.1183 38.9794V38.9336C45.7973 39.2083 45.5681 39.5287 45.3388 39.9407C44.8345 40.9478 44.6053 41.8176 44.697 42.7332C44.7428 43.5572 44.7887 44.427 44.7428 45.2968C44.7428 45.7088 44.6511 46.1208 44.5594 46.487C44.5136 46.6243 44.5136 46.8075 44.4677 46.9448C44.4677 46.9906 44.4677 47.0363 44.4219 47.0821C45.7056 46.5786 46.6684 45.3883 46.806 44.1981C46.9435 42.9621 46.8518 41.8176 46.5767 40.7189C46.4392 40.0781 46.3017 39.4829 46.1183 38.9794Z" fill="white"/>
<path d="M42.4493 43.7411C42.0366 44.4278 41.8991 45.1603 41.7615 45.9385C41.7157 46.1216 41.7157 46.3047 41.6698 46.4878C41.4865 47.3576 41.2572 48.1816 41.028 49.0056L40.9821 49.2345C40.9363 49.4634 40.8446 49.6465 40.707 49.8754C40.8904 49.8297 41.028 49.8297 41.1655 49.7839C42.4951 49.2803 43.3204 48.4563 43.6872 47.2661C44.1915 45.5723 44.1457 43.8327 43.9623 42.2305C43.2287 42.5967 42.7702 43.2376 42.4493 43.7411Z" fill="white"/>
<path d="M43.276 13.9385C42.5424 13.9385 41.8088 13.9843 41.1211 14.03C41.442 14.5794 41.9005 15.0372 42.5882 15.4492C43.4135 15.9985 44.3763 16.1358 45.385 16.2732L45.6142 16.3189C46.0727 16.3647 46.5312 16.4563 46.9897 16.5936C47.3565 16.6852 47.7232 16.8683 48.09 17.0056C48.2276 17.0514 48.411 17.143 48.5485 17.1887C48.6402 17.2345 48.7319 17.2803 48.8695 17.3261C48.6861 16.6394 48.5027 16.1358 48.1817 15.6781C47.4482 14.6252 46.3478 14.3047 45.385 14.1216C44.6973 13.9843 44.0554 13.9385 43.276 13.9385Z" fill="white"/>
<path d="M47.6319 35.3164C47.2652 35.82 47.0359 36.3235 46.9442 36.8271C46.7608 37.8342 46.7608 38.704 47.0359 39.528C47.1276 39.8485 47.1735 40.2147 47.2652 40.5351C47.311 40.8098 47.3569 41.0387 47.4027 41.3134C47.5861 42.0916 47.6319 42.9156 47.5861 43.648C48.0904 43.2818 48.5031 42.9156 48.7782 42.412C49.2825 41.588 49.4659 40.7182 49.2825 39.6196C49.0532 38.5209 48.2738 36.3693 47.6319 35.3164Z" fill="white"/>
<path d="M35.3881 9.08603C35.8466 8.85714 36.3509 8.67402 36.8552 8.49091C37.2679 8.35358 37.6805 8.26202 38.0473 8.17046C38.2307 8.12468 38.3682 8.12468 38.5516 8.07891H38.5975C37.818 7.34645 36.9469 6.93445 35.8924 6.88867C35.5715 6.88867 35.2047 6.98023 34.8838 7.07178H34.8379C33.4625 7.43801 32.2704 8.26202 31.3076 8.94869C31.0325 9.13181 30.8033 9.3607 30.5282 9.54381L30.3906 9.63537H30.4365C30.6657 9.72692 30.8033 9.7727 30.9867 9.81848C31.6744 10.0016 32.408 10.0474 33.1874 9.86426C33.5542 9.7727 33.9209 9.68114 34.3336 9.49803C34.6545 9.3607 35.0213 9.22336 35.3422 9.08603H35.3881Z" fill="white"/>
<path d="M50.0167 33.7616C49.6499 33.2122 49.2373 32.6629 48.8705 32.1593C48.7329 31.9762 48.5954 31.7931 48.4578 31.61C48.412 31.5642 48.412 31.5184 48.3661 31.4727C48.0452 32.1593 47.9535 32.846 47.9994 33.7616C48.0452 34.5398 48.3661 35.2722 48.6871 35.9589L48.7329 36.0505C49.008 36.6914 49.329 37.3323 49.5582 37.9732C49.6957 38.431 49.7874 38.8887 49.8791 39.3465C49.8791 39.4381 49.925 39.5754 49.925 39.667C50.7502 38.9345 51.3004 37.378 51.0712 36.4167C50.8419 35.318 50.521 34.4482 50.0167 33.7616Z" fill="white"/>
<path d="M18.1966 11.9718C18.38 11.7429 18.4717 11.4224 18.5634 11.102C18.6092 10.9646 18.6551 10.8731 18.6551 10.7357C19.0677 9.49973 19.5721 8.21794 20.4432 7.16504C20.2598 7.16504 20.0764 7.21082 19.9388 7.21082C18.4717 7.39393 17.4172 8.17216 16.7753 9.63707C16.3168 10.5984 16.0417 11.7429 15.9042 12.9789C15.8583 13.2535 15.8125 13.574 15.8125 13.8487V13.986C16.0876 13.8944 16.5002 13.7113 16.6836 13.574C17.2796 13.0247 17.784 12.5211 18.1966 11.9718Z" fill="white"/>
<path d="M14.253 15.6326C14.7573 14.8544 15.0783 13.9846 15.2158 13.0232C15.2617 12.7028 15.3075 12.3823 15.3992 12.0619C15.4451 11.7872 15.5368 11.4668 15.5826 11.1921C15.6743 10.597 15.9035 10.0934 16.0869 9.58986C16.1328 9.45252 16.1786 9.31519 16.2703 9.22363C15.5826 9.40675 15.0783 9.58986 14.6198 9.91031C13.5653 10.6428 13.2443 11.7414 13.0609 12.7486C12.7859 14.1219 12.8776 15.541 13.0151 16.8686C13.4736 16.5024 13.8862 16.1361 14.253 15.6326Z" fill="white"/>
<path d="M9.53134 41.5431C10.4483 41.8636 11.457 42.0009 12.4198 42.0925H12.5115C12.649 42.0925 12.8324 42.1383 12.97 42.1383C12.9241 41.9551 12.8324 41.8178 12.7407 41.6805C12.1447 40.6276 11.2736 39.8951 10.1732 39.4831C9.98983 39.3916 9.80643 39.3458 9.62304 39.2542C9.25625 39.1169 8.79777 38.9338 8.38514 38.7964C7.60572 38.5218 6.87214 38.1098 6.04688 37.5146C6.09272 38.888 6.55121 39.8951 7.51402 40.6276C8.0642 41.0396 8.70607 41.2685 9.3021 41.4974L9.53134 41.5431Z" fill="white"/>
<path d="M35.6635 9.68181C35.1592 9.9107 34.7007 10.1396 34.2422 10.3685C34.7465 10.7347 35.2508 10.9636 35.8469 11.1009C36.2137 11.1467 36.5346 11.1925 36.9014 11.1925C37.5891 11.1925 38.3227 11.0552 39.148 10.8263C40.34 10.46 41.3945 10.3685 42.3573 10.4143C42.4032 10.4143 42.449 10.4143 42.4949 10.4143C42.0822 9.86492 41.6238 9.40714 41.0736 9.08669C40.5692 8.76624 39.9732 8.62891 39.3313 8.62891C39.0104 8.62891 38.6895 8.67468 38.3227 8.72046C37.4516 8.94935 36.5346 9.2698 35.6635 9.68181Z" fill="white"/>
<path d="M8.56903 34.9066C8.79827 35.044 8.98167 35.1355 9.21091 35.2729L9.30261 35.3186C9.34845 35.044 9.34845 34.632 9.30261 34.3573C9.11921 33.5333 8.75243 32.8008 8.20225 32.1599C7.78961 31.7022 7.37698 31.3359 6.9185 30.9239C6.8268 30.8324 6.7351 30.7408 6.64341 30.6493C5.86399 29.9168 5.26796 29.1844 4.80948 28.3604C4.2593 29.6421 4.44269 31.2444 5.35966 32.2973C6.13908 33.3044 7.19359 34.1284 8.56903 34.9066Z" fill="white"/>
<path d="M45.431 17.0064C45.0642 16.9606 44.6515 16.9148 44.2389 16.869L43.918 16.8232C43.918 16.869 43.918 16.869 43.9638 16.9148C44.2848 17.7388 44.8808 18.3339 45.4768 18.8375C46.027 19.2953 46.7147 19.5242 47.3566 19.753C47.4941 19.7988 47.5858 19.8446 47.7234 19.8904C48.6403 20.2108 49.7865 20.6686 50.8411 21.4926C50.7494 19.8904 50.1533 18.8375 48.9613 18.1508C47.9526 17.5557 46.8523 17.2352 45.431 17.0064Z" fill="white"/>
<path d="M9.30155 23.6903C9.66834 23.2325 9.89758 22.7289 9.98928 22.2254C10.1727 21.3098 10.1727 20.5316 10.0351 19.8449C9.98928 19.616 9.94343 19.4329 9.85173 19.2498C9.76004 18.9751 9.71419 18.7005 9.62249 18.38C9.4391 17.4644 9.2557 16.4573 9.3474 15.4502C8.84307 15.7706 8.47628 16.1826 8.15535 16.6404C7.55932 17.5102 7.42177 18.5173 7.74271 19.8907C8.06365 21.3098 8.70553 22.5916 9.30155 23.6903Z" fill="white"/>
<path d="M38.4608 47.7233C38.3232 47.9979 38.2315 48.3184 38.1398 48.593C38.0023 49.0508 37.8189 49.4628 37.6355 49.9206C37.4063 50.3784 37.1312 50.8362 36.8561 51.2482C36.7644 51.4313 36.6269 51.6144 36.5352 51.7975C36.7644 51.7975 37.1312 51.7975 37.3604 51.7517C38.5983 51.4771 39.4694 50.8362 40.0196 49.7375C40.7073 48.3642 40.9366 46.8535 41.12 45.5717C41.1658 45.3886 41.1658 45.2055 41.1658 45.0223V44.9766C39.8821 45.4343 39.011 46.3957 38.4608 47.7233Z" fill="white"/>
<path d="M21.177 47.9528C20.7644 47.8612 20.3517 47.8154 19.9391 47.8154C19.3431 47.8154 18.7012 47.907 18.0135 48.0901C16.8673 48.4105 15.8127 48.5479 14.8041 48.5479C14.6665 48.5479 14.4831 48.5479 14.3456 48.5479C14.2998 48.5479 14.2998 48.5479 14.2539 48.5479C14.4831 48.9141 14.7582 49.1888 15.0792 49.4634C15.9961 50.1959 17.0048 50.4248 18.2427 50.2417C19.8474 49.967 21.3145 49.2803 22.5524 48.6394C22.1857 48.2732 21.7272 48.0901 21.177 47.9528Z" fill="white"/>
<path d="M34.1517 48.6386C33.8308 48.6386 33.5557 48.6843 33.2806 48.7301C32.5929 48.8674 31.951 49.1421 31.355 49.5999C31.0799 49.8288 30.8048 50.1035 30.5755 50.3323C30.4838 50.4697 30.3463 50.5612 30.2546 50.6986C30.1171 50.8359 29.9795 50.9732 29.842 51.1106C29.521 51.431 29.2459 51.7515 28.8792 52.0719C28.5582 52.3466 28.1914 52.6213 27.8246 52.8501C27.6871 52.9417 27.5037 53.079 27.3662 53.1706C27.3662 53.1706 27.3662 53.1706 27.3203 53.1706C28.008 53.3995 28.5582 53.5368 29.1084 53.491C30.3463 53.4453 31.2174 52.7586 32.1802 51.7515C33.0513 50.7901 33.6932 49.6915 34.2892 48.5928C34.2434 48.5928 34.1976 48.5928 34.1517 48.6386Z" fill="white"/>
<path d="M23.3791 10.3685C23.9293 10.3227 24.4336 10.1396 25.0755 9.72762C25.4423 9.49873 25.7632 9.26984 25.9925 9.04095C26.3134 8.7205 26.6802 8.35428 27.0011 8.03383C27.4138 7.62182 27.8264 7.16404 28.2849 6.75204C28.56 6.47737 28.8809 6.29425 29.156 6.11114C29.2936 6.01958 29.4311 5.92803 29.5686 5.83647C29.5686 5.83647 29.5686 5.83647 29.6145 5.83647C28.8351 5.51602 28.1015 5.42447 27.3221 5.5618C26.451 5.69914 25.7632 6.24847 25.2589 6.70626C24.1127 7.75916 23.3791 9.04095 22.6914 10.277C22.8748 10.3227 23.1957 10.3685 23.3791 10.3685Z" fill="white"/>
<path d="M48.686 27.8108C48.5943 27.7192 48.4567 27.6277 48.3651 27.5361V27.5819C48.3192 27.8108 48.2734 28.0397 48.2734 28.2686C48.2275 29.5046 48.5943 30.6491 49.3737 31.6104C49.9239 32.2971 50.3824 33.0295 50.8409 33.7162C51.0243 34.0366 51.1618 34.3571 51.2993 34.7233C51.3452 34.8607 51.391 34.998 51.4827 35.1353C51.4827 35.1811 51.5286 35.2269 51.5286 35.2727C51.8495 34.7691 52.0788 34.2655 52.1705 33.7162C52.3538 32.7549 52.1246 31.8393 51.4369 30.7406C50.7033 29.6419 49.7863 28.7721 48.686 27.8108Z" fill="white"/>
<path d="M30.4379 49.4166C30.1628 49.3709 29.6585 49.2793 29.2917 49.2793C29.2459 49.2793 29.1542 49.2793 29.1083 49.2793C28.0538 49.4166 27.1827 49.7371 26.495 50.2864C25.9448 50.7442 25.4863 51.0646 24.982 51.3393C24.3859 51.6598 23.7899 51.9802 23.2397 52.3007C23.0563 52.3922 22.9188 52.4838 22.7812 52.5753C23.2397 52.85 23.7441 53.0789 24.2942 53.1704C25.2571 53.3536 26.174 53.1247 27.2744 52.438C28.4664 51.6598 29.3834 50.6069 30.2087 49.6913L30.4379 49.4166Z" fill="white"/>
<path d="M7.97186 31.0142C8.15525 31.1516 8.29279 31.2889 8.47619 31.4262L8.52204 31.472C8.65958 30.8769 8.70543 30.3275 8.56788 29.7324C8.38449 28.8169 8.01771 28.0386 7.46753 27.352C7.00904 26.7568 6.55056 26.0702 6.09208 25.3835C5.90869 25.063 5.72529 24.651 5.58775 24.3306C5.5419 24.1933 5.4502 24.0559 5.40435 23.8728C5.40435 23.827 5.35851 23.827 5.35851 23.7812C4.57909 24.9257 4.44154 26.5279 5.03757 27.6266C5.72529 28.7711 6.64226 29.824 7.97186 31.0142Z" fill="white"/>
<path d="M26.4961 9.59061C27.0921 9.72795 27.6423 9.77372 28.2383 9.63639C29.2011 9.45328 29.9347 9.08705 30.6224 8.58349C31.2185 8.12571 31.8603 7.66792 32.6398 7.21014C32.9607 7.02703 33.3275 6.88969 33.6484 6.75236C33.786 6.70658 33.9235 6.6608 34.0611 6.56925C34.1069 6.52347 34.1986 6.52347 34.2445 6.47769C33.6484 6.06568 32.8232 5.79102 31.9979 5.79102C31.4477 5.79102 30.9434 5.88257 30.5766 6.11146C29.4304 6.70658 28.3759 7.53059 27.2297 8.81238C27.0463 9.04127 26.8629 9.27016 26.6336 9.49905L26.4961 9.59061Z" fill="white"/>
<path d="M46.6674 20.2564L46.1172 20.0732C46.1172 20.119 46.1172 20.119 46.1172 20.1648C46.3464 21.355 47.0342 22.3622 48.1345 23.1404C48.5013 23.4151 48.9139 23.6439 49.3266 23.9186C49.4641 24.0102 49.5558 24.056 49.6934 24.1475C50.6103 24.6968 51.298 25.292 51.8941 25.9786L51.9399 26.0244C51.9858 25.9329 51.9858 25.8413 51.9858 25.7955C52.1692 24.2391 51.7107 23.0031 50.5186 22.1333C49.51 21.355 48.3179 20.8057 46.6674 20.2564Z" fill="white"/>
<path d="M10.3115 38.7513C10.449 38.7971 10.6324 38.8429 10.8158 38.8887H10.8617C10.8158 38.5224 10.7241 38.1562 10.5407 37.79C10.0364 36.8287 9.39453 36.0962 8.56926 35.6384C7.83569 35.2264 7.14797 34.8144 6.50609 34.3108C6.1393 34.0362 5.81837 33.7157 5.49743 33.3953C5.35988 33.2579 5.22234 33.1206 5.08479 33.0291C5.03895 32.9833 5.03895 32.9833 4.9931 32.9375C4.9014 33.4868 4.85555 34.1735 5.08479 34.906C5.31404 35.6842 5.77252 36.3251 6.41439 36.7829C7.37721 37.6069 8.61511 38.202 10.3115 38.7513Z" fill="white"/>
<path d="M24.9808 6.06617C24.6599 6.02039 24.3848 5.97461 24.1097 5.97461C23.8805 5.97461 23.6512 5.97461 23.4678 6.02039C22.4592 6.2035 21.7256 6.66128 21.0837 7.48529C20.0751 8.85864 19.5249 10.3693 19.0664 11.7427C19.3873 11.7427 19.8917 11.6969 20.1209 11.5596C21.0837 11.056 21.8173 10.4151 22.2758 9.63687C22.4133 9.3622 22.5967 9.13331 22.7343 8.85864C22.8718 8.62975 23.0094 8.40086 23.1469 8.21774C23.6054 7.39374 24.2014 6.70706 24.9808 6.06617Z" fill="white"/>
<path d="M34.3802 49.8288C33.7383 50.9275 33.0506 52.0262 31.9961 52.9418C32.317 52.9875 32.5921 53.0333 32.8672 53.0333C33.2798 53.0333 33.6925 52.9875 34.0593 52.8502C34.8387 52.5755 35.4806 52.072 36.0766 51.248C36.9019 50.0577 37.4062 48.7302 37.773 47.6315C37.8188 47.4942 37.8647 47.311 37.9105 47.1279C37.3603 47.2195 36.856 47.4026 36.3517 47.6773C35.5723 48.1808 34.9304 48.8675 34.3802 49.8288Z" fill="white"/>
<path d="M28.3757 45.5717L28.4674 45.5259L28.5591 45.5717C28.5591 45.5717 28.5591 45.5259 28.5591 45.4343C29.6136 44.473 30.8515 43.8779 32.1811 43.237C32.4104 43.1454 32.6854 43.0081 32.9147 42.8707C35.2071 41.7263 36.9035 40.3529 38.1872 38.5676L39.0583 39.2085L39.471 35.6835L36.1699 37.0569L37.041 37.7436C35.8031 39.2543 34.4735 40.6276 32.5479 41.0854C32.3187 41.1312 32.0894 41.1769 31.8143 41.1769C30.2555 41.1769 29.1093 39.9409 29.1093 38.3387C29.1093 37.3316 29.1093 36.0498 29.1093 35.0427C30.8515 35.0427 32.4562 35.0427 32.6854 35.0427C32.8688 35.0427 33.0981 34.9511 33.2356 34.8138C33.3273 34.6764 33.6941 33.8066 33.6941 33.8066H23.1948C23.1948 33.8066 23.5616 34.6764 23.6533 34.8138C23.745 34.9511 24.0201 35.0427 24.2035 35.0427C24.4328 35.0427 26.0374 35.0427 27.7797 35.0427C27.7797 36.0498 27.7797 37.3316 27.7797 38.3387C27.7797 39.9409 26.5876 41.1769 25.0746 41.1769C24.8454 41.1769 24.6161 41.1312 24.3411 41.0854C22.4154 40.6276 21.0858 39.2543 19.8479 37.7436L20.719 37.0569L17.418 35.6835L17.8306 39.2085L18.7017 38.5676C19.9855 40.3529 21.7277 41.7721 23.9743 42.8707C24.2035 43.0081 24.4786 43.0996 24.7078 43.237C26.0374 43.8779 27.3212 44.473 28.3299 45.4343C28.3757 45.5259 28.3757 45.5717 28.3757 45.5717Z" fill="white"/>
<path d="M24.204 19.7998C24.0206 19.7998 23.7913 19.8914 23.6538 20.0287C23.5621 20.166 23.1953 21.0358 23.1953 21.0358H33.7863C33.7863 21.0358 33.4195 20.166 33.3278 20.0287C33.2361 19.8914 32.961 19.7998 32.7776 19.7998C32.3191 19.7998 30.531 19.7998 29.2931 19.7998V18.2891C30.2559 17.9687 30.9895 17.0073 30.9895 15.9544C30.9895 14.5811 29.8892 13.4824 28.5137 13.4824C27.1383 13.4824 26.0379 14.5811 26.0379 15.9544C26.0379 17.0531 26.7256 17.9687 27.7343 18.2891V19.7998C26.4505 19.7998 24.6166 19.7998 24.204 19.7998ZM27.5051 15.9087C27.5051 15.3593 27.9177 14.9473 28.4679 14.9473C29.018 14.9473 29.4307 15.3593 29.4307 15.9087C29.4307 16.458 29.018 16.87 28.4679 16.87C27.9177 16.87 27.5051 16.458 27.5051 15.9087Z" fill="white"/>
<path d="M17.0977 22.9131V31.9772H22.2327V30.4665H18.6565V22.9131H17.0977Z" fill="white"/>
<path d="M29.8424 30.3275C29.5673 30.5106 29.1547 30.6021 28.6504 30.6021C27.5959 30.6021 26.8165 30.1444 26.4497 29.2288L25.0742 30.007C25.3493 30.6479 25.7619 31.1515 26.358 31.5177C26.954 31.9297 27.7334 32.1128 28.6045 32.1128C29.5674 32.1128 30.3468 31.8839 30.9886 31.3804C31.5847 30.8768 31.9056 30.2359 31.9056 29.4119C31.9056 28.9083 31.8139 28.4963 31.5847 28.1759C31.4471 27.9012 31.172 27.6266 30.7594 27.3977C30.6219 27.3061 30.4385 27.2145 30.2092 27.123C29.9341 26.9857 29.7049 26.9399 29.6132 26.8941L28.9713 26.6652C28.2836 26.4363 27.7793 26.2532 27.5042 26.0701C27.2291 25.8412 27.0915 25.5665 27.0915 25.2461C27.0915 24.9256 27.2291 24.651 27.4583 24.4678C27.6876 24.2847 28.0085 24.1932 28.4211 24.1932C29.2464 24.1932 29.8883 24.5594 30.2551 25.3376L31.5847 24.5594C31.2637 23.9643 30.8511 23.5065 30.3468 23.1861C29.7966 22.8198 29.1547 22.6367 28.4211 22.6367C27.5959 22.6367 26.9082 22.8656 26.3121 23.3692C25.7161 23.827 25.441 24.4679 25.441 25.2919C25.441 26.1159 25.7161 26.711 26.2663 27.123C26.7248 27.4434 27.3666 27.7181 28.1461 27.9928C28.9255 28.2217 29.4298 28.4048 29.7507 28.5879C30.0717 28.771 30.2551 29.0915 30.2551 29.4577C30.3009 29.8697 30.1175 30.1444 29.8424 30.3275Z" fill="white"/>
<path d="M41.3511 29.4125C41.3511 28.4969 40.9843 27.856 40.2049 27.3983L40.0215 27.3067L40.1591 27.1694C40.7092 26.7116 40.9843 26.1622 40.9843 25.384C40.9843 24.6516 40.7092 24.0564 40.2049 23.5987C39.7006 23.1409 39.0129 22.8662 38.2793 22.8662H34.7031V31.9761H38.5544C39.3338 31.9761 40.0215 31.7472 40.5259 31.2436C41.1219 30.7859 41.3511 30.145 41.3511 29.4125ZM36.3078 24.3769H38.2793C38.6002 24.3769 38.8753 24.4684 39.1046 24.6973C39.3338 24.9262 39.4255 25.2009 39.4255 25.5214C39.4255 25.8418 39.3338 26.1165 39.1046 26.3454C38.8753 26.5743 38.6002 26.6658 38.2793 26.6658H36.3078V24.3769ZM39.4713 30.145C39.2421 30.3738 38.967 30.5112 38.6002 30.5112H36.3537V28.0392H38.6002C38.967 28.0392 39.2421 28.1765 39.4713 28.4054C39.7006 28.6343 39.8381 28.9089 39.8381 29.2752C39.7923 29.6414 39.6547 29.9161 39.4713 30.145Z" fill="white"/>
</svg>
