<svg width="46" height="46" viewBox="0 0 46 46" fill="none" xmlns="http://www.w3.org/2000/svg">
<rect x="6.57031" y="6.57031" width="32.8571" height="32.8571" rx="16.4286" fill="#C19F56"/>
<rect x="0.5" y="0.5" width="45" height="45" rx="22.5" stroke="#C19F56"/>
<path fill-rule="evenodd" clip-rule="evenodd" d="M16.5396 18.0396C16.5396 18.0396 17.3632 20.0787 19.4387 23.9501C19.4387 23.9501 19.4387 23.9501 19.4387 23.9796C21.5472 27.851 22.8979 29.5946 22.8979 29.5946C24.2815 30.9245 26.5877 31.5155 29.0585 30.4517C30.4092 29.8606 30.1786 28.4716 28.9267 26.1665C27.8066 24.0978 26.5547 24.0387 25.7311 24.6889C25.5664 24.8071 25.0393 25.2504 25.0063 25.3982C25.0063 25.3982 24.5122 26.137 22.6343 22.6202C20.7565 19.133 21.5142 19.3103 21.5142 19.3103C21.646 19.3399 22.3708 19.4285 22.5684 19.3694C23.6227 19.1626 24.4792 18.1578 23.2603 15.9118C22.0084 13.6067 20.9542 12.5723 19.6034 13.1634C17.5609 14.0204 16.2431 16.2369 16.5396 18.0396Z" stroke="white"/>
</svg>
