<svg width="22" height="22" viewBox="0 0 22 22" fill="none" xmlns="http://www.w3.org/2000/svg">
<path d="M11 0C4.9346 0 0 4.9346 0 11C0 17.0654 4.9346 22 11 22C17.0654 22 22 17.0654 22 11C22 4.9346 17.0654 0 11 0ZM11 20C6.03733 20 2 15.9626 2 11C2 6.0374 6.03733 2 11 2C15.9627 2 20 6.0374 20 11C20 15.9626 15.9626 20 11 20Z" fill="#C19F56"/>
<path d="M15.1286 7.11318L9.47164 12.77L6.87897 10.1773C6.48851 9.78685 5.85531 9.78678 5.46477 10.1772C5.07424 10.5678 5.07424 11.2009 5.46477 11.5914L8.76451 14.8913C8.95204 15.0788 9.20638 15.1842 9.47158 15.1842C9.47164 15.1842 9.47158 15.1842 9.47164 15.1842C9.73684 15.1842 9.99117 15.0788 10.1787 14.8914L16.5428 8.52745C16.9333 8.13691 16.9333 7.50378 16.5428 7.11325C16.1522 6.72271 15.5191 6.72265 15.1286 7.11318Z" fill="#C19F56"/>
</svg>
