<svg width="22" height="16" viewBox="0 0 22 16" fill="none" xmlns="http://www.w3.org/2000/svg">
<path d="M1.50812 15.2354L1.50817 15.2354C1.49262 15.2201 1.47938 15.2036 1.46776 15.187C1.14664 14.8662 0.95 14.4247 0.95 13.933V2.06637C0.95 1.25477 1.48511 0.580583 2.2315 0.359762C2.39957 0.308708 2.57754 0.283008 2.76542 0.283008H19.605C19.7928 0.283008 19.9708 0.308709 20.1388 0.359762C20.8852 0.580584 21.4204 1.25477 21.4204 2.06637V13.933C21.4204 14.8995 20.6618 15.6708 19.6914 15.7142C19.6913 15.7142 19.6913 15.7142 19.6913 15.7142L1.50812 15.2354ZM1.50812 15.2354L1.51009 15.2372M1.50812 15.2354L1.51009 15.2372M1.51009 15.2372C1.60057 15.3171 1.69812 15.3875 1.80068 15.4484M1.51009 15.2372L1.80068 15.4484M19.555 1.04969V1.04965H2.76546C2.7464 1.04965 2.72781 1.05017 2.70947 1.05107L19.555 1.04969ZM19.555 1.04969H19.605M19.555 1.04969H19.605M19.605 1.04969C19.624 1.04969 19.6426 1.05021 19.6609 1.05111C19.6669 1.05141 19.6725 1.05185 19.6788 1.05235C19.6817 1.05258 19.6847 1.05282 19.688 1.05306L19.6881 1.05307M19.605 1.04969L19.6881 1.05307M19.6881 1.05307C19.6906 1.05326 19.693 1.05343 19.6954 1.05359C19.7033 1.05414 19.7101 1.05463 19.7171 1.05535L19.7171 1.05536M19.6881 1.05307L19.7171 1.05536M19.7223 1.00563C19.7144 1.0048 19.7064 1.00424 19.6984 1.00368C19.6961 1.00352 19.6939 1.00336 19.6917 1.0032C19.689 1.003 19.6863 1.00279 19.6836 1.00257C19.6769 1.00204 19.6702 1.00151 19.6634 1.00117C19.6443 1.00023 19.6249 0.999688 19.605 0.999688L19.7223 1.00563ZM19.7223 1.00563L19.7368 1.00738M19.7223 1.00563L19.9971 1.07705C19.9144 1.04154 19.83 1.01843 19.7368 1.00738M19.7171 1.05536C19.7202 1.05568 19.7216 1.05586 19.7232 1.05609C19.7249 1.05631 19.7268 1.05658 19.7312 1.05707L19.7368 1.00738M19.7171 1.05536L12.4116 7.99268M12.4116 7.99268L12.4117 7.99279C12.4523 7.96293 12.4962 7.93832 12.5421 7.92118L19.9565 1.11433C19.8847 1.08551 19.8114 1.06656 19.7309 1.05704L19.7368 1.00738M12.4116 7.99268L12.4088 7.99512M12.4116 7.99268L12.4088 7.99512M12.4088 7.99512L12.1372 8.22844L12.1372 8.22841M12.4088 7.99512L12.1372 8.22841M12.1372 8.22841L12.1358 8.22964M12.1372 8.22841L12.1358 8.22964M12.1358 8.22964C11.5778 8.74526 10.7247 8.74526 10.1667 8.22964L10.1667 8.22962M12.1358 8.22964L10.1667 8.22962M10.1667 8.22962L10.1653 8.22843M10.1667 8.22962L10.1653 8.22843M10.1653 8.22843L10.1292 8.19745L2.41392 1.1143L10.1653 8.22843ZM2.81542 14.9497V14.9497H19.605C19.703 14.9497 19.8022 14.9313 19.905 14.9074L12.7155 8.80081L12.7133 8.80282C12.7132 8.8029 12.7132 8.80298 12.7131 8.80305C12.0061 9.46801 10.9265 9.56868 10.1064 9.10742C10.1062 9.10734 10.1061 9.10725 10.1059 9.10717L10.1305 9.06359C9.978 8.98195 9.83127 8.88262 9.69138 8.76641L2.81542 14.9497ZM2.81542 14.9497H2.76542C2.66754 14.9497 2.56843 14.9313 2.46571 14.9075M2.81542 14.9497L2.46571 14.9075M2.46571 14.9075L9.6718 8.81508L2.46571 14.9075ZM1.80068 15.4484C2.05661 15.6045 2.35597 15.6998 2.67887 15.7142L1.80068 15.4484ZM20.5153 14.4277L13.2685 8.29402L20.5439 1.62708C20.6065 1.75904 20.6414 1.90761 20.6414 2.06633V13.933C20.6414 14.1144 20.5958 14.2825 20.5153 14.4277ZM1.72903 2.06637C1.72903 1.90765 1.76394 1.75908 1.82652 1.62712L9.06933 8.26417L1.83423 14.3879C1.76685 14.252 1.72903 14.098 1.72903 13.933V2.06637Z" fill="#14143C" stroke="#14143C" stroke-width="0.1"/>
</svg>
