<svg width="44" height="66" viewBox="0 0 44 66" fill="none" xmlns="http://www.w3.org/2000/svg">
<path d="M22 0C9.86983 0 0 9.86971 0 22C0 33.198 8.415 42.4491 19.25 43.8103V63.25C19.25 64.7708 20.4819 66 21.9999 66C23.5206 66 24.7499 64.7708 24.7499 63.25V43.8102C35.5848 42.449 43.9998 33.198 43.9998 21.9999C44.0001 9.86971 34.1302 0 22 0ZM28.8118 32.098L22 28.5175L15.1911 32.098L16.4919 24.5136L10.9809 19.1428L18.5956 18.0373L22 11.1348L25.4073 18.0373L33.022 19.1428L27.511 24.5136L28.8118 32.098Z" fill="#14143C"/>
</svg>
