<svg width="22" height="22" viewBox="0 0 22 22" fill="none" xmlns="http://www.w3.org/2000/svg">
<path d="M11 0C4.9346 0 0 4.9346 0 11C0 17.0654 4.9346 22 11 22C17.0654 22 22 17.0654 22 11C22 4.9346 17.0654 0 11 0ZM11 20C6.03733 20 2 15.9626 2 11C2 6.0374 6.03733 2 11 2C15.9627 2 20 6.0374 20 11C20 15.9626 15.9626 20 11 20Z" fill="#C19F56"/>
<path d="M15.1247 7.11318L9.46774 12.77L6.87507 10.1773C6.4846 9.78685 5.8514 9.78678 5.46087 10.1772C5.07034 10.5678 5.07034 11.2009 5.46087 11.5914L8.7606 14.8913C8.94814 15.0788 9.20247 15.1842 9.46767 15.1842C9.46774 15.1842 9.46767 15.1842 9.46774 15.1842C9.73294 15.1842 9.98727 15.0788 10.1748 14.8914L16.5389 8.52745C16.9294 8.13691 16.9294 7.50378 16.5389 7.11325C16.1483 6.72271 15.5152 6.72265 15.1247 7.11318Z" fill="#C19F56"/>
</svg>
