<svg width="20" height="20" viewBox="0 0 20 20" fill="none" xmlns="http://www.w3.org/2000/svg">
<g clip-path="url(#clip0_909_118841)">
<path d="M0.103046 9.74283C0.133163 9.66755 0.85832 7.8788 2.42047 6.07634C4.52348 3.64981 7.14447 2.36719 10 2.36719C12.8556 2.36719 15.4765 3.64981 17.5795 6.07637C19.1416 7.87884 19.8668 9.66759 19.897 9.74287L20 10.0006L19.8969 10.2583C19.8668 10.3336 19.1416 12.1223 17.5795 13.9248C15.4765 16.3513 12.8555 17.634 9.99998 17.634C7.14443 17.634 4.52348 16.3513 2.42047 13.9248C0.85836 12.1223 0.133163 10.3336 0.103046 10.2583L-4.00543e-05 10.0006L0.103046 9.74283ZM10 14.8582C12.6785 14.8582 14.8576 12.679 14.8576 10.0006C14.8576 7.32208 12.6785 5.14294 10 5.14294C7.32154 5.14294 5.14239 7.32208 5.14239 10.0006C5.14239 12.679 7.3215 14.8582 10 14.8582Z" fill="#98A1A7"/>
<path d="M9.99999 6.53125C11.9132 6.53125 13.4697 8.08778 13.4697 10.001C13.4697 11.9142 11.9132 13.4707 9.99999 13.4707C8.08679 13.4707 6.53026 11.9142 6.53026 10.001C6.53026 8.08778 8.08679 6.53125 9.99999 6.53125ZM9.99999 9.30704C10.3827 9.30704 10.6939 9.61833 10.6939 10.001H12.0818C12.0818 8.85305 11.1479 7.91914 9.99999 7.91914V9.30704Z" fill="#98A1A7"/>
</g>
<defs>
<clipPath id="clip0_909_118841">
<rect width="20" height="20" fill="white" transform="matrix(-1 0 0 1 20 0)"/>
</clipPath>
</defs>
</svg>
