<svg width="54" height="36" viewBox="0 0 54 36" fill="none" xmlns="http://www.w3.org/2000/svg">
<path d="M37.6556 23.5H5.08068C-1.91992 20.5 1.58025 14.5 4.58068 13.5L52.0807 12.5C43.2807 22.1 39.0804 23.5 37.6556 23.5Z" stroke="#14143C" stroke-width="0.8"/>
<path d="M4.33259 32.7525C4.19591 32.8892 4.19591 33.1108 4.33259 33.2475L6.55998 35.4749C6.69666 35.6116 6.91827 35.6116 7.05495 35.4749C7.19164 35.3382 7.19164 35.1166 7.05495 34.9799L5.07505 33L7.05495 31.0201C7.19164 30.8834 7.19164 30.6618 7.05495 30.5251C6.91827 30.3884 6.69666 30.3884 6.55998 30.5251L4.33259 32.7525ZM44.8276 33.2475C44.9642 33.1108 44.9642 32.8892 44.8276 32.7525L42.6002 30.5251C42.4635 30.3884 42.2419 30.3884 42.1052 30.5251C41.9685 30.6618 41.9685 30.8834 42.1052 31.0201L44.0851 33L42.1052 34.9799C41.9685 35.1166 41.9685 35.3382 42.1052 35.4749C42.2419 35.6116 42.4635 35.6116 42.6002 35.4749L44.8276 33.2475ZM4.58008 33.35H44.5801V32.65H4.58008V33.35Z" fill="#14143C"/>
<path d="M31.0801 7.5H32.5801L43.0801 12.5" stroke="#14143C" stroke-width="0.8" stroke-linecap="round"/>
<line x1="6.98008" y1="20.6" x2="43.1801" y2="20.6" stroke="#14143C" stroke-width="0.8" stroke-linecap="round"/>
<line x1="10.9801" y1="15.6" x2="18.1801" y2="15.6" stroke="#14143C" stroke-width="0.8" stroke-linecap="round"/>
<line x1="25.9801" y1="15.6" x2="28.1801" y2="15.6" stroke="#14143C" stroke-width="0.8" stroke-linecap="round"/>
<line x1="37.9801" y1="15.6" x2="39.1801" y2="15.6" stroke="#14143C" stroke-width="0.8" stroke-linecap="round"/>
<line x1="41.9801" y1="15.6" x2="43.1801" y2="15.6" stroke="#14143C" stroke-width="0.8" stroke-linecap="round"/>
<path d="M10.0801 13L11.0801 9L5.08008 8.5V7.5H9.58008M9.58008 7.5L5.08008 1H8.58008L12.5801 4.5H17.0801L19.5801 3.5H26.5801L31.5801 7.5H9.58008Z" stroke="#14143C" stroke-width="0.8"/>
</svg>
