<svg width="38" height="38" viewBox="0 0 38 38" fill="none" xmlns="http://www.w3.org/2000/svg">
<g clip-path="url(#clip0_927_58663)">
<path d="M28.9273 36.8123H28.0723V27.906C28.0723 23.688 25.2056 20.0638 21.0993 19.09C20.9211 19.0473 20.7893 18.8965 20.7727 18.7148C20.7549 18.5319 20.857 18.3585 21.0245 18.2837C22.8259 17.4821 23.9885 15.6938 23.9885 13.7285C23.9885 10.9782 21.7512 8.73977 19.001 8.73977C16.2507 8.73977 14.0135 10.977 14.0135 13.7285C14.0135 15.695 15.1772 17.4833 16.9775 18.2837C17.1449 18.3585 17.2458 18.5319 17.2292 18.7148C17.2126 18.8965 17.0808 19.0485 16.9026 19.09C12.7963 20.0638 9.92845 23.688 9.92845 27.906V36.8123H9.07227V27.906C9.07227 23.6405 11.7525 19.9284 15.7056 18.5497C14.131 17.4726 13.1573 15.6748 13.1573 13.7285C13.1573 11.3962 14.5312 9.37864 16.5108 8.4417C16.7352 7.86814 16.8623 7.18177 16.8623 6.53102C16.8623 3.77483 14.6713 1.61477 11.8748 1.61477C9.0782 1.61477 6.88608 3.77483 6.88608 6.53102C6.88608 8.50939 8.07714 10.369 9.85008 11.1587C10.0187 11.2335 10.1196 11.4069 10.1018 11.5898C10.0852 11.7715 9.95339 11.9235 9.77527 11.965C5.66889 12.9388 2.80227 16.563 2.80227 20.781V29.6873H1.94727V20.781C1.94727 16.5131 4.62983 12.7998 8.58658 11.4223C7.0262 10.337 6.03227 8.48327 6.03227 6.53102C6.03227 3.34852 8.65308 0.759766 11.8748 0.759766C15.0965 0.759766 17.7173 3.34852 17.7173 6.53102C17.7173 7.04995 17.6508 7.5772 17.5249 8.07358C18.4678 7.82776 19.5306 7.82776 20.4746 8.07358C20.3488 7.57601 20.2811 7.04995 20.2811 6.53102C20.2811 3.34852 22.9031 0.759766 26.1248 0.759766C29.3465 0.759766 31.9685 3.34852 31.9685 6.53102C31.9685 8.48327 30.9721 10.337 29.413 11.4223C33.3697 12.7998 36.0535 16.5131 36.0535 20.781V29.6873H35.1973V20.781C35.1973 16.563 32.3306 12.9388 28.2243 11.965C28.0461 11.9223 27.9143 11.7715 27.8977 11.5898C27.8799 11.4069 27.982 11.2335 28.1495 11.1587C29.9212 10.369 31.1123 8.50939 31.1123 6.53102C31.1123 3.77483 28.9213 1.61477 26.1248 1.61477C23.3282 1.61477 21.1373 3.77483 21.1373 6.53102C21.1373 7.18058 21.2631 7.86695 21.4888 8.4417C23.4695 9.37864 24.8435 11.395 24.8435 13.7285C24.8435 15.676 23.8697 17.4738 22.2951 18.5509C26.2483 19.9296 28.9285 23.6417 28.9285 27.9072L28.9273 36.8123ZM22.4744 34.8648C22.3865 34.8648 22.2986 34.8375 22.2238 34.7828L18.9998 32.4458L15.7769 34.7828C15.6273 34.8921 15.4242 34.8921 15.2746 34.7828C15.125 34.6736 15.062 34.4812 15.1202 34.3055L16.3516 30.5221L13.1288 28.1791C12.9791 28.0699 12.9162 27.8775 12.9732 27.7018C13.0302 27.526 13.1953 27.4061 13.3793 27.4061H17.3634L18.5948 23.618C18.6506 23.441 18.8145 23.3223 18.9998 23.3223C19.185 23.3223 19.3489 23.4422 19.4059 23.618L20.6373 27.4061H24.6214C24.8066 27.4061 24.9705 27.526 25.0287 27.7018C25.0857 27.8775 25.0228 28.0711 24.8731 28.1791L21.6491 30.5221L22.8805 34.3055C22.9375 34.4812 22.8746 34.6748 22.725 34.7828C22.6501 34.8375 22.5623 34.8648 22.4744 34.8648ZM18.9998 31.4911C19.0876 31.4911 19.1755 31.5184 19.2503 31.573L21.661 33.3198L20.7406 30.4912C20.6836 30.3155 20.7466 30.1219 20.8962 30.0138L23.3068 28.2623H20.3262C20.141 28.2623 19.9771 28.1423 19.9201 27.9666L18.9998 25.1332L18.0795 27.9666C18.0225 28.1423 17.8574 28.2623 17.6733 28.2623H14.6939L17.1045 30.0138C17.2541 30.1231 17.3171 30.3155 17.2601 30.4912L16.3398 33.3198L18.7492 31.573C18.824 31.5184 18.9119 31.4911 18.9998 31.4911Z" fill="#14143C"/>
</g>
<defs>
<clipPath id="clip0_927_58663">
<rect width="38" height="38" fill="white"/>
</clipPath>
</defs>
</svg>
