<svg width="42" height="31" viewBox="0 0 42 31" fill="none" xmlns="http://www.w3.org/2000/svg">
<path d="M5.44558 21.7517L3.55908 25.5247C9.21858 29.2977 24.1848 34.5799 38.7737 25.5247L36.8872 21.7517M5.44558 21.7517H36.8872M5.44558 21.7517V19.2363H36.8872V21.7517" stroke="#14143C" stroke-width="0.8" stroke-linecap="round"/>
<path d="M5.44633 19.2362C-0.213171 15.4632 -4.9923 6.53373 21.1672 1" stroke="#14143C" stroke-width="0.8" stroke-linecap="round"/>
<path d="M36.8427 19.2362C42.5022 15.4632 47.2814 6.53373 21.1219 1" stroke="#14143C" stroke-width="0.8" stroke-linecap="round"/>
<g clip-path="url(#clip0_927_58651)">
<path d="M26.0001 13.5767L25.4425 11.0826C25.427 11.0133 25.3741 10.9584 25.3055 10.9402C25.2368 10.9221 25.1637 10.9437 25.116 10.9962L23.3985 12.8888C23.3466 12.946 23.3344 13.0288 23.3677 13.0985C23.4009 13.1682 23.473 13.2108 23.5501 13.2065L24.2023 13.1696C24.0933 13.539 23.8239 13.8854 23.4172 14.1709C23.0804 14.4073 22.6777 14.5834 22.2362 14.6917C22.0973 14.7258 21.9504 14.694 21.8379 14.6057C21.7254 14.5175 21.6598 14.3823 21.6598 14.2393V9.96817C22.1099 9.80393 22.4557 9.42143 22.5691 8.94946H23.9743C24.1911 8.94946 24.3669 8.77368 24.3669 8.55682C24.3669 8.33997 24.1911 8.16419 23.9743 8.16419H22.5376C22.3998 7.7438 22.074 7.40783 21.6598 7.25668V6.99158C21.9166 6.82825 22.0872 6.54137 22.0872 6.21447C22.0872 5.70608 21.675 5.29395 21.1667 5.29395C20.6583 5.29395 20.2462 5.70608 20.2462 6.21445C20.2462 6.54135 20.4167 6.82825 20.6735 6.99155V7.25668C20.2593 7.40783 19.9335 7.7438 19.7957 8.16419H18.359C18.1422 8.16419 17.9664 8.33997 17.9664 8.55682C17.9664 8.77368 18.1422 8.94946 18.359 8.94946H19.7642C19.8777 9.42143 20.2234 9.8039 20.6736 9.96817V14.2393C20.6736 14.3822 20.6078 14.5172 20.4954 14.6055C20.3829 14.6938 20.236 14.7258 20.0971 14.6917C19.6556 14.5834 19.253 14.4073 18.9161 14.1709C18.5094 13.8855 18.24 13.539 18.131 13.1696L18.7833 13.2065C18.8603 13.2109 18.9324 13.1682 18.9656 13.0985C18.9989 13.0288 18.9867 12.946 18.9348 12.8888L17.2173 10.9963C17.1696 10.9437 17.0965 10.9221 17.0278 10.9402C16.9592 10.9584 16.9063 11.0133 16.8908 11.0826L16.3332 13.5767C16.3164 13.652 16.3467 13.7301 16.4101 13.7742C16.4734 13.8183 16.5571 13.8198 16.622 13.7779L17.1756 13.4203C17.3413 14.0141 17.7439 14.5531 18.3495 14.9782C18.667 15.201 19.0268 15.382 19.4153 15.5171C20.0724 15.7456 20.6746 16.1209 21.1666 16.6129L21.1666 16.6129L21.1667 16.6129C21.6628 16.1168 22.2553 15.7475 22.9179 15.5171C23.3065 15.382 23.6662 15.201 23.9838 14.9781C24.5894 14.5531 24.992 14.0141 25.1576 13.4203L25.7113 13.7779C25.7761 13.8198 25.8599 13.8183 25.9232 13.7742C25.9866 13.7301 26.0169 13.652 26.0001 13.5767ZM21.1667 9.26977C20.8042 9.26977 20.5093 8.9749 20.5093 8.61242C20.5093 8.24997 20.8042 7.95508 21.1667 7.95508C21.5291 7.95508 21.824 8.24995 21.824 8.61242C21.824 8.9749 21.5291 9.26977 21.1667 9.26977Z" fill="#14143C"/>
</g>
<defs>
<clipPath id="clip0_927_58651">
<rect width="11.319" height="11.319" fill="white" transform="translate(15.5073 5.29395)"/>
</clipPath>
</defs>
</svg>
