<svg width="45" height="29" viewBox="0 0 45 29" fill="none" xmlns="http://www.w3.org/2000/svg">
<path d="M41.5645 16.2905C41.6312 16.151 41.6698 15.9948 41.6698 15.829V14.2965C41.6698 13.2443 40.8401 12.3882 39.8204 12.3882H38.6013V3.82932C38.6013 2.26919 37.3714 1 35.8595 1H9.21688C7.70505 1 6.47514 2.26929 6.47514 3.82932V12.3882H5.17859C4.15885 12.3882 3.32928 13.2443 3.32928 14.2965V15.829C3.32928 15.9948 3.36786 16.1512 3.43469 16.2907C2.03386 16.6821 1 18.0047 1 19.5724V24.1396C1 24.9778 1.66074 25.6597 2.47306 25.6597H5.52982V27.0838C5.52982 27.589 5.92816 28 6.41779 28H7.214C7.70363 28 8.10197 27.589 8.10197 27.0838V25.6597H37.9184V27.0838C37.9184 27.589 38.3168 28 38.8064 28H39.6026C40.0922 28 40.4906 27.589 40.4906 27.0838V25.6597H42.5269C43.3393 25.6597 44 24.9778 44 24.1396V19.5724C44.0003 18.0043 42.9659 16.6815 41.5645 16.2905ZM7.15769 3.82932C7.15769 2.65756 8.0814 1.70434 9.21688 1.70434H35.8596C36.9952 1.70434 37.9189 2.65766 37.9189 3.82932V12.2985H33.8762V11.3643C33.8762 10.8004 33.4317 10.3416 32.8851 10.3416H25.7667C25.2202 10.3416 24.7756 10.8004 24.7756 11.3643V12.2985H20.3011V11.3643C20.3011 10.8004 19.8565 10.3416 19.3101 10.3416H12.1916C11.645 10.3416 11.2005 10.8004 11.2005 11.3643V12.2985H7.15769V3.82932ZM33.1936 11.3643V12.2985H25.458V11.3643C25.458 11.1888 25.5964 11.0459 25.7666 11.0459H32.885C33.0551 11.0459 33.1936 11.1888 33.1936 11.3643ZM19.6185 11.3643V12.2985H11.883V11.3643C11.883 11.1888 12.0214 11.0459 12.1915 11.0459H19.31C19.4801 11.0459 19.6185 11.1888 19.6185 11.3643ZM4.01192 14.2965C4.01192 13.6326 4.53529 13.0925 5.17869 13.0925H39.8206C40.4639 13.0925 40.9874 13.6326 40.9874 14.2965V15.829C40.9874 16.0179 40.8386 16.1716 40.6554 16.1716H4.3439C4.16075 16.1716 4.01192 16.0179 4.01192 15.829V14.2965ZM7.41952 27.0837C7.41952 27.2005 7.32737 27.2956 7.21409 27.2956H6.41788C6.3046 27.2956 6.21246 27.2005 6.21246 27.0837V25.7226H7.41952V27.0837ZM39.8082 27.0837C39.8082 27.2005 39.7161 27.2956 39.6028 27.2956H38.8066C38.6933 27.2956 38.6012 27.2005 38.6012 27.0837V25.7226H39.8082V27.0837ZM43.3177 24.1395C43.3177 24.5894 42.9632 24.9553 42.5272 24.9553H2.47306C2.03709 24.9553 1.68254 24.5894 1.68254 24.1395V19.5723C1.68254 18.086 2.85425 16.8767 4.2947 16.8767H7.82895H37.1712H40.7054C42.1458 16.8767 43.3176 18.086 43.3176 19.5723L43.3177 24.1395Z" fill="#14143C" stroke="#14143C" stroke-width="0.1"/>
</svg>
