<svg width="24" height="30" viewBox="0 0 24 30" fill="none" xmlns="http://www.w3.org/2000/svg">
<path d="M17.7134 5.69046C16.1015 3.82818 14.2874 2.15097 12.3047 0.68976C12.2154 0.627268 12.109 0.59375 12 0.59375C11.891 0.59375 11.7846 0.627268 11.6953 0.68976C9.7126 2.15097 7.89853 3.82818 6.28661 5.69046C2.72589 9.78527 0.84375 14.0851 0.84375 18.125C0.84375 21.0838 2.01914 23.9214 4.11134 26.0136C6.20354 28.1058 9.04118 29.2812 12 29.2812C14.9588 29.2812 17.7965 28.1058 19.8887 26.0136C21.9809 23.9214 23.1562 21.0838 23.1562 18.125C23.1562 14.0851 21.2741 9.78527 17.7134 5.69046ZM12 28.2187C9.3239 28.2157 6.75826 27.1513 4.86597 25.259C2.97368 23.3667 1.90927 20.8011 1.90625 18.125C1.90625 13.3575 4.71548 9.12089 7.07213 6.40628C8.55598 4.70465 10.2069 3.15625 12 1.78436C13.7931 3.15625 15.444 4.70465 16.9279 6.40628C19.2845 9.12089 22.0938 13.3575 22.0938 18.125C22.0907 20.8011 21.0263 23.3667 19.134 25.259C17.2417 27.1513 14.6761 28.2157 12 28.2187V28.2187ZM18.8091 19.2842C18.5695 20.6928 17.8977 21.9921 16.8866 23.0019C15.8756 24.0117 14.5755 24.6819 13.1665 24.9197C13.1372 24.9247 13.1075 24.9271 13.0777 24.9271C12.9445 24.927 12.8163 24.8768 12.7183 24.7865C12.6204 24.6962 12.5599 24.5725 12.5489 24.4397C12.5379 24.307 12.5772 24.175 12.6589 24.0698C12.7407 23.9646 12.8589 23.894 12.9903 23.8719C14.1817 23.6708 15.281 23.1041 16.1359 22.2502C16.9908 21.3964 17.559 20.2978 17.7615 19.1066C17.7732 19.0378 17.7983 18.972 17.8354 18.9129C17.8725 18.8538 17.9208 18.8026 17.9777 18.7622C18.0346 18.7218 18.0989 18.693 18.1669 18.6775C18.2349 18.6619 18.3053 18.6599 18.3741 18.6716C18.4429 18.6832 18.5087 18.7083 18.5678 18.7454C18.6269 18.7825 18.6781 18.8309 18.7185 18.8878C18.7589 18.9447 18.7877 19.0089 18.8032 19.077C18.8188 19.145 18.8208 19.2154 18.8091 19.2842V19.2842Z" fill="#14143C"/>
</svg>
