<svg width="34" height="29" viewBox="0 0 34 29" fill="none" xmlns="http://www.w3.org/2000/svg">
<path d="M33.5641 24.3056C32.2564 24.3056 31.6636 25.3371 31.1187 26.2516C30.5738 27.166 30.1554 27.7728 29.4231 27.7728C29.1265 27.7732 28.8405 27.6634 28.621 27.4651L32.2564 14.0513C32.282 13.955 32.2734 13.8528 32.2321 13.762C32.1909 13.6713 32.1194 13.5974 32.0297 13.5529L26.5897 10.8441V3.99635C26.5897 1.71232 21.4244 0.901855 17 0.901855C12.5756 0.901855 7.41026 1.71232 7.41026 3.99635V10.8441L1.98333 13.5529C1.89129 13.5952 1.81699 13.6682 1.77323 13.7592C1.72947 13.8501 1.71899 13.9534 1.74359 14.0513L5.36154 27.4521C5.14942 27.6526 4.86955 27.767 4.57692 27.7728C3.84026 27.7728 3.44795 27.1964 2.88128 26.2516C2.31462 25.3067 1.71744 24.3056 0.435897 24.3056C0.32029 24.3056 0.209418 24.3512 0.127671 24.4325C0.0459248 24.5138 0 24.624 0 24.739C0 24.8539 0.0459248 24.9642 0.127671 25.0454C0.209418 25.1267 0.32029 25.1724 0.435897 25.1724C1.16821 25.1724 1.56487 25.7488 2.13154 26.6936C2.69821 27.6384 3.29103 28.6396 4.57692 28.6396C5.86282 28.6396 6.47744 27.6081 7.02231 26.6936C7.56718 25.7792 7.98128 25.1724 8.71795 25.1724C9.45462 25.1724 9.85128 25.7488 10.4136 26.6936C10.9759 27.6384 11.5731 28.6396 12.8546 28.6396C14.1362 28.6396 14.7551 27.6081 15.3 26.6936C15.8449 25.7792 16.259 25.1724 17 25.1724C17.741 25.1724 18.129 25.7488 18.6956 26.6936C19.2623 27.6384 19.8551 28.6396 21.1367 28.6396C22.4182 28.6396 23.0372 27.6038 23.5821 26.6936C24.1269 25.7835 24.5454 25.1724 25.2821 25.1724C26.0187 25.1724 26.411 25.7488 26.9777 26.6936C27.5444 27.6384 28.1372 28.6396 29.4231 28.6396C30.709 28.6396 31.3236 27.6081 31.8685 26.6936C32.4133 25.7792 32.8274 25.1724 33.5641 25.1724C33.6797 25.1724 33.7906 25.1267 33.8723 25.0454C33.9541 24.9642 34 24.8539 34 24.739C34 24.624 33.9541 24.5138 33.8723 24.4325C33.7906 24.3512 33.6797 24.3056 33.5641 24.3056ZM16.5641 24.3489C15.5659 24.5526 15.0297 25.4498 14.5503 26.2516C13.9836 27.1964 13.5869 27.7728 12.8546 27.7728C12.1223 27.7728 11.7256 27.1964 11.159 26.2516C10.5923 25.3067 9.99949 24.3056 8.71795 24.3056C7.43641 24.3056 6.81744 25.3371 6.27692 26.2516L6.05462 26.6113L2.69385 14.1683L16.5641 7.2382V24.3489ZM17.1831 6.14602C17.1264 6.11734 17.0636 6.10249 17 6.10268C16.9379 6.10317 16.8767 6.118 16.8213 6.14602L8.28205 10.4064V3.99635C8.28205 2.76982 12.2051 1.76866 17 1.76866C19.0806 1.73669 21.1575 1.95498 23.1854 2.41876C24.7938 2.85217 25.7179 3.41126 25.7179 3.99635V10.4064L17.1962 6.15036L17.1831 6.14602ZM27.7231 26.2516C27.1782 25.3371 26.5592 24.3056 25.2821 24.3056C24.0049 24.3056 23.3815 25.3371 22.8367 26.2516C22.2918 27.166 21.869 27.7728 21.1367 27.7728C20.4044 27.7728 20.0077 27.1964 19.441 26.2516C18.9615 25.4498 18.4297 24.557 17.4359 24.3489V7.2382L31.3062 14.1726L27.9497 26.6243L27.7231 26.2516Z" fill="#14143C"/>
</svg>
