<svg width="53" height="36" viewBox="0 0 53 36" fill="none" xmlns="http://www.w3.org/2000/svg">
<path d="M37.0775 23.5H4.50255C-2.49805 20.5 1.00213 14.5 4.00255 13.5L51.5026 12.5C42.7026 22.1 38.5022 23.5 37.0775 23.5Z" stroke="#14143C" stroke-width="0.8"/>
<path d="M3.75251 32.7525C3.61583 32.8892 3.61583 33.1108 3.75251 33.2475L5.9799 35.4749C6.11658 35.6116 6.33819 35.6116 6.47487 35.4749C6.61156 35.3382 6.61156 35.1166 6.47487 34.9799L4.49497 33L6.47487 31.0201C6.61156 30.8834 6.61156 30.6618 6.47487 30.5251C6.33819 30.3884 6.11658 30.3884 5.9799 30.5251L3.75251 32.7525ZM44.2475 33.2475C44.3842 33.1108 44.3842 32.8892 44.2475 32.7525L42.0201 30.5251C41.8834 30.3884 41.6618 30.3884 41.5251 30.5251C41.3884 30.6618 41.3884 30.8834 41.5251 31.0201L43.505 33L41.5251 34.9799C41.3884 35.1166 41.3884 35.3382 41.5251 35.4749C41.6618 35.6116 41.8834 35.6116 42.0201 35.4749L44.2475 33.2475ZM4 33.35H44V32.65H4V33.35Z" fill="#14143C"/>
<path d="M30.5 7.5H32L42.5 12.5" stroke="#14143C" stroke-width="0.8" stroke-linecap="round"/>
<line x1="6.4" y1="20.6" x2="42.6" y2="20.6" stroke="#14143C" stroke-width="0.8" stroke-linecap="round"/>
<line x1="10.4" y1="15.6" x2="17.6" y2="15.6" stroke="#14143C" stroke-width="0.8" stroke-linecap="round"/>
<line x1="25.4" y1="15.6" x2="27.6" y2="15.6" stroke="#14143C" stroke-width="0.8" stroke-linecap="round"/>
<line x1="37.4" y1="15.6" x2="38.6" y2="15.6" stroke="#14143C" stroke-width="0.8" stroke-linecap="round"/>
<line x1="41.4" y1="15.6" x2="42.6" y2="15.6" stroke="#14143C" stroke-width="0.8" stroke-linecap="round"/>
<path d="M9.5 13L10.5 9L4.5 8.5V7.5H9M9 7.5L4.5 1H8L12 4.5H16.5L19 3.5H26L31 7.5H9Z" stroke="#14143C" stroke-width="0.8"/>
</svg>
