<svg width="31" height="31" viewBox="0 0 31 31" fill="none" xmlns="http://www.w3.org/2000/svg">
<path d="M28.6037 3.39735H25.6614V1.91104C25.6614 1.65977 25.4577 1.45605 25.2065 1.45605C24.9552 1.45605 24.7515 1.65977 24.7515 1.91104V3.39735H20.8082V1.91104C20.8082 1.65977 20.6045 1.45605 20.3532 1.45605C20.102 1.45605 19.8982 1.65977 19.8982 1.91104V3.39735H15.955V1.91104C15.955 1.65977 15.7513 1.45605 15.5 1.45605C15.2487 1.45605 15.045 1.65977 15.045 1.91104V3.39735H11.1018V1.91104C11.1018 1.65977 10.898 1.45605 10.6468 1.45605C10.3955 1.45605 10.1918 1.65977 10.1918 1.91104V3.39735H6.24853V1.91104C6.24853 1.65977 6.04482 1.45605 5.79354 1.45605C5.54227 1.45605 5.33855 1.65977 5.33855 1.91104V3.39735H2.39628C1.07499 3.39735 0 4.47234 0 5.79363V27.1478C0 28.4691 1.07499 29.5441 2.39628 29.5441H28.6037C29.925 29.5441 31 28.4691 31 27.1478V5.79363C31 4.47234 29.925 3.39735 28.6037 3.39735ZM30.09 27.1478C30.09 27.9674 29.4232 28.6341 28.6037 28.6341H2.39628C1.57675 28.6341 0.90998 27.9674 0.90998 27.1478V5.79363C0.90998 4.9741 1.57675 4.30733 2.39628 4.30733H5.33855V5.79363C5.33855 6.0449 5.54227 6.24862 5.79354 6.24862C6.04482 6.24862 6.24853 6.0449 6.24853 5.79363V4.30733H10.1918V5.79363C10.1918 6.0449 10.3955 6.24862 10.6468 6.24862C10.898 6.24862 11.1018 6.0449 11.1018 5.79363V4.30733H15.045V5.79363C15.045 6.0449 15.2487 6.24862 15.5 6.24862C15.7513 6.24862 15.955 6.0449 15.955 5.79363V4.30733H19.8982V5.79363C19.8982 6.0449 20.102 6.24862 20.3532 6.24862C20.6045 6.24862 20.8082 6.0449 20.8082 5.79363V4.30733H24.7515V5.79363C24.7515 6.0449 24.9552 6.24862 25.2065 6.24862C25.4577 6.24862 25.6614 6.0449 25.6614 5.79363V4.30733H28.6037C29.4232 4.30733 30.09 4.9741 30.09 5.79363V27.1478Z" fill="#14143C"/>
<path d="M28.6038 8.25049H2.3964C2.14512 8.25049 1.94141 8.4542 1.94141 8.70548C1.94141 8.95675 2.14512 9.16047 2.3964 9.16047H28.6038C28.8551 9.16047 29.0588 8.95675 29.0588 8.70548C29.0588 8.4542 28.8551 8.25049 28.6038 8.25049Z" fill="#14143C"/>
<path d="M10 18.5L14.5 22.5L22 14" stroke="#14143C" stroke-linecap="round"/>
</svg>
