<svg width="42" height="31" viewBox="0 0 42 31" fill="none" xmlns="http://www.w3.org/2000/svg">
<path d="M5.44509 21.7517L3.55859 25.5247C9.21809 29.2977 24.1843 34.5799 38.7733 25.5247L36.8868 21.7517M5.44509 21.7517H36.8868M5.44509 21.7517V19.2363H36.8868V21.7517" stroke="#14143C" stroke-width="0.8" stroke-linecap="round"/>
<path d="M5.44633 19.2362C-0.213171 15.4632 -4.9923 6.53373 21.1672 1" stroke="#14143C" stroke-width="0.8" stroke-linecap="round"/>
<path d="M36.8427 19.2362C42.5022 15.4632 47.2814 6.53373 21.1219 1" stroke="#14143C" stroke-width="0.8" stroke-linecap="round"/>
<g clip-path="url(#clip0_982_71767)">
<path d="M26.0006 13.5767L25.4429 11.0826C25.4275 11.0133 25.3746 10.9584 25.3059 10.9402C25.2373 10.9221 25.1642 10.9437 25.1165 10.9962L23.399 12.8888C23.3471 12.946 23.3349 13.0288 23.3682 13.0985C23.4014 13.1682 23.4735 13.2108 23.5505 13.2065L24.2028 13.1696C24.0938 13.539 23.8244 13.8854 23.4177 14.1709C23.0808 14.4073 22.6782 14.5834 22.2367 14.6917C22.0978 14.7258 21.9509 14.694 21.8384 14.6057C21.7259 14.5175 21.6603 14.3823 21.6603 14.2393V9.96817C22.1104 9.80393 22.4562 9.42143 22.5696 8.94946H23.9748C24.1916 8.94946 24.3674 8.77368 24.3674 8.55682C24.3674 8.33997 24.1916 8.16419 23.9748 8.16419H22.5381C22.4003 7.7438 22.0745 7.40783 21.6603 7.25668V6.99158C21.9171 6.82825 22.0877 6.54137 22.0877 6.21447C22.0877 5.70608 21.6755 5.29395 21.1671 5.29395C20.6588 5.29395 20.2466 5.70608 20.2466 6.21445C20.2466 6.54135 20.4172 6.82825 20.674 6.99155V7.25668C20.2598 7.40783 19.934 7.7438 19.7962 8.16419H18.3595C18.1427 8.16419 17.9669 8.33997 17.9669 8.55682C17.9669 8.77368 18.1427 8.94946 18.3595 8.94946H19.7647C19.8781 9.42143 20.2239 9.8039 20.674 9.96817V14.2393C20.674 14.3822 20.6083 14.5172 20.4958 14.6055C20.3834 14.6938 20.2365 14.7258 20.0976 14.6917C19.6561 14.5834 19.2535 14.4073 18.9166 14.1709C18.5099 13.8855 18.2405 13.539 18.1315 13.1696L18.7837 13.2065C18.8608 13.2109 18.9329 13.1682 18.9661 13.0985C18.9994 13.0288 18.9872 12.946 18.9353 12.8888L17.2178 10.9963C17.17 10.9437 17.097 10.9221 17.0283 10.9402C16.9596 10.9584 16.9068 11.0133 16.8913 11.0826L16.3337 13.5767C16.3169 13.652 16.3472 13.7301 16.4105 13.7742C16.4739 13.8183 16.5576 13.8198 16.6225 13.7779L17.1761 13.4203C17.3418 14.0141 17.7444 14.5531 18.35 14.9782C18.6675 15.201 19.0273 15.382 19.4158 15.5171C20.0729 15.7456 20.6751 16.1209 21.1671 16.6129L21.1671 16.6129L21.1672 16.6129C21.6633 16.1168 22.2558 15.7475 22.9184 15.5171C23.307 15.382 23.6667 15.201 23.9843 14.9781C24.5899 14.5531 24.9924 14.0141 25.1581 13.4203L25.7118 13.7779C25.7766 13.8198 25.8604 13.8183 25.9237 13.7742C25.987 13.7301 26.0174 13.652 26.0006 13.5767ZM21.1671 9.26977C20.8047 9.26977 20.5098 8.9749 20.5098 8.61242C20.5098 8.24997 20.8047 7.95508 21.1671 7.95508C21.5296 7.95508 21.8245 8.24995 21.8245 8.61242C21.8245 8.9749 21.5296 9.26977 21.1671 9.26977Z" fill="#14143C"/>
</g>
<defs>
<clipPath id="clip0_982_71767">
<rect width="11.319" height="11.319" fill="white" transform="translate(15.5078 5.29395)"/>
</clipPath>
</defs>
</svg>
