<svg width="25" height="25" viewBox="0 0 25 25" fill="none" xmlns="http://www.w3.org/2000/svg">
<circle cx="12.5" cy="12.5" r="12.5" fill="#C19F56"/>
<g clip-path="url(#clip0_1163_98952)">
<path d="M14.8302 8.30078H10.3783C9.72188 8.30078 9.18787 8.83476 9.18787 9.49113V9.7083C9.18787 9.71079 9.18756 9.71321 9.1875 9.71567H16.0209C16.0208 9.71321 16.0205 9.71079 16.0205 9.70827V9.4911C16.0205 8.83476 15.4866 8.30078 14.8302 8.30078Z" fill="white"/>
<path d="M8.52733 9.70936V9.49219C8.52733 8.47212 9.35722 7.64221 10.3773 7.64221H14.8293C15.8494 7.64221 16.6792 8.47209 16.6792 9.49216V9.70933C16.6792 9.71185 16.6789 9.71427 16.6789 9.71673H17.7144V7.64951C17.7144 6.37595 16.6783 5.33984 15.4047 5.33984H9.80186C8.5283 5.33984 7.49219 6.37595 7.49219 7.64951V9.71673H8.52771C8.52765 9.7143 8.52733 9.71188 8.52733 9.70936Z" fill="white"/>
<path d="M18.6348 10.375H6.56833C6.03522 10.375 5.60156 10.8087 5.60156 11.3418V16.1805C5.60156 16.7136 6.03526 17.1473 6.56833 17.1473H7.00952L6.63099 18.2155C6.57013 18.3873 6.66003 18.5758 6.83171 18.6366C6.86812 18.6495 6.90531 18.6556 6.94185 18.6556C7.07762 18.6556 7.2048 18.5711 7.25272 18.4359L7.70933 17.1473H17.4939L17.9505 18.4359C17.9985 18.5712 18.1257 18.6556 18.2614 18.6556C18.298 18.6556 18.3352 18.6495 18.3716 18.6366C18.5433 18.5758 18.6331 18.3872 18.5723 18.2155L18.1937 17.1473H18.6348C19.1679 17.1473 19.6016 16.7136 19.6016 16.1805V11.3418C19.6016 10.8087 19.1678 10.375 18.6348 10.375Z" fill="white"/>
</g>
<defs>
<clipPath id="clip0_1163_98952">
<rect width="14" height="14" fill="white" transform="translate(5.60156 5)"/>
</clipPath>
</defs>
</svg>
