<svg width="25" height="25" viewBox="0 0 25 25" fill="none" xmlns="http://www.w3.org/2000/svg">
<circle cx="12.5" cy="12.5" r="12.5" fill="#C19F56"/>
<path d="M22.9613 12.2966C22.8828 12.098 22.6977 11.9685 22.4924 11.9685H16.4369L15.2962 8.37446C15.2271 8.15739 15.0332 8 14.8147 8H6.02029C5.80175 8 5.60777 8.15746 5.53873 8.37446L4.39802 11.9685H3.5076C3.32039 11.9685 3.14834 12.0764 3.06009 12.2492C2.97169 12.422 2.98144 12.6317 3.08526 12.7948L5.59796 16.7523C5.6921 16.9002 5.85054 17 6.02029 17H18.7234C18.858 17 18.9871 16.933 19.0824 16.8333L22.8514 12.8813C22.9965 12.7293 23.0399 12.4953 22.9613 12.2966ZM7.28087 11.2598C7.00053 11.2598 6.75071 11.0219 6.75071 10.7283V10.3031C6.75071 10.0096 7.00053 9.77165 7.28087 9.77165H8.07802C8.06611 9.81687 8.03667 9.8642 8.03667 9.91339V11.2598H7.28087ZM9.0519 11.2598V9.91339C9.0519 9.8642 9.0676 9.81687 9.05562 9.77165H11.8005C11.7886 9.81687 11.7592 9.8642 11.7592 9.91339V11.2598H9.0519ZM14.0604 10.7283C14.0604 11.0219 13.8556 11.2598 13.5753 11.2598H12.7744V9.91339C12.7744 9.8642 12.7901 9.81687 12.7781 9.77165H13.5753C13.8556 9.77165 14.0604 10.0096 14.0604 10.3031V10.7283Z" fill="white"/>
</svg>
