<svg width="25" height="25" viewBox="0 0 25 25" fill="none" xmlns="http://www.w3.org/2000/svg">
<circle cx="12.5" cy="12.5" r="12.5" fill="#C19F56"/>
<g clip-path="url(#clip0_1163_98951)">
<path d="M6.94815 10.9062C7.51529 11.6671 8.33764 12.1836 9.30469 12.2534C8.49409 13.1984 7.97003 14.396 7.8692 15.7103C7.83136 16.2034 7.85797 16.4435 7.89757 16.6418C7.40852 16.5658 6.95945 16.4553 6.57363 16.3132C5.27593 15.8354 5.00355 15.1292 5.00355 14.621C5.00355 13.0843 5.77372 11.7243 6.94815 10.9062Z" fill="white"/>
<path d="M10.5772 11.0706C10.2532 11.2518 9.89643 11.3474 9.52608 11.3474C8.13084 11.3474 7.05663 9.99871 7.05663 8.40416C7.05663 6.80945 8.13099 5.46094 9.52608 5.46094C10.0964 5.46094 10.6346 5.68732 11.0703 6.10467C10.4605 6.88556 10.113 7.90305 10.113 8.9867C10.113 9.70475 10.2654 10.42 10.5772 11.0706Z" fill="white"/>
<path d="M11.0846 11.8867C11.8323 12.8322 12.8424 13.3018 13.8806 13.3018C14.9836 13.3018 15.9718 12.778 16.6765 11.8867C18.0744 12.8017 19 14.3812 19 16.1731C19 16.725 18.6978 17.4941 17.2582 18.0241C16.3602 18.3548 15.1607 18.5368 13.8806 18.5368C12.6004 18.5368 11.4009 18.3548 10.5029 18.0241C9.06331 17.4941 8.76112 16.725 8.76112 16.1731C8.76112 14.3812 9.68668 12.8017 11.0846 11.8867Z" fill="white"/>
<path d="M13.8786 12.3895C12.2649 12.3895 11.0227 10.8298 11.0227 8.98578C11.0227 7.14176 12.2651 5.58203 13.8786 5.58203C15.4919 5.58203 16.7344 7.14146 16.7344 8.98578C16.7344 10.8301 15.4918 12.3895 13.8786 12.3895Z" fill="white"/>
</g>
<defs>
<clipPath id="clip0_1163_98951">
<rect width="14" height="14" fill="white" transform="matrix(-1 0 0 1 19 5)"/>
</clipPath>
</defs>
</svg>
