<svg width="25" height="25" viewBox="0 0 25 25" fill="none" xmlns="http://www.w3.org/2000/svg">
<circle cx="12.5" cy="12.5" r="12.5" fill="#C19F56"/>
<g clip-path="url(#clip0_1163_98953)">
<path d="M12.6016 6.32422C7.10104 6.32422 5.60156 10.9956 5.60156 12.2891C5.60156 12.7451 5.99156 13.1326 6.66545 13.4434C6.77321 13.3149 6.90398 13.1866 7.0622 13.0615C7.4349 12.7667 7.9337 12.5135 8.54484 12.309C9.64658 11.9404 11.0873 11.7374 12.6015 11.7374C14.1158 11.7374 15.5565 11.9404 16.6582 12.309C17.2694 12.5135 17.7682 12.7667 18.1409 13.0615C18.2991 13.1866 18.4299 13.3149 18.5376 13.4434C19.2115 13.1326 19.6015 12.7452 19.6015 12.2891C19.6016 10.9956 18.0898 6.32422 12.6016 6.32422ZM12.6016 10.9674C11.7402 10.9674 11.0419 9.68905 11.0419 8.60251C11.0419 7.51596 11.7402 7.46082 12.6016 7.46082C13.4629 7.46082 14.1612 7.51596 14.1612 8.60251C14.1612 9.68905 13.4629 10.9674 12.6016 10.9674Z" fill="white"/>
<path d="M12.6022 12.9609C9.73688 12.9609 7.41406 13.7381 7.41406 14.6968C7.41406 15.6556 9.73688 17.6733 12.6022 17.6733C15.4675 17.6733 17.7903 15.6556 17.7903 14.6968C17.7903 13.7381 15.4675 12.9609 12.6022 12.9609Z" fill="white"/>
</g>
<defs>
<clipPath id="clip0_1163_98953">
<rect width="14" height="14" fill="white" transform="translate(5.60156 5)"/>
</clipPath>
</defs>
</svg>
