<svg width="32" height="32" viewBox="0 0 32 32" fill="none" xmlns="http://www.w3.org/2000/svg">
<path d="M17.731 30.8027H14.329C13.3932 30.8027 12.6319 30.0417 12.6319 29.1062V25.7375C11.4275 25.3141 10.2933 24.658 9.32083 23.8223L6.39808 25.5092C6.14145 25.6568 5.84983 25.7345 5.55414 25.7346C4.9477 25.7346 4.3837 25.4113 4.08226 24.8908L2.37995 21.9418C1.91389 21.1334 2.1922 20.095 3.00026 19.6268L5.92158 17.942C5.80264 17.3125 5.74239 16.6707 5.74239 16.0295C5.74239 15.3883 5.80258 14.7465 5.92158 14.117L3.00095 12.4326C2.1902 11.9628 1.91201 10.9228 2.38014 10.1136L4.08201 7.16854C4.3842 6.64685 4.9482 6.3231 5.55408 6.3231C5.85051 6.3231 6.14264 6.40166 6.39889 6.55029L9.32101 8.23441C10.2945 7.39985 11.4288 6.7446 12.6319 6.32166V2.95291C12.6319 2.01741 13.3932 1.25635 14.329 1.25635H17.7311C18.667 1.25635 19.4283 2.01741 19.4283 2.95291V6.3216C20.6372 6.74616 21.7715 7.40122 22.7397 8.2341L25.6623 6.54966C25.9182 6.4016 26.2104 6.3231 26.5066 6.3231C27.1125 6.3231 27.6759 6.64716 27.9769 7.16879L29.68 10.1137C30.1473 10.9247 29.8688 11.9646 29.0595 12.4324L26.1384 14.1171C26.2565 14.7434 26.3163 15.3853 26.3163 16.0295C26.3163 16.6788 26.2567 17.3207 26.1388 17.9422L29.0592 19.6265C29.449 19.8497 29.7293 20.2139 29.8474 20.6513C29.966 21.0907 29.9067 21.549 29.6803 21.9417L27.9782 24.8903C27.6765 25.4113 27.1128 25.7346 26.5067 25.7347C26.2111 25.7347 25.9195 25.6569 25.663 25.5099L22.7396 23.8224C21.7675 24.6585 20.6333 25.3138 19.4283 25.7352V29.1062C19.4283 30.0417 18.6669 30.8027 17.731 30.8027ZM9.37264 22.889C9.47489 22.889 9.57633 22.9263 9.65551 22.9987C10.6645 23.9205 11.8825 24.625 13.1779 25.036C13.3521 25.0913 13.4704 25.253 13.4704 25.4357V29.1063C13.4704 29.5794 13.8555 29.9643 14.3289 29.9643H17.731C18.2045 29.9643 18.5896 29.5794 18.5896 29.1063V25.4329C18.5896 25.2499 18.7083 25.088 18.8828 25.0331C20.1785 24.6245 21.3963 23.9212 22.4043 22.999C22.5393 22.8756 22.7386 22.8538 22.8969 22.9452L26.0811 24.7832C26.2098 24.8569 26.3572 24.8962 26.5066 24.8962C26.8145 24.8962 27.1003 24.7332 27.2523 24.4707L28.954 21.5228C29.0681 21.3247 29.098 21.0928 29.0379 20.8702C28.9783 20.6494 28.8374 20.466 28.6413 20.3537L25.4577 18.5175C25.299 18.426 25.2181 18.242 25.2579 18.0632C25.4038 17.408 25.4778 16.7238 25.4778 16.0297C25.4778 15.3419 25.4038 14.6575 25.2578 13.9953C25.2184 13.8167 25.2993 13.6332 25.4577 13.5418L28.6403 11.7063C29.0495 11.4699 29.1903 10.9434 28.9538 10.533L27.2509 7.58841C27.0989 7.3251 26.8139 7.16179 26.5067 7.16179C26.3578 7.16179 26.2108 7.20129 26.0817 7.27597L22.8968 9.1116C22.7385 9.20285 22.5393 9.18097 22.4044 9.0576C21.4015 8.13966 20.1836 7.43629 18.8823 7.02335C18.7081 6.96804 18.5898 6.80635 18.5898 6.62366V2.95297C18.5898 2.47991 18.2046 2.09491 17.7311 2.09491H14.329C13.8556 2.09491 13.4705 2.47985 13.4705 2.95297V6.62354C13.4705 6.80622 13.3521 6.96791 13.178 7.02322C11.8838 7.43379 10.6657 8.13747 9.65508 9.05816C9.52026 9.1811 9.32139 9.2026 9.16339 9.11154L5.97914 7.27635C5.84958 7.20116 5.70295 7.16172 5.55408 7.16172C5.24633 7.16172 4.96033 7.32529 4.80783 7.5886L3.10608 10.5335C2.86926 10.9428 3.01039 11.4691 3.42064 11.7067L6.60245 13.5417C6.76089 13.6331 6.84183 13.8166 6.80245 13.9952C6.65551 14.6616 6.58108 15.346 6.58108 16.0296C6.58108 16.7132 6.65558 17.3977 6.80245 18.064C6.84183 18.2425 6.76089 18.4261 6.60251 18.5175L3.42001 20.353C3.01189 20.5893 2.87089 21.1145 3.10639 21.523L4.8082 24.4712C4.95995 24.7331 5.24589 24.8962 5.5542 24.8962C5.70345 24.8962 5.85058 24.8569 5.97964 24.7828L9.16326 22.9452C9.22845 22.9074 9.30076 22.889 9.37264 22.889Z" fill="#14143C" stroke="#14143C" stroke-width="0.2"/>
<path d="M16.0307 21.11C13.2272 21.11 10.9463 18.831 10.9463 16.0296C10.9463 13.2283 13.2272 10.9492 16.0307 10.9492C18.8334 10.9492 21.1134 13.2283 21.1134 16.0296C21.1134 18.831 18.8334 21.11 16.0307 21.11ZM16.0307 11.7877C13.6895 11.7877 11.7849 13.6905 11.7849 16.0295C11.7849 18.3685 13.6895 20.2715 16.0307 20.2715C18.371 20.2715 20.2749 18.3685 20.2749 16.0295C20.2749 13.6905 18.371 11.7877 16.0307 11.7877Z" fill="#14143C" stroke="#14143C" stroke-width="0.2"/>
</svg>
