<svg width="36" height="36" viewBox="0 0 36 36" fill="none" xmlns="http://www.w3.org/2000/svg">
<g clip-path="url(#clip0_982_71760)">
<path d="M27.4052 34.8752H26.5952V26.4377C26.5952 22.4417 23.8795 19.0082 19.9892 18.0857C19.8205 18.0452 19.6956 17.9023 19.6798 17.7302C19.663 17.557 19.7597 17.3927 19.9183 17.3218C21.625 16.5625 22.7263 14.8682 22.7263 13.0063C22.7263 10.4008 20.6068 8.28021 18.0013 8.28021C15.3958 8.28021 13.2763 10.3997 13.2763 13.0063C13.2763 14.8693 14.3788 16.5636 16.0843 17.3218C16.243 17.3927 16.3386 17.557 16.3228 17.7302C16.3071 17.9023 16.1822 18.0463 16.0135 18.0857C12.1232 19.0082 9.40634 22.4417 9.40634 26.4377V34.8752H8.59521V26.4377C8.59521 22.3967 11.1343 18.88 14.8795 17.5738C13.3877 16.5535 12.4652 14.8502 12.4652 13.0063C12.4652 10.7968 13.7668 8.88546 15.6422 7.99784C15.8548 7.45446 15.9752 6.80421 15.9752 6.18771C15.9752 3.57659 13.8996 1.53021 11.2502 1.53021C8.60084 1.53021 6.52409 3.57659 6.52409 6.18771C6.52409 8.06196 7.65247 9.82371 9.33209 10.5718C9.49184 10.6427 9.58746 10.807 9.57059 10.9802C9.55484 11.1523 9.42997 11.2963 9.26122 11.3357C5.37097 12.2582 2.65521 15.6917 2.65521 19.6877V28.1252H1.84521V19.6877C1.84521 15.6445 4.38659 12.1266 8.13509 10.8216C6.65684 9.79334 5.71521 8.03721 5.71521 6.18771C5.71521 3.17271 8.19809 0.720215 11.2502 0.720215C14.3023 0.720215 16.7852 3.17271 16.7852 6.18771C16.7852 6.67934 16.7222 7.17884 16.603 7.64909C17.4962 7.41621 18.5031 7.41621 19.3975 7.64909C19.2782 7.17771 19.2141 6.67934 19.2141 6.18771C19.2141 3.17271 21.6981 0.720215 24.7502 0.720215C27.8023 0.720215 30.2863 3.17271 30.2863 6.18771C30.2863 8.03721 29.3425 9.79334 27.8653 10.8216C31.6138 12.1266 34.1563 15.6445 34.1563 19.6877V28.1252H33.3452V19.6877C33.3452 15.6917 30.6295 12.2582 26.7392 11.3357C26.5705 11.2952 26.4456 11.1523 26.4298 10.9802C26.413 10.807 26.5097 10.6427 26.6683 10.5718C28.3468 9.82371 29.4752 8.06196 29.4752 6.18771C29.4752 3.57659 27.3996 1.53021 24.7502 1.53021C22.1008 1.53021 20.0252 3.57659 20.0252 6.18771C20.0252 6.80309 20.1445 7.45334 20.3582 7.99784C22.2347 8.88546 23.5363 10.7957 23.5363 13.0063C23.5363 14.8513 22.6138 16.5546 21.1221 17.575C24.8672 18.8811 27.4063 22.3978 27.4063 26.4388L27.4052 34.8752ZM21.292 33.0302C21.2087 33.0302 21.1255 33.0043 21.0546 32.9526L18.0002 30.7386L14.947 32.9526C14.8052 33.0561 14.6128 33.0561 14.4711 32.9526C14.3293 32.8491 14.2697 32.6668 14.3248 32.5003L15.4915 28.9161L12.4382 26.6965C12.2965 26.593 12.2368 26.4107 12.2908 26.2442C12.3448 26.0777 12.5012 25.9641 12.6756 25.9641H16.45L17.6166 22.3753C17.6695 22.2077 17.8247 22.0952 18.0002 22.0952C18.1757 22.0952 18.331 22.2088 18.385 22.3753L19.5516 25.9641H23.326C23.5015 25.9641 23.6567 26.0777 23.7118 26.2442C23.7658 26.4107 23.7062 26.5941 23.5645 26.6965L20.5101 28.9161L21.6767 32.5003C21.7307 32.6668 21.6711 32.8502 21.5293 32.9526C21.4585 33.0043 21.3752 33.0302 21.292 33.0302ZM18.0002 29.8341C18.0835 29.8341 18.1667 29.86 18.2376 29.9117L20.5213 31.5666L19.6495 28.8868C19.5955 28.7203 19.6551 28.537 19.7968 28.4346L22.0806 26.7752H19.2568C19.0813 26.7752 18.9261 26.6616 18.8721 26.4951L18.0002 23.8108L17.1283 26.4951C17.0743 26.6616 16.918 26.7752 16.7436 26.7752H13.921L16.2047 28.4346C16.3465 28.5381 16.4061 28.7203 16.3521 28.8868L15.4802 31.5666L17.7628 29.9117C17.8337 29.86 17.917 29.8341 18.0002 29.8341Z" fill="#14143C"/>
</g>
<defs>
<clipPath id="clip0_982_71760">
<rect width="36" height="36" fill="white"/>
</clipPath>
</defs>
</svg>
