<svg width="34" height="33" viewBox="0 0 34 33" fill="none" xmlns="http://www.w3.org/2000/svg">
<path d="M24.375 17.6518H25.1411V31.8794C25.1411 32.0816 24.97 32.2452 24.7586 32.2452H1.3825C1.17106 32.2452 1 32.0816 1 31.8794V1.39173C1 1.1895 1.17106 1.02588 1.3825 1.02588H24.7575C24.9689 1.02588 25.14 1.1895 25.14 1.39173V7.48925H24.375V1.75758H1.765V31.5135H24.375V17.6518ZM13.4525 26.7554V24.6914C13.8488 24.544 14.1325 24.1812 14.1325 23.7493C14.1325 23.1883 13.6565 22.7331 13.07 22.7331C12.4835 22.7331 12.0075 23.1883 12.0075 23.7493C12.0075 24.1812 12.2912 24.544 12.6875 24.6914V26.7554H13.4525ZM33.64 12.5705C33.64 13.6122 32.7528 14.4608 31.6638 14.4608H18.4112C17.6058 16.5359 15.5148 18.0176 13.07 18.0176C9.92925 18.0176 7.375 15.5736 7.375 12.5705C7.375 9.56749 9.92925 7.1234 13.07 7.1234C15.5159 7.1234 17.6069 8.6051 18.4112 10.6803H31.6638C32.7528 10.6803 33.64 11.5289 33.64 12.5705ZM18 12.5705C18 9.96993 15.7879 7.85511 13.07 7.85511C10.3521 7.85511 8.14 9.96993 8.14 12.5705C8.14 15.1711 10.3521 17.2859 13.07 17.2859C15.7879 17.2859 18 15.1711 18 12.5705ZM32.875 12.5705C32.875 11.9323 32.3321 11.412 31.6638 11.412H18.6354C18.7204 11.786 18.765 12.1732 18.765 12.5705C18.765 12.9679 18.7204 13.3551 18.6354 13.7291H31.6638C32.3321 13.7291 32.875 13.2087 32.875 12.5705Z" fill="#14143C" stroke="#14143C" stroke-width="0.2"/>
</svg>
