<svg width="36" height="35" viewBox="0 0 36 35" fill="none" xmlns="http://www.w3.org/2000/svg">
<path d="M18.2185 10.8994C14.3697 10.8994 11.2383 13.8941 11.2383 17.5755C11.2383 21.2568 14.3697 24.2519 18.2185 24.2519C22.0675 24.2519 25.1986 21.2568 25.1986 17.5755C25.1986 13.8941 22.0675 10.8994 18.2185 10.8994ZM17.7786 11.7624V15.3435C16.8208 15.5159 16.0651 16.2387 15.8848 17.1546H12.1405C12.3571 14.2736 14.766 11.9695 17.7786 11.7624ZM17.7786 23.3889C14.766 23.1818 12.357 20.8777 12.1405 17.9963H15.8848C16.065 18.9125 16.8208 19.6354 17.7786 19.8078V23.3889V23.3889ZM16.7223 17.5755C16.7223 16.7864 17.3934 16.1445 18.2185 16.1445C19.0437 16.1445 19.7148 16.7864 19.7148 17.5755C19.7148 18.3649 19.0437 19.0068 18.2185 19.0068C17.3934 19.0068 16.7223 18.3649 16.7223 17.5755ZM18.6585 23.3889V19.8078C19.6163 19.6354 20.3721 18.9125 20.5523 17.9963H24.2964C24.0798 20.8777 21.6709 23.1818 18.6585 23.3889ZM20.5523 17.1546C20.372 16.2387 19.6163 15.5159 18.6585 15.3435V11.7624C21.6709 11.9695 24.0798 14.2736 24.2964 17.1546H20.5523Z" fill="#14143C"/>
<path d="M33.5998 15.3037C33.5995 15.3037 33.5989 15.3037 33.5985 15.3037L30.2517 15.4866C29.9348 13.8133 29.2462 12.263 28.2686 10.9172L30.792 8.76371C31.2392 8.33592 31.4856 7.76549 31.4856 7.15689C31.4856 6.54825 31.2392 5.97743 30.792 5.54959C29.8652 4.66319 28.3577 4.66398 27.4142 5.56688L25.1799 7.96301C23.773 7.02804 22.1524 6.36949 20.4031 6.06649L20.595 2.84097C20.595 1.58796 19.529 0.568359 18.2188 0.568359C16.9085 0.568359 15.8425 1.58796 15.8432 2.86481L16.0344 6.06649C14.2851 6.36949 12.6644 7.02814 11.2575 7.96319L9.006 5.54959C8.07965 4.66359 6.57219 4.66319 5.6454 5.54959C5.19813 5.97743 4.95172 6.54825 4.95172 7.15689C4.95172 7.76549 5.19813 8.33592 5.66367 8.78015L8.16886 10.9174C7.19129 12.2632 6.50269 13.8133 6.18592 15.4866L2.81373 15.3029C1.50348 15.3029 0.4375 16.3225 0.4375 17.5755C0.4375 18.8285 1.50261 19.8477 2.83757 19.8477C2.83779 19.8477 2.83844 19.8477 2.83887 19.8477L6.18601 19.6648C6.50283 21.338 7.19137 22.888 8.16891 24.2337L5.6454 26.3873C5.19813 26.8151 4.95172 27.386 4.95172 27.9946C4.95172 28.6032 5.19813 29.1736 5.6454 29.6014C6.09269 30.0293 6.68948 30.2651 7.32581 30.2651C7.96214 30.2651 8.55872 30.0293 9.02318 29.5842L11.2577 27.188C12.6646 28.1229 14.2852 28.7816 16.0345 29.0846L15.8425 32.3101C15.8425 33.5635 16.9085 34.5831 18.2188 34.5831C19.529 34.5831 20.595 33.5635 20.5944 32.2862L20.4032 29.0846C22.1524 28.7816 23.7729 28.123 25.1797 27.1881L27.4314 29.6014C27.8786 30.0293 28.4754 30.2651 29.1118 30.2651C29.7481 30.2651 30.3447 30.0293 30.792 29.6014C31.2392 29.1736 31.4856 28.6032 31.4856 27.9946C31.4856 27.386 31.2392 26.8151 30.7737 26.3709L28.2686 24.2338C29.2462 22.8881 29.9347 21.338 30.2516 19.6648L33.6236 19.8485C34.9339 19.8485 35.9999 18.829 35.9999 17.5755C35.9999 16.3229 34.9347 15.3037 33.5998 15.3037ZM2.81373 19.0069C1.98855 19.0069 1.31743 18.365 1.31743 17.5755C1.31743 16.7865 1.98855 16.1446 2.78859 16.1437L6.05787 16.3223C6.01176 16.7342 5.98678 17.1521 5.98678 17.5755C5.98678 17.9991 6.0118 18.4171 6.05792 18.8292L2.81373 19.0069ZM28.0535 6.1447C28.637 5.5866 29.5863 5.5866 30.1698 6.1447C30.4508 6.41347 30.6057 6.77304 30.6057 7.15689C30.6057 7.54072 30.4508 7.89989 30.1881 8.15222L27.7393 10.2413C27.1893 9.58954 26.5682 8.99541 25.8868 8.46942L28.0535 6.1447ZM18.2188 1.41001C19.0439 1.41001 19.7151 2.05195 19.7157 2.81714L19.529 5.94393C19.0984 5.89985 18.6615 5.87588 18.2188 5.87588C17.7761 5.87588 17.3392 5.89985 16.9085 5.94393L16.7225 2.84097C16.7225 2.05195 17.3936 1.41001 18.2188 1.41001ZM6.26756 8.16866C5.98655 7.89989 5.83167 7.54072 5.83167 7.15689C5.83167 6.77304 5.98655 6.41347 6.26756 6.1447C6.85125 5.58698 7.80058 5.58619 8.36667 6.12742L10.5506 8.46958C9.86919 8.99562 9.24812 9.58966 8.69817 10.2415L6.26756 8.16866ZM8.38384 29.0064C7.82098 29.5439 6.82956 29.5435 6.26756 29.0064C5.98655 28.7376 5.83167 28.3784 5.83167 27.9946C5.83167 27.6107 5.98655 27.2512 6.2493 26.9988L8.69822 24.9096C9.24816 25.5614 9.8693 26.1555 10.5508 26.6816L8.38384 29.0064ZM18.2188 33.7414C17.3936 33.7414 16.7225 33.0995 16.7219 32.3339L16.9086 29.2071C17.3392 29.2512 17.7761 29.2751 18.2188 29.2751C18.6615 29.2751 19.0984 29.2512 19.5291 29.2071L19.7151 32.3101C19.7151 33.0995 19.0439 33.7414 18.2188 33.7414ZM30.1698 26.9824C30.4508 27.2512 30.6057 27.6107 30.6057 27.9946C30.6057 28.3784 30.4508 28.7376 30.1698 29.0064C29.8886 29.2751 29.5128 29.4235 29.1118 29.4235C28.7104 29.4235 28.3347 29.2751 28.0707 29.0236L25.8866 26.6817C26.5682 26.1556 27.1893 25.5615 27.7393 24.9097L30.1698 26.9824ZM18.2188 28.4335C11.9593 28.4335 6.86672 23.5628 6.86672 17.5755C6.86672 11.5882 11.9593 6.71754 18.2188 6.71754C24.4783 6.71754 29.5709 11.5882 29.5709 17.5755C29.5709 23.5628 24.4783 28.4335 18.2188 28.4335ZM33.6488 19.0077L30.3797 18.8292C30.4258 18.4171 30.4508 17.9991 30.4508 17.5755C30.4508 17.1521 30.4258 16.7342 30.3797 16.3223L33.6236 16.1446C34.4488 16.1446 35.1199 16.7865 35.1199 17.5755C35.1199 18.365 34.4488 19.0069 33.6488 19.0077Z" fill="#14143C"/>
</svg>
