<svg width="36" height="35" viewBox="0 0 36 35" fill="none" xmlns="http://www.w3.org/2000/svg">
<path d="M20.9833 18.8806L20.9915 18.865L21.3089 18.2578L21.7904 18.7453C22.3824 19.3448 22.9709 20.0405 23.5575 20.74C23.598 20.7883 23.6385 20.8367 23.6791 20.885C24.2298 21.5421 24.7812 22.2 25.352 22.8091C26.5901 24.1306 27.8377 25.1299 29.1991 25.3701L29.1991 25.3701C30.616 25.6203 32.2395 24.8467 33.5166 23.4312C34.7841 22.0262 35.6084 20.0928 35.4884 18.2351L35.4908 18.2344L35.4897 18.2345C35.3283 15.4342 33.2193 13.1237 30.414 12.5446L30.3847 12.5392C29.9016 12.4746 29.3392 12.4377 28.7657 12.4377C25.8041 12.4377 23.0891 13.4281 20.9601 15.0783L20.9833 18.8806ZM20.9833 18.8806C20.8443 19.1334 20.6686 19.368 20.4664 19.5751L20.8023 19.9031M20.9833 18.8806L20.8023 19.9031M20.8023 19.9031L20.4232 20.2247C22.1464 22.2586 23.1768 24.8456 23.1768 27.6616C23.1768 28.2068 23.1385 28.7411 23.0716 29.1997L23.0664 29.2255C22.4679 31.8764 20.0654 33.9151 17.0978 34.0716L17.0946 34.0718C15.1298 34.1879 13.0966 33.3902 11.6271 32.177C10.14 30.9493 9.35324 29.41 9.60754 28.0889L9.60756 28.0888C9.85444 26.8051 10.8893 25.6173 12.276 24.4287C12.912 23.8837 13.5988 23.357 14.2845 22.8311C14.3364 22.7913 14.3882 22.7516 14.44 22.7118C15.1713 22.1507 15.8985 21.5877 16.5251 21.0213L17.0782 20.5211L16.4055 20.1993L16.3897 20.1918C16.1202 20.0549 15.8732 19.8864 15.6575 19.6936L15.3452 20.0431L15.0421 19.6525C12.9113 21.3032 10.196 22.2952 7.23428 22.2952C6.65841 22.2952 6.09517 22.258 5.61076 22.1929L5.58293 22.1884C2.77937 21.6073 0.674495 19.2982 0.51181 16.4996L0.511601 16.4963C0.391566 14.6394 1.21586 12.7067 2.48341 11.3021C3.76044 9.88699 5.38395 9.11328 6.80095 9.36278C8.16224 9.60295 9.40948 10.6022 10.6474 11.9237C11.2172 12.5319 11.7677 13.1887 12.3176 13.8447C12.3591 13.8941 12.4005 13.9435 12.4419 13.9929C13.0286 14.6924 13.6173 15.3882 14.2098 15.9877L14.6912 16.4749L15.0085 15.8679L15.0162 15.8532C15.1577 15.5984 15.3324 15.3637 15.5336 15.1578L15.1977 14.8298L15.5768 14.5082C13.8537 12.4744 12.8247 9.88749 12.8247 7.07132C12.8247 6.5261 12.863 5.99174 12.9299 5.53324L12.9351 5.50735C13.5335 2.85667 15.936 0.819163 18.904 0.661299L18.9069 0.661123C20.8709 0.544958 22.9041 1.34264 24.3737 2.55591C25.8608 3.78364 26.6474 5.32277 26.3925 6.64374L26.3924 6.64401C26.1456 7.92713 25.1111 9.11495 23.7247 10.3035C23.0878 10.8495 22.3998 11.3771 21.713 11.9038C21.6624 11.9426 21.6118 11.9814 21.5612 12.0202C20.8301 12.5813 20.103 13.144 19.4766 13.7101L18.923 14.2102L19.5961 14.5321L19.6127 14.5401C19.8802 14.6747 20.1272 14.844 20.344 15.0378L20.6564 14.6883L20.9595 15.0788C20.9597 15.0787 20.9599 15.0785 20.96 15.0784L20.8023 19.9031ZM15.8157 17.3664C15.8157 18.5542 16.8166 19.4804 18.003 19.4804C19.1894 19.4804 20.1903 18.5542 20.1903 17.3664C20.1903 16.1787 19.1894 15.2524 18.003 15.2524C16.8166 15.2524 15.8157 16.1787 15.8157 17.3664Z" stroke="#14143C"/>
</svg>
