<svg width="24" height="38" viewBox="0 0 24 38" fill="none" xmlns="http://www.w3.org/2000/svg">
<path d="M22.0511 14.5965H21.2261L19.4511 4.83209C19.2196 3.55775 18.1116 2.63284 16.8167 2.63284H14.2056V0.522945C14.2056 0.234086 13.9716 0 13.6827 0H10.3185C10.0297 0 9.79557 0.234086 9.79557 0.522945V2.63276H7.18456C5.88959 2.63276 4.78165 3.55775 4.55009 4.83201L2.775 14.5965H1.94998C1.05357 14.5965 0.324219 15.3254 0.324219 16.2213V16.4826C0.324219 17.2667 0.882047 17.9229 1.62164 18.0752C1.81409 21.6873 3.84508 24.9103 7.02988 26.6426L5.95134 37.4249C5.93664 37.5718 5.98473 37.7183 6.08389 37.8278C6.18305 37.9374 6.32391 37.9999 6.47168 37.9999H17.5285C17.6763 37.9999 17.8171 37.9374 17.9162 37.8278C18.0154 37.7183 18.0635 37.5718 18.0488 37.4249L16.9703 26.6429C17.833 26.1731 18.6242 25.5843 19.3253 24.8877C21.1692 23.0569 22.2429 20.6534 22.3796 18.0749C23.1186 17.9225 23.6757 17.2664 23.6757 16.4826V16.2212C23.676 15.3255 22.947 14.5965 22.0511 14.5965ZM10.8414 1.04596H13.1596V2.63284H10.8414V1.04596ZM5.57905 5.01904C5.72014 4.24242 6.39531 3.67865 7.18441 3.67865H16.8167C17.6058 3.67865 18.2809 4.24242 18.422 5.01912L20.1529 14.5409H3.8482L5.57905 5.01904ZM7.04948 36.954L8.03295 27.1225C9.28829 27.6431 10.6193 27.9076 12.0006 27.9076C13.3821 27.9076 14.713 27.6431 15.9673 27.1226L16.9507 36.954H7.04948V36.954ZM18.5885 24.1457C17.8798 24.8496 17.0699 25.432 16.1805 25.8767C14.8771 26.5302 13.4708 26.8616 12.0005 26.8616C10.5403 26.8616 9.14259 26.5346 7.84547 25.8896C7.83694 25.8846 7.82811 25.88 7.81913 25.8755C4.81557 24.3723 2.87965 21.4288 2.67116 18.1086H21.3298C21.187 20.3933 20.2254 22.5205 18.5885 24.1457ZM22.63 16.4827C22.63 16.8025 22.3703 17.0626 22.0511 17.0626H1.94998C1.63025 17.0626 1.37018 16.8024 1.37018 16.4827V16.2214C1.37018 15.9022 1.63039 15.6425 1.94998 15.6425H22.0511C22.3703 15.6425 22.63 15.9022 22.63 16.2214V16.4827V16.4827Z" fill="#14143C"/>
</svg>
