<svg width="70" height="70" viewBox="0 0 70 70" fill="none" xmlns="http://www.w3.org/2000/svg">
<circle cx="35" cy="35" r="35" fill="#98A1A7"/>
<path d="M45.9413 13H24.0593C23.5973 13 23.2227 13.3746 23.2227 13.8366V54.1634C23.2227 54.6254 23.5973 55 24.0593 55H45.9413C46.4033 55 46.7779 54.6254 46.7779 54.1634V13.8366C46.7779 13.3746 46.4033 13 45.9413 13ZM38.4395 53.3267H35.8369V50.7679C35.8369 50.3058 35.4623 49.9313 35.0003 49.9313C34.5383 49.9313 34.1637 50.3058 34.1637 50.7679V53.3267H31.5611V46.3227H38.4395V53.3267ZM45.1047 53.3267H45.1047H40.1127V45.486C40.1127 45.0239 39.7381 44.6494 39.2761 44.6494H30.7245C30.2625 44.6494 29.8879 45.0239 29.8879 45.486V53.3267H24.8959V14.6733H45.1047V53.3267Z" fill="white"/>
<path d="M32.9449 16.5625H27.7468C27.2848 16.5625 26.9102 16.9371 26.9102 17.3991V22.5972C26.9102 23.0593 27.2848 23.4338 27.7468 23.4338H32.9449C33.4069 23.4338 33.7815 23.0593 33.7815 22.5972V17.3992C33.7815 16.9371 33.4069 16.5625 32.9449 16.5625ZM32.1082 21.7606H28.5835V18.2359H32.1082V21.7606Z" fill="white"/>
<path d="M42.2535 16.5625H37.0554C36.5934 16.5625 36.2188 16.9371 36.2188 17.3991V22.5972C36.2188 23.0593 36.5933 23.4338 37.0554 23.4338H42.2535C42.7155 23.4338 43.0901 23.0593 43.0901 22.5972V17.3992C43.0901 16.9371 42.7155 16.5625 42.2535 16.5625ZM41.4168 21.7606H37.8921V18.2359H41.4168V21.7606Z" fill="white"/>
<path d="M32.9449 25.7891H27.7468C27.2848 25.7891 26.9102 26.1636 26.9102 26.6257V31.8238C26.9102 32.2859 27.2848 32.6604 27.7468 32.6604H32.9449C33.4069 32.6604 33.7815 32.2859 33.7815 31.8238V26.6257C33.7815 26.1636 33.4069 25.7891 32.9449 25.7891ZM32.1082 30.9871H28.5835V27.4624H32.1082V30.9871Z" fill="white"/>
<path d="M42.2535 25.7891H37.0554C36.5934 25.7891 36.2188 26.1636 36.2188 26.6257V31.8238C36.2188 32.2859 36.5933 32.6604 37.0554 32.6604H42.2535C42.7155 32.6604 43.0901 32.2859 43.0901 31.8238V26.6257C43.0901 26.1636 42.7155 25.7891 42.2535 25.7891ZM41.4168 30.9871H37.8921V27.4624H41.4168V30.9871Z" fill="white"/>
<path d="M32.9449 35.0078H27.7468C27.2848 35.0078 26.9102 35.3824 26.9102 35.8444V41.0425C26.9102 41.5046 27.2848 41.8792 27.7468 41.8792H32.9449C33.4069 41.8792 33.7815 41.5046 33.7815 41.0425V35.8444C33.7815 35.3824 33.4069 35.0078 32.9449 35.0078ZM32.1082 40.2059H28.5835V36.6812H32.1082V40.2059Z" fill="white"/>
<path d="M42.2535 35.0078H37.0554C36.5934 35.0078 36.2188 35.3824 36.2188 35.8444V41.0425C36.2188 41.5046 36.5933 41.8792 37.0554 41.8792H42.2535C42.7155 41.8792 43.0901 41.5046 43.0901 41.0425V35.8444C43.0901 35.3824 42.7155 35.0078 42.2535 35.0078ZM41.4168 40.2059H37.8921V36.6812H41.4168V40.2059Z" fill="white"/>
<path d="M35.0007 47.3359C34.5387 47.3359 34.1641 47.7105 34.1641 48.1726V48.2564C34.1641 48.7185 34.5387 49.093 35.0007 49.093C35.4627 49.093 35.8373 48.7185 35.8373 48.2564V48.1726C35.8373 47.7106 35.4627 47.3359 35.0007 47.3359Z" fill="white"/>
</svg>
