<svg width="70" height="70" viewBox="0 0 70 70" fill="none" xmlns="http://www.w3.org/2000/svg">
<circle cx="35" cy="35" r="35" fill="#98A1A7"/>
<g clip-path="url(#clip0_909_119971)">
<path d="M52.5179 36.5778H39.3186C41.5305 33.0939 43.6818 28.7902 43.6818 25.2282C43.6818 19.8899 39.3389 15.5469 34.0006 15.5469C28.6623 15.5469 24.3193 19.8899 24.3193 25.2282C24.3193 28.7902 26.4706 33.0938 28.6825 36.5778H15.4832C15.0589 36.5778 14.7148 36.9218 14.7148 37.3461V47.9715C14.7148 48.3959 15.0589 48.7399 15.4832 48.7399H52.5179C52.9422 48.7399 53.2863 48.3959 53.2863 47.9715V37.3461C53.2863 36.9218 52.9422 36.5778 52.5179 36.5778ZM25.856 25.2282C25.856 20.7372 29.5096 17.0836 34.0006 17.0836C38.4915 17.0836 42.1452 20.7371 42.1452 25.2282C42.1452 30.8194 35.9523 38.9032 34.0004 41.312C32.048 38.9037 25.856 30.8235 25.856 25.2282ZM26.4707 47.2031H16.2515V38.1145H26.4706V47.2031H26.4707ZM51.7496 47.2031H28.0074V38.1145H29.6951C31.5737 40.867 33.2602 42.8347 33.4191 43.0185C33.565 43.1874 33.7773 43.2845 34.0005 43.2845C34.2237 43.2845 34.436 43.1874 34.5819 43.0185C34.7408 42.8346 36.4272 40.8669 38.3059 38.1145H39.9937V42.4393C39.9937 42.8637 40.3378 43.2076 40.7621 43.2076C41.1864 43.2076 41.5304 42.8637 41.5304 42.4393V38.1144H51.7495V47.2031H51.7496Z" fill="white" stroke="white" stroke-width="0.2"/>
<path d="M40.7605 44.1328C40.3362 44.1328 39.9922 44.4768 39.9922 44.9012V45.2854C39.9922 45.7097 40.3362 46.0537 40.7605 46.0537C41.1848 46.0537 41.5289 45.7097 41.5289 45.2854V44.9012C41.5289 44.4768 41.1848 44.1328 40.7605 44.1328Z" fill="white"/>
<path d="M33.9997 19.4688C30.7798 19.4688 28.1602 22.0883 28.1602 25.3083C28.1602 28.5282 30.7798 31.1478 33.9997 31.1478C37.2195 31.1478 39.8392 28.5282 39.8392 25.3083C39.8392 22.0883 37.2195 19.4688 33.9997 19.4688ZM33.9997 29.6111C31.6271 29.6111 29.6968 27.6808 29.6968 25.3083C29.6968 22.9357 31.627 21.0054 33.9997 21.0054C36.3723 21.0054 38.3025 22.9357 38.3025 25.3083C38.3025 27.6808 36.3723 29.6111 33.9997 29.6111Z" fill="white"/>
</g>
<defs>
<clipPath id="clip0_909_119971">
<rect width="38.5714" height="38.5714" fill="white" transform="translate(14.7148 12.8594)"/>
</clipPath>
</defs>
</svg>
