<svg width="70" height="70" viewBox="0 0 70 70" fill="none" xmlns="http://www.w3.org/2000/svg">
<circle cx="35" cy="35" r="35" fill="#98A1A7"/>
<g clip-path="url(#clip0_909_119999)">
<path d="M53.4896 31.9552L51.2013 31.9142C51.1961 31.9142 51.1909 31.9141 51.1857 31.9141C50.7212 31.9141 50.3406 32.2864 50.3322 32.7527C50.3237 33.2243 50.6991 33.6133 51.1706 33.6219L53.4589 33.6629C53.4641 33.6629 53.4693 33.663 53.4745 33.663C53.939 33.663 54.3196 33.2907 54.328 32.8244C54.3365 32.3528 53.9611 31.9638 53.4896 31.9552Z" fill="white"/>
<path d="M60.6051 31.9089C60.6108 31.8988 60.6161 31.8887 60.6213 31.8783L60.623 31.8749C60.7628 31.9144 60.9004 31.9549 61.0339 31.9966C61.1189 32.0233 61.2048 32.0359 61.2893 32.0359C61.6526 32.0359 61.9896 31.8021 62.104 31.4371C62.2449 30.987 61.9943 30.5078 61.5443 30.3669C61.1731 30.2507 60.7789 30.1419 60.3728 30.0437C60.3725 30.0436 60.3721 30.0435 60.3718 30.0434C56.9124 29.2017 52.2989 29.0017 47.2225 29.1975L40.9124 24.0568C40.7856 23.9536 40.6318 23.8889 40.4693 23.8704C31.0611 22.8012 17.1621 27.7286 16.5752 27.9389C16.573 27.9397 16.5711 27.9407 16.569 27.9414C16.567 27.9422 16.5649 27.9425 16.5629 27.9433L14.7411 28.6277C14.2997 28.7936 14.0762 29.2859 14.242 29.7274C14.3707 30.07 14.6959 30.2813 15.0416 30.2813C15.1413 30.2813 15.2429 30.2636 15.3417 30.2266L16.1916 29.9074L16.7354 33.1684C13.4691 33.8006 11.4088 34.2571 11.3835 34.2626C11.1515 34.3141 10.9515 34.4601 10.8316 34.6653C10.7116 34.8705 10.6826 35.1164 10.7515 35.3438L12.3723 40.6926C12.2375 40.7231 12.0894 40.7402 11.9198 40.7402C11.4482 40.7402 11.0658 41.1225 11.0658 41.5942C11.0658 42.0659 11.4481 42.4482 11.9198 42.4482C13.3831 42.4482 14.1406 41.7148 14.7491 41.1255C15.2725 40.6186 15.6182 40.2838 16.3903 40.2838C17.1622 40.2838 17.508 40.6187 18.0315 41.1255C18.6401 41.7148 19.3974 42.4482 20.8607 42.4482C22.324 42.4482 23.0812 41.7148 23.6897 41.1255C24.213 40.6186 24.5588 40.2838 25.3305 40.2838C25.8021 40.2838 26.1845 39.9015 26.1845 39.4298C26.1845 38.9581 25.8022 38.5758 25.3305 38.5758C23.8673 38.5758 23.11 39.3091 22.5014 39.8985C21.9781 40.4054 21.6324 40.7402 20.8606 40.7402C20.0888 40.7402 19.7429 40.4053 19.2195 39.8985C18.6108 39.3091 17.8535 38.5758 16.3902 38.5758C15.1386 38.5758 14.4041 39.1123 13.8367 39.6363L12.6548 35.7357C13.9079 35.4698 16.3895 34.9574 19.6004 34.3651C20.0642 34.2796 20.3708 33.8341 20.2853 33.3703C20.1998 32.9065 19.754 32.5998 19.2906 32.6855C18.9918 32.7406 18.6994 32.795 18.4135 32.8486L17.8244 29.3157C19.0659 28.8992 21.9049 27.9889 25.342 27.1594C26.6219 26.8506 27.8616 26.5827 29.0562 26.3556C29.4229 27.1565 30.089 28.7694 30.5686 30.831C27.6781 31.2443 24.8645 31.6992 22.2411 32.1562C21.7764 32.2372 21.4653 32.6795 21.5463 33.1441C21.6272 33.6088 22.069 33.9193 22.5342 33.8389C44.0599 30.0892 54.3172 30.621 58.8844 31.4721C58.1833 32.651 55.9184 36.2481 53.039 38.68C52.7735 38.615 52.4798 38.5759 52.1482 38.5759C50.685 38.5759 49.9277 39.3092 49.3192 39.8987C48.7958 40.4054 48.4502 40.7403 47.6785 40.7403C46.9069 40.7403 46.5613 40.4054 46.0378 39.8987C45.4293 39.3093 44.6721 38.5759 43.2089 38.5759C41.7458 38.5759 40.9886 39.3093 40.3801 39.8987C39.8568 40.4054 39.5111 40.7403 38.7397 40.7403C37.9681 40.7403 37.6224 40.4054 37.099 39.8987C36.4904 39.3093 35.7331 38.5759 34.27 38.5759C32.8069 38.5759 32.0496 39.3092 31.4411 39.8987C30.9177 40.4054 30.572 40.7403 29.8004 40.7403C29.0967 40.7403 28.7395 40.4521 28.3117 40.0452C27.97 39.7202 27.4295 39.7334 27.1044 40.0751C26.7794 40.4168 26.7926 40.9574 27.1343 41.2824C27.7271 41.8465 28.4709 42.4482 29.8004 42.4482C31.2636 42.4482 32.0207 41.7148 32.6294 41.1255C33.1527 40.6186 33.4984 40.2838 34.2701 40.2838C35.0419 40.2838 35.3876 40.6187 35.9109 41.1255C36.5194 41.7148 37.2767 42.4482 38.7399 42.4482C40.203 42.4482 40.9601 41.7148 41.5686 41.1254C42.0919 40.6187 42.4375 40.2838 43.2091 40.2838C43.9807 40.2838 44.3263 40.6187 44.8498 41.1254C45.4583 41.7147 46.2155 42.4482 47.6787 42.4482C49.1419 42.4482 49.8992 41.7148 50.5077 41.1254C51.0311 40.6187 51.3768 40.2838 52.1484 40.2838C52.9201 40.2838 53.2659 40.6187 53.7893 41.1255C54.3979 41.7148 55.1551 42.4482 56.6183 42.4482C58.0815 42.4482 58.8386 41.7148 59.4471 41.1254C59.9705 40.6187 60.3162 40.2838 61.0877 40.2838C61.5594 40.2838 61.9417 39.9015 61.9417 39.4298C61.9417 38.9581 61.5595 38.5758 61.0877 38.5758C59.6245 38.5758 58.8674 39.3091 58.2589 39.8986C57.7355 40.4053 57.3898 40.7402 56.6183 40.7402C55.8466 40.7402 55.501 40.4053 54.9776 39.8986C54.8658 39.7903 54.7488 39.6771 54.6235 39.5645C58.0733 36.4498 60.4957 32.107 60.6051 31.9089ZM32.2665 30.5941C31.8204 28.6174 31.2146 27.0249 30.7917 26.0498C34.3965 25.4657 37.5305 25.2899 40.0299 25.5409L44.6754 29.3255C40.6417 29.5732 36.3988 30.0337 32.2665 30.5941Z" fill="white"/>
</g>
<defs>
<clipPath id="clip0_909_119999">
<rect width="51.4286" height="51.4286" fill="white" transform="translate(10.7148 10)"/>
</clipPath>
</defs>
</svg>
