<svg width="14" height="22" viewBox="0 0 14 22" fill="none" xmlns="http://www.w3.org/2000/svg">
<path d="M11.0162 3.93246H13.1689V0.00239201H9.25691C8.93057 -0.0111865 4.95253 -0.0872258 3.92147 3.84465C3.90653 3.88584 3.57703 4.82095 3.57703 7.00527L0 7.01614V11.1381L3.58155 11.1277V22H9.05233V11.1372H12.6733V7.00437H9.05233V5.704C9.05233 4.89563 9.39315 3.93246 11.0162 3.93246ZM11.768 7.90915V10.2315H8.14709V21.0943H4.48679V10.2198L0.905233 10.2302V7.91865L4.49629 7.90824L4.48679 7.44793C4.43971 5.13416 4.76967 4.16103 4.78461 4.11441C5.67445 0.727936 9.07224 0.89812 9.21799 0.907172L12.2636 0.908077V3.02768H11.0162C8.90115 3.02768 8.14755 4.40997 8.14755 5.70355V7.90915H11.768Z" fill="#C19F56"/>
</svg>
