<svg width="31" height="31" viewBox="0 0 31 31" fill="none" xmlns="http://www.w3.org/2000/svg">
<path d="M1.08651 30.0613L3.39255 23.1304L3.46464 22.9138L3.34811 22.7174C2.07436 20.5709 1.34112 18.0664 1.34112 15.3871C1.34112 7.44911 7.76373 1.01562 15.6843 1.01562C23.6048 1.01562 30.0274 7.44911 30.0274 15.3871C30.0274 23.3251 23.6048 29.7586 15.6843 29.7586C13.2739 29.7586 11.0049 29.1602 9.01164 28.1085L8.83928 28.0175L8.65085 28.0672L1.08651 30.0613Z" stroke="#14143C"/>
<path d="M25.1466 20.337C24.4612 19.0392 21.9337 17.5552 21.9337 17.5552C21.3618 17.2286 20.6718 17.192 20.3457 17.7744C20.3457 17.7744 19.5244 18.7611 19.3156 18.903C18.3614 19.5506 17.4776 19.5256 16.5855 18.6317L14.5121 16.5544L12.4387 14.4771C11.5466 13.5832 11.5216 12.6977 12.1679 11.7418C12.3096 11.5325 13.2944 10.7096 13.2944 10.7096C13.8757 10.3825 13.8392 9.6916 13.5132 9.11866C13.5132 9.11866 12.032 6.58634 10.7367 5.89964C10.1857 5.60743 9.50918 5.7097 9.06857 6.15115L8.15298 7.06849C5.24841 9.9786 6.67856 13.2639 9.58313 16.174L12.2377 18.8336L14.8923 21.4933C17.7969 24.4034 21.0759 25.8363 23.9805 22.9262L24.8961 22.0088C25.3367 21.5663 25.4382 20.8885 25.1466 20.337Z" stroke="#14143C"/>
</svg>
