<svg width="24" height="24" viewBox="0 0 24 24" fill="none" xmlns="http://www.w3.org/2000/svg">
<g clip-path="url(#clip0_907_9135)">
<path d="M0 24L2.064 17.8084C1.01669 16.0469 0.413793 13.9912 0.413793 11.7931C0.413793 5.28 5.69379 0 12.2069 0C18.72 0 24 5.28 24 11.7931C24 18.3062 18.72 23.5862 12.2069 23.5862C10.2252 23.5862 8.35903 23.095 6.72 22.2319L0 24Z" fill="#2CB742"/>
<path d="M19.7311 15.7186C19.1866 14.6895 17.1784 13.5126 17.1784 13.5126C16.7241 13.2536 16.1758 13.2246 15.9168 13.6864C15.9168 13.6864 15.2642 14.4689 15.0983 14.5815C14.3402 15.095 13.638 15.0751 12.9292 14.3663L11.2819 12.719L9.63459 11.0717C8.92576 10.3628 8.9059 9.66062 9.41941 8.90255C9.53197 8.73662 10.3144 8.08407 10.3144 8.08407C10.7762 7.82462 10.7473 7.27676 10.4882 6.82242C10.4882 6.82242 9.31141 4.81428 8.28231 4.26973C7.84452 4.038 7.307 4.11911 6.95693 4.46918L6.22948 5.19662C3.92176 7.50435 5.05804 10.1096 7.36576 12.4173L9.47486 14.5264L11.584 16.6355C13.8917 18.9432 16.4969 20.0795 18.8047 17.7718L19.5321 17.0443C19.8822 16.6935 19.9629 16.1559 19.7311 15.7186Z" fill="white"/>
</g>
<defs>
<clipPath id="clip0_907_9135">
<rect width="24" height="24" fill="white"/>
</clipPath>
</defs>
</svg>
