<svg width="120" height="120" viewBox="0 0 120 120" fill="none" xmlns="http://www.w3.org/2000/svg">
<circle cx="60" cy="60" r="60" fill="#C19F56"/>
<path d="M66.0849 36.1303C66.0849 32.7759 63.3559 30.0469 60.0015 30.0469C56.647 30.0469 53.918 32.7759 53.918 36.1303C53.918 39.4847 56.647 42.2137 60.0015 42.2137C63.3559 42.2138 66.0849 39.4847 66.0849 36.1303ZM56.2697 36.1303C56.2697 34.0726 57.9437 32.3986 60.0015 32.3986C62.0592 32.3986 63.7332 34.0726 63.7332 36.1303C63.7332 38.1879 62.0592 39.8619 60.0015 39.8619C57.9439 39.8621 56.2697 38.1879 56.2697 36.1303Z" fill="white"/>
<path d="M86.9357 64.9723L85.8155 52.3709C85.7736 51.9002 85.4541 51.5003 85.0041 51.3556C84.5543 51.211 84.0616 51.3496 83.7532 51.7077L75.0721 61.7888C74.7523 62.1602 74.6965 62.691 74.9317 63.1209C75.167 63.5508 75.6439 63.7892 76.1293 63.7203L78.2497 63.4173L78.1236 63.8545C77.1575 67.2039 75.1742 70.0821 72.3883 72.1782C69.9175 74.037 67.0308 75.1187 63.9776 75.3396V59.1277C66.8227 58.9977 69.6638 58.7315 72.4911 58.3221C73.0694 58.2384 73.4985 57.7427 73.4985 57.1583V52.6995C73.4985 52.1152 73.0694 51.6194 72.4911 51.5357C69.6638 51.1264 66.8227 50.8603 63.9776 50.7302V46.6596C68.2279 45.0491 71.2584 40.9377 71.2584 36.13C71.2585 29.9229 66.2086 24.873 60.0015 24.873C53.7944 24.873 48.7445 29.9229 48.7445 36.13C48.7445 40.9377 51.775 45.0491 56.0253 46.6596V50.7302C53.1801 50.8601 50.339 51.1264 47.5117 51.5357C46.9335 51.6194 46.5044 52.1152 46.5044 52.6995V57.1583C46.5044 57.7427 46.9335 58.2384 47.5117 58.3221C50.339 58.7315 53.1801 58.9976 56.0253 59.1277V75.3394C52.9721 75.1185 50.0853 74.0368 47.6146 72.178C44.8285 70.082 42.8453 67.2037 41.8792 63.8543L41.7532 63.4173L43.8735 63.7203C44.3577 63.7897 44.8359 63.5508 45.0712 63.1209C45.3065 62.691 45.2506 62.1602 44.9307 61.7888L36.2497 51.7077C35.9415 51.3496 35.4489 51.2109 34.9987 51.3556C34.5487 51.5003 34.2292 51.9002 34.1874 52.3709L33.0671 64.9723C33.0234 65.4651 33.2926 65.9325 33.7407 66.1418C34.1885 66.3511 34.7201 66.2577 35.0699 65.9079L35.7911 65.1867C38.226 74.9424 44.4362 83.4171 53.076 88.6685L59.3907 92.5064C59.5782 92.6204 59.7899 92.6775 60.0014 92.6775C60.213 92.6775 60.4245 92.6204 60.6122 92.5064L66.9267 88.6685C71.5432 85.863 75.4453 82.1884 78.5244 77.7467C81.1861 73.9055 83.0945 69.6894 84.2127 65.1878L84.9327 65.9077C85.2823 66.2575 85.8136 66.3509 86.2619 66.1416C86.7103 65.9325 86.9795 65.465 86.9357 64.9723ZM51.0963 36.13C51.0963 31.2197 55.0912 27.2248 60.0015 27.2248C64.9119 27.2248 68.9067 31.2197 68.9067 36.13C68.9067 41.0404 64.9119 45.0353 60.0015 45.0353C55.0912 45.0354 51.0963 41.0405 51.0963 36.13ZM58.3771 47.2684C58.9078 47.3453 59.4498 47.3872 60.0015 47.3872C60.5532 47.3872 61.0952 47.3455 61.626 47.2684V50.6516C60.543 50.6314 59.46 50.6314 58.3771 50.6516V47.2684ZM48.856 53.7237C56.257 52.7425 63.7458 52.7425 71.1469 53.7237V56.1342C63.7458 57.1155 56.257 57.1155 48.856 56.1342V53.7237ZM83.1776 61.7125C82.7612 61.8407 82.4498 62.1889 82.3688 62.6171C81.4244 67.5982 79.4806 72.2377 76.5917 76.4071C73.7014 80.5762 70.0389 84.0253 65.7053 86.6588L60.0015 90.1255L54.2975 86.6588C45.6025 81.3739 39.529 72.611 37.6341 62.6171C37.5529 62.1889 37.2417 61.8407 36.8253 61.7125C36.43 61.5903 36.0021 61.6855 35.6963 61.9585L36.2836 55.3509L41.1039 60.9488L40.2855 60.8318C39.8909 60.7761 39.4939 60.9232 39.2321 61.2241C38.9702 61.5251 38.8788 61.9384 38.9895 62.3217L39.6196 64.5059C40.7283 68.3493 43.0038 71.652 46.2007 74.0571C49.3975 76.4622 53.2013 77.7334 57.2012 77.7334C57.8506 77.7334 58.3771 77.2069 58.3771 76.5575V59.2061C58.9184 59.2161 59.46 59.2218 60.0015 59.2218C60.543 59.2218 61.0846 59.2163 61.626 59.2061V76.5575C61.626 77.2069 62.1524 77.7334 62.8018 77.7334C66.8017 77.7334 70.6055 76.4622 73.8023 74.0571C76.9992 71.652 79.2749 68.3493 80.3834 64.5061L81.0135 62.3219C81.1242 61.9385 81.0328 61.5251 80.771 61.2242C80.509 60.9232 80.1118 60.7761 79.7175 60.832L78.8991 60.9489L83.7195 55.3511L84.3068 61.9586C84.0007 61.6857 83.5725 61.5903 83.1776 61.7125Z" fill="white" stroke="white" stroke-width="0.4"/>
</svg>
