<svg width="120" height="120" viewBox="0 0 120 120" fill="none" xmlns="http://www.w3.org/2000/svg">
<circle cx="60" cy="60" r="60" fill="#C19F56"/>
<g clip-path="url(#clip0_844_53888)">
<path d="M91.6981 54.7757L87.7754 54.7053C87.7664 54.7053 87.7575 54.7051 87.7485 54.7051C86.9523 54.7051 86.2999 55.3434 86.2854 56.1427C86.2709 56.9512 86.9144 57.6181 87.7227 57.6327L91.6454 57.7031C91.6544 57.7031 91.6634 57.7033 91.6723 57.7033C92.4685 57.7033 93.121 57.065 93.1354 56.2657C93.1499 55.4572 92.5064 54.7903 91.6981 54.7757Z" fill="white"/>
<path d="M103.893 54.7005C103.903 54.6831 103.912 54.6657 103.921 54.648L103.924 54.6421C104.164 54.7098 104.4 54.7792 104.628 54.8508C104.774 54.8965 104.921 54.9182 105.066 54.9182C105.689 54.9182 106.267 54.5173 106.463 53.8915C106.704 53.1199 106.275 52.2986 105.503 52.057C104.867 51.8577 104.191 51.6713 103.495 51.5029C103.495 51.5027 103.494 51.5025 103.493 51.5023C97.563 50.0595 89.6541 49.7167 80.9518 50.0523L70.1344 41.2398C69.9171 41.0627 69.6534 40.9518 69.3748 40.9202C53.2465 39.0872 29.4196 47.5341 28.4135 47.8947C28.4097 47.8961 28.4065 47.8978 28.4028 47.899C28.3994 47.9004 28.3958 47.9009 28.3925 47.9023L25.2694 49.0754C24.5126 49.3599 24.1295 50.2038 24.4138 50.9606C24.6344 51.548 25.1919 51.9103 25.7845 51.9103C25.9554 51.9103 26.1295 51.88 26.299 51.8164L27.7559 51.2692L28.6882 56.8596C23.0888 57.9433 19.5569 58.7259 19.5135 58.7353C19.1157 58.8237 18.7729 59.0739 18.5673 59.4257C18.3617 59.7775 18.3119 60.199 18.4301 60.5888L21.2086 69.7582C20.9775 69.8105 20.7235 69.8398 20.4328 69.8398C19.6244 69.8398 18.9689 70.4952 18.9689 71.3038C18.9689 72.1124 19.6242 72.7678 20.4328 72.7678C22.9414 72.7678 24.2399 71.5106 25.283 70.5003C26.1803 69.6313 26.773 69.0573 28.0965 69.0573C29.4198 69.0573 30.0127 69.6314 30.91 70.5003C31.9533 71.5106 33.2516 72.7678 35.7602 72.7678C38.2685 72.7678 39.5667 71.5106 40.6098 70.5003C41.507 69.6313 42.0997 69.0573 43.4226 69.0573C44.2311 69.0573 44.8866 68.402 44.8866 67.5933C44.8866 66.7847 44.2312 66.1294 43.4226 66.1294C40.9143 66.1294 39.6161 67.3865 38.5728 68.3968C37.6757 69.2659 37.083 69.8398 35.76 69.8398C34.4369 69.8398 33.8438 69.2657 32.9465 68.3968C31.9032 67.3865 30.6049 66.1294 28.0963 66.1294C25.9508 66.1294 24.6915 67.049 23.719 67.9474L21.6928 61.2606C23.8411 60.8048 28.0951 59.9264 33.5996 58.911C34.3947 58.7644 34.9202 58.0008 34.7737 57.2057C34.6271 56.4106 33.8629 55.8848 33.0684 56.0317C32.5563 56.1263 32.0551 56.2194 31.5648 56.3114L30.5549 50.255C32.6832 49.5409 37.5501 47.9805 43.4423 46.5585C45.6363 46.029 47.7616 45.5697 49.8095 45.1804C50.4381 46.5535 51.58 49.3184 52.4022 52.8525C47.4471 53.5611 42.6238 54.341 38.1265 55.1244C37.3299 55.2632 36.7966 56.0214 36.9354 56.818C37.074 57.6145 37.8315 58.1468 38.6289 58.009C75.5301 51.5809 93.1142 52.4926 100.944 53.9516C99.7417 55.9727 95.8589 62.1391 90.9228 66.3081C90.4677 66.1965 89.9642 66.1295 89.3958 66.1295C86.8875 66.1295 85.5893 67.3867 84.5461 68.3971C83.6488 69.2659 83.0563 69.84 81.7335 69.84C80.4107 69.84 79.8182 69.2659 78.9209 68.3971C77.8778 67.3869 76.5796 66.1295 74.0712 66.1295C71.5631 66.1295 70.2651 67.3869 69.2219 68.3971C68.3248 69.2659 67.7323 69.84 66.4098 69.84C65.087 69.84 64.4945 69.2659 63.5972 68.3971C62.5539 67.3869 61.2557 66.1295 58.7475 66.1295C56.2394 66.1295 54.941 67.3867 53.8979 68.3971C53.0007 69.2659 52.408 69.84 51.0853 69.84C49.8789 69.84 49.2665 69.3459 48.5332 68.6484C47.9475 68.0912 47.021 68.1139 46.4636 68.6997C45.9063 69.2853 45.9291 70.2121 46.5149 70.7693C47.531 71.7363 48.8061 72.7678 51.0853 72.7678C53.5936 72.7678 54.8916 71.5106 55.9349 70.5003C56.8321 69.6313 57.4247 69.0573 58.7477 69.0573C60.0707 69.0573 60.6634 69.6314 61.5605 70.5003C62.6036 71.5106 63.9018 72.7678 66.4102 72.7678C68.9183 72.7678 70.2162 71.5106 71.2593 70.5002C72.1564 69.6314 72.749 69.0573 74.0716 69.0573C75.3944 69.0573 75.9869 69.6314 76.8842 70.5002C77.9274 71.5104 79.2255 72.7678 81.7339 72.7678C84.2422 72.7678 85.5404 71.5106 86.5835 70.5002C87.4808 69.6314 88.0734 69.0573 89.3962 69.0573C90.7191 69.0573 91.3118 69.6314 92.2091 70.5003C93.2524 71.5106 94.5504 72.7678 97.0588 72.7678C99.5671 72.7678 100.865 71.5106 101.908 70.5002C102.805 69.6314 103.398 69.0573 104.721 69.0573C105.529 69.0573 106.185 68.402 106.185 67.5933C106.185 66.7847 105.53 66.1294 104.721 66.1294C102.212 66.1294 100.914 67.3865 99.8712 68.397C98.9741 69.2657 98.3814 69.8398 97.0588 69.8398C95.736 69.8398 95.1435 69.2657 94.2462 68.397C94.0545 68.2114 93.8539 68.0173 93.6392 67.8243C99.5532 62.4849 103.706 55.0401 103.893 54.7005ZM55.313 52.4465C54.5481 49.0579 53.5096 46.3279 52.7846 44.6563C58.9643 43.6549 64.337 43.3536 68.6217 43.7839L76.5853 50.2717C69.6703 50.6963 62.3968 51.4858 55.313 52.4465Z" fill="white"/>
</g>
<defs>
<clipPath id="clip0_844_53888">
<rect width="88.1633" height="88.1633" fill="white" transform="translate(18.3672 17.1426)"/>
</clipPath>
</defs>
</svg>
