<svg width="120" height="120" viewBox="0 0 120 120" fill="none" xmlns="http://www.w3.org/2000/svg">
<circle cx="60" cy="60" r="60" fill="#C19F56"/>
<g clip-path="url(#clip0_844_53902)">
<path d="M91.7428 62.7034H69.1154C72.9072 56.7309 76.5952 49.3533 76.5952 43.2469C76.5952 34.0955 69.1501 26.6504 59.9987 26.6504C50.8474 26.6504 43.4022 34.0955 43.4022 43.2469C43.4022 49.3533 47.0903 56.7308 50.8821 62.7034H28.2547C27.5273 62.7034 26.9375 63.2931 26.9375 64.0206V82.2355C26.9375 82.963 27.5273 83.5526 28.2547 83.5526H91.7428C92.4701 83.5526 93.06 82.963 93.06 82.2355V64.0206C93.06 63.2931 92.4701 62.7034 91.7428 62.7034ZM46.0366 43.2469C46.0366 35.5481 52.3 29.2847 59.9987 29.2847C67.6975 29.2847 73.9609 35.548 73.9609 43.2469C73.9609 52.8319 63.3446 66.6899 59.9985 70.8192C56.6515 66.6906 46.0366 52.8389 46.0366 43.2469ZM47.0904 80.9182H29.5718V65.3377H47.0903V80.9182H47.0904ZM90.4256 80.9182H49.7247V65.3377H52.6179C55.8384 70.0563 58.7296 73.4294 59.0019 73.7446C59.252 74.0342 59.6159 74.2006 59.9986 74.2006C60.3813 74.2006 60.7452 74.0341 60.9953 73.7446C61.2677 73.4293 64.1588 70.0562 67.3793 65.3377H70.2728V72.7517C70.2728 73.4792 70.8626 74.0688 71.5899 74.0688C72.3173 74.0688 72.9071 73.4792 72.9071 72.7517V65.3376H90.4255V80.9182H90.4256Z" fill="white" stroke="white" stroke-width="0.2"/>
<path d="M71.5906 75.6504C70.8632 75.6504 70.2734 76.2401 70.2734 76.9675V77.6262C70.2734 78.3537 70.8632 78.9433 71.5906 78.9433C72.3179 78.9433 72.9077 78.3537 72.9077 77.6262V76.9675C72.9077 76.2401 72.3179 75.6504 71.5906 75.6504Z" fill="white"/>
<path d="M59.9989 33.3691C54.4791 33.3691 49.9883 37.8598 49.9883 43.3797C49.9883 48.8997 54.4791 53.3903 59.9989 53.3903C65.5187 53.3903 70.0094 48.8997 70.0094 43.3797C70.0094 37.8598 65.5187 33.3691 59.9989 33.3691ZM59.9989 50.756C55.9316 50.756 52.6226 47.447 52.6226 43.3797C52.6226 39.3124 55.9314 36.0034 59.9989 36.0034C64.0663 36.0034 67.3751 39.3124 67.3751 43.3797C67.3751 47.447 64.0662 50.756 59.9989 50.756Z" fill="white"/>
</g>
<defs>
<clipPath id="clip0_844_53902">
<rect width="66.1225" height="66.1225" fill="white" transform="translate(26.9375 22.041)"/>
</clipPath>
</defs>
</svg>
