<svg width="120" height="120" viewBox="0 0 120 120" fill="none" xmlns="http://www.w3.org/2000/svg">
<circle cx="60" cy="60" r="60" fill="#C19F56"/>
<g clip-path="url(#clip0_844_53915)">
<path d="M88.1623 70.3891C88.1623 67.0932 87.1753 63.9106 85.3078 61.1855C83.9645 59.2254 82.2347 57.5977 80.2301 56.3881C82.5902 54.1531 84.0669 50.9941 84.0669 47.4947C84.0669 40.7377 78.5694 35.2402 71.8125 35.2402C67.8058 35.2402 64.0526 37.2218 61.7728 40.4747C61.1935 40.3903 60.6016 40.3448 59.9991 40.3448C59.3967 40.3448 58.805 40.3905 58.2256 40.4747C55.9457 37.2218 52.1924 35.2402 48.1859 35.2402C41.4288 35.2402 35.9314 40.7377 35.9314 47.4947C35.9314 50.9941 37.4081 54.1531 39.7683 56.3881C37.7636 57.5975 36.0338 59.2254 34.6907 61.1853C32.8231 63.9106 31.8359 67.0932 31.8359 70.3891V77.2053H43.6493V82.3097H76.3492V77.2053H88.1625V70.3891H88.1623ZM71.8125 38.2648C76.9019 38.2648 81.0425 42.4053 81.0425 47.4949C81.0425 52.5845 76.9019 56.725 71.8125 56.725C71.7213 56.725 71.6301 56.7236 71.5388 56.7209C71.5458 56.7015 71.5515 56.6817 71.5583 56.6624C71.7159 56.2157 71.8473 55.7569 71.9527 55.2883C71.9601 55.255 71.9686 55.222 71.9757 55.1886C72.0031 55.0622 72.0271 54.9346 72.0505 54.8066C72.0616 54.7461 72.0729 54.6858 72.083 54.6252C72.1021 54.511 72.1193 54.3964 72.1352 54.2813C72.1463 54.2013 72.1562 54.1213 72.1658 54.0411C72.1777 53.9395 72.1894 53.8378 72.1989 53.7354C72.2086 53.6309 72.2158 53.5262 72.2228 53.4215C72.2282 53.3389 72.235 53.2566 72.2388 53.1736C72.2471 52.9956 72.2518 52.8173 72.2524 52.6389C72.2524 52.6257 72.2535 52.6129 72.2535 52.5996C72.2535 52.5925 72.2529 52.5854 72.2529 52.5783C72.2526 52.396 72.2473 52.2149 72.2391 52.0343C72.2367 51.9818 72.2335 51.9295 72.2305 51.8772C72.2216 51.7237 72.2099 51.571 72.1955 51.419C72.1922 51.3845 72.1895 51.3501 72.186 51.3157C71.729 46.8988 68.9386 43.1181 64.9131 41.3694C66.6478 39.4207 69.1568 38.2648 71.8125 38.2648ZM56.8055 43.9388C56.835 43.9281 56.8648 43.9179 56.8943 43.9074C56.9861 43.8745 57.0786 43.8434 57.1716 43.8133C57.2421 43.7908 57.313 43.769 57.3844 43.7481C57.4363 43.7328 57.4883 43.7182 57.5405 43.7037C57.6336 43.6781 57.7272 43.6532 57.8217 43.6303C58.5204 43.4607 59.2489 43.3686 59.9988 43.3686C60.7493 43.3692 61.4782 43.4614 62.177 43.6311C62.2709 43.6538 62.3639 43.6786 62.4566 43.704C62.5095 43.7186 62.5624 43.7335 62.6149 43.749C62.6854 43.7697 62.7555 43.7912 62.8253 43.8134C62.9195 43.8438 63.0131 43.8753 63.1059 43.9086C63.1345 43.9187 63.1631 43.9284 63.1915 43.9388C66.2784 45.0804 68.5928 47.8276 69.1166 51.1615C69.1207 51.1881 69.1246 51.2149 69.1285 51.2416C69.1453 51.3546 69.1594 51.4685 69.1719 51.5826C69.1765 51.6247 69.1813 51.6666 69.1854 51.7087C69.1954 51.8129 69.2028 51.9179 69.2094 52.0231C69.2122 52.0682 69.2159 52.1131 69.218 52.1583C69.2244 52.2928 69.2279 52.4279 69.2283 52.5639C69.2283 52.5757 69.2291 52.5872 69.2291 52.599C69.2291 52.6044 69.2288 52.61 69.2288 52.6155C69.2285 52.747 69.2246 52.8777 69.2188 53.0079C69.217 53.0489 69.2152 53.0898 69.2128 53.1307C69.2056 53.2565 69.1963 53.3817 69.1842 53.506C69.1795 53.5541 69.1731 53.602 69.1677 53.6499C69.1585 53.7304 69.1482 53.8107 69.137 53.8905C69.1282 53.9527 69.1195 54.015 69.1095 54.0768C69.0942 54.171 69.0773 54.2647 69.0591 54.358C69.0429 54.441 69.0252 54.5237 69.0068 54.6063C68.9958 54.656 68.9843 54.7058 68.9723 54.7552C68.9428 54.8778 68.9105 54.9997 68.876 55.1212C68.8622 55.1694 68.8494 55.2179 68.8349 55.2657C68.8138 55.3353 68.7912 55.4042 68.7686 55.4732C68.7505 55.5284 68.7319 55.5833 68.7127 55.638C68.6909 55.7002 68.6694 55.7625 68.6464 55.8242C68.6073 55.929 68.5661 56.0329 68.5233 56.1358C68.5043 56.1818 68.484 56.2273 68.4642 56.2731C68.4269 56.3589 68.3885 56.4442 68.3485 56.5286C68.3438 56.5385 68.3392 56.5485 68.3345 56.5585C68.3201 56.5884 68.3059 56.6185 68.2912 56.6485C68.2465 56.7398 68.1999 56.8301 68.1521 56.9196C68.1335 56.9544 68.1155 56.9896 68.0965 57.0242C68.0952 57.0265 68.094 57.0286 68.0928 57.0308C68.0405 57.126 67.9859 57.2198 67.9304 57.3129C67.9083 57.3498 67.8866 57.3869 67.864 57.4233C67.8035 57.5215 67.7414 57.6185 67.6774 57.7141C67.6377 57.7735 67.5961 57.8318 67.5549 57.8903C67.52 57.9399 67.4852 57.9896 67.4494 58.0385C67.403 58.1017 67.3556 58.1641 67.3075 58.2263C67.2749 58.2685 67.2419 58.3104 67.2086 58.3521C67.1578 58.4156 67.1066 58.4788 67.0543 58.541C67.0217 58.5795 66.9883 58.6173 66.9552 58.6553C66.9008 58.7178 66.8465 58.7804 66.7905 58.8413C66.7573 58.8774 66.7228 58.9122 66.6889 58.9479C66.5979 59.0439 66.5047 59.1378 66.4098 59.2299C66.3534 59.2845 66.2972 59.3393 66.2395 59.3923C66.1996 59.4291 66.1586 59.4648 66.1179 59.5009C66.0517 59.5597 65.985 59.618 65.9171 59.6748C65.8826 59.7037 65.8478 59.7323 65.8129 59.7607C65.7308 59.8275 65.6476 59.893 65.5631 59.9571C65.5401 59.9745 65.5174 59.9922 65.4943 60.0095C63.9579 61.1516 62.0562 61.8286 59.999 61.8286C57.9416 61.8286 56.0396 61.1515 54.5032 60.009C54.4805 59.9921 54.4583 59.9747 54.4358 59.9576C54.3509 59.8933 54.2673 59.8274 54.1849 59.7603C54.1503 59.732 54.1156 59.7037 54.0815 59.675C54.0133 59.6178 53.9464 59.5593 53.8799 59.5003C53.8395 59.4643 53.7987 59.4289 53.7589 59.3923C53.701 59.3391 53.6448 59.2842 53.5882 59.2296C53.4928 59.1372 53.3995 59.043 53.3081 58.9467C53.2747 58.9115 53.2405 58.8771 53.2077 58.8414C53.1516 58.7804 53.0973 58.7176 53.0429 58.6551C53.0098 58.6172 52.9765 58.5795 52.944 58.541C52.8915 58.4788 52.8404 58.4156 52.7896 58.3523C52.7563 58.3105 52.7232 58.2686 52.6906 58.2263C52.6426 58.1643 52.5953 58.1018 52.5489 58.0386C52.513 57.9896 52.4781 57.9397 52.4432 57.89C52.402 57.8316 52.3606 57.7735 52.321 57.7143C52.2567 57.6182 52.1943 57.5209 52.1336 57.4224C52.1114 57.3863 52.0899 57.3498 52.0681 57.3134C52.0117 57.2189 51.9565 57.1239 51.9035 57.0273C51.884 56.9917 51.8655 56.9556 51.8463 56.9199C51.7985 56.8301 51.7518 56.7395 51.7069 56.648C51.6908 56.6155 51.6753 56.5827 51.6597 56.55C51.6573 56.545 51.655 56.54 51.6527 56.5351C51.6109 56.4467 51.5708 56.3575 51.5316 56.2675C51.513 56.2248 51.4941 56.1821 51.4763 56.1392C51.4324 56.0339 51.3905 55.9278 51.3505 55.8207C51.3288 55.7629 51.3089 55.7046 51.2885 55.6463C51.2674 55.5866 51.2472 55.5264 51.2274 55.4661C51.206 55.4008 51.1846 55.3354 51.1646 55.2698C51.1348 55.1717 51.1067 55.0729 51.0802 54.9736C51.0616 54.9039 51.0448 54.8335 51.0278 54.7634C51.0144 54.7082 51.0016 54.653 50.9893 54.5975C50.9742 54.5294 50.959 54.4615 50.9453 54.3932C50.9243 54.2867 50.9051 54.1797 50.8879 54.072C50.8785 54.0139 50.8703 53.9557 50.862 53.8976C50.8498 53.8116 50.8387 53.7251 50.8289 53.6383C50.8241 53.5955 50.8185 53.5527 50.8141 53.5099C50.8015 53.3824 50.792 53.2541 50.7847 53.1252C50.7826 53.0882 50.781 53.0511 50.7793 53.0141C50.7731 52.8763 50.7687 52.7381 50.7687 52.599C50.7687 52.4499 50.773 52.3018 50.7801 52.1544C50.782 52.1143 50.7853 52.0745 50.7876 52.0346C50.7943 51.9239 50.8023 51.8135 50.8129 51.7038C50.8165 51.6655 50.8209 51.6274 50.825 51.5893C50.838 51.4704 50.8526 51.3522 50.8702 51.2347C50.8735 51.2118 50.8768 51.1889 50.8805 51.166C51.4026 47.8301 53.7175 45.0811 56.8055 43.9388ZM38.9558 47.4949C38.9558 42.4054 43.0963 38.2648 48.1859 38.2648C50.8418 38.2648 53.3506 39.4208 55.0853 41.3691C51.0585 43.1184 48.2674 46.9009 47.8118 51.3197C47.8086 51.3496 47.8063 51.3797 47.8035 51.4098C47.7883 51.5672 47.7764 51.7252 47.7673 51.8842C47.7646 51.9326 47.7616 51.9808 47.7593 52.0293C47.7507 52.2185 47.7448 52.4083 47.7448 52.5994C47.7448 52.7924 47.7504 52.9849 47.7595 53.1772C47.7631 53.2547 47.7694 53.3313 47.7744 53.4083C47.7818 53.519 47.7894 53.6297 47.7997 53.7401C47.8088 53.8382 47.8199 53.9357 47.8314 54.0333C47.8414 54.1183 47.852 54.203 47.8638 54.2876C47.8792 54.3988 47.8959 54.5095 47.9142 54.6197C47.9252 54.6852 47.9373 54.7505 47.9492 54.8158C47.9719 54.9392 47.9951 55.0623 48.0214 55.1844C48.0301 55.2246 48.0401 55.2645 48.0492 55.3046C48.1519 55.7587 48.2793 56.2033 48.4312 56.6368C48.4408 56.6648 48.4493 56.6931 48.4591 56.7209C48.368 56.7236 48.2766 56.725 48.1856 56.725C43.0963 56.7248 38.9558 52.5843 38.9558 47.4949ZM46.1848 66.7755C46.1515 66.8279 46.1198 66.8813 46.0871 66.9341C46.018 67.0457 45.9495 67.1576 45.8833 67.2705C45.8462 67.3336 45.8105 67.3971 45.7746 67.4606C45.715 67.5654 45.6562 67.6705 45.599 67.7765C45.563 67.8432 45.5276 67.9102 45.4925 67.9772C45.4375 68.0826 45.3838 68.1886 45.3312 68.2949C45.2981 68.3617 45.2651 68.4284 45.233 68.4956C45.1795 68.6076 45.1279 68.7206 45.077 68.8337C45.0493 68.8952 45.0209 68.9563 44.9941 69.0182C44.9351 69.1537 44.8789 69.2902 44.8237 69.4272C44.8075 69.4673 44.7903 69.5069 44.7745 69.547C44.7045 69.725 44.6375 69.9042 44.574 70.0843C44.5595 70.1256 44.5465 70.1673 44.5321 70.2086C44.4844 70.3474 44.4378 70.4867 44.3938 70.6266C44.3737 70.6908 44.3551 70.7554 44.3357 70.8198C44.3002 70.9384 44.2652 71.0571 44.2324 71.1765C44.2129 71.2476 44.1943 71.3188 44.1757 71.3902C44.1458 71.5048 44.117 71.6198 44.0898 71.7351C44.0724 71.8082 44.0555 71.8812 44.0393 71.9544C44.0133 72.0713 43.989 72.1886 43.9655 72.3061C43.9515 72.3768 43.9369 72.4474 43.9238 72.5183C43.9 72.6462 43.8787 72.7748 43.858 72.9035C43.8483 72.9639 43.8376 73.0241 43.8285 73.0846C43.8004 73.2736 43.7748 73.4631 43.7534 73.6535C43.7531 73.6558 43.7529 73.658 43.7528 73.6603C43.7332 73.8335 43.7165 74.0069 43.7024 74.181H34.8603V70.3891C34.8603 65.2087 37.8384 60.5579 42.5041 58.3474C44.2038 59.2408 46.136 59.7494 48.1857 59.7494C48.7785 59.7494 49.3731 59.7055 49.9632 59.6187C50.0551 59.7498 50.1486 59.8796 50.2453 60.0069C50.278 60.0497 50.3119 60.0914 50.3452 60.1338C50.4407 60.256 50.5377 60.3768 50.6378 60.4952C50.6787 60.5437 50.7208 60.5912 50.7625 60.6391C50.8563 60.7468 50.9515 60.8531 51.0489 60.9573C51.1 61.0122 51.1521 61.0662 51.2041 61.1202C51.2931 61.212 51.3834 61.3024 51.4752 61.3915C51.5097 61.4249 51.5422 61.4603 51.577 61.4934C51.4456 61.5728 51.3154 61.6541 51.1864 61.7371C51.1654 61.7506 51.1448 61.7648 51.1239 61.7784C50.9949 61.8622 50.8673 61.9478 50.7409 62.035C50.6972 62.0653 50.6536 62.0958 50.6101 62.1264C50.4974 62.2058 50.386 62.2865 50.2754 62.3686C50.2405 62.3946 50.2051 62.42 50.1705 62.4464C50.0299 62.5527 49.8909 62.6609 49.7537 62.7716C49.7238 62.7958 49.6945 62.8208 49.6645 62.8453C49.5553 62.9346 49.4472 63.0255 49.3405 63.1178C49.299 63.1535 49.2579 63.1895 49.2168 63.2256C49.1098 63.3198 49.0043 63.4154 48.8998 63.5123C48.8726 63.5376 48.8448 63.5624 48.8177 63.5879C48.6895 63.7086 48.5632 63.8315 48.4387 63.9566C48.4064 63.9891 48.3748 64.0222 48.3427 64.0549C48.2474 64.1521 48.1532 64.2504 48.0602 64.3501C48.0233 64.3897 47.9864 64.4293 47.9498 64.4694C47.8452 64.5837 47.7421 64.6995 47.6406 64.817C47.6247 64.8355 47.6082 64.8533 47.5924 64.8719C47.4767 65.007 47.3636 65.1446 47.252 65.2835C47.2208 65.3222 47.1904 65.3616 47.1597 65.4007C47.0758 65.5073 46.9931 65.615 46.9117 65.7237C46.8803 65.7658 46.8487 65.8075 46.8177 65.8498C46.7112 65.995 46.6061 66.1414 46.504 66.2903C46.3944 66.4503 46.2882 66.6123 46.1848 66.7755ZM46.6737 79.2855V77.2055V75.4937C46.6737 75.3258 46.6769 75.1586 46.6831 74.9918C46.685 74.9369 46.6894 74.8825 46.6922 74.8277C46.6976 74.7164 46.7027 74.605 46.7109 74.4941C46.7159 74.4268 46.7235 74.3602 46.7295 74.293C46.7383 74.1953 46.7461 74.0975 46.757 74.0004C46.765 73.9293 46.7755 73.8587 46.7845 73.7878C46.7963 73.6954 46.8074 73.6028 46.821 73.5109C46.832 73.4377 46.8453 73.3651 46.8574 73.2922C46.8723 73.2036 46.886 73.1147 46.9026 73.0266C46.9167 72.952 46.933 72.8782 46.9483 72.804C46.9659 72.7184 46.9826 72.6325 47.0018 72.5475C47.0188 72.4725 47.0381 72.3982 47.0563 72.3235C47.0767 72.2404 47.0962 72.1567 47.1181 72.074C47.1381 71.9989 47.1602 71.9245 47.1813 71.8499C47.2043 71.7687 47.2267 71.6874 47.2512 71.6068C47.274 71.5317 47.2991 71.4574 47.3232 71.3828C47.3489 71.3037 47.3738 71.2245 47.4009 71.146C47.4266 71.0717 47.4543 70.9981 47.4812 70.9245C47.5096 70.8467 47.5375 70.7687 47.5673 70.6916C47.5957 70.6182 47.6259 70.5458 47.6554 70.4729C47.6864 70.3969 47.717 70.3203 47.7493 70.2449C47.7806 70.1721 47.8136 70.1002 47.8461 70.0282C47.8795 69.9539 47.9126 69.8794 47.9474 69.8059C47.9814 69.7341 48.0171 69.6631 48.0524 69.5919C48.0884 69.5193 48.1239 69.4466 48.1611 69.3748C48.1978 69.304 48.2361 69.2341 48.2741 69.1641C48.3125 69.0932 48.3504 69.0223 48.39 68.9521C48.4294 68.8825 48.4702 68.814 48.5106 68.7452C48.5514 68.676 48.5919 68.6066 48.6341 68.5379C48.676 68.4697 48.7192 68.4026 48.7623 68.3351C48.8056 68.2675 48.8485 68.1999 48.893 68.1331C48.9375 68.0663 48.9831 68.0003 49.0288 67.9344C49.0743 67.8686 49.1197 67.8028 49.1662 67.7378C49.2131 67.6725 49.2614 67.6081 49.3096 67.5435C49.3574 67.4795 49.405 67.4156 49.4539 67.3525C49.5032 67.2888 49.5537 67.2261 49.6042 67.1632C49.6542 67.1009 49.7044 67.0387 49.7555 66.9773C49.8071 66.9156 49.8597 66.8547 49.9124 66.7939C49.9648 66.7333 50.0175 66.6726 50.0711 66.6127C50.1248 66.5529 50.1797 66.4939 50.2345 66.4349C50.2892 66.3761 50.3439 66.3176 50.3997 66.2598C50.4557 66.2017 50.5127 66.1446 50.5699 66.0876C50.6269 66.0306 50.6842 65.9738 50.7423 65.9177C50.8002 65.8619 50.859 65.8069 50.9181 65.752C50.9774 65.697 51.037 65.6421 51.0973 65.5879C51.1575 65.5341 51.2183 65.481 51.2795 65.4282C51.3409 65.3752 51.4028 65.3224 51.4652 65.2704C51.5274 65.2187 51.5901 65.1677 51.6533 65.117C51.717 65.0659 51.7811 65.0153 51.8458 64.9652C51.9098 64.9159 51.9744 64.8672 52.0393 64.8188C52.1052 64.7697 52.1716 64.7211 52.2387 64.6732C52.3043 64.6262 52.3706 64.5799 52.4373 64.5339C52.5056 64.4869 52.5743 64.4405 52.6435 64.3947C52.7108 64.3502 52.7787 64.3062 52.8469 64.2628C52.9175 64.2179 52.9886 64.1736 53.0601 64.13C53.1291 64.088 53.1985 64.0464 53.2684 64.0056C53.341 63.9631 53.4141 63.9212 53.4878 63.8799C53.5584 63.8403 53.6295 63.8011 53.701 63.7627C53.7759 63.7225 53.8513 63.683 53.9272 63.644C53.9992 63.607 54.0715 63.5705 54.1444 63.5347C54.2017 63.5066 54.2596 63.4793 54.3175 63.452C56.0171 64.3454 57.9495 64.8538 59.9991 64.8538C62.0489 64.8538 63.9812 64.3454 65.6807 63.452C65.7382 63.4792 65.7957 63.5063 65.8525 63.5341C65.9263 63.5704 65.9993 63.6073 66.0722 63.6446C66.1472 63.6832 66.2219 63.7222 66.296 63.762C66.3683 63.8008 66.4402 63.8404 66.5115 63.8805C66.5843 63.9214 66.6565 63.9626 66.7282 64.0047C66.7991 64.0461 66.8695 64.0883 66.9393 64.1309C67.0099 64.174 67.08 64.2176 67.1495 64.2619C67.2188 64.3059 67.2874 64.3504 67.3556 64.3956C67.4241 64.4408 67.492 64.4868 67.5595 64.5332C67.6268 64.5796 67.6938 64.6263 67.7601 64.6738C67.8265 64.7213 67.8922 64.7694 67.9575 64.8181C68.0231 64.8668 68.0883 64.9159 68.1529 64.9658C68.217 65.0154 68.2805 65.0656 68.3437 65.1163C68.4072 65.1672 68.4704 65.2185 68.533 65.2705C68.5952 65.3222 68.6566 65.3747 68.7177 65.4275C68.7792 65.4806 68.8405 65.534 68.9009 65.5882C68.9608 65.6419 69.02 65.6964 69.0788 65.7509C69.1384 65.8063 69.1978 65.8619 69.2563 65.9183C69.3139 65.9738 69.3706 66.0301 69.427 66.0865C69.4845 66.144 69.542 66.2016 69.5984 66.26C69.6537 66.3174 69.7083 66.3755 69.7626 66.4339C69.8179 66.4933 69.8731 66.5529 69.9273 66.6132C69.9805 66.6725 70.0327 66.7325 70.0847 66.7927C70.1378 66.8539 70.1908 66.9153 70.2427 66.9776C70.2937 67.0386 70.3434 67.1004 70.3932 67.1623C70.444 67.2255 70.4948 67.2885 70.5444 67.3527C70.5931 67.4154 70.6404 67.4791 70.6879 67.5427C70.7363 67.6075 70.7847 67.6723 70.8319 67.738C70.8783 67.8025 70.9235 67.8682 70.9687 67.9336C71.0145 67.9999 71.0605 68.0661 71.1051 68.1333C71.1493 68.1996 71.1919 68.2668 71.2349 68.3339C71.2783 68.4018 71.3218 68.4696 71.364 68.5382C71.4057 68.6061 71.446 68.6751 71.4865 68.7437C71.5273 68.813 71.5684 68.8821 71.6079 68.9521C71.6474 69.022 71.6852 69.0927 71.7234 69.1632C71.7616 69.2335 71.8 69.3037 71.8367 69.3746C71.8739 69.4463 71.9093 69.519 71.9453 69.5915C71.9805 69.6627 72.0164 69.7338 72.0504 69.8057C72.0852 69.8792 72.1181 69.9535 72.1514 70.0276C72.1841 70.1 72.2172 70.172 72.2485 70.245C72.2807 70.3199 72.3108 70.3956 72.3416 70.4713C72.3716 70.5447 72.4021 70.6179 72.4307 70.692C72.4603 70.7687 72.488 70.8463 72.5163 70.9237C72.5434 70.9976 72.571 71.0713 72.5967 71.1458C72.624 71.2246 72.6491 71.3043 72.6748 71.3837C72.6988 71.458 72.7238 71.5319 72.7464 71.6068C72.7711 71.6874 72.7933 71.7689 72.8165 71.8501C72.8376 71.9246 72.8597 71.9989 72.8797 72.074C72.9016 72.1567 72.9211 72.2402 72.9415 72.3235C72.9598 72.3981 72.979 72.4725 72.996 72.5475C73.0152 72.6325 73.0318 72.7182 73.0495 72.8037C73.0648 72.8779 73.0811 72.9519 73.0952 73.0266C73.1116 73.114 73.1252 73.2021 73.1401 73.2901C73.1523 73.3638 73.1659 73.437 73.177 73.5111C73.1906 73.6022 73.2015 73.6942 73.2133 73.7858C73.2225 73.8573 73.2331 73.9284 73.2411 74.0003C73.252 74.0973 73.2598 74.1952 73.2686 74.2929C73.2747 74.36 73.2822 74.4267 73.2872 74.494C73.2955 74.6048 73.3005 74.7164 73.306 74.8279C73.3087 74.8825 73.3131 74.9369 73.315 74.9916C73.3212 75.1584 73.3244 75.3257 73.3244 75.4935V77.2052V79.2855H46.6737ZM76.2966 74.181C76.267 73.8126 76.2243 73.4465 76.1702 73.0827C76.1616 73.025 76.1513 72.9679 76.1421 72.9104C76.121 72.7787 76.0991 72.6473 76.0748 72.5163C76.0619 72.4474 76.0479 72.3787 76.0341 72.3099C76.0104 72.1903 75.9856 72.071 75.9591 71.9521C75.9431 71.8805 75.9264 71.8088 75.9095 71.7374C75.8818 71.6207 75.8528 71.5044 75.8225 71.3884C75.8042 71.3181 75.7859 71.2479 75.7666 71.1777C75.7335 71.0571 75.6981 70.937 75.6621 70.8171C75.643 70.7539 75.6249 70.6905 75.6051 70.6275C75.5605 70.4855 75.5133 70.3442 75.4648 70.2033C75.4511 70.164 75.4387 70.1242 75.4248 70.0849C75.361 69.9042 75.294 69.7245 75.2237 69.5459C75.2086 69.5077 75.1921 69.4699 75.1767 69.4316C75.1209 69.293 75.0637 69.1546 75.004 69.0173C74.9775 68.9563 74.9496 68.8962 74.9223 68.8355C74.8709 68.7212 74.8189 68.6073 74.7648 68.4942C74.7332 68.428 74.7005 68.3622 74.668 68.2964C74.6149 68.1891 74.5606 68.0821 74.5051 67.9758C74.4703 67.9093 74.4354 67.8431 74.3997 67.777C74.3423 67.6707 74.2833 67.5651 74.2234 67.4599C74.1874 67.3967 74.1519 67.3335 74.1151 67.2707C74.0486 67.1571 73.9798 67.0448 73.9102 66.9326C73.8779 66.8803 73.8464 66.8275 73.8134 66.7756C73.7099 66.6124 73.6037 66.4505 73.4939 66.2903C73.3917 66.1412 73.2866 65.9949 73.1801 65.8497C73.1493 65.8077 73.1178 65.7661 73.0867 65.7243C73.0049 65.615 72.9219 65.507 72.8376 65.4C72.8072 65.3614 72.7771 65.3224 72.7463 65.2841C72.6345 65.1447 72.521 65.0068 72.405 64.8715C72.3899 64.8539 72.3743 64.8368 72.3592 64.8193C72.2569 64.7009 72.1529 64.5841 72.0475 64.4689C72.0112 64.4293 71.9748 64.3901 71.9382 64.3508C71.8447 64.2506 71.7499 64.1515 71.654 64.0538C71.6224 64.0216 71.5914 63.9891 71.5595 63.9572C71.4348 63.832 71.308 63.7086 71.1795 63.5876C71.153 63.5627 71.1258 63.5385 71.0992 63.5137C70.9941 63.4161 70.888 63.3201 70.7806 63.2254C70.7398 63.1894 70.6986 63.1538 70.6575 63.1181C70.5504 63.0257 70.4423 62.9348 70.333 62.8453C70.3032 62.8209 70.274 62.796 70.2441 62.7718C70.1071 62.6611 69.9681 62.5528 69.8276 62.4467C69.7925 62.4202 69.7568 62.3945 69.7216 62.3683C69.6115 62.2867 69.5007 62.2062 69.3885 62.1273C69.3445 62.0963 69.3005 62.0654 69.2563 62.0349C69.1311 61.9485 69.0048 61.8639 68.8772 61.781C68.8548 61.7665 68.8329 61.7514 68.8105 61.737C68.6817 61.6543 68.5519 61.5731 68.4207 61.4938C68.4545 61.4616 68.4863 61.4273 68.5197 61.3946C68.6135 61.3039 68.7056 61.2117 68.7963 61.1179C68.847 61.0656 68.8973 61.0131 68.9469 60.9599C69.046 60.854 69.1424 60.7461 69.2377 60.6367C69.2782 60.5903 69.3189 60.5442 69.3587 60.497C69.4601 60.3769 69.5587 60.2543 69.6557 60.1301C69.6874 60.0896 69.7199 60.0497 69.7511 60.0087C69.8483 59.8809 69.9422 59.7506 70.0346 59.619C70.6247 59.7057 71.2193 59.7495 71.8121 59.7495C73.8618 59.7495 75.7941 59.2411 77.4937 58.3476C82.1595 60.5581 85.1375 65.2088 85.1375 70.3893V74.181H76.2966Z" fill="white"/>
</g>
<defs>
<clipPath id="clip0_844_53915">
<rect width="56.3265" height="56.3265" fill="white" transform="translate(31.8359 30.6113)"/>
</clipPath>
</defs>
</svg>
