<svg width="120" height="120" viewBox="0 0 120 120" fill="none" xmlns="http://www.w3.org/2000/svg">
<circle cx="60" cy="60" r="60" fill="#C19F56"/>
<path d="M82.5917 32.4775H67.8202V29.1723C67.8202 28.6156 67.3689 28.1641 66.812 28.1641H54.41C53.853 28.1641 53.4017 28.6156 53.4017 29.1723V32.4775H38.6303C36.9622 32.4775 35.6055 33.8345 35.6055 35.5024V82.6902C35.6055 84.3581 36.9624 85.7151 38.6303 85.7151H82.5917C84.2598 85.7151 85.6165 84.3581 85.6165 82.6902V35.5024C85.6165 33.8345 84.2596 32.4775 82.5917 32.4775ZM55.4183 30.1806H65.8037C65.8037 32.5727 65.8037 34.3989 65.8037 36.791H55.4183C55.4183 34.3953 55.4183 32.5721 55.4183 30.1806ZM83.5999 82.6902C83.5999 83.2462 83.1476 83.6985 82.5917 83.6985H38.6303C38.0744 83.6985 37.622 83.2462 37.622 82.6902V35.5024C37.622 34.9464 38.0744 34.4941 38.6303 34.4941H53.4017V37.7993C53.4017 38.356 53.853 38.8075 54.41 38.8075H66.812C67.3689 38.8075 67.8202 38.356 67.8202 37.7993V34.4941H82.5917C83.1476 34.4941 83.5999 34.9464 83.5999 35.5024V82.6902Z" fill="white" stroke="white" stroke-width="0.8"/>
<path d="M53.1483 44.5781H44.477C43.9201 44.5781 43.4688 45.0296 43.4688 45.5864V54.2577C43.4688 54.8145 43.9201 55.266 44.477 55.266H53.1483C53.7053 55.266 54.1566 54.8145 54.1566 54.2577V45.5864C54.1566 45.0294 53.7051 44.5781 53.1483 44.5781ZM52.14 53.2494H45.4853V46.5947H52.14V53.2494Z" fill="white" stroke="white" stroke-width="0.8"/>
<path d="M77.5491 53.248H58.9966C58.4396 53.248 57.9883 53.6996 57.9883 54.2563C57.9883 54.8131 58.4396 55.2646 58.9966 55.2646H77.5491C78.106 55.2646 78.5573 54.8131 78.5573 54.2563C78.5573 53.6994 78.1058 53.248 77.5491 53.248Z" fill="white" stroke="white" stroke-width="0.8"/>
<path d="M53.1483 62.9277H44.477C43.9201 62.9277 43.4688 63.3792 43.4688 63.936V72.6073C43.4688 73.1641 43.9201 73.6156 44.477 73.6156H53.1483C53.7053 73.6156 54.1566 73.1641 54.1566 72.6073V63.936C54.1566 63.379 53.7051 62.9277 53.1483 62.9277ZM52.14 71.599H45.4853V64.9443H52.14V71.599Z" fill="white" stroke="white" stroke-width="0.8"/>
<path d="M77.5491 71.5996H58.9966C58.4396 71.5996 57.9883 72.0511 57.9883 72.6079C57.9883 73.1647 58.4396 73.6162 58.9966 73.6162H77.5491C78.106 73.6162 78.5573 73.1647 78.5573 72.6079C78.5573 72.0509 78.1058 71.5996 77.5491 71.5996Z" fill="white" stroke="white" stroke-width="0.8"/>
</svg>
