<svg width="38" height="38" viewBox="0 0 38 38" fill="none" xmlns="http://www.w3.org/2000/svg">
<g clip-path="url(#clip0_909_134614)">
<path d="M28.9253 36.8103H28.0703V27.9041C28.0703 23.6861 25.2037 20.0618 21.0973 19.0881C20.9192 19.0453 20.7874 18.8945 20.7708 18.7128C20.7529 18.5299 20.8551 18.3566 21.0225 18.2817C22.8239 17.4802 23.9865 15.6918 23.9865 13.7265C23.9865 10.9762 21.7492 8.73781 18.999 8.73781C16.2487 8.73781 14.0115 10.9751 14.0115 13.7265C14.0115 15.693 15.1752 17.4814 16.9755 18.2817C17.1429 18.3566 17.2439 18.5299 17.2272 18.7128C17.2106 18.8945 17.0788 19.0465 16.9007 19.0881C12.7943 20.0618 9.9265 23.6861 9.9265 27.9041V36.8103H9.07031V27.9041C9.07031 23.6386 11.7505 19.9264 15.7037 18.5477C14.1291 17.4707 13.1553 15.6728 13.1553 13.7265C13.1553 11.3942 14.5293 9.37669 16.5088 8.43975C16.7332 7.86619 16.8603 7.17981 16.8603 6.52906C16.8603 3.77287 14.6694 1.61281 11.8728 1.61281C9.07625 1.61281 6.88412 3.77287 6.88412 6.52906C6.88412 8.50744 8.07519 10.3671 9.84813 11.1567C10.0168 11.2316 10.1177 11.4049 10.0999 11.5878C10.0833 11.7695 9.95144 11.9215 9.77331 11.9631C5.66694 12.9368 2.80031 16.5611 2.80031 20.7791V29.6853H1.94531V20.7791C1.94531 16.5112 4.62788 12.7979 8.58463 11.4204C7.02425 10.335 6.03031 8.48131 6.03031 6.52906C6.03031 3.34656 8.65112 0.757812 11.8728 0.757812C15.0945 0.757812 17.7153 3.34656 17.7153 6.52906C17.7153 7.048 17.6488 7.57525 17.5229 8.07162C18.4658 7.82581 19.5286 7.82581 20.4727 8.07162C20.3468 7.57406 20.2791 7.048 20.2791 6.52906C20.2791 3.34656 22.9011 0.757812 26.1228 0.757812C29.3445 0.757812 31.9665 3.34656 31.9665 6.52906C31.9665 8.48131 30.9702 10.335 29.411 11.4204C33.3678 12.7979 36.0515 16.5112 36.0515 20.7791V29.6853H35.1953V20.7791C35.1953 16.5611 32.3287 12.9368 28.2223 11.9631C28.0442 11.9203 27.9124 11.7695 27.8958 11.5878C27.8779 11.4049 27.9801 11.2316 28.1475 11.1567C29.9193 10.3671 31.1103 8.50744 31.1103 6.52906C31.1103 3.77287 28.9194 1.61281 26.1228 1.61281C23.3263 1.61281 21.1353 3.77287 21.1353 6.52906C21.1353 7.17862 21.2612 7.865 21.4868 8.43975C23.4676 9.37669 24.8415 11.3931 24.8415 13.7265C24.8415 15.674 23.8678 17.4719 22.2931 18.5489C26.2463 19.9276 28.9265 23.6397 28.9265 27.9052L28.9253 36.8103ZM22.4724 34.8628C22.3846 34.8628 22.2967 34.8355 22.2219 34.7809L18.9978 32.4439L15.7749 34.7809C15.6253 34.8901 15.4222 34.8901 15.2726 34.7809C15.123 34.6716 15.0601 34.4792 15.1182 34.3035L16.3497 30.5201L13.1268 28.1772C12.9772 28.0679 12.9142 27.8756 12.9712 27.6998C13.0282 27.5241 13.1933 27.4041 13.3774 27.4041H17.3614L18.5929 23.616C18.6487 23.4391 18.8126 23.3203 18.9978 23.3203C19.1831 23.3203 19.3469 23.4402 19.4039 23.616L20.6354 27.4041H24.6194C24.8047 27.4041 24.9686 27.5241 25.0268 27.6998C25.0837 27.8756 25.0208 28.0691 24.8712 28.1772L21.6471 30.5201L22.8786 34.3035C22.9356 34.4792 22.8726 34.6728 22.723 34.7809C22.6482 34.8355 22.5603 34.8628 22.4724 34.8628ZM18.9978 31.4891C19.0857 31.4891 19.1736 31.5164 19.2484 31.5711L21.659 33.3179L20.7387 30.4892C20.6817 30.3135 20.7446 30.1199 20.8942 30.0119L23.3049 28.2603H20.3243C20.139 28.2603 19.9751 28.1404 19.9181 27.9646L18.9978 25.1312L18.0775 27.9646C18.0205 28.1404 17.8554 28.2603 17.6714 28.2603H14.6919L17.1026 30.0119C17.2522 30.1211 17.3151 30.3135 17.2581 30.4892L16.3378 33.3179L18.7472 31.5711C18.8221 31.5164 18.9099 31.4891 18.9978 31.4891Z" fill="#14143C"/>
</g>
<defs>
<clipPath id="clip0_909_134614">
<rect width="38" height="38" fill="white"/>
</clipPath>
</defs>
</svg>
