<svg width="29" height="36" viewBox="0 0 29 36" fill="none" xmlns="http://www.w3.org/2000/svg">
<path d="M21.4137 7.08839C19.4631 4.86376 17.268 2.86021 14.8687 1.11469C14.7606 1.04004 14.6319 1 14.5 1C14.3681 1 14.2394 1.04004 14.1313 1.11469C11.732 2.8602 9.53688 4.86375 7.58631 7.08839C3.27754 11.9799 1 17.1164 1 21.9423C1 25.4768 2.42232 28.8666 4.95406 31.3659C7.4858 33.8651 10.9196 35.2692 14.5 35.2692C18.0804 35.2692 21.5142 33.8651 24.0459 31.3659C26.5777 28.8666 28 25.4768 28 21.9423C28 17.1164 25.7225 11.9799 21.4137 7.08839ZM14.5 34C11.2617 33.9964 8.15706 32.7249 5.86723 30.4644C3.5774 28.2039 2.28936 25.1391 2.28571 21.9423C2.28571 16.2472 5.68512 11.1863 8.53686 7.94348C10.3324 5.91076 12.3302 4.06109 14.5 2.42227C16.6698 4.06109 18.6676 5.91076 20.4631 7.94348C23.3149 11.1863 26.7143 16.2472 26.7143 21.9423C26.7106 25.1391 25.4226 28.2039 23.1328 30.4644C20.8429 32.7249 17.7383 33.9964 14.5 34ZM22.7396 23.327C22.4497 25.0098 21.6367 26.5619 20.4132 27.7681C19.1898 28.9744 17.6166 29.775 15.9116 30.0591C15.8761 30.065 15.8402 30.068 15.8042 30.068C15.643 30.0678 15.4878 30.0078 15.3692 29.9C15.2507 29.7921 15.1776 29.6443 15.1642 29.4857C15.1509 29.3272 15.1984 29.1694 15.2973 29.0438C15.3962 28.9182 15.5394 28.8338 15.6983 28.8074C17.14 28.5672 18.4703 27.8902 19.5048 26.8702C20.5393 25.8503 21.2268 24.5378 21.4719 23.1149C21.486 23.0327 21.5164 22.9541 21.5613 22.8835C21.6062 22.813 21.6647 22.7518 21.7335 22.7035C21.8024 22.6553 21.8802 22.6209 21.9625 22.6023C22.0448 22.5837 22.13 22.5813 22.2132 22.5953C22.2964 22.6092 22.3761 22.6392 22.4476 22.6835C22.5191 22.7278 22.581 22.7856 22.6299 22.8535C22.6788 22.9215 22.7136 22.9983 22.7325 23.0795C22.7513 23.1607 22.7537 23.2449 22.7396 23.327Z" fill="#14143C" stroke="#F3F3F3" stroke-width="0.3"/>
</svg>
