<svg width="40" height="44" viewBox="0 0 40 44" fill="none" xmlns="http://www.w3.org/2000/svg">
<path d="M39.1483 23.911L20.96 12.012V9.48876C22.9189 9.14857 24.5117 7.3881 24.5117 5.27399C24.5116 2.9174 22.5893 1 20.2327 1C17.8761 1 15.9561 2.9174 15.9561 5.27399C15.9561 5.66741 16.2738 5.98635 16.6673 5.98635C17.0607 5.98635 17.379 5.66741 17.379 5.27399C17.379 3.70293 18.6569 2.42464 20.2281 2.42464C21.7992 2.42464 23.0773 3.70293 23.0773 5.27399C23.0773 6.84514 21.8089 8.12335 20.2378 8.12335C19.8445 8.12335 19.5354 8.44229 19.5354 8.83571V12.012L1.32684 23.911C1.06319 24.0833 0.939161 24.3947 1.02907 24.6965C1.11914 24.9984 1.39165 25.1915 1.70681 25.1915H8.1379V33.7675V38.7539V40.1838C8.1379 41.7521 9.39634 42.9999 10.9678 42.9999H28.7754C30.3467 42.9999 31.6451 41.7521 31.6451 40.1838V38.7539V33.7675V25.1915H38.7485C39.0636 25.1915 39.3462 24.9985 39.4363 24.6965C39.5262 24.3947 39.412 24.0833 39.1483 23.911ZM30.2204 40.1839C30.2204 40.9666 29.5611 41.5754 28.7753 41.5754H10.9678C10.1819 41.5754 9.56261 40.9667 9.56261 40.1839V39.4383H30.2205V40.1839H30.2204ZM30.2204 38.0136H9.56261V34.4519H30.2205V38.0136H30.2204ZM30.2204 33.0272H9.56261V25.2141C9.56261 24.4315 10.1819 23.7668 10.9678 23.7668H28.7754C29.5612 23.7668 30.2205 24.4315 30.2205 25.2141V33.0272H30.2204ZM31.2411 23.7669C30.7479 22.8764 29.8284 22.3422 28.7754 22.3422H10.9678C9.91461 22.3422 8.99512 22.8764 8.50195 23.7668H4.09794L20.2277 13.2205L36.3574 23.7669H31.2411Z" fill="#14143C" stroke="#F3F3F3" stroke-width="0.5"/>
</svg>
